<svg version="1" xmlns="http://www.w3.org/2000/svg" width="3428" height="3428" viewBox="0 0 2571.000000 2571.000000"><path d="M1227.5 2c-3.3 1.1-8 2.2-10.5 2.6-2.5.3-5.2.7-6 .9-.8.2-3.5.7-6 1-6.1.8-8.7 1.2-14 2.1-2.5.4-5.6.8-7 1-1.4.2-4.1.5-6 .8-1.9.3-5.7.8-8.4 1.2-2.7.3-5.6.7-6.5.9-2.5.5-11.4 1.7-14.1 2-3.3.3-9.1 1.2-23.5 3.6-6.6 1.1-13.6 2.2-15.5 2.5-4.9.8-33.2 7-40.7 8.9-3.5.9-7.1 1.8-8.2 2-1 .2-5.1 1.3-9.1 2.5s-8 2.3-8.9 2.5c-1.9.4-16.3 4.6-24.1 7.1-3 1-5.7 1.8-6 1.9-.3.1-1.2.4-2 .8-.8.3-3.3 1.1-5.5 1.7-5.7 1.7-46.1 16.8-51.5 19.2-5.8 2.6-11.3 5-17.5 7.7-2.7 1.2-7.2 3.2-10 4.4-17.6 7.6-66 33.2-84.9 45-16.6 10.3-32.8 20.9-44.4 29.1-7.9 5.5-15.7 11-17.2 12.1-3.6 2.5-22.1 16.6-23.6 18-.6.5-2.9 2.3-5 4-3.5 2.7-14.3 11.8-21.9 18.3-53.1 45.5-105.8 104-145.4 161.7-5.7 8.2-11.6 16.8-13.1 19-16.7 24.2-42 69.4-59.2 105.5-10.5 21.9-30.5 69.6-32.3 76.5-.1.5-.5 1.7-.8 2.5-1.9 4.3-10.1 29.4-14.1 43-2.5 8.5-5 16.8-5.5 18.5-.9 2.8-3.9 14.2-4.6 17.5-.2.8-1.5 6.2-3 12-3.2 13.1-10.5 48.7-12.1 59-.3 2.5-.8 5.4-1 6.5-.2 1-.6 3.7-.9 6-.3 2.2-.8 5.1-1 6.5-.7 3.7-1.3 7.9-2 14-.3 3-.8 7.1-1 9-1.6 13.4-2.8 26.5-4.2 46.5-1 14.1-1 88 0 100.5.5 5.2 1 12.6 1.3 16.5.5 7.6 1 12.4 1.8 19.7.3 2.7.8 6.9 1.1 9.5.3 2.7.8 6.1 1 7.8.2 1.6.7 5 1 7.5.3 2.5.7 5.6.9 7 .3 1.4.7 4.3 1.1 6.5.3 2.2 1 6.9 1.6 10.5.6 3.6 1.3 7.6 1.5 9 .2 1.4 1.5 8.1 3 15 1.4 6.9 2.8 13.6 3 15 3.5 18.6 14.4 57.7 24.1 86.5 13.9 40.9 38.5 96.6 62.3 141 2.4 4.4 5.9 10.9 7.8 14.5 4.8 9.1 15.5 28.3 24.9 45 1.1 1.9 3.5 6.2 5.3 9.5 1.8 3.3 3.6 6.4 4 7 .4.5 9.2 15.6 19.5 33.5s19.6 33.8 20.5 35.5c1 1.6 4.3 7.5 7.5 13 7.1 12.5 9.3 16.2 11.6 20 1 1.6 2.6 4.6 3.7 6.5 1.1 1.9 9.3 16.1 18.2 31.5 8.9 15.4 17.3 30 18.7 32.5 1.4 2.5 4 7 5.8 10 1.8 3 4.2 7.1 5.3 9 1.1 1.9 3.6 6.4 5.7 10 2.1 3.6 4.8 8.3 6 10.5 1.8 3.2 21.4 37 29.5 51 1 1.6 4.6 7.9 8 14 3.4 6 9.1 15.8 12.6 21.8 3.5 5.9 6.4 11 6.4 11.3 0 .3.8 1.8 1.8 3.2 1.1 1.5 3.3 5.2 4.9 8.2 4.7 8.4 36.1 62.8 39.4 68.3 1.6 2.6 2.9 4.9 2.9 5.1 0 .2 3.8 6.8 8.3 14.7 4.6 7.9 9.5 16.4 10.9 18.9 1.4 2.5 6.7 11.7 11.8 20.5 5.1 8.8 10.3 17.8 11.6 20 1.2 2.2 9.7 17 18.9 33 9.2 15.9 17.6 30.5 18.6 32.3 1.1 1.8 3.8 6.6 6 10.5 2.3 4 5.3 9.2 6.7 11.7 1.4 2.5 5 8.8 8 14 3 5.2 6.4 11.1 7.5 13 1 1.9 2.3 3.9 2.7 4.5.4.5 2.1 3.5 3.7 6.5 1.7 3 6.3 11.1 10.3 18 3.9 6.9 8.2 14.3 9.5 16.5 1.2 2.2 4.8 8.5 8 14s6.9 12 8.3 14.4c1.4 2.5 3.8 6.8 5.5 9.5 1.6 2.8 4.3 7.6 6 10.6 1.6 3 3.4 6 3.9 6.7.5.7 1.8 2.7 2.7 4.5 4 7.6 7.2 13.2 8 14.2.4.6 1.9 3.1 3.3 5.6 2.8 5 42 73.4 53.3 93 4 6.9 8.4 14.5 9.7 17 1.4 2.5 6.6 11.5 11.5 20 5 8.5 10.1 17.5 11.5 20 1.4 2.5 5.5 9.6 9.2 15.9 3.6 6.2 6.6 11.5 6.6 11.6 0 .1 3.6 6.5 8.1 14.1 4.4 7.7 9.2 15.9 10.6 18.4 1.4 2.5 8.4 14.8 15.7 27.3 7.2 12.5 14 24.5 15.2 26.5 1.1 2 3 5.4 4.2 7.4 1.2 2.1 3.2 5.5 4.3 7.5 1.2 2.1 4.7 8.3 7.9 13.8s6.7 11.6 7.8 13.5c6.8 12 13.7 23.9 15.3 26.5 1 1.6 2.2 3.7 2.6 4.5.4.8 2.6 4.8 5 8.8 2.4 4 4.3 7.5 4.3 7.7 0 .3 1.2 2.4 2.7 4.8 1.5 2.3 6.2 10.5 10.6 18.2 4.4 7.7 9.1 16.1 10.6 18.6 7.6 13.2 46.4 80.6 47.1 81.9.5.8 4.4 7.6 8.6 15 9.7 17 19.6 32 20.9 31.7 1.3-.5 14.7-22.1 23.8-38.7 1.6-3 3.3-6 3.7-6.5.7-.9 32.6-56.3 38.1-66.2 1.2-2.1 9.9-17.3 19.4-33.8 9.5-16.5 18.2-31.6 19.2-33.5 1.1-1.9 4.4-7.5 7.2-12.3 2.8-4.9 5.1-9.1 5.1-9.5 0-.3.6-1.3 1.4-2.1.7-.9 2.9-4.5 4.8-8.1 2-3.6 5.9-10.6 8.8-15.5 2.9-5 6.2-10.6 7.2-12.5 1.1-1.9 9-15.6 17.5-30.4 8.5-14.8 16.6-29 18-31.5 1.4-2.5 2.9-5.1 3.3-5.6.4-.6 1.9-3 3.2-5.5 1.4-2.5 7.8-13.7 14.3-25 6.5-11.3 12.6-22 13.7-23.8 1-1.7 2.6-4.7 3.7-6.5 1-1.7 6.2-10.9 11.6-20.2 5.4-9.4 16.4-28.5 24.5-42.5 20.4-35.4 36.3-63 45.8-79.5 4.4-7.7 8.9-15.6 10.1-17.5 1.1-1.9 2.4-4.1 2.8-4.9.3-.8 3.5-6.3 6.9-12.2 3.5-6 7.4-12.8 8.7-15.1 1.4-2.4 5.7-9.9 9.7-16.8 4-6.9 8.6-15 10.2-18 1.7-3 3.4-6 3.8-6.5.4-.6 1.9-3 3.2-5.5 1.4-2.5 6.9-12 12.2-21.3 5.3-9.2 13.9-24.2 19.2-33.5 5.3-9.2 10.8-18.7 12.2-21.2 1.4-2.5 4.2-7.4 6.4-10.9 2.1-3.4 3.8-6.5 3.8-6.7 0-.2 2.3-4.1 5-8.8 2.8-4.7 5-8.8 5-9.2 0-.4.6-1.5 1.4-2.3.7-.9 2.5-3.6 3.8-6.1 3.1-5.7 37.5-65.5 39.9-69.5 1.1-1.7 2.3-3.9 2.9-5 .5-1.1 2.2-4.1 3.7-6.7 3.1-5.3 11.7-20.2 33-57.3 7.8-13.8 14.7-25.7 15.3-26.5.5-.8 3.9-6.7 7.5-13s7.7-13.5 9.1-16c11.1-19.1 43.1-74.6 45.6-79 3-5.3 30.6-53 42.8-74 5.9-10.2 11.8-20.3 13-22.5 1.2-2.2 4.6-8.1 7.5-13 4.7-7.9 35-60.1 39.5-68 .9-1.7 3.8-6.5 6.4-10.8 2.5-4.3 4.6-8 4.6-8.2 0-.2 2.2-4 5-8.5 2.7-4.5 5-8.3 5-8.5 0-.1 8.1-14.1 18-31s18-30.9 18-31.1c0-.3 1.1-2.1 2.4-4.2 1.2-2 2.3-3.9 2.2-4.2 0-.3.9-1.9 2-3.5 2.8-4 9.6-16.8 21.5-40.5 26.8-53.7 46.5-104.9 62.4-162.5 2-7.2 3.8-14.1 4.1-15.5.3-1.4 1.4-5.9 2.4-10 4.2-15.8 11.7-54.9 14.4-75 .3-1.9 1-7.1 1.7-11.5.6-4.4 1.3-9.6 1.4-11.5.6-6.2 1.5-15.1 2-19.4.3-2.2.7-7.5 1-11.6.3-4.1.9-11.6 1.2-16.5 1.6-20.6.7-108.1-1.2-122-.2-1.7-.6-6.8-1-11.5-.5-7.8-1.9-21.7-3-29.3-.2-1.8-.7-5.5-1-8.2-.6-4.6-1.6-12.4-3-22-.3-2.2-1-6.3-1.5-9-.6-2.8-1.2-6.6-1.5-8.5-.4-3.2-3-17.2-5.5-29.4-5.4-26.4-22.4-85.3-30.3-104.6-.6-1.4-1.1-2.7-1.2-3-.8-3.3-14.4-36.5-19.1-46.8-1.9-4.1-3.4-7.6-3.4-7.8 0-1.2-20.7-42.4-27.5-54.9-15-27.3-48.9-81.3-51.6-82.3-.5-.2-.9-.8-.9-1.3s-1.5-2.8-3.2-5.2c-1.8-2.4-4.2-5.6-5.3-7.1-5.8-8.2-27.9-36.3-36.7-46.8-30.6-36.3-64-70.2-99.8-101.2-17.2-14.9-15.9-13.9-31-25.7-36.8-28.9-67-49.1-111.5-74.9-34.7-20.1-87.4-44.1-128-58.3-24.9-8.7-58.7-18.9-70.4-21.2-.9-.2-5.2-1.2-9.6-2.3-10.1-2.6-32.1-7.2-41.5-8.7-2.5-.4-5.2-.9-6-1-1.3-.2-5.9-1-13-2-1.4-.3-6.8-1.1-12-1.9-9-1.4-12.7-2-21-3.2-1.9-.3-7.5-1.1-12.5-1.9-4.9-.8-11-1.7-13.5-2-2.5-.3-5.7-.8-7.2-1.1-1.6-.2-4-.6-5.5-.8-1.6-.3-4.8-.8-7.3-1.1-2.5-.3-7.2-1-10.5-1.5-3.3-.6-29.4-1-58-.9-48.6 0-52.4.1-58 1.9z"/></svg>