<svg id="svg" version="1.1" width="400" height="600" viewBox="0 0 400 600" xmlns="http://www.w3.org/2000/svg" xmlns:xlink="http://www.w3.org/1999/xlink" ><g id="svgg"><path id="path0" d="M188.440 26.643 C 188.361 26.722,187.695 26.878,186.961 26.989 C 186.226 27.100,183.431 27.545,180.750 27.978 C 173.995 29.069,168.278 29.931,165.678 30.251 C 164.469 30.400,162.391 30.798,161.058 31.136 C 159.726 31.474,158.446 31.750,158.214 31.750 C 157.981 31.750,156.535 32.144,155.000 32.625 C 153.465 33.106,151.965 33.499,151.667 33.498 C 151.032 33.496,146.935 34.759,144.250 35.786 C 143.219 36.180,142.183 36.502,141.949 36.501 C 141.545 36.500,141.097 36.655,139.375 37.391 C 138.963 37.567,138.287 37.792,137.875 37.890 C 137.463 37.989,136.338 38.433,135.375 38.879 C 133.581 39.708,129.717 41.250,129.431 41.250 C 129.344 41.250,128.700 41.587,128.000 42.000 C 127.300 42.413,126.582 42.750,126.404 42.750 C 126.226 42.750,125.471 43.085,124.727 43.495 C 123.984 43.905,123.244 44.243,123.084 44.245 C 122.924 44.248,122.196 44.644,121.465 45.125 C 120.734 45.606,119.981 46.000,119.792 46.000 C 119.603 46.000,118.947 46.337,118.336 46.750 C 117.725 47.163,117.060 47.500,116.859 47.500 C 116.531 47.500,115.906 47.865,112.750 49.902 C 112.269 50.212,111.537 50.610,111.125 50.786 C 110.713 50.962,110.057 51.363,109.668 51.678 C 109.280 51.992,108.862 52.250,108.740 52.250 C 108.618 52.250,107.535 52.925,106.334 53.750 C 105.133 54.575,104.061 55.250,103.952 55.250 C 103.769 55.250,102.883 55.941,102.110 56.688 C 101.931 56.859,101.674 57.000,101.537 57.000 C 101.400 57.000,100.970 57.266,100.582 57.591 C 100.193 57.916,99.622 58.261,99.313 58.358 C 99.003 58.454,98.750 58.628,98.750 58.743 C 98.750 58.857,98.151 59.349,97.418 59.835 C 96.686 60.321,95.941 60.895,95.763 61.110 C 95.585 61.324,95.329 61.500,95.194 61.500 C 95.060 61.500,94.145 62.204,93.162 63.065 C 92.179 63.925,90.869 65.018,90.250 65.494 C 88.283 67.005,84.469 70.325,83.135 71.688 C 82.697 72.134,82.275 72.500,82.197 72.500 C 82.006 72.500,73.990 80.581,72.250 82.528 C 71.494 83.374,70.537 84.439,70.125 84.894 C 69.713 85.350,69.206 85.927,69.000 86.177 C 68.794 86.427,67.894 87.519,67.000 88.604 C 66.106 89.689,65.194 90.769,64.972 91.004 C 64.750 91.239,64.361 91.784,64.106 92.215 C 63.851 92.647,63.564 93.000,63.469 93.000 C 63.373 93.000,62.413 94.193,61.335 95.651 C 60.257 97.109,59.066 98.671,58.688 99.122 C 58.309 99.572,58.000 100.114,58.000 100.325 C 58.000 100.536,57.908 100.746,57.795 100.792 C 57.552 100.891,55.630 103.611,54.763 105.085 C 54.426 105.657,54.001 106.276,53.819 106.461 C 53.637 106.646,53.310 107.142,53.093 107.563 C 52.875 107.984,52.484 108.557,52.223 108.836 C 51.963 109.116,51.750 109.548,51.750 109.797 C 51.750 110.046,51.661 110.250,51.552 110.250 C 51.443 110.250,51.031 110.897,50.636 111.688 C 50.241 112.478,49.619 113.519,49.254 114.000 C 48.888 114.481,48.443 115.241,48.264 115.688 C 48.086 116.134,47.849 116.500,47.740 116.500 C 47.630 116.500,47.466 116.834,47.377 117.242 C 47.287 117.650,46.948 118.376,46.622 118.856 C 46.296 119.336,45.763 120.267,45.436 120.927 C 45.110 121.586,44.671 122.463,44.461 122.875 C 42.588 126.559,42.250 127.275,42.250 127.568 C 42.250 127.752,41.982 128.266,41.655 128.709 C 41.328 129.152,40.914 130.040,40.734 130.683 C 40.554 131.325,40.147 132.340,39.828 132.939 C 39.510 133.537,39.250 134.236,39.250 134.492 C 39.250 134.749,39.162 134.996,39.056 135.042 C 38.819 135.143,37.500 138.066,37.500 138.489 C 37.500 138.654,37.237 139.484,36.916 140.332 C 36.594 141.181,36.187 142.325,36.010 142.875 C 35.834 143.425,35.422 144.469,35.095 145.195 C 34.768 145.921,34.500 146.666,34.500 146.851 C 34.500 147.036,34.322 147.679,34.105 148.281 C 33.888 148.883,33.488 150.219,33.218 151.250 C 32.947 152.281,32.394 154.087,31.988 155.262 C 31.582 156.437,31.250 157.637,31.250 157.927 C 31.250 158.218,31.016 159.169,30.729 160.040 C 30.443 160.912,30.114 162.412,29.999 163.375 C 29.884 164.338,29.497 166.306,29.139 167.750 C 28.781 169.194,28.392 171.106,28.275 172.000 C 28.158 172.894,27.722 175.706,27.305 178.250 C 25.641 188.419,25.635 213.670,27.294 223.500 C 27.700 225.906,28.136 228.647,28.263 229.591 C 28.390 230.535,28.832 232.644,29.247 234.277 C 29.661 235.910,30.000 237.586,30.000 238.000 C 30.000 238.830,30.848 242.138,32.148 246.375 C 32.611 247.887,33.158 249.783,33.363 250.587 C 33.744 252.081,35.036 255.776,35.649 257.125 C 35.837 257.538,36.378 259.000,36.852 260.375 C 37.857 263.293,38.665 265.168,39.007 265.379 C 39.141 265.462,39.250 265.742,39.250 266.002 C 39.250 266.261,39.531 267.003,39.875 267.649 C 40.219 268.296,40.499 268.948,40.497 269.100 C 40.495 269.334,43.211 275.044,44.435 277.375 C 44.651 277.788,45.609 279.644,46.564 281.500 C 47.518 283.356,48.666 285.494,49.115 286.250 C 49.563 287.006,50.199 288.188,50.528 288.875 C 50.856 289.563,51.266 290.274,51.438 290.455 C 51.609 290.637,51.750 291.003,51.750 291.268 C 51.750 291.533,51.849 291.750,51.970 291.750 C 52.090 291.750,52.329 292.087,52.500 292.500 C 52.671 292.913,52.897 293.250,53.003 293.250 C 53.109 293.250,53.264 293.523,53.348 293.858 C 53.432 294.192,53.649 294.614,53.829 294.795 C 54.010 294.977,54.465 295.744,54.839 296.500 C 55.856 298.551,57.069 300.636,57.562 301.181 C 57.803 301.447,58.000 301.790,58.000 301.945 C 58.000 302.099,58.319 302.709,58.708 303.300 C 59.097 303.891,59.561 304.741,59.738 305.188 C 59.916 305.634,60.141 306.000,60.240 306.000 C 60.338 306.000,60.725 306.625,61.099 307.389 C 61.749 308.717,63.456 311.539,63.995 312.177 C 64.135 312.343,64.250 312.644,64.250 312.847 C 64.250 313.049,64.401 313.366,64.587 313.551 C 64.772 313.736,65.128 314.335,65.378 314.881 C 65.629 315.428,66.181 316.381,66.606 317.000 C 67.032 317.619,67.601 318.547,67.872 319.063 C 68.142 319.578,68.438 320.000,68.530 320.000 C 68.621 320.000,68.772 320.305,68.866 320.678 C 68.960 321.051,69.366 321.844,69.768 322.441 C 70.171 323.037,70.500 323.633,70.500 323.765 C 70.500 323.896,70.847 324.481,71.271 325.065 C 71.695 325.648,72.204 326.462,72.403 326.875 C 72.602 327.288,73.209 328.356,73.751 329.250 C 74.293 330.144,74.982 331.381,75.281 332.000 C 75.581 332.619,76.298 333.856,76.875 334.750 C 77.453 335.644,78.446 337.344,79.082 338.528 C 79.718 339.712,80.694 341.400,81.250 342.278 C 81.807 343.156,82.492 344.359,82.774 344.951 C 83.055 345.543,83.615 346.516,84.018 347.113 C 84.421 347.709,84.750 348.271,84.750 348.361 C 84.750 348.620,87.265 352.730,87.520 352.888 C 87.647 352.966,87.750 353.240,87.750 353.497 C 87.750 353.754,87.903 354.117,88.089 354.303 C 88.276 354.490,88.821 355.370,89.300 356.259 C 90.876 359.180,91.124 359.623,91.250 359.750 C 91.704 360.204,92.500 361.542,92.500 361.850 C 92.500 362.054,92.619 362.294,92.765 362.385 C 92.911 362.475,93.136 362.791,93.265 363.087 C 93.394 363.383,93.612 363.822,93.749 364.063 C 93.887 364.303,94.105 364.697,94.232 364.938 C 94.360 365.178,95.020 366.275,95.699 367.375 C 96.379 368.475,97.187 369.874,97.496 370.484 C 97.805 371.094,98.214 371.749,98.404 371.940 C 98.594 372.130,98.750 372.493,98.750 372.747 C 98.750 373.001,98.838 373.246,98.946 373.292 C 99.236 373.415,100.250 375.225,100.250 375.618 C 100.250 375.805,100.373 375.999,100.523 376.049 C 100.836 376.154,102.679 379.230,103.606 381.195 C 103.949 381.921,104.402 382.688,104.614 382.900 C 104.827 383.112,105.000 383.441,105.000 383.630 C 105.000 383.819,105.253 384.250,105.563 384.587 C 105.872 384.924,106.671 386.252,107.339 387.538 C 108.007 388.823,108.922 390.438,109.372 391.125 C 109.823 391.813,110.613 393.163,111.127 394.125 C 111.642 395.087,112.151 395.988,112.258 396.125 C 112.490 396.425,113.622 398.484,114.317 399.875 C 114.592 400.425,115.083 401.193,115.409 401.582 C 115.734 401.970,116.000 402.404,116.000 402.545 C 116.000 402.687,116.329 403.291,116.732 403.887 C 117.135 404.484,117.693 405.457,117.972 406.049 C 118.252 406.641,118.738 407.529,119.053 408.023 C 120.389 410.117,121.245 411.646,121.248 411.938 C 121.249 412.109,121.349 412.250,121.470 412.250 C 121.590 412.250,121.836 412.616,122.015 413.063 C 122.194 413.509,122.811 414.606,123.385 415.500 C 124.370 417.033,125.354 418.753,126.889 421.625 C 127.256 422.313,127.700 423.044,127.874 423.250 C 128.048 423.456,128.272 423.906,128.371 424.250 C 128.470 424.594,128.877 425.291,129.277 425.799 C 129.676 426.308,130.115 426.983,130.252 427.299 C 130.390 427.616,130.946 428.663,131.489 429.625 C 132.031 430.587,132.757 431.897,133.103 432.535 C 133.448 433.173,133.900 433.864,134.107 434.071 C 134.314 434.278,134.770 435.050,135.120 435.786 C 135.470 436.523,135.952 437.456,136.191 437.861 C 136.430 438.266,137.214 439.589,137.934 440.801 C 138.654 442.013,139.484 443.482,139.780 444.065 C 140.075 444.648,140.400 445.181,140.501 445.250 C 140.602 445.319,140.905 445.825,141.175 446.375 C 141.920 447.892,143.212 450.214,143.728 450.960 C 144.558 452.163,145.231 453.354,145.903 454.813 C 146.267 455.603,146.650 456.250,146.752 456.250 C 146.855 456.250,147.087 456.616,147.268 457.063 C 147.449 457.509,147.659 457.931,147.736 458.000 C 148.050 458.282,149.000 459.745,149.000 459.947 C 149.000 460.156,150.701 463.205,151.540 464.500 C 152.084 465.340,153.085 467.101,153.884 468.625 C 154.244 469.313,154.699 470.053,154.895 470.270 C 155.090 470.487,155.250 470.846,155.250 471.067 C 155.250 471.289,155.365 471.542,155.506 471.629 C 155.647 471.716,156.144 472.545,156.610 473.470 C 157.076 474.396,157.615 475.284,157.807 475.444 C 158.000 475.604,158.422 476.300,158.746 476.992 C 159.070 477.684,159.429 478.250,159.543 478.250 C 159.657 478.250,159.750 478.476,159.750 478.753 C 159.750 479.029,160.144 479.815,160.625 480.500 C 161.106 481.185,161.500 481.879,161.500 482.044 C 161.500 482.208,161.728 482.585,162.006 482.881 C 162.482 483.388,162.808 483.948,164.766 487.625 C 165.205 488.450,165.643 489.181,165.740 489.250 C 165.836 489.319,166.187 489.938,166.520 490.625 C 166.852 491.313,167.265 491.965,167.437 492.075 C 167.609 492.185,167.750 492.457,167.750 492.680 C 167.750 492.903,167.907 493.263,168.100 493.480 C 168.425 493.848,168.969 494.800,170.821 498.250 C 171.228 499.006,171.771 499.826,172.030 500.072 C 172.288 500.318,172.500 500.678,172.500 500.872 C 172.500 501.066,172.838 501.725,173.250 502.336 C 173.662 502.947,174.000 503.562,174.000 503.702 C 174.000 503.842,174.394 504.554,174.875 505.285 C 175.356 506.016,175.750 506.739,175.750 506.893 C 175.750 507.047,175.988 507.387,176.279 507.649 C 176.570 507.911,177.072 508.719,177.394 509.445 C 177.716 510.171,178.152 510.938,178.364 511.150 C 178.577 511.362,178.750 511.691,178.750 511.880 C 178.750 512.070,179.115 512.765,179.562 513.425 C 180.008 514.085,180.626 515.131,180.935 515.750 C 181.631 517.142,182.406 518.426,183.027 519.216 C 183.287 519.547,183.500 519.913,183.500 520.030 C 183.500 520.147,183.838 520.791,184.250 521.461 C 184.662 522.132,185.000 522.825,185.000 523.002 C 185.000 523.179,185.394 523.804,185.875 524.391 C 186.356 524.979,186.750 525.630,186.750 525.840 C 186.750 526.049,186.863 526.290,187.001 526.375 C 187.138 526.460,187.596 527.226,188.019 528.078 C 188.441 528.929,188.932 529.794,189.111 530.000 C 189.290 530.206,189.619 530.769,189.843 531.250 C 190.066 531.731,190.531 532.452,190.875 532.851 C 191.219 533.251,191.500 533.741,191.500 533.940 C 191.500 534.139,191.838 534.803,192.250 535.414 C 192.662 536.025,193.000 536.639,193.000 536.779 C 193.000 536.919,193.269 537.391,193.598 537.829 C 193.926 538.267,194.437 539.131,194.733 539.750 C 195.213 540.754,196.538 542.989,197.253 544.000 C 197.399 544.206,197.655 544.617,197.822 544.914 C 200.316 549.342,200.087 549.436,204.192 542.296 C 204.641 541.514,205.083 540.714,205.173 540.517 C 205.264 540.321,205.712 539.592,206.169 538.898 C 206.626 538.204,207.000 537.542,207.000 537.426 C 207.000 537.310,207.321 536.745,207.714 536.170 C 208.107 535.595,208.669 534.619,208.962 534.000 C 209.255 533.381,209.945 532.200,210.495 531.375 C 211.046 530.550,211.562 529.706,211.642 529.500 C 211.721 529.294,211.895 528.923,212.027 528.676 C 212.160 528.430,212.613 527.586,213.034 526.801 C 213.455 526.017,214.070 525.017,214.400 524.579 C 214.730 524.141,215.000 523.717,215.000 523.637 C 215.000 523.556,215.281 523.045,215.625 522.500 C 215.969 521.955,216.250 521.394,216.250 521.252 C 216.250 521.111,216.644 520.435,217.125 519.750 C 217.606 519.065,218.000 518.387,218.000 518.242 C 218.000 518.098,218.207 517.675,218.460 517.302 C 219.154 516.281,220.491 514.042,221.317 512.519 C 221.721 511.773,222.209 511.005,222.401 510.813 C 222.593 510.621,222.750 510.292,222.750 510.081 C 222.750 509.870,223.088 509.197,223.500 508.586 C 223.912 507.975,224.250 507.405,224.250 507.320 C 224.250 507.234,224.409 506.987,224.604 506.770 C 224.799 506.553,225.343 505.644,225.813 504.750 C 227.457 501.625,228.310 500.124,228.513 499.995 C 228.626 499.923,228.843 499.586,228.995 499.245 C 229.392 498.356,229.898 497.502,230.221 497.179 C 230.374 497.026,230.500 496.734,230.500 496.532 C 230.500 496.330,230.657 495.987,230.850 495.770 C 231.157 495.423,231.854 494.214,233.242 491.625 C 233.782 490.616,234.548 489.448,234.934 489.045 C 235.108 488.863,235.250 488.559,235.250 488.370 C 235.250 488.180,235.587 487.525,236.000 486.914 C 236.412 486.303,236.750 485.659,236.750 485.483 C 236.750 485.308,236.899 484.987,237.081 484.770 C 237.626 484.118,239.844 480.444,240.305 479.427 C 240.541 478.906,240.907 478.307,241.117 478.097 C 241.328 477.886,241.500 477.552,241.500 477.355 C 241.500 477.157,241.866 476.457,242.312 475.799 C 243.168 474.539,243.192 474.498,244.492 472.125 C 244.944 471.300,245.452 470.456,245.620 470.250 C 245.789 470.044,246.095 469.538,246.300 469.125 C 247.051 467.617,247.956 466.014,248.450 465.321 C 248.988 464.565,249.883 462.990,251.046 460.750 C 251.438 459.994,252.201 458.700,252.740 457.875 C 253.279 457.050,254.142 455.531,254.658 454.500 C 255.174 453.469,256.008 452.006,256.512 451.250 C 257.015 450.494,257.907 448.975,258.494 447.875 C 259.081 446.775,259.694 445.706,259.856 445.500 C 260.019 445.294,260.580 444.281,261.104 443.250 C 261.627 442.219,262.256 441.150,262.500 440.875 C 262.745 440.600,263.251 439.764,263.624 439.018 C 263.998 438.271,264.460 437.504,264.652 437.312 C 264.843 437.121,265.000 436.792,265.000 436.581 C 265.000 436.370,265.337 435.697,265.750 435.086 C 266.162 434.475,266.500 433.905,266.500 433.820 C 266.500 433.734,266.683 433.462,266.906 433.215 C 267.285 432.796,267.784 431.913,269.776 428.125 C 270.209 427.300,270.640 426.569,270.732 426.500 C 270.903 426.372,271.716 425.004,272.814 423.000 C 275.013 418.983,276.790 415.878,276.958 415.761 C 277.065 415.686,277.415 415.119,277.735 414.500 C 279.231 411.606,279.565 411.012,280.616 409.375 C 281.234 408.413,282.027 407.023,282.378 406.286 C 282.730 405.550,283.182 404.782,283.384 404.581 C 283.585 404.379,283.750 404.082,283.751 403.920 C 283.752 403.758,284.094 403.119,284.511 402.500 C 284.928 401.881,285.789 400.419,286.424 399.250 C 287.059 398.081,287.716 396.956,287.884 396.750 C 288.052 396.544,288.674 395.419,289.267 394.250 C 289.860 393.081,290.539 391.900,290.776 391.625 C 291.191 391.143,291.744 390.181,293.292 387.250 C 294.196 385.538,294.837 384.413,295.001 384.250 C 295.409 383.844,296.500 382.048,296.500 381.782 C 296.500 381.608,296.837 380.975,297.250 380.375 C 297.662 379.775,298.000 379.190,298.000 379.073 C 298.000 378.957,298.197 378.589,298.438 378.256 C 298.929 377.576,300.327 375.203,300.798 374.250 C 300.968 373.906,301.390 373.175,301.736 372.625 C 302.337 371.668,303.289 369.922,304.278 367.960 C 304.532 367.457,304.836 367.007,304.953 366.960 C 305.070 366.913,305.732 365.806,306.424 364.500 C 307.116 363.194,308.151 361.394,308.722 360.500 C 309.294 359.606,310.045 358.313,310.391 357.625 C 310.737 356.938,311.520 355.531,312.131 354.500 C 312.742 353.469,313.476 352.158,313.762 351.587 C 314.048 351.015,314.500 350.351,314.766 350.110 C 315.032 349.870,315.250 349.473,315.250 349.229 C 315.250 348.985,315.398 348.637,315.578 348.455 C 315.877 348.155,316.853 346.459,318.422 343.512 C 318.747 342.900,319.236 342.192,319.507 341.940 C 319.778 341.687,320.000 341.269,320.000 341.011 C 320.000 340.753,320.088 340.504,320.196 340.458 C 320.444 340.353,321.500 338.551,321.500 338.234 C 321.500 338.103,321.837 337.530,322.250 336.960 C 322.663 336.391,323.000 335.817,323.000 335.686 C 323.000 335.555,323.337 335.021,323.750 334.500 C 324.162 333.979,324.500 333.420,324.500 333.256 C 324.500 333.093,324.894 332.367,325.375 331.641 C 325.856 330.916,326.250 330.253,326.250 330.166 C 326.250 330.080,326.644 329.394,327.125 328.642 C 327.606 327.890,328.000 327.159,328.000 327.019 C 328.000 326.879,328.323 326.283,328.719 325.695 C 330.136 323.585,331.000 322.160,331.000 321.931 C 331.000 321.803,331.337 321.197,331.750 320.586 C 332.162 319.975,332.500 319.361,332.500 319.221 C 332.500 319.081,332.780 318.600,333.122 318.151 C 333.464 317.702,334.011 316.838,334.337 316.230 C 335.596 313.883,336.343 312.602,336.788 312.029 C 337.042 311.701,337.250 311.324,337.250 311.192 C 337.250 311.060,337.503 310.599,337.813 310.167 C 338.122 309.735,338.575 308.986,338.820 308.503 C 339.065 308.020,339.704 306.894,340.241 306.000 C 340.778 305.106,341.570 303.700,342.001 302.875 C 342.433 302.050,342.947 301.197,343.143 300.980 C 343.339 300.763,343.500 300.491,343.500 300.375 C 343.500 300.259,343.656 299.987,343.847 299.770 C 344.037 299.553,344.559 298.700,345.005 297.875 C 345.452 297.050,346.094 295.869,346.431 295.250 C 346.769 294.631,347.548 293.359,348.163 292.422 C 348.778 291.485,349.502 290.248,349.773 289.672 C 350.043 289.096,350.767 287.781,351.381 286.750 C 351.995 285.719,352.563 284.706,352.642 284.500 C 352.722 284.294,352.902 283.911,353.044 283.650 C 353.186 283.388,353.965 281.959,354.776 280.473 C 355.587 278.987,356.250 277.549,356.250 277.276 C 356.250 277.003,356.371 276.705,356.518 276.614 C 356.902 276.376,360.750 267.956,360.750 267.353 C 360.750 267.200,361.044 266.523,361.404 265.850 C 361.763 265.176,362.205 264.175,362.386 263.625 C 362.566 263.075,362.904 262.119,363.138 261.500 C 363.371 260.881,363.651 260.038,363.760 259.625 C 363.870 259.212,364.306 258.048,364.730 257.037 C 365.153 256.025,365.500 255.006,365.500 254.771 C 365.500 254.536,365.726 253.877,366.002 253.306 C 366.277 252.735,366.672 251.448,366.878 250.446 C 367.084 249.445,367.355 248.400,367.481 248.125 C 367.876 247.258,368.277 245.915,368.489 244.750 C 368.601 244.131,369.043 242.475,369.471 241.070 C 369.900 239.665,370.250 238.111,370.250 237.616 C 370.250 237.121,370.525 235.626,370.862 234.295 C 371.198 232.964,371.584 231.031,371.720 230.000 C 371.855 228.969,372.243 226.438,372.582 224.375 C 375.048 209.364,374.292 181.962,370.976 166.125 C 370.573 164.200,370.241 162.287,370.239 161.875 C 370.237 161.463,369.962 160.169,369.629 159.000 C 369.297 157.831,368.900 156.369,368.748 155.750 C 368.595 155.131,368.142 153.613,367.741 152.375 C 367.339 151.137,366.936 149.619,366.845 149.000 C 366.754 148.381,366.473 147.463,366.221 146.959 C 365.968 146.455,365.641 145.504,365.493 144.845 C 365.346 144.187,364.953 143.107,364.621 142.446 C 364.289 141.785,363.891 140.767,363.737 140.185 C 363.374 138.814,362.389 136.277,361.474 134.355 C 361.076 133.519,360.750 132.702,360.750 132.539 C 360.750 132.376,360.639 132.048,360.504 131.809 C 360.369 131.570,359.748 130.276,359.124 128.934 C 357.285 124.974,356.774 123.897,356.549 123.500 C 356.196 122.880,355.214 120.969,354.430 119.375 C 354.023 118.550,353.596 117.815,353.480 117.741 C 353.364 117.668,353.083 117.162,352.856 116.618 C 352.629 116.074,352.174 115.310,351.846 114.920 C 351.518 114.531,351.250 114.100,351.250 113.963 C 351.250 113.827,350.913 113.225,350.500 112.625 C 350.087 112.025,349.750 111.463,349.750 111.375 C 349.750 111.136,347.508 107.474,346.901 106.722 C 346.304 105.981,346.275 105.940,344.281 102.870 C 343.475 101.630,342.632 100.464,342.408 100.277 C 342.184 100.091,342.000 99.830,342.000 99.696 C 342.000 99.474,341.404 98.638,339.375 96.014 C 338.962 95.481,338.344 94.676,338.000 94.226 C 337.656 93.776,337.196 93.231,336.978 93.016 C 336.759 92.801,336.140 92.059,335.601 91.367 C 334.162 89.519,333.943 89.258,333.188 88.494 C 332.809 88.112,332.500 87.679,332.500 87.532 C 332.500 87.385,332.163 87.015,331.750 86.710 C 331.337 86.405,331.000 86.037,331.000 85.890 C 331.000 85.744,330.606 85.311,330.125 84.927 C 329.644 84.543,329.250 84.132,329.250 84.015 C 329.250 83.422,317.121 71.481,313.815 68.820 C 313.435 68.514,312.619 67.833,312.000 67.305 C 311.381 66.778,310.313 65.904,309.625 65.363 C 308.938 64.823,307.634 63.732,306.728 62.940 C 305.823 62.148,304.976 61.500,304.847 61.500 C 304.717 61.500,304.432 61.291,304.213 61.035 C 303.994 60.779,303.181 60.149,302.407 59.635 C 301.633 59.122,301.000 58.600,301.000 58.476 C 301.000 58.352,300.839 58.250,300.643 58.250 C 300.446 58.250,300.122 58.086,299.922 57.886 C 299.722 57.686,299.210 57.320,298.786 57.074 C 298.361 56.827,296.576 55.655,294.819 54.470 C 293.062 53.284,290.894 51.886,290.000 51.362 C 289.106 50.837,287.419 49.830,286.250 49.123 C 285.081 48.416,283.056 47.294,281.750 46.630 C 280.444 45.966,278.955 45.159,278.442 44.836 C 277.930 44.514,277.435 44.250,277.343 44.250 C 277.251 44.250,276.489 43.921,275.650 43.519 C 269.957 40.791,267.598 39.750,267.112 39.750 C 266.907 39.750,266.320 39.486,265.808 39.163 C 265.295 38.840,264.425 38.432,263.875 38.256 C 263.325 38.081,262.369 37.738,261.750 37.495 C 258.613 36.262,250.258 33.500,249.665 33.500 C 249.428 33.500,248.085 33.150,246.680 32.721 C 245.275 32.293,243.619 31.846,243.000 31.728 C 242.381 31.610,241.453 31.398,240.938 31.257 C 240.422 31.115,239.578 30.886,239.063 30.746 C 238.547 30.606,236.944 30.335,235.500 30.143 C 234.056 29.950,231.525 29.562,229.875 29.280 C 224.048 28.282,216.350 27.034,214.375 26.767 C 212.310 26.488,188.708 26.375,188.440 26.643 " stroke="none" fill="#f44444" fill-rule="evenodd"></path><path id="path1" d="M185.875 0.399 C 183.938 0.849,165.227 3.750,164.265 3.750 C 162.475 3.750,151.347 6.119,144.750 7.904 C 142.603 8.485,138.932 9.622,133.375 11.427 C 131.661 11.984,128.310 13.258,126.625 13.993 C 126.350 14.113,125.803 14.281,125.410 14.367 C 124.672 14.528,124.029 14.803,120.029 16.660 C 118.739 17.260,117.576 17.750,117.444 17.750 C 117.313 17.750,114.566 19.072,111.341 20.688 C 103.908 24.411,103.067 24.853,100.539 26.375 C 99.397 27.063,97.929 27.906,97.277 28.250 C 96.624 28.594,95.142 29.499,93.983 30.262 C 92.824 31.024,91.217 32.037,90.412 32.512 C 89.607 32.986,88.655 33.646,88.295 33.976 C 87.935 34.307,87.126 34.881,86.497 35.252 C 85.868 35.623,84.514 36.555,83.489 37.324 C 82.464 38.093,80.454 39.600,79.023 40.673 C 77.592 41.747,75.756 43.188,74.944 43.875 C 74.131 44.563,73.085 45.406,72.620 45.750 C 69.595 47.982,57.056 59.966,53.459 64.062 C 52.725 64.897,51.664 66.054,51.101 66.632 C 50.538 67.210,49.754 68.120,49.358 68.654 C 48.963 69.188,48.098 70.180,47.436 70.858 C 46.773 71.535,45.990 72.520,45.695 73.045 C 45.399 73.570,45.075 74.000,44.975 74.000 C 44.759 74.000,39.753 80.486,38.535 82.344 C 38.073 83.049,37.435 83.906,37.116 84.250 C 36.798 84.594,36.107 85.557,35.581 86.392 C 35.055 87.226,33.928 88.969,33.077 90.267 C 29.881 95.133,28.750 96.936,28.369 97.768 C 28.153 98.239,27.477 99.412,26.867 100.375 C 26.257 101.338,25.328 102.969,24.801 104.000 C 24.275 105.031,23.260 106.908,22.547 108.171 C 21.834 109.434,21.250 110.573,21.250 110.701 C 21.250 110.830,20.462 112.452,19.500 114.305 C 18.537 116.159,17.750 117.809,17.750 117.973 C 17.750 118.137,17.424 118.969,17.025 119.823 C 15.142 123.854,14.649 125.008,14.063 126.750 C 13.716 127.781,13.181 129.188,12.873 129.875 C 11.786 132.305,7.250 145.831,7.250 146.642 C 7.250 146.859,6.695 149.081,6.017 151.580 C 4.696 156.446,4.188 158.759,3.012 165.250 C 0.560 178.776,0.016 185.185,0.016 200.500 C 0.016 215.818,0.629 223.008,2.989 235.375 C 3.383 237.438,3.776 239.631,3.863 240.250 C 4.059 241.641,5.484 247.353,6.390 250.375 C 6.760 251.613,7.114 252.963,7.176 253.375 C 7.314 254.290,9.623 261.411,10.277 262.939 C 10.537 263.545,10.753 264.229,10.756 264.458 C 10.759 264.687,11.247 266.056,11.840 267.500 C 12.818 269.879,13.378 271.268,14.780 274.788 C 15.035 275.428,15.795 277.116,16.470 278.538 C 17.145 279.961,17.780 281.406,17.880 281.750 C 17.981 282.094,18.781 283.716,19.657 285.356 C 20.533 286.995,21.250 288.438,21.250 288.562 C 21.250 288.896,24.250 294.470,24.519 294.637 C 24.646 294.715,24.750 294.976,24.750 295.217 C 24.750 295.458,25.154 296.323,25.647 297.140 C 26.140 297.957,27.276 300.031,28.170 301.750 C 29.064 303.469,29.940 305.044,30.117 305.250 C 30.294 305.456,30.916 306.525,31.499 307.625 C 32.780 310.043,33.320 310.977,34.414 312.667 C 34.874 313.378,35.250 314.045,35.250 314.150 C 35.250 314.427,38.266 319.481,38.528 319.643 C 38.650 319.718,38.750 319.959,38.750 320.177 C 38.750 320.396,39.295 321.430,39.961 322.475 C 40.628 323.520,41.657 325.275,42.249 326.375 C 42.840 327.475,43.689 328.938,44.133 329.625 C 44.578 330.313,45.334 331.606,45.813 332.500 C 47.043 334.794,47.771 336.028,48.322 336.750 C 48.584 337.094,49.124 338.050,49.522 338.875 C 49.919 339.700,50.745 341.163,51.356 342.125 C 51.968 343.087,52.703 344.374,52.991 344.984 C 53.278 345.594,53.891 346.663,54.353 347.359 C 54.816 348.056,55.674 349.525,56.260 350.625 C 56.847 351.725,57.805 353.361,58.389 354.261 C 58.973 355.161,59.621 356.286,59.830 356.761 C 60.039 357.236,60.781 358.525,61.478 359.625 C 62.175 360.725,63.082 362.300,63.493 363.125 C 63.904 363.950,64.856 365.618,65.609 366.832 C 66.362 368.046,67.044 369.244,67.123 369.494 C 67.203 369.745,67.731 370.664,68.296 371.538 C 68.862 372.411,69.970 374.306,70.760 375.750 C 71.549 377.194,72.601 378.991,73.097 379.744 C 73.594 380.497,74.006 381.229,74.013 381.369 C 74.020 381.510,74.694 382.694,75.512 384.000 C 76.329 385.306,77.212 386.825,77.473 387.375 C 77.734 387.925,78.575 389.387,79.342 390.625 C 80.109 391.863,80.961 393.360,81.236 393.953 C 81.511 394.546,82.083 395.546,82.508 396.175 C 82.932 396.805,83.797 398.288,84.428 399.472 C 85.060 400.656,86.055 402.361,86.639 403.261 C 87.223 404.161,87.865 405.286,88.067 405.761 C 88.268 406.236,89.029 407.581,89.757 408.750 C 90.485 409.919,91.402 411.494,91.795 412.250 C 92.188 413.006,92.825 414.131,93.211 414.750 C 93.596 415.369,94.454 416.887,95.117 418.125 C 95.780 419.363,96.573 420.712,96.879 421.125 C 97.185 421.538,97.971 422.887,98.625 424.125 C 99.280 425.363,100.182 426.938,100.631 427.625 C 101.079 428.313,101.663 429.325,101.930 429.875 C 102.196 430.425,103.108 432.023,103.957 433.426 C 104.806 434.829,105.500 436.077,105.500 436.200 C 105.500 436.322,105.934 437.094,106.465 437.916 C 106.996 438.737,108.128 440.672,108.981 442.215 C 109.833 443.758,110.849 445.494,111.238 446.073 C 111.626 446.652,112.185 447.631,112.478 448.250 C 112.772 448.869,113.512 450.163,114.124 451.125 C 114.736 452.087,115.579 453.550,115.997 454.375 C 116.415 455.200,117.310 456.775,117.985 457.875 C 118.660 458.975,119.496 460.464,119.841 461.184 C 120.186 461.904,120.744 462.860,121.081 463.309 C 121.418 463.758,122.228 465.137,122.883 466.375 C 123.538 467.613,124.438 469.188,124.883 469.875 C 125.328 470.563,126.171 472.025,126.755 473.125 C 127.340 474.225,128.309 475.888,128.909 476.820 C 129.509 477.753,130.000 478.615,130.000 478.736 C 130.000 478.857,130.763 480.231,131.695 481.790 C 132.627 483.349,133.528 484.942,133.697 485.329 C 133.866 485.717,134.490 486.786,135.082 487.704 C 135.675 488.623,136.678 490.342,137.310 491.523 C 137.942 492.704,138.919 494.381,139.480 495.249 C 140.041 496.117,140.504 496.951,140.509 497.101 C 140.515 497.252,141.133 498.331,141.883 499.500 C 142.633 500.669,143.518 502.188,143.850 502.875 C 144.181 503.563,145.078 505.137,145.841 506.375 C 146.605 507.613,147.508 509.212,147.847 509.930 C 148.187 510.647,148.802 511.724,149.215 512.324 C 149.627 512.923,150.439 514.305,151.019 515.394 C 151.599 516.484,152.438 517.938,152.883 518.625 C 153.329 519.313,154.140 520.719,154.685 521.750 C 155.230 522.781,156.027 524.188,156.457 524.875 C 156.886 525.563,157.499 526.631,157.818 527.250 C 158.137 527.869,158.911 529.219,159.538 530.250 C 160.164 531.281,161.152 533.025,161.734 534.125 C 162.315 535.225,162.935 536.294,163.112 536.500 C 163.289 536.706,164.141 538.169,165.005 539.750 C 165.869 541.331,166.904 543.107,167.306 543.696 C 167.707 544.285,168.253 545.241,168.519 545.821 C 168.785 546.401,169.563 547.775,170.247 548.875 C 170.932 549.975,171.828 551.550,172.238 552.375 C 172.649 553.200,173.552 554.775,174.245 555.875 C 174.939 556.975,175.723 558.352,175.987 558.934 C 176.252 559.517,176.859 560.586,177.335 561.309 C 177.812 562.033,178.561 563.300,179.000 564.125 C 179.988 565.978,180.595 567.016,181.635 568.625 C 182.079 569.313,182.609 570.269,182.813 570.750 C 183.016 571.231,183.779 572.581,184.507 573.750 C 185.235 574.919,186.152 576.494,186.545 577.250 C 186.938 578.006,187.575 579.131,187.961 579.750 C 188.346 580.369,189.181 581.844,189.816 583.028 C 190.451 584.212,191.300 585.674,191.703 586.278 C 192.106 586.881,192.915 588.275,193.502 589.375 C 194.088 590.475,194.937 591.938,195.389 592.625 C 195.840 593.313,196.357 594.212,196.537 594.625 C 197.062 595.827,200.010 600.000,200.332 599.996 C 200.617 599.993,203.265 596.069,203.580 595.184 C 203.666 594.942,204.229 593.986,204.830 593.059 C 205.431 592.133,206.462 590.362,207.121 589.125 C 207.780 587.888,208.646 586.396,209.047 585.812 C 209.447 585.227,209.970 584.327,210.208 583.812 C 210.446 583.296,211.200 581.951,211.883 580.822 C 212.566 579.693,213.519 578.039,214.000 577.147 C 215.289 574.758,217.838 570.325,218.830 568.750 C 219.306 567.994,220.371 566.138,221.195 564.625 C 222.020 563.112,223.101 561.259,223.597 560.506 C 224.094 559.753,224.500 558.944,224.500 558.708 C 224.500 558.472,224.606 558.214,224.736 558.134 C 225.014 557.962,227.640 553.600,227.901 552.875 C 228.000 552.600,228.442 551.813,228.882 551.125 C 229.951 549.456,231.500 546.761,231.500 546.569 C 231.500 546.485,232.129 545.394,232.898 544.145 C 234.397 541.710,236.829 537.494,238.250 534.869 C 238.731 533.979,239.772 532.184,240.563 530.878 C 241.353 529.573,242.000 528.408,242.000 528.291 C 242.000 528.174,242.434 527.406,242.965 526.584 C 243.496 525.763,244.636 523.805,245.498 522.233 C 246.361 520.661,247.209 519.206,247.384 519.000 C 247.558 518.794,248.404 517.331,249.263 515.750 C 250.123 514.169,251.086 512.532,251.405 512.112 C 251.723 511.693,252.270 510.736,252.620 509.987 C 252.970 509.238,253.780 507.781,254.420 506.750 C 255.061 505.719,255.931 504.233,256.355 503.449 C 257.412 501.491,259.790 497.356,261.502 494.500 C 262.285 493.194,263.380 491.281,263.936 490.250 C 264.491 489.219,265.351 487.759,265.848 487.006 C 266.344 486.253,266.750 485.545,266.750 485.434 C 266.750 485.323,267.478 484.017,268.367 482.531 C 269.257 481.046,270.064 479.615,270.160 479.353 C 270.256 479.090,270.806 478.144,271.383 477.250 C 271.959 476.356,272.969 474.613,273.628 473.375 C 274.287 472.137,275.138 470.666,275.520 470.106 C 275.902 469.545,276.692 468.195,277.276 467.106 C 277.860 466.016,278.657 464.619,279.046 464.000 C 279.435 463.381,280.094 462.200,280.509 461.375 C 280.924 460.550,281.933 458.806,282.749 457.500 C 283.566 456.194,284.238 455.010,284.242 454.869 C 284.246 454.729,284.656 453.997,285.153 453.244 C 285.649 452.491,286.727 450.644,287.549 449.139 C 288.371 447.634,289.357 445.946,289.741 445.388 C 290.125 444.829,290.713 443.811,291.047 443.124 C 291.381 442.437,292.326 440.750,293.146 439.375 C 293.967 438.000,294.836 436.481,295.076 436.000 C 295.317 435.519,296.073 434.225,296.755 433.125 C 297.438 432.025,298.215 430.651,298.481 430.071 C 298.747 429.491,299.293 428.535,299.694 427.946 C 300.096 427.357,301.110 425.629,301.947 424.106 C 302.785 422.584,303.871 420.730,304.360 419.987 C 304.850 419.244,305.250 418.499,305.250 418.331 C 305.250 418.163,305.568 417.541,305.957 416.950 C 307.117 415.188,307.683 414.219,308.633 412.376 C 309.128 411.414,309.674 410.458,309.847 410.251 C 310.308 409.697,312.250 406.323,312.250 406.076 C 312.250 405.959,312.659 405.247,313.158 404.494 C 313.658 403.741,314.743 401.887,315.569 400.375 C 316.395 398.863,317.401 397.144,317.803 396.555 C 318.205 395.967,318.811 394.898,319.150 394.180 C 319.489 393.462,320.266 392.087,320.877 391.125 C 321.488 390.163,322.308 388.756,322.698 388.000 C 323.089 387.244,323.862 385.894,324.417 385.000 C 324.971 384.106,325.848 382.587,326.365 381.625 C 326.882 380.663,327.693 379.256,328.167 378.500 C 329.150 376.929,331.951 372.070,333.101 369.940 C 333.527 369.151,334.522 367.436,335.313 366.130 C 336.103 364.823,336.750 363.667,336.750 363.559 C 336.750 363.452,337.118 362.804,337.567 362.119 C 338.542 360.634,339.408 359.157,340.496 357.125 C 340.937 356.300,341.663 355.063,342.109 354.375 C 342.933 353.104,343.592 351.927,343.858 351.250 C 343.939 351.044,344.509 350.087,345.126 349.125 C 345.742 348.163,346.546 346.756,346.912 346.000 C 347.278 345.244,347.889 344.175,348.270 343.625 C 348.650 343.075,349.524 341.613,350.212 340.375 C 350.899 339.137,351.869 337.473,352.367 336.676 C 352.865 335.879,353.870 334.135,354.600 332.801 C 355.330 331.467,356.283 329.849,356.718 329.207 C 357.153 328.564,357.675 327.664,357.877 327.207 C 358.080 326.749,358.808 325.475,359.495 324.375 C 360.183 323.275,360.983 321.882,361.274 321.280 C 361.564 320.678,362.279 319.440,362.863 318.530 C 363.446 317.620,364.347 316.087,364.865 315.125 C 365.383 314.163,366.175 312.813,366.624 312.125 C 367.073 311.438,367.805 310.200,368.249 309.375 C 369.396 307.245,370.246 305.808,371.185 304.412 C 371.633 303.745,372.000 303.093,372.000 302.963 C 372.000 302.832,372.572 301.775,373.272 300.613 C 374.739 298.175,376.999 293.924,378.648 290.500 C 379.277 289.194,380.401 286.925,381.146 285.458 C 381.891 283.991,382.500 282.636,382.500 282.448 C 382.500 282.260,382.728 281.660,383.007 281.115 C 383.793 279.581,386.000 274.560,386.000 274.306 C 386.000 274.181,386.661 272.402,387.468 270.352 C 388.863 266.813,389.133 266.049,389.713 264.000 C 389.849 263.519,390.582 261.304,391.341 259.077 C 392.100 256.851,392.797 254.601,392.890 254.077 C 392.982 253.554,393.597 251.100,394.257 248.625 C 395.596 243.600,396.251 240.628,396.874 236.750 C 397.105 235.306,397.558 232.606,397.879 230.750 C 401.213 211.469,400.921 185.880,397.113 163.500 C 396.774 161.506,396.378 159.144,396.234 158.250 C 396.090 157.356,395.470 154.656,394.857 152.250 C 394.244 149.844,393.565 147.144,393.348 146.250 C 392.726 143.687,389.560 133.938,388.233 130.500 C 385.991 124.693,384.072 120.046,383.742 119.625 C 383.635 119.487,383.145 118.403,382.654 117.216 C 381.654 114.795,377.784 107.166,376.402 104.890 C 375.906 104.073,375.500 103.301,375.500 103.174 C 375.500 102.922,373.365 99.368,372.829 98.729 C 372.646 98.511,372.161 97.667,371.751 96.854 C 371.340 96.040,370.787 95.094,370.522 94.750 C 370.256 94.406,369.158 92.788,368.082 91.154 C 363.676 84.463,363.357 84.013,359.875 79.581 C 359.050 78.531,358.014 77.155,357.574 76.523 C 357.133 75.892,356.345 74.925,355.823 74.375 C 355.301 73.825,354.568 72.925,354.195 72.375 C 353.823 71.825,353.115 70.996,352.624 70.533 C 352.132 70.070,351.432 69.282,351.068 68.783 C 350.703 68.284,350.005 67.476,349.515 66.988 C 349.026 66.500,347.669 65.048,346.500 63.762 C 342.658 59.533,335.016 52.127,331.375 49.105 C 330.688 48.534,329.565 47.546,328.880 46.909 C 328.196 46.271,327.536 45.750,327.414 45.750 C 327.292 45.750,326.515 45.123,325.687 44.357 C 324.859 43.590,323.775 42.691,323.278 42.358 C 322.782 42.026,321.419 41.017,320.250 40.118 C 319.081 39.219,317.360 37.896,316.426 37.179 C 315.491 36.462,314.250 35.594,313.667 35.250 C 313.084 34.906,311.937 34.141,311.116 33.549 C 308.922 31.967,304.301 28.968,302.948 28.250 C 302.301 27.906,300.705 26.978,299.400 26.188 C 298.095 25.397,296.931 24.750,296.813 24.750 C 296.695 24.750,296.041 24.396,295.361 23.963 C 293.584 22.832,286.288 19.129,283.500 17.944 C 282.194 17.389,281.012 16.851,280.875 16.749 C 280.460 16.441,275.300 14.250,274.989 14.250 C 274.831 14.250,274.346 14.086,273.913 13.886 C 272.387 13.180,266.864 11.038,266.124 10.865 C 265.712 10.769,263.406 10.044,261.000 9.255 C 258.594 8.465,256.006 7.679,255.250 7.509 C 254.494 7.338,252.412 6.824,250.625 6.368 C 246.265 5.254,242.006 4.322,239.875 4.014 C 237.487 3.669,231.365 2.704,223.875 1.490 C 220.438 0.933,216.556 0.373,215.250 0.245 C 211.307 -0.141,187.667 -0.017,185.875 0.399 M214.375 26.767 C 216.350 27.034,224.048 28.282,229.875 29.280 C 231.525 29.562,234.056 29.950,235.500 30.143 C 236.944 30.335,238.547 30.606,239.063 30.746 C 239.578 30.886,240.422 31.115,240.938 31.257 C 241.453 31.398,242.381 31.610,243.000 31.728 C 243.619 31.846,245.275 32.293,246.680 32.721 C 248.085 33.150,249.428 33.500,249.665 33.500 C 250.258 33.500,258.613 36.262,261.750 37.495 C 262.369 37.738,263.325 38.081,263.875 38.256 C 264.425 38.432,265.295 38.840,265.808 39.163 C 266.320 39.486,266.907 39.750,267.112 39.750 C 267.598 39.750,269.957 40.791,275.650 43.519 C 276.489 43.921,277.251 44.250,277.343 44.250 C 277.435 44.250,277.930 44.514,278.442 44.836 C 278.955 45.159,280.444 45.966,281.750 46.630 C 283.056 47.294,285.081 48.416,286.250 49.123 C 287.419 49.830,289.106 50.837,290.000 51.362 C 290.894 51.886,293.062 53.284,294.819 54.470 C 296.576 55.655,298.361 56.827,298.786 57.074 C 299.210 57.320,299.722 57.686,299.922 57.886 C 300.122 58.086,300.446 58.250,300.643 58.250 C 300.839 58.250,301.000 58.352,301.000 58.476 C 301.000 58.600,301.633 59.122,302.407 59.635 C 303.181 60.149,303.994 60.779,304.213 61.035 C 304.432 61.291,304.717 61.500,304.847 61.500 C 304.976 61.500,305.823 62.148,306.728 62.940 C 307.634 63.732,308.938 64.823,309.625 65.363 C 310.313 65.904,311.381 66.778,312.000 67.305 C 312.619 67.833,313.435 68.514,313.815 68.820 C 317.121 71.481,329.250 83.422,329.250 84.015 C 329.250 84.132,329.644 84.543,330.125 84.927 C 330.606 85.311,331.000 85.744,331.000 85.890 C 331.000 86.037,331.337 86.405,331.750 86.710 C 332.163 87.015,332.500 87.385,332.500 87.532 C 332.500 87.679,332.809 88.112,333.188 88.494 C 333.943 89.258,334.162 89.519,335.601 91.367 C 336.140 92.059,336.759 92.801,336.978 93.016 C 337.196 93.231,337.656 93.776,338.000 94.226 C 338.344 94.676,338.962 95.481,339.375 96.014 C 341.404 98.638,342.000 99.474,342.000 99.696 C 342.000 99.830,342.184 100.091,342.408 100.277 C 342.632 100.464,343.475 101.630,344.281 102.870 C 346.275 105.940,346.304 105.981,346.901 106.722 C 347.508 107.474,349.750 111.136,349.750 111.375 C 349.750 111.463,350.087 112.025,350.500 112.625 C 350.913 113.225,351.250 113.827,351.250 113.963 C 351.250 114.100,351.518 114.531,351.846 114.920 C 352.174 115.310,352.629 116.074,352.856 116.618 C 353.083 117.162,353.364 117.668,353.480 117.741 C 353.596 117.815,354.023 118.550,354.430 119.375 C 355.214 120.969,356.196 122.880,356.549 123.500 C 356.774 123.897,357.285 124.974,359.124 128.934 C 359.748 130.276,360.369 131.570,360.504 131.809 C 360.639 132.048,360.750 132.376,360.750 132.539 C 360.750 132.702,361.076 133.519,361.474 134.355 C 362.389 136.277,363.374 138.814,363.737 140.185 C 363.891 140.767,364.289 141.785,364.621 142.446 C 364.953 143.107,365.346 144.187,365.493 144.845 C 365.641 145.504,365.968 146.455,366.221 146.959 C 366.473 147.463,366.754 148.381,366.845 149.000 C 366.936 149.619,367.339 151.137,367.741 152.375 C 368.142 153.613,368.595 155.131,368.748 155.750 C 368.900 156.369,369.297 157.831,369.629 159.000 C 369.962 160.169,370.237 161.463,370.239 161.875 C 370.241 162.287,370.573 164.200,370.976 166.125 C 374.292 181.962,375.048 209.364,372.582 224.375 C 372.243 226.438,371.855 228.969,371.720 230.000 C 371.584 231.031,371.198 232.964,370.862 234.295 C 370.525 235.626,370.250 237.121,370.250 237.616 C 370.250 238.111,369.900 239.665,369.471 241.070 C 369.043 242.475,368.601 244.131,368.489 244.750 C 368.277 245.915,367.876 247.258,367.481 248.125 C 367.355 248.400,367.084 249.445,366.878 250.446 C 366.672 251.448,366.277 252.735,366.002 253.306 C 365.726 253.877,365.500 254.536,365.500 254.771 C 365.500 255.006,365.153 256.025,364.730 257.037 C 364.306 258.048,363.870 259.212,363.760 259.625 C 363.651 260.038,363.371 260.881,363.138 261.500 C 362.904 262.119,362.566 263.075,362.386 263.625 C 362.205 264.175,361.763 265.176,361.404 265.850 C 361.044 266.523,360.750 267.200,360.750 267.353 C 360.750 267.956,356.902 276.376,356.518 276.614 C 356.371 276.705,356.250 277.003,356.250 277.276 C 356.250 277.549,355.587 278.987,354.776 280.473 C 353.965 281.959,353.186 283.388,353.044 283.650 C 352.902 283.911,352.722 284.294,352.642 284.500 C 352.563 284.706,351.995 285.719,351.381 286.750 C 350.767 287.781,350.043 289.096,349.773 289.672 C 349.502 290.248,348.778 291.485,348.163 292.422 C 347.548 293.359,346.769 294.631,346.431 295.250 C 346.094 295.869,345.452 297.050,345.005 297.875 C 344.559 298.700,344.037 299.553,343.847 299.770 C 343.656 299.987,343.500 300.259,343.500 300.375 C 343.500 300.491,343.339 300.763,343.143 300.980 C 342.947 301.197,342.433 302.050,342.001 302.875 C 341.570 303.700,340.778 305.106,340.241 306.000 C 339.704 306.894,339.065 308.020,338.820 308.503 C 338.575 308.986,338.122 309.735,337.813 310.167 C 337.503 310.599,337.250 311.060,337.250 311.192 C 337.250 311.324,337.042 311.701,336.788 312.029 C 336.343 312.602,335.596 313.883,334.337 316.230 C 334.011 316.838,333.464 317.702,333.122 318.151 C 332.780 318.600,332.500 319.081,332.500 319.221 C 332.500 319.361,332.162 319.975,331.750 320.586 C 331.337 321.197,331.000 321.803,331.000 321.931 C 331.000 322.160,330.136 323.585,328.719 325.695 C 328.323 326.283,328.000 326.879,328.000 327.019 C 328.000 327.159,327.606 327.890,327.125 328.642 C 326.644 329.394,326.250 330.080,326.250 330.166 C 326.250 330.253,325.856 330.916,325.375 331.641 C 324.894 332.367,324.500 333.093,324.500 333.256 C 324.500 333.420,324.162 333.979,323.750 334.500 C 323.337 335.021,323.000 335.555,323.000 335.686 C 323.000 335.817,322.663 336.391,322.250 336.960 C 321.837 337.530,321.500 338.103,321.500 338.234 C 321.500 338.551,320.444 340.353,320.196 340.458 C 320.088 340.504,320.000 340.753,320.000 341.011 C 320.000 341.269,319.778 341.687,319.507 341.940 C 319.236 342.192,318.747 342.900,318.422 343.512 C 316.853 346.459,315.877 348.155,315.578 348.455 C 315.398 348.637,315.250 348.985,315.250 349.229 C 315.250 349.473,315.032 349.870,314.766 350.110 C 314.500 350.351,314.048 351.015,313.762 351.587 C 313.476 352.158,312.742 353.469,312.131 354.500 C 311.520 355.531,310.737 356.938,310.391 357.625 C 310.045 358.313,309.294 359.606,308.722 360.500 C 308.151 361.394,307.116 363.194,306.424 364.500 C 305.732 365.806,305.070 366.913,304.953 366.960 C 304.836 367.007,304.532 367.457,304.278 367.960 C 303.289 369.922,302.337 371.668,301.736 372.625 C 301.390 373.175,300.968 373.906,300.798 374.250 C 300.327 375.203,298.929 377.576,298.438 378.256 C 298.197 378.589,298.000 378.957,298.000 379.073 C 298.000 379.190,297.662 379.775,297.250 380.375 C 296.837 380.975,296.500 381.608,296.500 381.782 C 296.500 382.048,295.409 383.844,295.001 384.250 C 294.837 384.413,294.196 385.538,293.292 387.250 C 291.744 390.181,291.191 391.143,290.776 391.625 C 290.539 391.900,289.860 393.081,289.267 394.250 C 288.674 395.419,288.052 396.544,287.884 396.750 C 287.716 396.956,287.059 398.081,286.424 399.250 C 285.789 400.419,284.928 401.881,284.511 402.500 C 284.094 403.119,283.752 403.758,283.751 403.920 C 283.750 404.082,283.585 404.379,283.384 404.581 C 283.182 404.782,282.730 405.550,282.378 406.286 C 282.027 407.023,281.234 408.413,280.616 409.375 C 279.565 411.012,279.231 411.606,277.735 414.500 C 277.415 415.119,277.065 415.686,276.958 415.761 C 276.790 415.878,275.013 418.983,272.814 423.000 C 271.716 425.004,270.903 426.372,270.732 426.500 C 270.640 426.569,270.209 427.300,269.776 428.125 C 267.784 431.913,267.285 432.796,266.906 433.215 C 266.683 433.462,266.500 433.734,266.500 433.820 C 266.500 433.905,266.162 434.475,265.750 435.086 C 265.337 435.697,265.000 436.370,265.000 436.581 C 265.000 436.792,264.843 437.121,264.652 437.312 C 264.460 437.504,263.998 438.271,263.624 439.018 C 263.251 439.764,262.745 440.600,262.500 440.875 C 262.256 441.150,261.627 442.219,261.104 443.250 C 260.580 444.281,260.019 445.294,259.856 445.500 C 259.694 445.706,259.081 446.775,258.494 447.875 C 257.907 448.975,257.015 450.494,256.512 451.250 C 256.008 452.006,255.174 453.469,254.658 454.500 C 254.142 455.531,253.279 457.050,252.740 457.875 C 252.201 458.700,251.438 459.994,251.046 460.750 C 249.883 462.990,248.988 464.565,248.450 465.321 C 247.956 466.014,247.051 467.617,246.300 469.125 C 246.095 469.538,245.789 470.044,245.620 470.250 C 245.452 470.456,244.944 471.300,244.492 472.125 C 243.192 474.498,243.168 474.539,242.312 475.799 C 241.866 476.457,241.500 477.157,241.500 477.355 C 241.500 477.552,241.328 477.886,241.117 478.097 C 240.907 478.307,240.541 478.906,240.305 479.427 C 239.844 480.444,237.626 484.118,237.081 484.770 C 236.899 484.987,236.750 485.308,236.750 485.483 C 236.750 485.659,236.412 486.303,236.000 486.914 C 235.587 487.525,235.250 488.180,235.250 488.370 C 235.250 488.559,235.108 488.863,234.934 489.045 C 234.548 489.448,233.782 490.616,233.242 491.625 C 231.854 494.214,231.157 495.423,230.850 495.770 C 230.657 495.987,230.500 496.330,230.500 496.532 C 230.500 496.734,230.374 497.026,230.221 497.179 C 229.898 497.502,229.392 498.356,228.995 499.245 C 228.843 499.586,228.626 499.923,228.513 499.995 C 228.310 500.124,227.457 501.625,225.813 504.750 C 225.343 505.644,224.799 506.553,224.604 506.770 C 224.409 506.987,224.250 507.234,224.250 507.320 C 224.250 507.405,223.912 507.975,223.500 508.586 C 223.088 509.197,222.750 509.870,222.750 510.081 C 222.750 510.292,222.593 510.621,222.401 510.813 C 222.209 511.005,221.721 511.773,221.317 512.519 C 220.491 514.042,219.154 516.281,218.460 517.302 C 218.207 517.675,218.000 518.098,218.000 518.242 C 218.000 518.387,217.606 519.065,217.125 519.750 C 216.644 520.435,216.250 521.111,216.250 521.252 C 216.250 521.394,215.969 521.955,215.625 522.500 C 215.281 523.045,215.000 523.556,215.000 523.637 C 215.000 523.717,214.730 524.141,214.400 524.579 C 214.070 525.017,213.455 526.017,213.034 526.801 C 212.613 527.586,212.160 528.430,212.027 528.676 C 211.895 528.923,211.721 529.294,211.642 529.500 C 211.562 529.706,211.046 530.550,210.495 531.375 C 209.945 532.200,209.255 533.381,208.962 534.000 C 208.669 534.619,208.107 535.595,207.714 536.170 C 207.321 536.745,207.000 537.310,207.000 537.426 C 207.000 537.542,206.626 538.204,206.169 538.898 C 205.712 539.592,205.264 540.321,205.173 540.517 C 204.745 541.446,201.803 546.422,201.156 547.313 C 200.878 547.695,200.417 548.000,200.118 548.000 C 199.603 548.000,199.427 547.764,197.822 544.914 C 197.655 544.617,197.399 544.206,197.253 544.000 C 196.538 542.989,195.213 540.754,194.733 539.750 C 194.437 539.131,193.926 538.267,193.598 537.829 C 193.269 537.391,193.000 536.919,193.000 536.779 C 193.000 536.639,192.662 536.025,192.250 535.414 C 191.838 534.803,191.500 534.139,191.500 533.940 C 191.500 533.741,191.219 533.251,190.875 532.851 C 190.531 532.452,190.066 531.731,189.843 531.250 C 189.619 530.769,189.290 530.206,189.111 530.000 C 188.932 529.794,188.441 528.929,188.019 528.078 C 187.596 527.226,187.138 526.460,187.001 526.375 C 186.863 526.290,186.750 526.049,186.750 525.840 C 186.750 525.630,186.356 524.979,185.875 524.391 C 185.394 523.804,185.000 523.179,185.000 523.002 C 185.000 522.825,184.662 522.132,184.250 521.461 C 183.838 520.791,183.500 520.147,183.500 520.030 C 183.500 519.913,183.287 519.547,183.027 519.216 C 182.406 518.426,181.631 517.142,180.935 515.750 C 180.626 515.131,180.008 514.085,179.562 513.425 C 179.115 512.765,178.750 512.070,178.750 511.880 C 178.750 511.691,178.577 511.362,178.364 511.150 C 178.152 510.938,177.716 510.171,177.394 509.445 C 177.072 508.719,176.570 507.911,176.279 507.649 C 175.988 507.387,175.750 507.047,175.750 506.893 C 175.750 506.739,175.356 506.016,174.875 505.285 C 174.394 504.554,174.000 503.842,174.000 503.702 C 174.000 503.562,173.662 502.947,173.250 502.336 C 172.838 501.725,172.500 501.066,172.500 500.872 C 172.500 500.678,172.288 500.318,172.030 500.072 C 171.771 499.826,171.228 499.006,170.821 498.250 C 168.969 494.800,168.425 493.848,168.100 493.480 C 167.907 493.263,167.750 492.903,167.750 492.680 C 167.750 492.457,167.609 492.185,167.437 492.075 C 167.265 491.965,166.852 491.313,166.520 490.625 C 166.187 489.938,165.836 489.319,165.740 489.250 C 165.643 489.181,165.205 488.450,164.766 487.625 C 162.808 483.948,162.482 483.388,162.006 482.881 C 161.728 482.585,161.500 482.208,161.500 482.044 C 161.500 481.879,161.106 481.185,160.625 480.500 C 160.144 479.815,159.750 479.029,159.750 478.753 C 159.750 478.476,159.657 478.250,159.543 478.250 C 159.429 478.250,159.070 477.684,158.746 476.992 C 158.422 476.300,158.000 475.604,157.807 475.444 C 157.615 475.284,157.076 474.396,156.610 473.470 C 156.144 472.545,155.647 471.716,155.506 471.629 C 155.365 471.542,155.250 471.289,155.250 471.067 C 155.250 470.846,155.090 470.487,154.895 470.270 C 154.699 470.053,154.244 469.313,153.884 468.625 C 153.085 467.101,152.084 465.340,151.540 464.500 C 150.701 463.205,149.000 460.156,149.000 459.947 C 149.000 459.745,148.050 458.282,147.736 458.000 C 147.659 457.931,147.449 457.509,147.268 457.063 C 147.087 456.616,146.855 456.250,146.752 456.250 C 146.650 456.250,146.267 455.603,145.903 454.813 C 145.231 453.354,144.558 452.163,143.728 450.960 C 143.212 450.214,141.920 447.892,141.175 446.375 C 140.905 445.825,140.602 445.319,140.501 445.250 C 140.400 445.181,140.075 444.648,139.780 444.065 C 139.484 443.482,138.654 442.013,137.934 440.801 C 137.214 439.589,136.430 438.266,136.191 437.861 C 135.952 437.456,135.470 436.523,135.120 435.786 C 134.770 435.050,134.314 434.278,134.107 434.071 C 133.900 433.864,133.448 433.173,133.103 432.535 C 132.757 431.897,132.031 430.587,131.489 429.625 C 130.946 428.663,130.390 427.616,130.252 427.299 C 130.115 426.983,129.676 426.308,129.277 425.799 C 128.877 425.291,128.470 424.594,128.371 424.250 C 128.272 423.906,128.048 423.456,127.874 423.250 C 127.700 423.044,127.256 422.313,126.889 421.625 C 125.354 418.753,124.370 417.033,123.385 415.500 C 122.811 414.606,122.194 413.509,122.015 413.063 C 121.836 412.616,121.590 412.250,121.470 412.250 C 121.349 412.250,121.249 412.109,121.248 411.938 C 121.245 411.646,120.389 410.117,119.053 408.023 C 118.738 407.529,118.252 406.641,117.972 406.049 C 117.693 405.457,117.135 404.484,116.732 403.887 C 116.329 403.291,116.000 402.687,116.000 402.545 C 116.000 402.404,115.734 401.970,115.409 401.582 C 115.083 401.193,114.592 400.425,114.317 399.875 C 113.622 398.484,112.490 396.425,112.258 396.125 C 112.151 395.988,111.642 395.087,111.127 394.125 C 110.613 393.163,109.823 391.813,109.372 391.125 C 108.922 390.438,108.007 388.823,107.339 387.538 C 106.671 386.252,105.872 384.924,105.563 384.587 C 105.253 384.250,105.000 383.819,105.000 383.630 C 105.000 383.441,104.827 383.112,104.614 382.900 C 104.402 382.688,103.949 381.921,103.606 381.195 C 102.679 379.230,100.836 376.154,100.523 376.049 C 100.373 375.999,100.250 375.805,100.250 375.618 C 100.250 375.225,99.236 373.415,98.946 373.292 C 98.838 373.246,98.750 373.001,98.750 372.747 C 98.750 372.493,98.594 372.130,98.404 371.940 C 98.214 371.749,97.805 371.094,97.496 370.484 C 97.187 369.874,96.379 368.475,95.699 367.375 C 95.020 366.275,94.360 365.178,94.232 364.938 C 94.105 364.697,93.887 364.303,93.749 364.063 C 93.612 363.822,93.394 363.383,93.265 363.087 C 93.136 362.791,92.911 362.475,92.765 362.385 C 92.619 362.294,92.500 362.054,92.500 361.850 C 92.500 361.542,91.704 360.204,91.250 359.750 C 91.124 359.623,90.876 359.180,89.300 356.259 C 88.821 355.370,88.276 354.490,88.089 354.303 C 87.903 354.117,87.750 353.754,87.750 353.497 C 87.750 353.240,87.647 352.966,87.520 352.888 C 87.265 352.730,84.750 348.620,84.750 348.361 C 84.750 348.271,84.421 347.709,84.018 347.113 C 83.615 346.516,83.055 345.543,82.774 344.951 C 82.492 344.359,81.807 343.156,81.250 342.278 C 80.694 341.400,79.718 339.712,79.082 338.528 C 78.446 337.344,77.453 335.644,76.875 334.750 C 76.298 333.856,75.581 332.619,75.281 332.000 C 74.982 331.381,74.293 330.144,73.751 329.250 C 73.209 328.356,72.602 327.288,72.403 326.875 C 72.204 326.462,71.695 325.648,71.271 325.065 C 70.847 324.481,70.500 323.896,70.500 323.765 C 70.500 323.633,70.171 323.037,69.768 322.441 C 69.366 321.844,68.960 321.051,68.866 320.678 C 68.772 320.305,68.621 320.000,68.530 320.000 C 68.438 320.000,68.142 319.578,67.872 319.063 C 67.601 318.547,67.032 317.619,66.606 317.000 C 66.181 316.381,65.629 315.428,65.378 314.881 C 65.128 314.335,64.772 313.736,64.587 313.551 C 64.401 313.366,64.250 313.049,64.250 312.847 C 64.250 312.644,64.135 312.343,63.995 312.177 C 63.456 311.539,61.749 308.717,61.099 307.389 C 60.725 306.625,60.338 306.000,60.240 306.000 C 60.141 306.000,59.916 305.634,59.738 305.188 C 59.561 304.741,59.097 303.891,58.708 303.300 C 58.319 302.709,58.000 302.099,58.000 301.945 C 58.000 301.790,57.803 301.447,57.562 301.181 C 57.069 300.636,55.856 298.551,54.839 296.500 C 54.465 295.744,54.010 294.977,53.829 294.795 C 53.649 294.614,53.432 294.192,53.348 293.858 C 53.264 293.523,53.109 293.250,53.003 293.250 C 52.897 293.250,52.671 292.913,52.500 292.500 C 52.329 292.087,52.090 291.750,51.970 291.750 C 51.849 291.750,51.750 291.533,51.750 291.268 C 51.750 291.003,51.609 290.637,51.438 290.455 C 51.266 290.274,50.856 289.563,50.528 288.875 C 50.199 288.188,49.563 287.006,49.115 286.250 C 48.666 285.494,47.518 283.356,46.564 281.500 C 45.609 279.644,44.651 277.788,44.435 277.375 C 43.211 275.044,40.495 269.334,40.497 269.100 C 40.499 268.948,40.219 268.296,39.875 267.649 C 39.531 267.003,39.250 266.261,39.250 266.002 C 39.250 265.742,39.141 265.462,39.007 265.379 C 38.665 265.168,37.857 263.293,36.852 260.375 C 36.378 259.000,35.837 257.538,35.649 257.125 C 35.036 255.776,33.744 252.081,33.363 250.587 C 33.158 249.783,32.611 247.887,32.148 246.375 C 30.848 242.138,30.000 238.830,30.000 238.000 C 30.000 237.586,29.661 235.910,29.247 234.277 C 28.832 232.644,28.390 230.535,28.263 229.591 C 28.136 228.647,27.700 225.906,27.294 223.500 C 25.635 213.670,25.641 188.419,27.305 178.250 C 27.722 175.706,28.158 172.894,28.275 172.000 C 28.392 171.106,28.781 169.194,29.139 167.750 C 29.497 166.306,29.884 164.338,29.999 163.375 C 30.114 162.412,30.443 160.912,30.729 160.040 C 31.016 159.169,31.250 158.218,31.250 157.927 C 31.250 157.637,31.582 156.437,31.988 155.262 C 32.394 154.087,32.947 152.281,33.218 151.250 C 33.488 150.219,33.888 148.883,34.105 148.281 C 34.322 147.679,34.500 147.036,34.500 146.851 C 34.500 146.666,34.768 145.921,35.095 145.195 C 35.422 144.469,35.834 143.425,36.010 142.875 C 36.187 142.325,36.594 141.181,36.916 140.332 C 37.237 139.484,37.500 138.654,37.500 138.489 C 37.500 138.066,38.819 135.143,39.056 135.042 C 39.162 134.996,39.250 134.749,39.250 134.492 C 39.250 134.236,39.510 133.537,39.828 132.939 C 40.147 132.340,40.554 131.325,40.734 130.683 C 40.914 130.040,41.328 129.152,41.655 128.709 C 41.982 128.266,42.250 127.752,42.250 127.568 C 42.250 127.275,42.588 126.559,44.461 122.875 C 44.671 122.463,45.110 121.586,45.436 120.927 C 45.763 120.267,46.296 119.336,46.622 118.856 C 46.948 118.376,47.287 117.650,47.377 117.242 C 47.466 116.834,47.630 116.500,47.740 116.500 C 47.849 116.500,48.086 116.134,48.264 115.688 C 48.443 115.241,48.888 114.481,49.254 114.000 C 49.619 113.519,50.241 112.478,50.636 111.688 C 51.031 110.897,51.443 110.250,51.552 110.250 C 51.661 110.250,51.750 110.046,51.750 109.797 C 51.750 109.548,51.963 109.116,52.223 108.836 C 52.484 108.557,52.875 107.984,53.093 107.563 C 53.310 107.142,53.637 106.646,53.819 106.461 C 54.001 106.276,54.426 105.657,54.763 105.085 C 55.630 103.611,57.552 100.891,57.795 100.792 C 57.908 100.746,58.000 100.536,58.000 100.325 C 58.000 100.114,58.309 99.572,58.688 99.122 C 59.066 98.671,60.257 97.109,61.335 95.651 C 62.413 94.193,63.373 93.000,63.469 93.000 C 63.564 93.000,63.851 92.647,64.106 92.215 C 64.361 91.784,64.750 91.239,64.972 91.004 C 65.194 90.769,66.106 89.689,67.000 88.604 C 67.894 87.519,68.794 86.427,69.000 86.177 C 69.206 85.927,69.713 85.350,70.125 84.894 C 70.537 84.439,71.494 83.374,72.250 82.528 C 73.990 80.581,82.006 72.500,82.197 72.500 C 82.275 72.500,82.697 72.134,83.135 71.688 C 84.469 70.325,88.283 67.005,90.250 65.494 C 90.869 65.018,92.179 63.925,93.162 63.065 C 94.145 62.204,95.060 61.500,95.194 61.500 C 95.329 61.500,95.585 61.324,95.763 61.110 C 95.941 60.895,96.686 60.321,97.418 59.835 C 98.151 59.349,98.750 58.857,98.750 58.743 C 98.750 58.628,99.003 58.454,99.313 58.358 C 99.622 58.261,100.193 57.916,100.582 57.591 C 100.970 57.266,101.400 57.000,101.537 57.000 C 101.674 57.000,101.931 56.859,102.110 56.688 C 102.883 55.941,103.769 55.250,103.952 55.250 C 104.061 55.250,105.133 54.575,106.334 53.750 C 107.535 52.925,108.618 52.250,108.740 52.250 C 108.862 52.250,109.280 51.992,109.668 51.678 C 110.057 51.363,110.713 50.962,111.125 50.786 C 111.537 50.610,112.269 50.212,112.750 49.902 C 115.906 47.865,116.531 47.500,116.859 47.500 C 117.060 47.500,117.725 47.163,118.336 46.750 C 118.947 46.337,119.603 46.000,119.792 46.000 C 119.981 46.000,120.734 45.606,121.465 45.125 C 122.196 44.644,122.924 44.248,123.084 44.245 C 123.244 44.243,123.984 43.905,124.727 43.495 C 125.471 43.085,126.226 42.750,126.404 42.750 C 126.582 42.750,127.300 42.413,128.000 42.000 C 128.700 41.587,129.344 41.250,129.431 41.250 C 129.717 41.250,133.581 39.708,135.375 38.879 C 136.338 38.433,137.463 37.989,137.875 37.890 C 138.287 37.792,138.963 37.567,139.375 37.391 C 141.097 36.655,141.545 36.500,141.949 36.501 C 142.183 36.502,143.219 36.180,144.250 35.786 C 146.935 34.759,151.032 33.496,151.667 33.498 C 151.965 33.499,153.465 33.106,155.000 32.625 C 156.535 32.144,157.981 31.750,158.214 31.750 C 158.446 31.750,159.726 31.474,161.058 31.136 C 162.391 30.798,164.469 30.400,165.678 30.251 C 168.278 29.931,173.995 29.069,180.750 27.978 C 183.431 27.545,186.226 27.100,186.961 26.989 C 187.695 26.878,188.361 26.722,188.440 26.643 C 188.708 26.375,212.310 26.488,214.375 26.767 " stroke="none" fill="#040404" fill-rule="evenodd"></path></g></svg>