<svg id="svg" version="1.1" width="400" height="600" viewBox="0 0 400 600" xmlns="http://www.w3.org/2000/svg" xmlns:xlink="http://www.w3.org/1999/xlink" ><g id="svgg"><path id="path0" d="M185.875 0.399 C 183.938 0.849,165.227 3.750,164.265 3.750 C 162.475 3.750,151.347 6.119,144.750 7.904 C 142.603 8.485,138.932 9.622,133.375 11.427 C 131.661 11.984,128.310 13.258,126.625 13.993 C 126.350 14.113,125.803 14.281,125.410 14.367 C 124.672 14.528,124.029 14.803,120.029 16.660 C 118.739 17.260,117.576 17.750,117.444 17.750 C 117.313 17.750,114.566 19.072,111.341 20.688 C 103.908 24.411,103.067 24.853,100.539 26.375 C 99.397 27.063,97.929 27.906,97.277 28.250 C 96.624 28.594,95.142 29.499,93.983 30.262 C 92.824 31.024,91.217 32.037,90.412 32.512 C 89.607 32.986,88.655 33.646,88.295 33.976 C 87.935 34.307,87.126 34.881,86.497 35.252 C 85.868 35.623,84.514 36.555,83.489 37.324 C 82.464 38.093,80.454 39.600,79.023 40.673 C 77.592 41.747,75.756 43.188,74.944 43.875 C 74.131 44.563,73.085 45.406,72.620 45.750 C 69.595 47.982,57.056 59.966,53.459 64.062 C 52.725 64.897,51.664 66.054,51.101 66.632 C 50.538 67.210,49.754 68.120,49.358 68.654 C 48.963 69.188,48.098 70.180,47.436 70.858 C 46.773 71.535,45.990 72.520,45.695 73.045 C 45.399 73.570,45.075 74.000,44.975 74.000 C 44.759 74.000,39.753 80.486,38.535 82.344 C 38.073 83.049,37.435 83.906,37.116 84.250 C 36.798 84.594,36.107 85.557,35.581 86.392 C 35.055 87.226,33.928 88.969,33.077 90.267 C 29.881 95.133,28.750 96.936,28.369 97.768 C 28.153 98.239,27.477 99.412,26.867 100.375 C 26.257 101.338,25.328 102.969,24.801 104.000 C 24.275 105.031,23.260 106.908,22.547 108.171 C 21.834 109.434,21.250 110.573,21.250 110.701 C 21.250 110.830,20.462 112.452,19.500 114.305 C 18.537 116.159,17.750 117.809,17.750 117.973 C 17.750 118.137,17.424 118.969,17.025 119.823 C 15.142 123.854,14.649 125.008,14.063 126.750 C 13.716 127.781,13.181 129.188,12.873 129.875 C 11.786 132.305,7.250 145.831,7.250 146.642 C 7.250 146.859,6.695 149.081,6.017 151.580 C 4.696 156.446,4.188 158.759,3.012 165.250 C 0.560 178.776,0.016 185.185,0.016 200.500 C 0.016 215.818,0.629 223.008,2.989 235.375 C 3.383 237.438,3.776 239.631,3.863 240.250 C 4.059 241.641,5.484 247.353,6.390 250.375 C 6.760 251.613,7.114 252.963,7.176 253.375 C 7.314 254.290,9.623 261.411,10.277 262.939 C 10.537 263.545,10.753 264.229,10.756 264.458 C 10.759 264.687,11.247 266.056,11.840 267.500 C 12.818 269.879,13.378 271.268,14.780 274.788 C 15.035 275.428,15.795 277.116,16.470 278.538 C 17.145 279.961,17.780 281.406,17.880 281.750 C 17.981 282.094,18.781 283.716,19.657 285.356 C 20.533 286.995,21.250 288.438,21.250 288.562 C 21.250 288.896,24.250 294.470,24.519 294.637 C 24.646 294.715,24.750 294.976,24.750 295.217 C 24.750 295.458,25.154 296.323,25.647 297.140 C 26.140 297.957,27.276 300.031,28.170 301.750 C 29.064 303.469,29.940 305.044,30.117 305.250 C 30.294 305.456,30.916 306.525,31.499 307.625 C 32.780 310.043,33.320 310.977,34.414 312.667 C 34.874 313.378,35.250 314.045,35.250 314.150 C 35.250 314.427,38.266 319.481,38.528 319.643 C 38.650 319.718,38.750 319.959,38.750 320.177 C 38.750 320.396,39.295 321.430,39.961 322.475 C 40.628 323.520,41.657 325.275,42.249 326.375 C 42.840 327.475,43.689 328.938,44.133 329.625 C 44.578 330.313,45.334 331.606,45.813 332.500 C 47.043 334.794,47.771 336.028,48.322 336.750 C 48.584 337.094,49.124 338.050,49.522 338.875 C 49.919 339.700,50.745 341.163,51.356 342.125 C 51.968 343.087,52.703 344.374,52.991 344.984 C 53.278 345.594,53.891 346.663,54.353 347.359 C 54.816 348.056,55.674 349.525,56.260 350.625 C 56.847 351.725,57.805 353.361,58.389 354.261 C 58.973 355.161,59.621 356.286,59.830 356.761 C 60.039 357.236,60.781 358.525,61.478 359.625 C 62.175 360.725,63.082 362.300,63.493 363.125 C 63.904 363.950,64.856 365.618,65.609 366.832 C 66.362 368.046,67.044 369.244,67.123 369.494 C 67.203 369.745,67.731 370.664,68.296 371.538 C 68.862 372.411,69.970 374.306,70.760 375.750 C 71.549 377.194,72.601 378.991,73.097 379.744 C 73.594 380.497,74.006 381.229,74.013 381.369 C 74.020 381.510,74.694 382.694,75.512 384.000 C 76.329 385.306,77.212 386.825,77.473 387.375 C 77.734 387.925,78.575 389.387,79.342 390.625 C 80.109 391.863,80.961 393.360,81.236 393.953 C 81.511 394.546,82.083 395.546,82.508 396.175 C 82.932 396.805,83.797 398.288,84.428 399.472 C 85.060 400.656,86.055 402.361,86.639 403.261 C 87.223 404.161,87.865 405.286,88.067 405.761 C 88.268 406.236,89.029 407.581,89.757 408.750 C 90.485 409.919,91.402 411.494,91.795 412.250 C 92.188 413.006,92.825 414.131,93.211 414.750 C 93.596 415.369,94.454 416.887,95.117 418.125 C 95.780 419.363,96.573 420.712,96.879 421.125 C 97.185 421.538,97.971 422.887,98.625 424.125 C 99.280 425.363,100.182 426.938,100.631 427.625 C 101.079 428.313,101.663 429.325,101.930 429.875 C 102.196 430.425,103.108 432.023,103.957 433.426 C 104.806 434.829,105.500 436.077,105.500 436.200 C 105.500 436.322,105.934 437.094,106.465 437.916 C 106.996 438.737,108.128 440.672,108.981 442.215 C 109.833 443.758,110.849 445.494,111.238 446.073 C 111.626 446.652,112.185 447.631,112.478 448.250 C 112.772 448.869,113.512 450.163,114.124 451.125 C 114.736 452.087,115.579 453.550,115.997 454.375 C 116.415 455.200,117.310 456.775,117.985 457.875 C 118.660 458.975,119.496 460.464,119.841 461.184 C 120.186 461.904,120.744 462.860,121.081 463.309 C 121.418 463.758,122.228 465.137,122.883 466.375 C 123.538 467.613,124.438 469.188,124.883 469.875 C 125.328 470.563,126.171 472.025,126.755 473.125 C 127.340 474.225,128.309 475.888,128.909 476.820 C 129.509 477.753,130.000 478.615,130.000 478.736 C 130.000 478.857,130.763 480.231,131.695 481.790 C 132.627 483.349,133.528 484.942,133.697 485.329 C 133.866 485.717,134.490 486.786,135.082 487.704 C 135.675 488.623,136.678 490.342,137.310 491.523 C 137.942 492.704,138.919 494.381,139.480 495.249 C 140.041 496.117,140.504 496.951,140.509 497.101 C 140.515 497.252,141.133 498.331,141.883 499.500 C 142.633 500.669,143.518 502.188,143.850 502.875 C 144.181 503.563,145.078 505.137,145.841 506.375 C 146.605 507.613,147.508 509.212,147.847 509.930 C 148.187 510.647,148.802 511.724,149.215 512.324 C 149.627 512.923,150.439 514.305,151.019 515.394 C 151.599 516.484,152.438 517.938,152.883 518.625 C 153.329 519.313,154.140 520.719,154.685 521.750 C 155.230 522.781,156.027 524.188,156.457 524.875 C 156.886 525.563,157.499 526.631,157.818 527.250 C 158.137 527.869,158.911 529.219,159.538 530.250 C 160.164 531.281,161.152 533.025,161.734 534.125 C 162.315 535.225,162.935 536.294,163.112 536.500 C 163.289 536.706,164.141 538.169,165.005 539.750 C 165.869 541.331,166.904 543.107,167.306 543.696 C 167.707 544.285,168.253 545.241,168.519 545.821 C 168.785 546.401,169.563 547.775,170.247 548.875 C 170.932 549.975,171.828 551.550,172.238 552.375 C 172.649 553.200,173.552 554.775,174.245 555.875 C 174.939 556.975,175.723 558.352,175.987 558.934 C 176.252 559.517,176.859 560.586,177.335 561.309 C 177.812 562.033,178.561 563.300,179.000 564.125 C 179.988 565.978,180.595 567.016,181.635 568.625 C 182.079 569.313,182.609 570.269,182.813 570.750 C 183.016 571.231,183.779 572.581,184.507 573.750 C 185.235 574.919,186.152 576.494,186.545 577.250 C 186.938 578.006,187.575 579.131,187.961 579.750 C 188.346 580.369,189.181 581.844,189.816 583.028 C 190.451 584.212,191.300 585.674,191.703 586.278 C 192.106 586.881,192.915 588.275,193.502 589.375 C 194.088 590.475,194.937 591.938,195.389 592.625 C 195.840 593.313,196.357 594.212,196.537 594.625 C 197.062 595.827,200.010 600.000,200.332 599.996 C 200.617 599.993,203.265 596.069,203.580 595.184 C 203.666 594.942,204.229 593.986,204.830 593.059 C 205.431 592.133,206.462 590.362,207.121 589.125 C 207.780 587.888,208.646 586.396,209.047 585.812 C 209.447 585.227,209.970 584.327,210.208 583.812 C 210.446 583.296,211.200 581.951,211.883 580.822 C 212.566 579.693,213.519 578.039,214.000 577.147 C 215.289 574.758,217.838 570.325,218.830 568.750 C 219.306 567.994,220.371 566.138,221.195 564.625 C 222.020 563.112,223.101 561.259,223.597 560.506 C 224.094 559.753,224.500 558.944,224.500 558.708 C 224.500 558.472,224.606 558.214,224.736 558.134 C 225.014 557.962,227.640 553.600,227.901 552.875 C 228.000 552.600,228.442 551.813,228.882 551.125 C 229.951 549.456,231.500 546.761,231.500 546.569 C 231.500 546.485,232.129 545.394,232.898 544.145 C 234.397 541.710,236.829 537.494,238.250 534.869 C 238.731 533.979,239.772 532.184,240.563 530.878 C 241.353 529.573,242.000 528.408,242.000 528.291 C 242.000 528.174,242.434 527.406,242.965 526.584 C 243.496 525.763,244.636 523.805,245.498 522.233 C 246.361 520.661,247.209 519.206,247.384 519.000 C 247.558 518.794,248.404 517.331,249.263 515.750 C 250.123 514.169,251.086 512.532,251.405 512.112 C 251.723 511.693,252.270 510.736,252.620 509.987 C 252.970 509.238,253.780 507.781,254.420 506.750 C 255.061 505.719,255.931 504.233,256.355 503.449 C 257.412 501.491,259.790 497.356,261.502 494.500 C 262.285 493.194,263.380 491.281,263.936 490.250 C 264.491 489.219,265.351 487.759,265.848 487.006 C 266.344 486.253,266.750 485.545,266.750 485.434 C 266.750 485.323,267.478 484.017,268.367 482.531 C 269.257 481.046,270.064 479.615,270.160 479.353 C 270.256 479.090,270.806 478.144,271.383 477.250 C 271.959 476.356,272.969 474.613,273.628 473.375 C 274.287 472.137,275.138 470.666,275.520 470.106 C 275.902 469.545,276.692 468.195,277.276 467.106 C 277.860 466.016,278.657 464.619,279.046 464.000 C 279.435 463.381,280.094 462.200,280.509 461.375 C 280.924 460.550,281.933 458.806,282.749 457.500 C 283.566 456.194,284.238 455.010,284.242 454.869 C 284.246 454.729,284.656 453.997,285.153 453.244 C 285.649 452.491,286.727 450.644,287.549 449.139 C 288.371 447.634,289.357 445.946,289.741 445.388 C 290.125 444.829,290.713 443.811,291.047 443.124 C 291.381 442.437,292.326 440.750,293.146 439.375 C 293.967 438.000,294.836 436.481,295.076 436.000 C 295.317 435.519,296.073 434.225,296.755 433.125 C 297.438 432.025,298.215 430.651,298.481 430.071 C 298.747 429.491,299.293 428.535,299.694 427.946 C 300.096 427.357,301.110 425.629,301.947 424.106 C 302.785 422.584,303.871 420.730,304.360 419.987 C 304.850 419.244,305.250 418.499,305.250 418.331 C 305.250 418.163,305.568 417.541,305.957 416.950 C 307.117 415.188,307.683 414.219,308.633 412.376 C 309.128 411.414,309.674 410.458,309.847 410.251 C 310.308 409.697,312.250 406.323,312.250 406.076 C 312.250 405.959,312.659 405.247,313.158 404.494 C 313.658 403.741,314.743 401.887,315.569 400.375 C 316.395 398.863,317.401 397.144,317.803 396.555 C 318.205 395.967,318.811 394.898,319.150 394.180 C 319.489 393.462,320.266 392.087,320.877 391.125 C 321.488 390.163,322.308 388.756,322.698 388.000 C 323.089 387.244,323.862 385.894,324.417 385.000 C 324.971 384.106,325.848 382.587,326.365 381.625 C 326.882 380.663,327.693 379.256,328.167 378.500 C 329.150 376.929,331.951 372.070,333.101 369.940 C 333.527 369.151,334.522 367.436,335.313 366.130 C 336.103 364.823,336.750 363.667,336.750 363.559 C 336.750 363.452,337.118 362.804,337.567 362.119 C 338.542 360.634,339.408 359.157,340.496 357.125 C 340.937 356.300,341.663 355.063,342.109 354.375 C 342.933 353.104,343.592 351.927,343.858 351.250 C 343.939 351.044,344.509 350.087,345.126 349.125 C 345.742 348.163,346.546 346.756,346.912 346.000 C 347.278 345.244,347.889 344.175,348.270 343.625 C 348.650 343.075,349.524 341.613,350.212 340.375 C 350.899 339.137,351.869 337.473,352.367 336.676 C 352.865 335.879,353.870 334.135,354.600 332.801 C 355.330 331.467,356.283 329.849,356.718 329.207 C 357.153 328.564,357.675 327.664,357.877 327.207 C 358.080 326.749,358.808 325.475,359.495 324.375 C 360.183 323.275,360.983 321.882,361.274 321.280 C 361.564 320.678,362.279 319.440,362.863 318.530 C 363.446 317.620,364.347 316.087,364.865 315.125 C 365.383 314.163,366.175 312.813,366.624 312.125 C 367.073 311.438,367.805 310.200,368.249 309.375 C 369.396 307.245,370.246 305.808,371.185 304.412 C 371.633 303.745,372.000 303.093,372.000 302.963 C 372.000 302.832,372.572 301.775,373.272 300.613 C 374.739 298.175,376.999 293.924,378.648 290.500 C 379.277 289.194,380.401 286.925,381.146 285.458 C 381.891 283.991,382.500 282.636,382.500 282.448 C 382.500 282.260,382.728 281.660,383.007 281.115 C 383.793 279.581,386.000 274.560,386.000 274.306 C 386.000 274.181,386.661 272.402,387.468 270.352 C 388.863 266.813,389.133 266.049,389.713 264.000 C 389.849 263.519,390.582 261.304,391.341 259.077 C 392.100 256.851,392.797 254.601,392.890 254.077 C 392.982 253.554,393.597 251.100,394.257 248.625 C 395.596 243.600,396.251 240.628,396.874 236.750 C 397.105 235.306,397.558 232.606,397.879 230.750 C 401.213 211.469,400.921 185.880,397.113 163.500 C 396.774 161.506,396.378 159.144,396.234 158.250 C 396.090 157.356,395.470 154.656,394.857 152.250 C 394.244 149.844,393.565 147.144,393.348 146.250 C 392.726 143.687,389.560 133.938,388.233 130.500 C 385.991 124.693,384.072 120.046,383.742 119.625 C 383.635 119.487,383.145 118.403,382.654 117.216 C 381.654 114.795,377.784 107.166,376.402 104.890 C 375.906 104.073,375.500 103.301,375.500 103.174 C 375.500 102.922,373.365 99.368,372.829 98.729 C 372.646 98.511,372.161 97.667,371.751 96.854 C 371.340 96.040,370.787 95.094,370.522 94.750 C 370.256 94.406,369.158 92.788,368.082 91.154 C 363.676 84.463,363.357 84.013,359.875 79.581 C 359.050 78.531,358.014 77.155,357.574 76.523 C 357.133 75.892,356.345 74.925,355.823 74.375 C 355.301 73.825,354.568 72.925,354.195 72.375 C 353.823 71.825,353.115 70.996,352.624 70.533 C 352.132 70.070,351.432 69.282,351.068 68.783 C 350.703 68.284,350.005 67.476,349.515 66.988 C 349.026 66.500,347.669 65.048,346.500 63.762 C 342.658 59.533,335.016 52.127,331.375 49.105 C 330.688 48.534,329.565 47.546,328.880 46.909 C 328.196 46.271,327.536 45.750,327.414 45.750 C 327.292 45.750,326.515 45.123,325.687 44.357 C 324.859 43.590,323.775 42.691,323.278 42.358 C 322.782 42.026,321.419 41.017,320.250 40.118 C 319.081 39.219,317.360 37.896,316.426 37.179 C 315.491 36.462,314.250 35.594,313.667 35.250 C 313.084 34.906,311.937 34.141,311.116 33.549 C 308.922 31.967,304.301 28.968,302.948 28.250 C 302.301 27.906,300.705 26.978,299.400 26.188 C 298.095 25.397,296.931 24.750,296.813 24.750 C 296.695 24.750,296.041 24.396,295.361 23.963 C 293.584 22.832,286.288 19.129,283.500 17.944 C 282.194 17.389,281.012 16.851,280.875 16.749 C 280.460 16.441,275.300 14.250,274.989 14.250 C 274.831 14.250,274.346 14.086,273.913 13.886 C 272.387 13.180,266.864 11.038,266.124 10.865 C 265.712 10.769,263.406 10.044,261.000 9.255 C 258.594 8.465,256.006 7.679,255.250 7.509 C 254.494 7.338,252.412 6.824,250.625 6.368 C 246.265 5.254,242.006 4.322,239.875 4.014 C 237.487 3.669,231.365 2.704,223.875 1.490 C 220.438 0.933,216.556 0.373,215.250 0.245 C 211.307 -0.141,187.667 -0.017,185.875 0.399 M212.625 26.884 C 214.137 27.098,217.512 27.626,220.125 28.056 C 222.738 28.487,225.606 28.918,226.500 29.014 C 231.220 29.521,240.055 31.254,245.625 32.764 C 247.137 33.175,248.544 33.507,248.750 33.504 C 249.271 33.495,257.351 36.194,260.767 37.517 C 261.808 37.920,262.795 38.250,262.961 38.250 C 263.127 38.250,264.044 38.644,265.000 39.125 C 265.956 39.606,266.893 40.000,267.084 40.000 C 267.274 40.000,268.092 40.336,268.902 40.747 C 269.712 41.158,270.518 41.495,270.692 41.497 C 270.867 41.499,271.448 41.777,271.984 42.115 C 272.520 42.453,273.276 42.810,273.665 42.907 C 274.054 43.005,274.912 43.403,275.572 43.792 C 276.232 44.182,276.882 44.500,277.016 44.500 C 277.150 44.500,277.690 44.772,278.216 45.104 C 278.742 45.436,280.174 46.192,281.399 46.785 C 282.623 47.378,284.091 48.175,284.661 48.557 C 285.231 48.938,285.794 49.250,285.912 49.250 C 286.030 49.250,286.680 49.644,287.357 50.125 C 288.034 50.606,288.709 51.003,288.857 51.007 C 289.004 51.011,289.567 51.348,290.107 51.757 C 290.647 52.166,291.186 52.500,291.305 52.500 C 291.424 52.500,291.657 52.614,291.823 52.753 C 291.989 52.892,293.419 53.860,295.000 54.905 C 296.581 55.949,297.913 56.904,297.958 57.027 C 298.004 57.150,298.162 57.250,298.310 57.250 C 298.457 57.250,298.947 57.531,299.397 57.875 C 299.848 58.219,300.331 58.500,300.471 58.500 C 300.611 58.500,300.815 58.646,300.925 58.825 C 301.035 59.003,302.137 59.871,303.375 60.753 C 304.613 61.636,305.738 62.504,305.875 62.682 C 306.012 62.861,306.421 63.202,306.783 63.441 C 307.986 64.235,312.000 67.535,312.000 67.731 C 312.000 67.837,312.220 68.025,312.488 68.149 C 313.455 68.597,317.895 72.717,323.709 78.564 C 328.826 83.709,328.469 83.323,332.356 87.875 C 334.117 89.938,335.939 92.065,336.404 92.603 C 336.869 93.140,337.250 93.661,337.250 93.759 C 337.250 93.858,337.434 94.091,337.658 94.278 C 337.883 94.464,338.304 94.969,338.596 95.400 C 339.087 96.127,341.638 99.611,342.673 100.968 C 342.921 101.295,343.294 101.813,343.500 102.121 C 343.706 102.429,344.466 103.556,345.188 104.625 C 345.909 105.694,346.500 106.617,346.500 106.676 C 346.500 106.851,347.859 108.618,348.063 108.708 C 348.166 108.754,348.250 108.908,348.250 109.051 C 348.250 109.306,348.832 110.300,350.438 112.790 C 350.884 113.483,351.250 114.159,351.250 114.292 C 351.250 114.425,351.520 114.891,351.850 115.329 C 352.181 115.767,352.637 116.519,352.865 117.000 C 353.093 117.481,353.720 118.662,354.259 119.625 C 355.277 121.443,359.250 129.387,359.250 129.604 C 359.250 129.672,359.597 130.492,360.022 131.426 C 361.809 135.361,363.756 140.156,363.752 140.616 C 363.751 140.748,364.133 141.817,364.601 142.991 C 365.068 144.165,365.796 146.250,366.217 147.625 C 367.945 153.270,368.291 154.467,368.609 155.887 C 368.793 156.705,369.173 158.162,369.455 159.125 C 369.736 160.088,370.138 161.887,370.348 163.125 C 370.558 164.363,370.951 166.500,371.222 167.875 C 372.918 176.477,373.761 185.861,373.930 198.025 C 374.050 206.648,373.990 208.480,373.265 218.375 C 373.007 221.906,372.026 228.409,370.984 233.500 C 370.577 235.494,370.244 237.324,370.246 237.567 C 370.248 237.809,369.898 239.272,369.467 240.817 C 369.036 242.361,368.544 244.244,368.373 245.000 C 367.715 247.912,365.353 255.650,364.596 257.375 C 364.415 257.788,363.933 259.081,363.525 260.250 C 362.215 264.007,361.989 264.601,361.364 265.944 C 361.026 266.670,360.750 267.371,360.750 267.502 C 360.750 267.633,360.400 268.502,359.973 269.433 C 359.545 270.363,358.939 271.688,358.625 272.375 C 356.759 276.467,356.158 277.754,355.590 278.875 C 354.336 281.350,352.040 285.657,351.125 287.250 C 350.611 288.144,349.882 289.438,349.504 290.125 C 348.057 292.759,347.689 293.387,347.378 293.750 C 347.202 293.956,346.735 294.726,346.341 295.460 C 345.385 297.243,344.989 297.936,344.250 299.125 C 343.617 300.144,343.496 300.353,342.052 302.915 C 341.600 303.718,340.783 305.106,340.237 306.000 C 339.691 306.894,339.109 307.906,338.943 308.250 C 338.777 308.594,338.372 309.293,338.043 309.803 C 337.715 310.313,337.261 311.063,337.036 311.468 C 336.492 312.443,335.135 314.821,334.235 316.375 C 333.836 317.063,333.378 317.878,333.215 318.188 C 333.053 318.497,332.825 318.750,332.710 318.750 C 332.594 318.750,332.500 318.960,332.500 319.216 C 332.500 319.473,332.290 319.951,332.034 320.279 C 331.778 320.607,331.315 321.381,331.005 322.000 C 330.695 322.619,330.296 323.294,330.119 323.500 C 329.941 323.706,329.525 324.381,329.195 325.000 C 328.404 326.482,328.035 327.130,327.143 328.600 C 326.735 329.273,326.226 330.135,326.013 330.514 C 324.370 333.440,323.860 334.321,322.984 335.750 C 322.437 336.644,321.821 337.712,321.616 338.125 C 321.412 338.538,320.800 339.606,320.257 340.500 C 319.714 341.394,318.874 342.876,318.391 343.794 C 317.908 344.712,317.397 345.534,317.256 345.621 C 317.115 345.708,317.000 345.936,317.000 346.127 C 317.000 346.318,316.638 347.012,316.195 347.668 C 315.752 348.325,315.205 349.202,314.981 349.618 C 313.652 352.082,312.044 354.824,311.210 356.052 C 310.957 356.425,310.750 356.821,310.750 356.933 C 310.750 357.045,310.356 357.734,309.875 358.465 C 309.394 359.196,309.000 359.897,309.000 360.024 C 309.000 360.151,308.606 360.815,308.125 361.500 C 307.644 362.185,307.250 362.853,307.250 362.985 C 307.250 363.117,306.912 363.725,306.500 364.336 C 306.087 364.947,305.750 365.555,305.750 365.686 C 305.750 365.818,305.413 366.391,305.000 366.960 C 304.587 367.530,304.250 368.104,304.250 368.235 C 304.250 368.367,303.912 368.975,303.500 369.586 C 303.087 370.197,302.750 370.797,302.750 370.918 C 302.750 371.039,302.553 371.408,302.313 371.738 C 301.846 372.378,300.700 374.350,299.640 376.340 C 299.284 377.008,298.770 377.839,298.496 378.186 C 298.223 378.533,298.000 378.927,298.000 379.060 C 298.000 379.193,297.663 379.803,297.250 380.414 C 296.837 381.025,296.500 381.640,296.500 381.780 C 296.500 381.920,296.135 382.561,295.688 383.205 C 295.241 383.848,294.676 384.769,294.431 385.250 C 294.187 385.731,293.594 386.800,293.114 387.625 C 292.634 388.450,292.105 389.406,291.939 389.750 C 291.772 390.094,291.268 390.908,290.818 391.560 C 290.368 392.212,290.000 392.908,290.000 393.108 C 290.000 393.307,289.885 393.542,289.744 393.628 C 289.604 393.715,289.126 394.460,288.682 395.284 C 287.365 397.729,286.887 398.567,286.175 399.683 C 285.804 400.264,285.500 400.797,285.500 400.866 C 285.500 400.936,285.135 401.585,284.689 402.309 C 283.800 403.752,283.468 404.333,282.434 406.265 C 282.054 406.974,281.520 407.839,281.246 408.186 C 280.973 408.533,280.750 408.924,280.750 409.054 C 280.750 409.184,280.376 409.872,279.919 410.583 C 279.462 411.293,278.815 412.409,278.482 413.063 C 278.149 413.716,277.791 414.250,277.688 414.250 C 277.585 414.250,277.500 414.430,277.500 414.649 C 277.500 414.868,277.285 415.350,277.022 415.719 C 276.576 416.345,276.274 416.872,274.602 419.938 C 274.246 420.591,273.684 421.483,273.352 421.921 C 273.021 422.359,272.750 422.879,272.750 423.078 C 272.750 423.276,272.593 423.569,272.402 423.728 C 272.210 423.887,271.911 424.378,271.737 424.821 C 271.563 425.263,271.173 425.962,270.871 426.375 C 270.569 426.788,270.065 427.631,269.752 428.250 C 269.438 428.869,268.972 429.643,268.716 429.971 C 268.460 430.299,268.250 430.777,268.250 431.034 C 268.250 431.290,268.158 431.500,268.046 431.500 C 267.934 431.500,267.652 431.866,267.419 432.313 C 267.186 432.759,266.756 433.519,266.464 434.000 C 266.172 434.481,265.598 435.494,265.187 436.250 C 264.777 437.006,264.230 437.924,263.971 438.289 C 263.712 438.654,263.500 439.059,263.500 439.189 C 263.500 439.319,263.184 439.864,262.797 440.400 C 262.410 440.936,261.922 441.712,261.711 442.125 C 260.502 444.498,260.136 445.162,259.853 445.500 C 259.681 445.706,259.241 446.438,258.875 447.125 C 258.510 447.813,257.776 449.106,257.244 450.000 C 256.712 450.894,256.005 452.131,255.672 452.750 C 254.130 455.617,252.784 457.924,251.581 459.763 C 251.262 460.252,251.000 460.742,251.000 460.852 C 251.000 460.962,250.663 461.553,250.250 462.164 C 249.838 462.775,249.500 463.383,249.500 463.515 C 249.500 463.647,249.106 464.315,248.625 465.000 C 248.144 465.685,247.750 466.354,247.750 466.486 C 247.750 466.619,247.497 467.115,247.188 467.589 C 246.878 468.063,246.287 469.040,245.875 469.759 C 245.463 470.479,244.758 471.699,244.309 472.471 C 243.860 473.243,243.385 474.130,243.252 474.441 C 243.118 474.752,242.788 475.315,242.517 475.691 C 242.246 476.067,241.744 476.881,241.402 477.500 C 240.256 479.573,239.228 481.363,238.243 483.000 C 237.705 483.894,237.082 485.019,236.858 485.500 C 236.634 485.981,236.181 486.733,235.850 487.171 C 235.520 487.609,235.250 488.104,235.250 488.272 C 235.250 488.440,234.986 488.926,234.664 489.351 C 234.342 489.777,233.628 490.984,233.076 492.034 C 232.525 493.083,231.720 494.467,231.287 495.109 C 230.854 495.750,230.500 496.376,230.500 496.500 C 230.500 496.624,230.162 497.225,229.750 497.836 C 229.338 498.447,229.000 499.032,229.000 499.135 C 229.000 499.239,228.606 499.916,228.125 500.641 C 227.644 501.367,227.250 502.055,227.250 502.172 C 227.250 502.288,226.969 502.798,226.625 503.304 C 226.281 503.810,226.000 504.398,226.000 504.612 C 226.000 504.825,225.916 505.001,225.813 505.002 C 225.631 505.003,225.293 505.530,224.130 507.625 C 223.825 508.175,223.148 509.356,222.626 510.250 C 222.104 511.144,221.507 512.212,221.299 512.625 C 221.091 513.038,220.686 513.708,220.398 514.116 C 219.802 514.960,218.679 516.969,218.103 518.224 C 217.888 518.691,217.564 519.221,217.383 519.403 C 217.201 519.584,216.794 520.271,216.477 520.929 C 216.160 521.587,215.762 522.266,215.592 522.439 C 215.422 522.612,215.203 523.003,215.107 523.308 C 215.010 523.613,214.552 524.413,214.090 525.085 C 213.628 525.756,213.250 526.417,213.250 526.552 C 213.250 526.687,213.035 527.100,212.772 527.469 C 212.510 527.837,212.003 528.670,211.647 529.320 C 211.291 529.969,210.709 531.031,210.353 531.680 C 209.997 532.330,209.490 533.163,209.228 533.531 C 208.965 533.900,208.750 534.299,208.750 534.417 C 208.750 534.535,208.356 535.216,207.875 535.931 C 207.394 536.646,207.000 537.394,207.000 537.594 C 207.000 537.795,206.903 537.996,206.785 538.042 C 206.579 538.121,205.523 539.926,204.101 542.625 C 203.739 543.313,203.299 544.044,203.122 544.250 C 202.946 544.456,202.535 545.075,202.210 545.625 C 200.861 547.908,200.608 548.247,200.250 548.247 C 199.920 548.247,197.750 545.354,197.750 544.914 C 197.750 544.821,197.382 544.212,196.932 543.560 C 196.482 542.908,195.978 542.094,195.811 541.750 C 195.645 541.406,195.116 540.450,194.636 539.625 C 194.156 538.800,193.561 537.731,193.313 537.250 C 193.065 536.769,192.556 535.899,192.181 535.317 C 191.807 534.736,191.500 534.172,191.500 534.064 C 191.500 533.956,191.106 533.284,190.625 532.569 C 190.144 531.854,189.750 531.161,189.750 531.028 C 189.750 530.895,189.586 530.622,189.386 530.421 C 189.185 530.221,188.670 529.397,188.241 528.591 C 187.045 526.346,185.922 524.401,185.437 523.738 C 185.197 523.408,185.000 523.039,185.000 522.918 C 185.000 522.797,184.662 522.197,184.250 521.586 C 183.838 520.975,183.500 520.349,183.500 520.195 C 183.500 520.040,183.346 519.737,183.157 519.520 C 182.968 519.303,182.473 518.506,182.057 517.750 C 180.333 514.621,179.440 513.103,179.105 512.730 C 178.910 512.513,178.750 512.185,178.750 512.000 C 178.750 511.815,178.590 511.487,178.395 511.270 C 178.199 511.053,177.741 510.313,177.375 509.625 C 177.010 508.938,176.276 507.644,175.745 506.750 C 175.214 505.856,174.424 504.459,173.989 503.644 C 173.555 502.830,173.042 502.006,172.850 501.814 C 172.657 501.622,172.500 501.330,172.500 501.165 C 172.500 501.001,172.219 500.452,171.875 499.946 C 171.267 499.052,170.326 497.399,169.557 495.875 C 169.349 495.462,168.933 494.788,168.632 494.375 C 168.332 493.962,167.916 493.288,167.709 492.875 C 167.151 491.766,165.927 489.577,164.914 487.875 C 164.423 487.050,163.618 485.644,163.125 484.750 C 162.632 483.856,161.823 482.450,161.327 481.625 C 160.832 480.800,160.156 479.630,159.825 479.025 C 158.596 476.776,158.009 475.753,157.417 474.826 C 157.083 474.303,156.152 472.694,155.349 471.250 C 154.545 469.806,153.716 468.326,153.507 467.960 C 153.297 467.595,152.753 466.638,152.298 465.835 C 151.843 465.032,151.032 463.644,150.496 462.750 C 149.960 461.856,149.380 460.844,149.207 460.500 C 149.034 460.156,148.613 459.425,148.270 458.875 C 147.928 458.325,147.464 457.538,147.240 457.125 C 147.015 456.712,146.408 455.644,145.891 454.750 C 145.374 453.856,144.610 452.506,144.193 451.750 C 143.777 450.994,143.282 450.197,143.093 449.980 C 142.904 449.763,142.750 449.460,142.750 449.305 C 142.750 449.151,142.412 448.525,142.000 447.914 C 141.588 447.303,141.250 446.693,141.250 446.560 C 141.250 446.427,141.027 446.033,140.754 445.686 C 140.480 445.339,139.965 444.508,139.609 443.840 C 139.252 443.172,138.528 441.894,138.000 441.000 C 137.472 440.106,136.740 438.813,136.375 438.125 C 136.009 437.438,135.551 436.697,135.355 436.480 C 135.160 436.263,135.000 435.939,135.000 435.760 C 135.000 435.581,134.606 434.887,134.125 434.217 C 133.644 433.547,133.250 432.902,133.250 432.784 C 133.250 432.666,132.977 432.167,132.643 431.675 C 132.309 431.183,131.594 429.943,131.055 428.919 C 130.516 427.895,129.720 426.533,129.287 425.891 C 128.854 425.250,128.500 424.584,128.500 424.412 C 128.500 424.241,128.359 423.960,128.188 423.790 C 127.875 423.479,126.661 421.400,125.830 419.750 C 125.587 419.269,125.076 418.405,124.694 417.830 C 124.312 417.255,124.000 416.703,124.000 416.602 C 124.000 416.501,123.640 415.858,123.200 415.172 C 122.261 413.709,121.711 412.749,121.026 411.375 C 120.751 410.825,120.240 409.988,119.888 409.514 C 119.537 409.040,119.250 408.560,119.250 408.446 C 119.250 408.333,118.947 407.764,118.577 407.183 C 118.208 406.601,117.574 405.506,117.171 404.750 C 116.767 403.994,116.338 403.337,116.218 403.292 C 116.098 403.246,116.000 403.038,116.000 402.830 C 116.000 402.622,115.785 402.150,115.522 401.781 C 115.260 401.413,114.753 400.580,114.397 399.930 C 114.041 399.281,113.469 398.238,113.125 397.612 C 112.781 396.985,112.219 396.059,111.875 395.554 C 111.531 395.048,111.250 394.545,111.250 394.437 C 111.250 394.328,110.957 393.796,110.598 393.254 C 109.922 392.232,109.619 391.708,108.404 389.460 C 108.007 388.726,107.473 387.857,107.216 387.529 C 106.960 387.201,106.750 386.732,106.750 386.487 C 106.750 386.242,106.666 386.004,106.563 385.958 C 106.379 385.877,105.000 383.853,105.000 383.666 C 105.000 383.614,104.422 382.571,103.715 381.348 C 103.009 380.126,102.150 378.619,101.807 378.000 C 101.464 377.381,101.096 376.762,100.991 376.625 C 100.885 376.488,100.490 375.813,100.113 375.125 C 99.736 374.438,99.242 373.538,99.015 373.125 C 98.788 372.712,98.319 371.925,97.973 371.375 C 97.627 370.825,97.197 370.009,97.017 369.563 C 96.837 369.116,96.604 368.750,96.500 368.750 C 96.396 368.750,96.163 368.394,95.983 367.960 C 95.803 367.525,95.283 366.628,94.828 365.966 C 94.373 365.304,94.000 364.628,94.000 364.463 C 94.000 364.299,93.844 363.987,93.653 363.770 C 93.463 363.553,92.973 362.756,92.565 362.000 C 92.157 361.244,91.418 359.950,90.922 359.125 C 90.427 358.300,89.673 357.006,89.247 356.250 C 88.821 355.494,88.139 354.313,87.731 353.625 C 87.324 352.938,86.793 351.981,86.551 351.500 C 86.310 351.019,85.831 350.175,85.487 349.625 C 85.142 349.075,84.642 348.203,84.374 347.688 C 84.106 347.172,83.813 346.750,83.723 346.750 C 83.634 346.750,83.416 346.384,83.238 345.938 C 83.061 345.491,82.597 344.641,82.208 344.050 C 81.819 343.459,81.500 342.864,81.500 342.727 C 81.500 342.441,80.466 340.915,80.188 340.792 C 80.084 340.746,80.000 340.563,80.000 340.384 C 80.000 340.053,79.604 339.348,76.556 334.250 C 76.104 333.494,75.627 332.620,75.497 332.309 C 75.366 331.998,75.038 331.435,74.767 331.059 C 74.496 330.683,73.994 329.869,73.652 329.250 C 73.310 328.631,72.625 327.394,72.130 326.500 C 71.635 325.606,70.786 324.144,70.243 323.250 C 69.700 322.356,69.082 321.288,68.870 320.875 C 68.658 320.462,68.045 319.394,67.507 318.500 C 66.969 317.606,66.157 316.218,65.702 315.415 C 65.247 314.612,64.701 313.655,64.488 313.290 C 64.275 312.924,63.905 312.288,63.666 311.875 C 63.426 311.462,62.961 310.675,62.631 310.125 C 62.302 309.575,61.681 308.506,61.252 307.750 C 60.823 306.994,60.048 305.644,59.529 304.750 C 59.010 303.856,58.270 302.563,57.885 301.875 C 57.500 301.188,57.031 300.447,56.843 300.230 C 56.654 300.013,56.500 299.693,56.500 299.519 C 56.500 299.345,56.247 298.850,55.938 298.420 C 55.450 297.742,54.365 295.854,51.816 291.250 C 51.474 290.631,50.904 289.563,50.551 288.875 C 50.197 288.188,49.591 287.155,49.204 286.580 C 48.817 286.005,48.500 285.381,48.500 285.192 C 48.500 285.004,48.391 284.741,48.259 284.609 C 48.126 284.476,47.301 282.963,46.425 281.246 C 45.549 279.530,44.648 277.788,44.423 277.375 C 43.900 276.417,40.750 269.777,40.750 269.632 C 40.750 269.572,40.403 268.758,39.978 267.824 C 38.300 264.130,37.740 262.834,37.407 261.875 C 37.216 261.325,36.694 259.919,36.246 258.750 C 35.799 257.581,35.202 255.950,34.921 255.125 C 34.639 254.300,34.092 252.757,33.704 251.696 C 33.317 250.634,33.000 249.571,33.000 249.333 C 33.000 249.095,32.615 247.713,32.145 246.263 C 30.828 242.200,28.694 232.311,27.636 225.375 C 24.938 207.677,25.493 185.511,29.048 169.000 C 29.477 167.006,29.909 164.756,30.007 164.000 C 30.105 163.244,30.425 161.854,30.718 160.911 C 31.011 159.969,31.250 158.959,31.250 158.668 C 31.250 158.378,31.634 156.899,32.102 155.382 C 32.571 153.866,33.317 151.387,33.759 149.875 C 34.202 148.363,34.928 146.169,35.374 145.000 C 35.820 143.831,36.384 142.256,36.627 141.500 C 36.871 140.744,37.167 140.018,37.285 139.887 C 37.403 139.757,37.500 139.448,37.500 139.201 C 37.500 138.954,37.894 137.900,38.375 136.858 C 38.856 135.816,39.250 134.879,39.250 134.776 C 39.250 134.673,39.588 133.892,40.000 133.040 C 40.413 132.189,40.750 131.368,40.750 131.217 C 40.750 131.066,41.017 130.421,41.344 129.784 C 41.670 129.146,42.415 127.612,42.999 126.375 C 44.355 123.500,44.724 122.763,45.872 120.625 C 46.389 119.662,47.312 117.919,47.923 116.752 C 48.534 115.584,49.307 114.269,49.642 113.831 C 49.976 113.392,50.250 112.864,50.250 112.656 C 50.250 112.449,50.360 112.212,50.494 112.129 C 50.707 111.997,51.849 110.143,53.001 108.056 C 53.208 107.681,53.686 106.971,54.064 106.476 C 54.441 105.982,54.751 105.476,54.752 105.351 C 54.754 105.227,55.119 104.653,55.565 104.075 C 56.010 103.498,56.769 102.451,57.250 101.750 C 57.731 101.048,58.434 100.070,58.813 99.578 C 59.191 99.085,59.500 98.592,59.500 98.483 C 59.500 98.375,59.667 98.119,59.871 97.915 C 60.075 97.711,60.850 96.719,61.593 95.710 C 62.337 94.701,63.180 93.594,63.467 93.250 C 63.755 92.906,65.179 91.162,66.633 89.375 C 68.087 87.588,69.551 85.896,69.888 85.616 C 70.225 85.335,70.500 85.005,70.500 84.881 C 70.500 84.757,70.894 84.255,71.375 83.765 C 75.283 79.791,76.750 78.249,76.750 78.118 C 76.750 78.034,77.275 77.495,77.917 76.920 C 78.559 76.345,79.837 75.144,80.757 74.250 C 82.557 72.502,85.447 69.860,86.564 68.941 C 86.943 68.630,87.506 68.141,87.814 67.855 C 88.123 67.568,89.275 66.612,90.375 65.730 C 91.475 64.847,92.465 63.984,92.575 63.813 C 92.685 63.641,92.910 63.499,93.075 63.497 C 93.240 63.496,93.756 63.102,94.223 62.622 C 94.689 62.143,95.167 61.750,95.285 61.750 C 95.511 61.750,98.280 59.681,99.048 58.938 C 99.297 58.697,99.617 58.500,99.761 58.500 C 99.904 58.500,100.325 58.219,100.696 57.875 C 101.067 57.531,101.467 57.250,101.586 57.250 C 101.706 57.250,102.264 56.884,102.827 56.438 C 103.390 55.991,104.040 55.513,104.272 55.375 C 104.618 55.169,106.309 54.121,108.716 52.620 C 108.941 52.480,109.601 52.058,110.183 51.682 C 110.764 51.307,111.308 51.000,111.390 51.000 C 111.473 51.000,112.133 50.606,112.859 50.125 C 113.584 49.644,114.252 49.250,114.343 49.250 C 114.435 49.250,114.986 48.948,115.567 48.580 C 116.481 48.001,119.083 46.654,120.250 46.156 C 120.456 46.069,121.075 45.714,121.625 45.368 C 122.175 45.022,122.794 44.681,123.000 44.610 C 123.378 44.479,124.989 43.734,128.025 42.287 C 128.933 41.854,129.746 41.500,129.832 41.500 C 129.917 41.500,130.724 41.163,131.625 40.750 C 132.526 40.337,133.385 40.000,133.535 40.000 C 133.685 40.000,134.648 39.606,135.676 39.125 C 136.704 38.644,137.666 38.250,137.815 38.250 C 137.964 38.250,138.818 37.957,139.712 37.599 C 140.606 37.242,141.853 36.807,142.481 36.633 C 143.110 36.459,144.300 36.081,145.125 35.794 C 147.169 35.082,152.018 33.636,154.000 33.149 C 161.023 31.420,165.167 30.500,165.938 30.500 C 166.316 30.499,168.650 30.162,171.125 29.750 C 173.600 29.338,176.019 29.001,176.500 29.002 C 177.651 29.003,187.306 27.344,188.750 26.896 C 190.475 26.362,208.868 26.353,212.625 26.884 M152.043 104.643 C 151.585 104.849,150.973 105.239,150.683 105.509 C 150.393 105.779,150.036 106.003,149.890 106.007 C 149.744 106.011,149.297 106.348,148.896 106.757 C 148.495 107.166,148.073 107.500,147.958 107.500 C 147.844 107.500,147.750 107.648,147.750 107.828 C 147.750 108.009,147.412 108.480,147.000 108.875 C 146.588 109.270,146.245 109.713,146.240 109.859 C 146.234 110.005,145.897 110.515,145.490 110.991 C 145.083 111.467,144.750 111.958,144.750 112.082 C 144.750 112.206,144.372 112.829,143.909 113.467 C 142.010 116.083,141.629 118.968,142.234 126.125 C 142.363 127.638,142.535 137.453,142.618 147.937 L 142.769 166.999 141.947 167.345 C 140.902 167.785,138.948 168.408,137.500 168.762 C 136.881 168.914,132.831 169.136,128.500 169.256 C 120.204 169.486,119.569 169.573,117.095 170.827 C 112.558 173.126,110.051 181.174,112.466 185.687 C 113.793 188.167,115.711 190.435,117.819 192.018 C 118.812 192.764,119.681 193.441,119.750 193.523 C 119.819 193.605,120.441 193.953,121.132 194.297 C 122.467 194.962,123.953 195.906,125.031 196.773 C 125.391 197.063,126.066 197.379,126.531 197.476 L 127.375 197.652 127.317 200.139 C 127.285 201.506,127.128 207.240,126.968 212.881 C 126.668 223.425,126.802 237.232,127.246 241.500 C 127.381 242.806,127.555 244.775,127.632 245.875 C 127.802 248.324,128.886 255.124,129.405 257.000 C 130.832 262.164,131.733 265.025,132.036 265.363 C 132.154 265.493,132.250 265.832,132.250 266.116 C 132.250 266.399,132.925 267.978,133.750 269.625 C 134.575 271.272,135.250 272.709,135.250 272.819 C 135.250 273.032,136.160 274.380,136.688 274.949 C 136.859 275.134,137.000 275.397,137.000 275.533 C 137.000 275.668,137.320 276.195,137.711 276.702 C 138.102 277.210,138.925 278.300,139.541 279.125 C 141.345 281.545,143.848 284.209,146.057 286.061 C 148.343 287.977,149.227 288.679,150.072 289.250 C 150.580 289.594,150.997 289.959,150.998 290.063 C 150.999 290.166,151.151 290.250,151.335 290.250 C 151.519 290.250,152.053 290.534,152.522 290.881 C 153.938 291.927,156.035 293.250,156.280 293.250 C 156.407 293.250,156.930 293.508,157.442 293.824 C 158.361 294.390,161.307 295.854,164.000 297.084 C 166.875 298.397,171.441 300.120,174.375 301.000 C 175.200 301.247,176.719 301.737,177.750 302.088 C 179.641 302.732,181.832 303.358,186.875 304.696 L 189.625 305.425 189.580 306.775 C 189.556 307.518,189.238 309.925,188.874 312.125 C 186.628 325.713,187.826 336.305,192.188 341.418 C 192.497 341.781,192.751 342.145,192.752 342.226 C 192.753 342.308,193.231 342.854,193.815 343.439 C 200.379 350.027,207.783 346.004,211.723 333.709 C 212.882 330.094,212.724 320.279,211.376 312.125 C 211.012 309.925,210.694 307.518,210.670 306.775 L 210.625 305.425 213.375 304.696 C 218.418 303.358,220.609 302.732,222.500 302.088 C 223.531 301.737,225.050 301.247,225.875 301.000 C 228.809 300.120,233.375 298.397,236.250 297.084 C 238.943 295.854,241.889 294.390,242.808 293.824 C 243.320 293.508,243.843 293.250,243.970 293.250 C 244.215 293.250,246.312 291.927,247.728 290.881 C 248.197 290.534,248.731 290.250,248.915 290.250 C 249.099 290.250,249.251 290.166,249.252 290.063 C 249.253 289.959,249.670 289.594,250.178 289.250 C 251.023 288.679,251.907 287.977,254.193 286.061 C 256.402 284.209,258.905 281.545,260.709 279.125 C 261.325 278.300,262.148 277.210,262.539 276.702 C 262.930 276.195,263.250 275.668,263.250 275.533 C 263.250 275.397,263.391 275.134,263.563 274.949 C 264.090 274.380,265.000 273.032,265.000 272.819 C 265.000 272.709,265.675 271.272,266.500 269.625 C 267.325 267.978,268.000 266.399,268.000 266.116 C 268.000 265.832,268.096 265.493,268.214 265.362 C 268.519 265.024,269.502 261.895,270.842 257.000 C 271.419 254.891,272.251 249.802,272.507 246.812 C 272.633 245.334,272.857 242.944,273.004 241.500 C 273.457 237.052,273.587 223.632,273.282 212.875 C 273.122 207.238,272.965 201.514,272.933 200.156 L 272.875 197.687 273.968 197.361 C 274.570 197.181,275.357 196.764,275.718 196.433 C 276.489 195.727,278.665 194.390,279.450 194.141 C 279.751 194.045,280.138 193.834,280.311 193.671 C 280.484 193.508,281.438 192.764,282.431 192.018 C 284.539 190.435,286.457 188.167,287.784 185.687 C 290.199 181.174,287.692 173.126,283.155 170.827 C 280.681 169.573,280.046 169.486,271.750 169.256 C 267.419 169.136,263.369 168.914,262.750 168.762 C 261.299 168.407,259.347 167.784,258.299 167.343 L 257.474 166.996 257.617 148.810 C 257.695 138.808,257.887 128.363,258.043 125.598 C 258.474 117.985,258.202 116.059,256.335 113.467 C 255.876 112.829,255.500 112.206,255.500 112.082 C 255.500 111.958,255.167 111.467,254.760 110.991 C 254.353 110.515,254.016 110.005,254.010 109.859 C 254.005 109.713,253.662 109.270,253.250 108.875 C 252.838 108.480,252.500 108.009,252.500 107.828 C 252.500 107.648,252.406 107.500,252.292 107.500 C 252.177 107.500,251.755 107.166,251.354 106.757 C 250.953 106.348,250.506 106.011,250.360 106.007 C 250.214 106.003,249.855 105.777,249.562 105.504 C 246.341 102.503,239.850 104.498,236.538 109.506 C 232.708 115.299,232.642 115.741,232.632 135.875 C 232.628 143.713,232.727 154.218,232.852 159.220 L 233.078 168.314 229.352 168.127 C 224.507 167.884,176.070 167.883,170.918 168.126 L 166.960 168.312 167.100 166.344 C 167.762 156.993,167.893 123.873,167.288 118.457 C 166.689 113.085,163.821 108.318,159.408 105.359 C 157.701 104.214,153.831 103.838,152.043 104.643 " stroke="none" fill="#040404" fill-rule="evenodd"></path><path id="path1" d="M188.750 26.896 C 187.306 27.344,177.651 29.003,176.500 29.002 C 176.019 29.001,173.600 29.338,171.125 29.750 C 168.650 30.162,166.316 30.499,165.938 30.500 C 165.167 30.500,161.023 31.420,154.000 33.149 C 152.018 33.636,147.169 35.082,145.125 35.794 C 144.300 36.081,143.110 36.459,142.481 36.633 C 141.853 36.807,140.606 37.242,139.712 37.599 C 138.818 37.957,137.964 38.250,137.815 38.250 C 137.666 38.250,136.704 38.644,135.676 39.125 C 134.648 39.606,133.685 40.000,133.535 40.000 C 133.385 40.000,132.526 40.337,131.625 40.750 C 130.724 41.163,129.917 41.500,129.832 41.500 C 129.746 41.500,128.933 41.854,128.025 42.287 C 124.989 43.734,123.378 44.479,123.000 44.610 C 122.794 44.681,122.175 45.022,121.625 45.368 C 121.075 45.714,120.456 46.069,120.250 46.156 C 119.083 46.654,116.481 48.001,115.567 48.580 C 114.986 48.948,114.435 49.250,114.343 49.250 C 114.252 49.250,113.584 49.644,112.859 50.125 C 112.133 50.606,111.473 51.000,111.390 51.000 C 111.308 51.000,110.764 51.307,110.183 51.682 C 109.601 52.058,108.941 52.480,108.716 52.620 C 106.309 54.121,104.618 55.169,104.272 55.375 C 104.040 55.513,103.390 55.991,102.827 56.438 C 102.264 56.884,101.706 57.250,101.586 57.250 C 101.467 57.250,101.067 57.531,100.696 57.875 C 100.325 58.219,99.904 58.500,99.761 58.500 C 99.617 58.500,99.297 58.697,99.048 58.938 C 98.280 59.681,95.511 61.750,95.285 61.750 C 95.167 61.750,94.689 62.143,94.223 62.622 C 93.756 63.102,93.240 63.496,93.075 63.497 C 92.910 63.499,92.685 63.641,92.575 63.813 C 92.465 63.984,91.475 64.847,90.375 65.730 C 89.275 66.612,88.123 67.568,87.814 67.855 C 87.506 68.141,86.943 68.630,86.564 68.941 C 85.447 69.860,82.557 72.502,80.757 74.250 C 79.837 75.144,78.559 76.345,77.917 76.920 C 77.275 77.495,76.750 78.034,76.750 78.118 C 76.750 78.249,75.283 79.791,71.375 83.765 C 70.894 84.255,70.500 84.757,70.500 84.881 C 70.500 85.005,70.225 85.335,69.888 85.616 C 69.551 85.896,68.087 87.588,66.633 89.375 C 65.179 91.162,63.755 92.906,63.467 93.250 C 63.180 93.594,62.337 94.701,61.593 95.710 C 60.850 96.719,60.075 97.711,59.871 97.915 C 59.667 98.119,59.500 98.375,59.500 98.483 C 59.500 98.592,59.191 99.085,58.813 99.578 C 58.434 100.070,57.731 101.048,57.250 101.750 C 56.769 102.451,56.010 103.498,55.565 104.075 C 55.119 104.653,54.754 105.227,54.752 105.351 C 54.751 105.476,54.441 105.982,54.064 106.476 C 53.686 106.971,53.208 107.681,53.001 108.056 C 51.849 110.143,50.707 111.997,50.494 112.129 C 50.360 112.212,50.250 112.449,50.250 112.656 C 50.250 112.864,49.976 113.392,49.642 113.831 C 49.307 114.269,48.534 115.584,47.923 116.752 C 47.312 117.919,46.389 119.662,45.872 120.625 C 44.724 122.763,44.355 123.500,42.999 126.375 C 42.415 127.612,41.670 129.146,41.344 129.784 C 41.017 130.421,40.750 131.066,40.750 131.217 C 40.750 131.368,40.413 132.189,40.000 133.040 C 39.588 133.892,39.250 134.673,39.250 134.776 C 39.250 134.879,38.856 135.816,38.375 136.858 C 37.894 137.900,37.500 138.954,37.500 139.201 C 37.500 139.448,37.403 139.757,37.285 139.887 C 37.167 140.018,36.871 140.744,36.627 141.500 C 36.384 142.256,35.820 143.831,35.374 145.000 C 34.928 146.169,34.202 148.363,33.759 149.875 C 33.317 151.387,32.571 153.866,32.102 155.382 C 31.634 156.899,31.250 158.378,31.250 158.668 C 31.250 158.959,31.011 159.969,30.718 160.911 C 30.425 161.854,30.105 163.244,30.007 164.000 C 29.909 164.756,29.477 167.006,29.048 169.000 C 25.493 185.511,24.938 207.677,27.636 225.375 C 28.694 232.311,30.828 242.200,32.145 246.263 C 32.615 247.713,33.000 249.095,33.000 249.333 C 33.000 249.571,33.317 250.634,33.704 251.696 C 34.092 252.757,34.639 254.300,34.921 255.125 C 35.202 255.950,35.799 257.581,36.246 258.750 C 36.694 259.919,37.216 261.325,37.407 261.875 C 37.740 262.834,38.300 264.130,39.978 267.824 C 40.403 268.758,40.750 269.572,40.750 269.632 C 40.750 269.777,43.900 276.417,44.423 277.375 C 44.648 277.788,45.549 279.530,46.425 281.246 C 47.301 282.963,48.126 284.476,48.259 284.609 C 48.391 284.741,48.500 285.004,48.500 285.192 C 48.500 285.381,48.817 286.005,49.204 286.580 C 49.591 287.155,50.197 288.188,50.551 288.875 C 50.904 289.563,51.474 290.631,51.816 291.250 C 54.365 295.854,55.450 297.742,55.938 298.420 C 56.247 298.850,56.500 299.345,56.500 299.519 C 56.500 299.693,56.654 300.013,56.843 300.230 C 57.031 300.447,57.500 301.188,57.885 301.875 C 58.270 302.563,59.010 303.856,59.529 304.750 C 60.048 305.644,60.823 306.994,61.252 307.750 C 61.681 308.506,62.302 309.575,62.631 310.125 C 62.961 310.675,63.426 311.462,63.666 311.875 C 63.905 312.288,64.275 312.924,64.488 313.290 C 64.701 313.655,65.247 314.612,65.702 315.415 C 66.157 316.218,66.969 317.606,67.507 318.500 C 68.045 319.394,68.658 320.462,68.870 320.875 C 69.082 321.288,69.700 322.356,70.243 323.250 C 70.786 324.144,71.635 325.606,72.130 326.500 C 72.625 327.394,73.310 328.631,73.652 329.250 C 73.994 329.869,74.496 330.683,74.767 331.059 C 75.038 331.435,75.366 331.998,75.497 332.309 C 75.627 332.620,76.104 333.494,76.556 334.250 C 79.604 339.348,80.000 340.053,80.000 340.384 C 80.000 340.563,80.084 340.746,80.188 340.792 C 80.466 340.915,81.500 342.441,81.500 342.727 C 81.500 342.864,81.819 343.459,82.208 344.050 C 82.597 344.641,83.061 345.491,83.238 345.938 C 83.416 346.384,83.634 346.750,83.723 346.750 C 83.813 346.750,84.106 347.172,84.374 347.688 C 84.642 348.203,85.142 349.075,85.487 349.625 C 85.831 350.175,86.310 351.019,86.551 351.500 C 86.793 351.981,87.324 352.938,87.731 353.625 C 88.139 354.313,88.821 355.494,89.247 356.250 C 89.673 357.006,90.427 358.300,90.922 359.125 C 91.418 359.950,92.157 361.244,92.565 362.000 C 92.973 362.756,93.463 363.553,93.653 363.770 C 93.844 363.987,94.000 364.299,94.000 364.463 C 94.000 364.628,94.373 365.304,94.828 365.966 C 95.283 366.628,95.803 367.525,95.983 367.960 C 96.163 368.394,96.396 368.750,96.500 368.750 C 96.604 368.750,96.837 369.116,97.017 369.563 C 97.197 370.009,97.627 370.825,97.973 371.375 C 98.319 371.925,98.788 372.712,99.015 373.125 C 99.242 373.538,99.736 374.438,100.113 375.125 C 100.490 375.813,100.885 376.488,100.991 376.625 C 101.096 376.762,101.464 377.381,101.807 378.000 C 102.150 378.619,103.009 380.126,103.715 381.348 C 104.422 382.571,105.000 383.614,105.000 383.666 C 105.000 383.853,106.379 385.877,106.563 385.958 C 106.666 386.004,106.750 386.242,106.750 386.487 C 106.750 386.732,106.960 387.201,107.216 387.529 C 107.473 387.857,108.007 388.726,108.404 389.460 C 109.619 391.708,109.922 392.232,110.598 393.254 C 110.957 393.796,111.250 394.328,111.250 394.437 C 111.250 394.545,111.531 395.048,111.875 395.554 C 112.219 396.059,112.781 396.985,113.125 397.612 C 113.469 398.238,114.041 399.281,114.397 399.930 C 114.753 400.580,115.260 401.413,115.522 401.781 C 115.785 402.150,116.000 402.622,116.000 402.830 C 116.000 403.038,116.098 403.246,116.218 403.292 C 116.338 403.337,116.767 403.994,117.171 404.750 C 117.574 405.506,118.208 406.601,118.577 407.183 C 118.947 407.764,119.250 408.333,119.250 408.446 C 119.250 408.560,119.537 409.040,119.888 409.514 C 120.240 409.988,120.751 410.825,121.026 411.375 C 121.711 412.749,122.261 413.709,123.200 415.172 C 123.640 415.858,124.000 416.501,124.000 416.602 C 124.000 416.703,124.312 417.255,124.694 417.830 C 125.076 418.405,125.587 419.269,125.830 419.750 C 126.661 421.400,127.875 423.479,128.188 423.790 C 128.359 423.960,128.500 424.241,128.500 424.412 C 128.500 424.584,128.854 425.250,129.287 425.891 C 129.720 426.533,130.516 427.895,131.055 428.919 C 131.594 429.943,132.309 431.183,132.643 431.675 C 132.977 432.167,133.250 432.666,133.250 432.784 C 133.250 432.902,133.644 433.547,134.125 434.217 C 134.606 434.887,135.000 435.581,135.000 435.760 C 135.000 435.939,135.160 436.263,135.355 436.480 C 135.551 436.697,136.009 437.438,136.375 438.125 C 136.740 438.813,137.472 440.106,138.000 441.000 C 138.528 441.894,139.252 443.172,139.609 443.840 C 139.965 444.508,140.480 445.339,140.754 445.686 C 141.027 446.033,141.250 446.427,141.250 446.560 C 141.250 446.693,141.588 447.303,142.000 447.914 C 142.412 448.525,142.750 449.151,142.750 449.305 C 142.750 449.460,142.904 449.763,143.093 449.980 C 143.282 450.197,143.777 450.994,144.193 451.750 C 144.610 452.506,145.374 453.856,145.891 454.750 C 146.408 455.644,147.015 456.712,147.240 457.125 C 147.464 457.538,147.928 458.325,148.270 458.875 C 148.613 459.425,149.034 460.156,149.207 460.500 C 149.380 460.844,149.960 461.856,150.496 462.750 C 151.032 463.644,151.843 465.032,152.298 465.835 C 152.753 466.638,153.297 467.595,153.507 467.960 C 153.716 468.326,154.545 469.806,155.349 471.250 C 156.152 472.694,157.083 474.303,157.417 474.826 C 158.009 475.753,158.596 476.776,159.825 479.025 C 160.156 479.630,160.832 480.800,161.327 481.625 C 161.823 482.450,162.632 483.856,163.125 484.750 C 163.618 485.644,164.423 487.050,164.914 487.875 C 165.927 489.577,167.151 491.766,167.709 492.875 C 167.916 493.288,168.332 493.962,168.632 494.375 C 168.933 494.788,169.349 495.462,169.557 495.875 C 170.326 497.399,171.267 499.052,171.875 499.946 C 172.219 500.452,172.500 501.001,172.500 501.165 C 172.500 501.330,172.657 501.622,172.850 501.814 C 173.042 502.006,173.555 502.830,173.989 503.644 C 174.424 504.459,175.214 505.856,175.745 506.750 C 176.276 507.644,177.010 508.938,177.375 509.625 C 177.741 510.313,178.199 511.053,178.395 511.270 C 178.590 511.487,178.750 511.815,178.750 512.000 C 178.750 512.185,178.910 512.513,179.105 512.730 C 179.440 513.103,180.333 514.621,182.057 517.750 C 182.473 518.506,182.968 519.303,183.157 519.520 C 183.346 519.737,183.500 520.040,183.500 520.195 C 183.500 520.349,183.838 520.975,184.250 521.586 C 184.662 522.197,185.000 522.797,185.000 522.918 C 185.000 523.039,185.197 523.408,185.437 523.738 C 185.922 524.401,187.045 526.346,188.241 528.591 C 188.670 529.397,189.185 530.221,189.386 530.421 C 189.586 530.622,189.750 530.895,189.750 531.028 C 189.750 531.161,190.144 531.854,190.625 532.569 C 191.106 533.284,191.500 533.956,191.500 534.064 C 191.500 534.172,191.807 534.736,192.181 535.317 C 192.556 535.899,193.065 536.769,193.313 537.250 C 193.561 537.731,194.156 538.800,194.636 539.625 C 195.116 540.450,195.645 541.406,195.811 541.750 C 195.978 542.094,196.482 542.908,196.932 543.560 C 197.382 544.212,197.750 544.821,197.750 544.914 C 197.750 545.354,199.920 548.247,200.250 548.247 C 200.608 548.247,200.861 547.908,202.210 545.625 C 202.535 545.075,202.946 544.456,203.122 544.250 C 203.299 544.044,203.739 543.313,204.101 542.625 C 205.523 539.926,206.579 538.121,206.785 538.042 C 206.903 537.996,207.000 537.795,207.000 537.594 C 207.000 537.394,207.394 536.646,207.875 535.931 C 208.356 535.216,208.750 534.535,208.750 534.417 C 208.750 534.299,208.965 533.900,209.228 533.531 C 209.490 533.163,209.997 532.330,210.353 531.680 C 210.709 531.031,211.291 529.969,211.647 529.320 C 212.003 528.670,212.510 527.837,212.772 527.469 C 213.035 527.100,213.250 526.687,213.250 526.552 C 213.250 526.417,213.628 525.756,214.090 525.085 C 214.552 524.413,215.010 523.613,215.107 523.308 C 215.203 523.003,215.422 522.612,215.592 522.439 C 215.762 522.266,216.160 521.587,216.477 520.929 C 216.794 520.271,217.201 519.584,217.383 519.403 C 217.564 519.221,217.888 518.691,218.103 518.224 C 218.679 516.969,219.802 514.960,220.398 514.116 C 220.686 513.708,221.091 513.038,221.299 512.625 C 221.507 512.212,222.104 511.144,222.626 510.250 C 223.148 509.356,223.825 508.175,224.130 507.625 C 225.293 505.530,225.631 505.003,225.813 505.002 C 225.916 505.001,226.000 504.825,226.000 504.612 C 226.000 504.398,226.281 503.810,226.625 503.304 C 226.969 502.798,227.250 502.288,227.250 502.172 C 227.250 502.055,227.644 501.367,228.125 500.641 C 228.606 499.916,229.000 499.239,229.000 499.135 C 229.000 499.032,229.338 498.447,229.750 497.836 C 230.162 497.225,230.500 496.624,230.500 496.500 C 230.500 496.376,230.854 495.750,231.287 495.109 C 231.720 494.467,232.525 493.083,233.076 492.034 C 233.628 490.984,234.342 489.777,234.664 489.351 C 234.986 488.926,235.250 488.440,235.250 488.272 C 235.250 488.104,235.520 487.609,235.850 487.171 C 236.181 486.733,236.634 485.981,236.858 485.500 C 237.082 485.019,237.705 483.894,238.243 483.000 C 239.228 481.363,240.256 479.573,241.402 477.500 C 241.744 476.881,242.246 476.067,242.517 475.691 C 242.788 475.315,243.118 474.752,243.252 474.441 C 243.385 474.130,243.860 473.243,244.309 472.471 C 244.758 471.699,245.463 470.479,245.875 469.759 C 246.287 469.040,246.878 468.063,247.188 467.589 C 247.497 467.115,247.750 466.619,247.750 466.486 C 247.750 466.354,248.144 465.685,248.625 465.000 C 249.106 464.315,249.500 463.647,249.500 463.515 C 249.500 463.383,249.838 462.775,250.250 462.164 C 250.663 461.553,251.000 460.962,251.000 460.852 C 251.000 460.742,251.262 460.252,251.581 459.763 C 252.784 457.924,254.130 455.617,255.672 452.750 C 256.005 452.131,256.712 450.894,257.244 450.000 C 257.776 449.106,258.510 447.813,258.875 447.125 C 259.241 446.438,259.681 445.706,259.853 445.500 C 260.136 445.162,260.502 444.498,261.711 442.125 C 261.922 441.712,262.410 440.936,262.797 440.400 C 263.184 439.864,263.500 439.319,263.500 439.189 C 263.500 439.059,263.712 438.654,263.971 438.289 C 264.230 437.924,264.777 437.006,265.187 436.250 C 265.598 435.494,266.172 434.481,266.464 434.000 C 266.756 433.519,267.186 432.759,267.419 432.313 C 267.652 431.866,267.934 431.500,268.046 431.500 C 268.158 431.500,268.250 431.290,268.250 431.034 C 268.250 430.777,268.460 430.299,268.716 429.971 C 268.972 429.643,269.438 428.869,269.752 428.250 C 270.065 427.631,270.569 426.788,270.871 426.375 C 271.173 425.962,271.563 425.263,271.737 424.821 C 271.911 424.378,272.210 423.887,272.402 423.728 C 272.593 423.569,272.750 423.276,272.750 423.078 C 272.750 422.879,273.021 422.359,273.352 421.921 C 273.684 421.483,274.246 420.591,274.602 419.938 C 276.274 416.872,276.576 416.345,277.022 415.719 C 277.285 415.350,277.500 414.868,277.500 414.649 C 277.500 414.430,277.585 414.250,277.688 414.250 C 277.791 414.250,278.149 413.716,278.482 413.063 C 278.815 412.409,279.462 411.293,279.919 410.583 C 280.376 409.872,280.750 409.184,280.750 409.054 C 280.750 408.924,280.973 408.533,281.246 408.186 C 281.520 407.839,282.054 406.974,282.434 406.265 C 283.468 404.333,283.800 403.752,284.689 402.309 C 285.135 401.585,285.500 400.936,285.500 400.866 C 285.500 400.797,285.804 400.264,286.175 399.683 C 286.887 398.567,287.365 397.729,288.682 395.284 C 289.126 394.460,289.604 393.715,289.744 393.628 C 289.885 393.542,290.000 393.307,290.000 393.108 C 290.000 392.908,290.368 392.212,290.818 391.560 C 291.268 390.908,291.772 390.094,291.939 389.750 C 292.105 389.406,292.634 388.450,293.114 387.625 C 293.594 386.800,294.187 385.731,294.431 385.250 C 294.676 384.769,295.241 383.848,295.688 383.205 C 296.135 382.561,296.500 381.920,296.500 381.780 C 296.500 381.640,296.837 381.025,297.250 380.414 C 297.663 379.803,298.000 379.193,298.000 379.060 C 298.000 378.927,298.223 378.533,298.496 378.186 C 298.770 377.839,299.284 377.008,299.640 376.340 C 300.700 374.350,301.846 372.378,302.313 371.738 C 302.553 371.408,302.750 371.039,302.750 370.918 C 302.750 370.797,303.087 370.197,303.500 369.586 C 303.912 368.975,304.250 368.367,304.250 368.235 C 304.250 368.104,304.587 367.530,305.000 366.960 C 305.413 366.391,305.750 365.818,305.750 365.686 C 305.750 365.555,306.087 364.947,306.500 364.336 C 306.912 363.725,307.250 363.117,307.250 362.985 C 307.250 362.853,307.644 362.185,308.125 361.500 C 308.606 360.815,309.000 360.151,309.000 360.024 C 309.000 359.897,309.394 359.196,309.875 358.465 C 310.356 357.734,310.750 357.045,310.750 356.933 C 310.750 356.821,310.957 356.425,311.210 356.052 C 312.044 354.824,313.652 352.082,314.981 349.618 C 315.205 349.202,315.752 348.325,316.195 347.668 C 316.638 347.012,317.000 346.318,317.000 346.127 C 317.000 345.936,317.115 345.708,317.256 345.621 C 317.397 345.534,317.908 344.712,318.391 343.794 C 318.874 342.876,319.714 341.394,320.257 340.500 C 320.800 339.606,321.412 338.538,321.616 338.125 C 321.821 337.712,322.437 336.644,322.984 335.750 C 323.860 334.321,324.370 333.440,326.013 330.514 C 326.226 330.135,326.735 329.273,327.143 328.600 C 328.035 327.130,328.404 326.482,329.195 325.000 C 329.525 324.381,329.941 323.706,330.119 323.500 C 330.296 323.294,330.695 322.619,331.005 322.000 C 331.315 321.381,331.778 320.607,332.034 320.279 C 332.290 319.951,332.500 319.473,332.500 319.216 C 332.500 318.960,332.594 318.750,332.710 318.750 C 332.825 318.750,333.053 318.497,333.215 318.188 C 333.378 317.878,333.836 317.063,334.235 316.375 C 335.135 314.821,336.492 312.443,337.036 311.468 C 337.261 311.063,337.715 310.313,338.043 309.803 C 338.372 309.293,338.777 308.594,338.943 308.250 C 339.109 307.906,339.691 306.894,340.237 306.000 C 340.783 305.106,341.600 303.718,342.052 302.915 C 343.496 300.353,343.617 300.144,344.250 299.125 C 344.989 297.936,345.385 297.243,346.341 295.460 C 346.735 294.726,347.202 293.956,347.378 293.750 C 347.689 293.387,348.057 292.759,349.504 290.125 C 349.882 289.438,350.611 288.144,351.125 287.250 C 352.040 285.657,354.336 281.350,355.590 278.875 C 356.158 277.754,356.759 276.467,358.625 272.375 C 358.939 271.688,359.545 270.363,359.973 269.433 C 360.400 268.502,360.750 267.633,360.750 267.502 C 360.750 267.371,361.026 266.670,361.364 265.944 C 361.989 264.601,362.215 264.007,363.525 260.250 C 363.933 259.081,364.415 257.788,364.596 257.375 C 365.353 255.650,367.715 247.912,368.373 245.000 C 368.544 244.244,369.036 242.361,369.467 240.817 C 369.898 239.272,370.248 237.809,370.246 237.567 C 370.244 237.324,370.577 235.494,370.984 233.500 C 373.310 222.134,374.128 212.280,373.930 198.025 C 373.761 185.861,372.918 176.477,371.222 167.875 C 370.951 166.500,370.558 164.363,370.348 163.125 C 370.138 161.887,369.736 160.088,369.455 159.125 C 369.173 158.162,368.793 156.705,368.609 155.887 C 368.291 154.467,367.945 153.270,366.217 147.625 C 365.796 146.250,365.068 144.165,364.601 142.991 C 364.133 141.817,363.751 140.748,363.752 140.616 C 363.756 140.156,361.809 135.361,360.022 131.426 C 359.597 130.492,359.250 129.672,359.250 129.604 C 359.250 129.387,355.277 121.443,354.259 119.625 C 353.720 118.662,353.093 117.481,352.865 117.000 C 352.637 116.519,352.181 115.767,351.850 115.329 C 351.520 114.891,351.250 114.425,351.250 114.292 C 351.250 114.159,350.884 113.483,350.438 112.790 C 348.832 110.300,348.250 109.306,348.250 109.051 C 348.250 108.908,348.166 108.754,348.063 108.708 C 347.859 108.618,346.500 106.851,346.500 106.676 C 346.500 106.617,345.909 105.694,345.188 104.625 C 344.466 103.556,343.706 102.429,343.500 102.121 C 343.294 101.813,342.921 101.295,342.673 100.968 C 341.638 99.611,339.087 96.127,338.596 95.400 C 338.304 94.969,337.883 94.464,337.658 94.278 C 337.434 94.091,337.250 93.858,337.250 93.759 C 337.250 93.661,336.869 93.140,336.404 92.603 C 335.939 92.065,334.117 89.938,332.356 87.875 C 326.506 81.026,314.452 69.058,312.488 68.149 C 312.220 68.025,312.000 67.837,312.000 67.731 C 312.000 67.535,307.986 64.235,306.783 63.441 C 306.421 63.202,306.012 62.861,305.875 62.682 C 305.738 62.504,304.613 61.636,303.375 60.753 C 302.137 59.871,301.035 59.003,300.925 58.825 C 300.815 58.646,300.611 58.500,300.471 58.500 C 300.331 58.500,299.848 58.219,299.397 57.875 C 298.947 57.531,298.457 57.250,298.310 57.250 C 298.162 57.250,298.004 57.150,297.958 57.027 C 297.913 56.904,296.581 55.949,295.000 54.905 C 293.419 53.860,291.989 52.892,291.823 52.753 C 291.657 52.614,291.424 52.500,291.305 52.500 C 291.186 52.500,290.647 52.166,290.107 51.757 C 289.567 51.348,289.004 51.011,288.857 51.007 C 288.709 51.003,288.034 50.606,287.357 50.125 C 286.680 49.644,286.030 49.250,285.912 49.250 C 285.794 49.250,285.231 48.938,284.661 48.557 C 284.091 48.175,282.623 47.378,281.399 46.785 C 280.174 46.192,278.742 45.436,278.216 45.104 C 277.690 44.772,277.150 44.500,277.016 44.500 C 276.882 44.500,276.232 44.182,275.572 43.792 C 274.912 43.403,274.054 43.005,273.665 42.907 C 273.276 42.810,272.520 42.453,271.984 42.115 C 271.448 41.777,270.867 41.499,270.692 41.497 C 270.518 41.495,269.712 41.158,268.902 40.747 C 268.092 40.336,267.274 40.000,267.084 40.000 C 266.893 40.000,265.956 39.606,265.000 39.125 C 264.044 38.644,263.127 38.250,262.961 38.250 C 262.795 38.250,261.808 37.920,260.767 37.517 C 257.351 36.194,249.271 33.495,248.750 33.504 C 248.544 33.507,247.137 33.175,245.625 32.764 C 240.055 31.254,231.220 29.521,226.500 29.014 C 225.606 28.918,222.738 28.487,220.125 28.056 C 210.642 26.493,210.641 26.493,199.875 26.521 C 192.089 26.542,189.626 26.625,188.750 26.896 M159.408 105.359 C 162.740 107.593,165.484 111.323,166.745 115.332 C 167.841 118.813,168.075 152.580,167.100 166.344 L 166.960 168.312 170.918 168.126 C 176.070 167.883,224.507 167.884,229.352 168.127 L 233.078 168.314 232.852 159.220 C 232.523 146.048,232.573 122.233,232.937 118.875 C 233.293 115.582,233.939 113.544,235.311 111.381 C 237.467 107.984,238.334 107.040,240.842 105.359 C 243.256 103.740,247.749 103.815,249.562 105.504 C 249.855 105.777,250.214 106.003,250.360 106.007 C 250.506 106.011,250.953 106.348,251.354 106.757 C 251.755 107.166,252.177 107.500,252.292 107.500 C 252.406 107.500,252.500 107.648,252.500 107.828 C 252.500 108.009,252.838 108.480,253.250 108.875 C 253.662 109.270,254.005 109.713,254.010 109.859 C 254.016 110.005,254.353 110.515,254.760 110.991 C 255.167 111.467,255.500 111.958,255.500 112.082 C 255.500 112.206,255.876 112.829,256.335 113.467 C 258.202 116.059,258.474 117.985,258.043 125.598 C 257.887 128.363,257.695 138.808,257.617 148.810 L 257.474 166.996 258.299 167.343 C 259.347 167.784,261.299 168.407,262.750 168.762 C 263.369 168.914,267.419 169.136,271.750 169.256 C 280.046 169.486,280.681 169.573,283.155 170.827 C 287.692 173.126,290.199 181.174,287.784 185.687 C 286.457 188.167,284.539 190.435,282.431 192.018 C 281.438 192.764,280.484 193.508,280.311 193.671 C 280.138 193.834,279.751 194.045,279.450 194.141 C 278.665 194.390,276.489 195.727,275.718 196.433 C 275.357 196.764,274.570 197.181,273.968 197.361 L 272.875 197.687 272.933 200.156 C 272.965 201.514,273.122 207.238,273.282 212.875 C 273.587 223.632,273.457 237.052,273.004 241.500 C 272.857 242.944,272.633 245.334,272.507 246.812 C 272.251 249.802,271.419 254.891,270.842 257.000 C 269.502 261.895,268.519 265.024,268.214 265.362 C 268.096 265.493,268.000 265.832,268.000 266.116 C 268.000 266.399,267.325 267.978,266.500 269.625 C 265.675 271.272,265.000 272.709,265.000 272.819 C 265.000 273.032,264.090 274.380,263.563 274.949 C 263.391 275.134,263.250 275.397,263.250 275.533 C 263.250 275.668,262.930 276.195,262.539 276.702 C 262.148 277.210,261.325 278.300,260.709 279.125 C 258.905 281.545,256.402 284.209,254.193 286.061 C 251.907 287.977,251.023 288.679,250.178 289.250 C 249.670 289.594,249.253 289.959,249.252 290.063 C 249.251 290.166,249.099 290.250,248.915 290.250 C 248.731 290.250,248.197 290.534,247.728 290.881 C 246.312 291.927,244.215 293.250,243.970 293.250 C 243.843 293.250,243.320 293.508,242.808 293.824 C 241.889 294.390,238.943 295.854,236.250 297.084 C 233.375 298.397,228.809 300.120,225.875 301.000 C 225.050 301.247,223.531 301.737,222.500 302.088 C 220.609 302.732,218.418 303.358,213.375 304.696 L 210.625 305.425 210.670 306.775 C 210.694 307.518,211.012 309.925,211.376 312.125 C 212.724 320.279,212.882 330.094,211.723 333.709 C 207.783 346.004,200.379 350.027,193.815 343.439 C 193.231 342.854,192.753 342.308,192.752 342.226 C 192.751 342.145,192.497 341.781,192.188 341.418 C 187.826 336.305,186.628 325.713,188.874 312.125 C 189.238 309.925,189.556 307.518,189.580 306.775 L 189.625 305.425 186.875 304.696 C 181.832 303.358,179.641 302.732,177.750 302.088 C 176.719 301.737,175.200 301.247,174.375 301.000 C 171.441 300.120,166.875 298.397,164.000 297.084 C 161.307 295.854,158.361 294.390,157.442 293.824 C 156.930 293.508,156.407 293.250,156.280 293.250 C 156.035 293.250,153.938 291.927,152.522 290.881 C 152.053 290.534,151.519 290.250,151.335 290.250 C 151.151 290.250,150.999 290.166,150.998 290.063 C 150.997 289.959,150.580 289.594,150.072 289.250 C 149.227 288.679,148.343 287.977,146.057 286.061 C 143.848 284.209,141.345 281.545,139.541 279.125 C 138.925 278.300,138.102 277.210,137.711 276.702 C 137.320 276.195,137.000 275.668,137.000 275.533 C 137.000 275.397,136.859 275.134,136.688 274.949 C 136.160 274.380,135.250 273.032,135.250 272.819 C 135.250 272.709,134.575 271.272,133.750 269.625 C 132.925 267.978,132.250 266.399,132.250 266.116 C 132.250 265.832,132.154 265.493,132.036 265.363 C 131.733 265.025,130.832 262.164,129.405 257.000 C 128.886 255.124,127.802 248.324,127.632 245.875 C 127.555 244.775,127.381 242.806,127.246 241.500 C 126.802 237.232,126.668 223.425,126.968 212.881 C 127.128 207.240,127.285 201.506,127.317 200.139 L 127.375 197.652 126.531 197.476 C 126.066 197.379,125.391 197.063,125.031 196.773 C 123.953 195.906,122.467 194.962,121.132 194.297 C 120.441 193.953,119.819 193.605,119.750 193.523 C 119.681 193.441,118.812 192.764,117.819 192.018 C 115.711 190.435,113.793 188.167,112.466 185.687 C 110.051 181.174,112.558 173.126,117.095 170.827 C 119.569 169.573,120.204 169.486,128.500 169.256 C 132.831 169.136,136.881 168.914,137.500 168.762 C 138.948 168.408,140.902 167.785,141.947 167.345 L 142.769 166.999 142.618 147.937 C 142.535 137.453,142.363 127.638,142.234 126.125 C 141.629 118.968,142.010 116.083,143.909 113.467 C 144.372 112.829,144.750 112.206,144.750 112.082 C 144.750 111.958,145.083 111.467,145.490 110.991 C 145.897 110.515,146.234 110.005,146.240 109.859 C 146.245 109.713,146.588 109.270,147.000 108.875 C 147.412 108.480,147.750 108.009,147.750 107.828 C 147.750 107.648,147.844 107.500,147.958 107.500 C 148.073 107.500,148.495 107.166,148.896 106.757 C 149.297 106.348,149.744 106.011,149.890 106.007 C 150.036 106.003,150.393 105.779,150.683 105.509 C 152.474 103.840,157.027 103.762,159.408 105.359 " stroke="none" fill="#fbdb3b" fill-rule="evenodd"></path></g></svg>
