<svg id="svg" version="1.1" width="400" height="600" viewBox="0 0 400 600" xmlns="http://www.w3.org/2000/svg" xmlns:xlink="http://www.w3.org/1999/xlink" ><g id="svgg"><path id="path0" d="M185.875 0.399 C 183.938 0.849,165.227 3.750,164.265 3.750 C 162.475 3.750,151.347 6.119,144.750 7.904 C 142.603 8.485,138.932 9.622,133.375 11.427 C 131.661 11.984,128.310 13.258,126.625 13.993 C 126.350 14.113,125.803 14.281,125.410 14.367 C 124.672 14.528,124.029 14.803,120.029 16.660 C 118.739 17.260,117.576 17.750,117.444 17.750 C 117.313 17.750,114.566 19.072,111.341 20.688 C 103.908 24.411,103.067 24.853,100.539 26.375 C 99.397 27.063,97.929 27.906,97.277 28.250 C 96.624 28.594,95.142 29.499,93.983 30.262 C 92.824 31.024,91.217 32.037,90.412 32.512 C 89.607 32.986,88.655 33.646,88.295 33.976 C 87.935 34.307,87.126 34.881,86.497 35.252 C 85.868 35.623,84.514 36.555,83.489 37.324 C 82.464 38.093,80.454 39.600,79.023 40.673 C 77.592 41.747,75.756 43.188,74.944 43.875 C 74.131 44.563,73.085 45.406,72.620 45.750 C 69.595 47.982,57.056 59.966,53.459 64.062 C 52.725 64.897,51.664 66.054,51.101 66.632 C 50.538 67.210,49.754 68.120,49.358 68.654 C 48.963 69.188,48.098 70.180,47.436 70.858 C 46.773 71.535,45.990 72.520,45.695 73.045 C 45.399 73.570,45.075 74.000,44.975 74.000 C 44.759 74.000,39.753 80.486,38.535 82.344 C 38.073 83.049,37.435 83.906,37.116 84.250 C 36.798 84.594,36.107 85.557,35.581 86.392 C 35.055 87.226,33.928 88.969,33.077 90.267 C 29.881 95.133,28.750 96.936,28.369 97.768 C 28.153 98.239,27.477 99.412,26.867 100.375 C 26.257 101.338,25.328 102.969,24.801 104.000 C 24.275 105.031,23.260 106.908,22.547 108.171 C 21.834 109.434,21.250 110.573,21.250 110.701 C 21.250 110.830,20.462 112.452,19.500 114.305 C 18.537 116.159,17.750 117.809,17.750 117.973 C 17.750 118.137,17.424 118.969,17.025 119.823 C 15.142 123.854,14.649 125.008,14.063 126.750 C 13.716 127.781,13.181 129.188,12.873 129.875 C 11.786 132.305,7.250 145.831,7.250 146.642 C 7.250 146.859,6.695 149.081,6.017 151.580 C 4.696 156.446,4.188 158.759,3.012 165.250 C 0.560 178.776,0.016 185.185,0.016 200.500 C 0.016 215.818,0.629 223.008,2.989 235.375 C 3.383 237.438,3.776 239.631,3.863 240.250 C 4.059 241.641,5.484 247.353,6.390 250.375 C 6.760 251.613,7.114 252.963,7.176 253.375 C 7.314 254.290,9.623 261.411,10.277 262.939 C 10.537 263.545,10.753 264.229,10.756 264.458 C 10.759 264.687,11.247 266.056,11.840 267.500 C 12.818 269.879,13.378 271.268,14.780 274.788 C 15.035 275.428,15.795 277.116,16.470 278.538 C 17.145 279.961,17.780 281.406,17.880 281.750 C 17.981 282.094,18.781 283.716,19.657 285.356 C 20.533 286.995,21.250 288.438,21.250 288.562 C 21.250 288.896,24.250 294.470,24.519 294.637 C 24.646 294.715,24.750 294.976,24.750 295.217 C 24.750 295.458,25.154 296.323,25.647 297.140 C 26.140 297.957,27.276 300.031,28.170 301.750 C 29.064 303.469,29.940 305.044,30.117 305.250 C 30.294 305.456,30.916 306.525,31.499 307.625 C 32.780 310.043,33.320 310.977,34.414 312.667 C 34.874 313.378,35.250 314.045,35.250 314.150 C 35.250 314.427,38.266 319.481,38.528 319.643 C 38.650 319.718,38.750 319.959,38.750 320.177 C 38.750 320.396,39.295 321.430,39.961 322.475 C 40.628 323.520,41.657 325.275,42.249 326.375 C 42.840 327.475,43.689 328.938,44.133 329.625 C 44.578 330.313,45.334 331.606,45.813 332.500 C 47.043 334.794,47.771 336.028,48.322 336.750 C 48.584 337.094,49.124 338.050,49.522 338.875 C 49.919 339.700,50.745 341.163,51.356 342.125 C 51.968 343.087,52.703 344.374,52.991 344.984 C 53.278 345.594,53.891 346.663,54.353 347.359 C 54.816 348.056,55.674 349.525,56.260 350.625 C 56.847 351.725,57.805 353.361,58.389 354.261 C 58.973 355.161,59.621 356.286,59.830 356.761 C 60.039 357.236,60.781 358.525,61.478 359.625 C 62.175 360.725,63.082 362.300,63.493 363.125 C 63.904 363.950,64.856 365.618,65.609 366.832 C 66.362 368.046,67.044 369.244,67.123 369.494 C 67.203 369.745,67.731 370.664,68.296 371.538 C 68.862 372.411,69.970 374.306,70.760 375.750 C 71.549 377.194,72.601 378.991,73.097 379.744 C 73.594 380.497,74.006 381.229,74.013 381.369 C 74.020 381.510,74.694 382.694,75.512 384.000 C 76.329 385.306,77.212 386.825,77.473 387.375 C 77.734 387.925,78.575 389.387,79.342 390.625 C 80.109 391.863,80.961 393.360,81.236 393.953 C 81.511 394.546,82.083 395.546,82.508 396.175 C 82.932 396.805,83.797 398.288,84.428 399.472 C 85.060 400.656,86.055 402.361,86.639 403.261 C 87.223 404.161,87.865 405.286,88.067 405.761 C 88.268 406.236,89.029 407.581,89.757 408.750 C 90.485 409.919,91.402 411.494,91.795 412.250 C 92.188 413.006,92.825 414.131,93.211 414.750 C 93.596 415.369,94.454 416.887,95.117 418.125 C 95.780 419.363,96.573 420.712,96.879 421.125 C 97.185 421.538,97.971 422.887,98.625 424.125 C 99.280 425.363,100.182 426.938,100.631 427.625 C 101.079 428.313,101.663 429.325,101.930 429.875 C 102.196 430.425,103.108 432.023,103.957 433.426 C 104.806 434.829,105.500 436.077,105.500 436.200 C 105.500 436.322,105.934 437.094,106.465 437.916 C 106.996 438.737,108.128 440.672,108.981 442.215 C 109.833 443.758,110.849 445.494,111.238 446.073 C 111.626 446.652,112.185 447.631,112.478 448.250 C 112.772 448.869,113.512 450.163,114.124 451.125 C 114.736 452.087,115.579 453.550,115.997 454.375 C 116.415 455.200,117.310 456.775,117.985 457.875 C 118.660 458.975,119.496 460.464,119.841 461.184 C 120.186 461.904,120.744 462.860,121.081 463.309 C 121.418 463.758,122.228 465.137,122.883 466.375 C 123.538 467.613,124.438 469.188,124.883 469.875 C 125.328 470.563,126.171 472.025,126.755 473.125 C 127.340 474.225,128.309 475.888,128.909 476.820 C 129.509 477.753,130.000 478.615,130.000 478.736 C 130.000 478.857,130.763 480.231,131.695 481.790 C 132.627 483.349,133.528 484.942,133.697 485.329 C 133.866 485.717,134.490 486.786,135.082 487.704 C 135.675 488.623,136.678 490.342,137.310 491.523 C 137.942 492.704,138.919 494.381,139.480 495.249 C 140.041 496.117,140.504 496.951,140.509 497.101 C 140.515 497.252,141.133 498.331,141.883 499.500 C 142.633 500.669,143.518 502.188,143.850 502.875 C 144.181 503.563,145.078 505.137,145.841 506.375 C 146.605 507.613,147.508 509.212,147.847 509.930 C 148.187 510.647,148.802 511.724,149.215 512.324 C 149.627 512.923,150.439 514.305,151.019 515.394 C 151.599 516.484,152.438 517.938,152.883 518.625 C 153.329 519.313,154.140 520.719,154.685 521.750 C 155.230 522.781,156.027 524.188,156.457 524.875 C 156.886 525.563,157.499 526.631,157.818 527.250 C 158.137 527.869,158.911 529.219,159.538 530.250 C 160.164 531.281,161.152 533.025,161.734 534.125 C 162.315 535.225,162.935 536.294,163.112 536.500 C 163.289 536.706,164.141 538.169,165.005 539.750 C 165.869 541.331,166.904 543.107,167.306 543.696 C 167.707 544.285,168.253 545.241,168.519 545.821 C 168.785 546.401,169.563 547.775,170.247 548.875 C 170.932 549.975,171.828 551.550,172.238 552.375 C 172.649 553.200,173.552 554.775,174.245 555.875 C 174.939 556.975,175.723 558.352,175.987 558.934 C 176.252 559.517,176.859 560.586,177.335 561.309 C 177.812 562.033,178.561 563.300,179.000 564.125 C 179.988 565.978,180.595 567.016,181.635 568.625 C 182.079 569.313,182.609 570.269,182.813 570.750 C 183.016 571.231,183.779 572.581,184.507 573.750 C 185.235 574.919,186.152 576.494,186.545 577.250 C 186.938 578.006,187.575 579.131,187.961 579.750 C 188.346 580.369,189.181 581.844,189.816 583.028 C 190.451 584.212,191.300 585.674,191.703 586.278 C 192.106 586.881,192.915 588.275,193.502 589.375 C 194.088 590.475,194.937 591.938,195.389 592.625 C 195.840 593.313,196.357 594.212,196.537 594.625 C 197.062 595.827,200.010 600.000,200.332 599.996 C 200.617 599.993,203.265 596.069,203.580 595.184 C 203.666 594.942,204.229 593.986,204.830 593.059 C 205.431 592.133,206.462 590.362,207.121 589.125 C 207.780 587.888,208.646 586.396,209.047 585.812 C 209.447 585.227,209.970 584.327,210.208 583.812 C 210.446 583.296,211.200 581.951,211.883 580.822 C 212.566 579.693,213.519 578.039,214.000 577.147 C 215.289 574.758,217.838 570.325,218.830 568.750 C 219.306 567.994,220.371 566.138,221.195 564.625 C 222.020 563.112,223.101 561.259,223.597 560.506 C 224.094 559.753,224.500 558.944,224.500 558.708 C 224.500 558.472,224.606 558.214,224.736 558.134 C 225.014 557.962,227.640 553.600,227.901 552.875 C 228.000 552.600,228.442 551.813,228.882 551.125 C 229.951 549.456,231.500 546.761,231.500 546.569 C 231.500 546.485,232.129 545.394,232.898 544.145 C 234.397 541.710,236.829 537.494,238.250 534.869 C 238.731 533.979,239.772 532.184,240.563 530.878 C 241.353 529.573,242.000 528.408,242.000 528.291 C 242.000 528.174,242.434 527.406,242.965 526.584 C 243.496 525.763,244.636 523.805,245.498 522.233 C 246.361 520.661,247.209 519.206,247.384 519.000 C 247.558 518.794,248.404 517.331,249.263 515.750 C 250.123 514.169,251.086 512.532,251.405 512.112 C 251.723 511.693,252.270 510.736,252.620 509.987 C 252.970 509.238,253.780 507.781,254.420 506.750 C 255.061 505.719,255.931 504.233,256.355 503.449 C 257.412 501.491,259.790 497.356,261.502 494.500 C 262.285 493.194,263.380 491.281,263.936 490.250 C 264.491 489.219,265.351 487.759,265.848 487.006 C 266.344 486.253,266.750 485.545,266.750 485.434 C 266.750 485.323,267.478 484.017,268.367 482.531 C 269.257 481.046,270.064 479.615,270.160 479.353 C 270.256 479.090,270.806 478.144,271.383 477.250 C 271.959 476.356,272.969 474.613,273.628 473.375 C 274.287 472.137,275.138 470.666,275.520 470.106 C 275.902 469.545,276.692 468.195,277.276 467.106 C 277.860 466.016,278.657 464.619,279.046 464.000 C 279.435 463.381,280.094 462.200,280.509 461.375 C 280.924 460.550,281.933 458.806,282.749 457.500 C 283.566 456.194,284.238 455.010,284.242 454.869 C 284.246 454.729,284.656 453.997,285.153 453.244 C 285.649 452.491,286.727 450.644,287.549 449.139 C 288.371 447.634,289.357 445.946,289.741 445.388 C 290.125 444.829,290.713 443.811,291.047 443.124 C 291.381 442.437,292.326 440.750,293.146 439.375 C 293.967 438.000,294.836 436.481,295.076 436.000 C 295.317 435.519,296.073 434.225,296.755 433.125 C 297.438 432.025,298.215 430.651,298.481 430.071 C 298.747 429.491,299.293 428.535,299.694 427.946 C 300.096 427.357,301.110 425.629,301.947 424.106 C 302.785 422.584,303.871 420.730,304.360 419.987 C 304.850 419.244,305.250 418.499,305.250 418.331 C 305.250 418.163,305.568 417.541,305.957 416.950 C 307.117 415.188,307.683 414.219,308.633 412.376 C 309.128 411.414,309.674 410.458,309.847 410.251 C 310.308 409.697,312.250 406.323,312.250 406.076 C 312.250 405.959,312.659 405.247,313.158 404.494 C 313.658 403.741,314.743 401.887,315.569 400.375 C 316.395 398.863,317.401 397.144,317.803 396.555 C 318.205 395.967,318.811 394.898,319.150 394.180 C 319.489 393.462,320.266 392.087,320.877 391.125 C 321.488 390.163,322.308 388.756,322.698 388.000 C 323.089 387.244,323.862 385.894,324.417 385.000 C 324.971 384.106,325.848 382.587,326.365 381.625 C 326.882 380.663,327.693 379.256,328.167 378.500 C 329.150 376.929,331.951 372.070,333.101 369.940 C 333.527 369.151,334.522 367.436,335.313 366.130 C 336.103 364.823,336.750 363.667,336.750 363.559 C 336.750 363.452,337.118 362.804,337.567 362.119 C 338.542 360.634,339.408 359.157,340.496 357.125 C 340.937 356.300,341.663 355.063,342.109 354.375 C 342.933 353.104,343.592 351.927,343.858 351.250 C 343.939 351.044,344.509 350.087,345.126 349.125 C 345.742 348.163,346.546 346.756,346.912 346.000 C 347.278 345.244,347.889 344.175,348.270 343.625 C 348.650 343.075,349.524 341.613,350.212 340.375 C 350.899 339.137,351.869 337.473,352.367 336.676 C 352.865 335.879,353.870 334.135,354.600 332.801 C 355.330 331.467,356.283 329.849,356.718 329.207 C 357.153 328.564,357.675 327.664,357.877 327.207 C 358.080 326.749,358.808 325.475,359.495 324.375 C 360.183 323.275,360.983 321.882,361.274 321.280 C 361.564 320.678,362.279 319.440,362.863 318.530 C 363.446 317.620,364.347 316.087,364.865 315.125 C 365.383 314.163,366.175 312.813,366.624 312.125 C 367.073 311.438,367.805 310.200,368.249 309.375 C 369.396 307.245,370.246 305.808,371.185 304.412 C 371.633 303.745,372.000 303.093,372.000 302.963 C 372.000 302.832,372.572 301.775,373.272 300.613 C 374.739 298.175,376.999 293.924,378.648 290.500 C 379.277 289.194,380.401 286.925,381.146 285.458 C 381.891 283.991,382.500 282.636,382.500 282.448 C 382.500 282.260,382.728 281.660,383.007 281.115 C 383.793 279.581,386.000 274.560,386.000 274.306 C 386.000 274.181,386.661 272.402,387.468 270.352 C 388.863 266.813,389.133 266.049,389.713 264.000 C 389.849 263.519,390.582 261.304,391.341 259.077 C 392.100 256.851,392.797 254.601,392.890 254.077 C 392.982 253.554,393.597 251.100,394.257 248.625 C 395.596 243.600,396.251 240.628,396.874 236.750 C 397.105 235.306,397.558 232.606,397.879 230.750 C 401.213 211.469,400.921 185.880,397.113 163.500 C 396.774 161.506,396.378 159.144,396.234 158.250 C 396.090 157.356,395.470 154.656,394.857 152.250 C 394.244 149.844,393.565 147.144,393.348 146.250 C 392.726 143.687,389.560 133.938,388.233 130.500 C 385.991 124.693,384.072 120.046,383.742 119.625 C 383.635 119.487,383.145 118.403,382.654 117.216 C 381.654 114.795,377.784 107.166,376.402 104.890 C 375.906 104.073,375.500 103.301,375.500 103.174 C 375.500 102.922,373.365 99.368,372.829 98.729 C 372.646 98.511,372.161 97.667,371.751 96.854 C 371.340 96.040,370.787 95.094,370.522 94.750 C 370.256 94.406,369.158 92.788,368.082 91.154 C 363.676 84.463,363.357 84.013,359.875 79.581 C 359.050 78.531,358.014 77.155,357.574 76.523 C 357.133 75.892,356.345 74.925,355.823 74.375 C 355.301 73.825,354.568 72.925,354.195 72.375 C 353.823 71.825,353.115 70.996,352.624 70.533 C 352.132 70.070,351.432 69.282,351.068 68.783 C 350.703 68.284,350.005 67.476,349.515 66.988 C 349.026 66.500,347.669 65.048,346.500 63.762 C 342.658 59.533,335.016 52.127,331.375 49.105 C 330.688 48.534,329.565 47.546,328.880 46.909 C 328.196 46.271,327.536 45.750,327.414 45.750 C 327.292 45.750,326.515 45.123,325.687 44.357 C 324.859 43.590,323.775 42.691,323.278 42.358 C 322.782 42.026,321.419 41.017,320.250 40.118 C 319.081 39.219,317.360 37.896,316.426 37.179 C 315.491 36.462,314.250 35.594,313.667 35.250 C 313.084 34.906,311.937 34.141,311.116 33.549 C 308.922 31.967,304.301 28.968,302.948 28.250 C 302.301 27.906,300.705 26.978,299.400 26.188 C 298.095 25.397,296.931 24.750,296.813 24.750 C 296.695 24.750,296.041 24.396,295.361 23.963 C 293.584 22.832,286.288 19.129,283.500 17.944 C 282.194 17.389,281.012 16.851,280.875 16.749 C 280.460 16.441,275.300 14.250,274.989 14.250 C 274.831 14.250,274.346 14.086,273.913 13.886 C 272.387 13.180,266.864 11.038,266.124 10.865 C 265.712 10.769,263.406 10.044,261.000 9.255 C 258.594 8.465,256.006 7.679,255.250 7.509 C 254.494 7.338,252.412 6.824,250.625 6.368 C 246.265 5.254,242.006 4.322,239.875 4.014 C 237.487 3.669,231.365 2.704,223.875 1.490 C 220.438 0.933,216.556 0.373,215.250 0.245 C 211.307 -0.141,187.667 -0.017,185.875 0.399 M213.237 26.763 C 215.360 27.025,222.339 28.108,230.250 29.403 C 232.519 29.774,235.004 30.158,235.772 30.257 C 237.199 30.440,241.387 31.388,244.750 32.290 C 245.781 32.567,247.423 32.996,248.399 33.244 C 250.689 33.825,254.129 34.889,256.500 35.751 C 257.531 36.125,259.050 36.663,259.875 36.945 C 262.673 37.902,263.123 38.077,264.951 38.914 C 265.955 39.374,266.883 39.750,267.013 39.750 C 267.142 39.750,267.963 40.087,268.836 40.500 C 269.709 40.913,270.551 41.250,270.708 41.250 C 270.864 41.250,271.541 41.587,272.211 42.000 C 272.882 42.413,273.572 42.750,273.746 42.750 C 273.920 42.750,274.751 43.104,275.593 43.537 C 276.436 43.970,277.350 44.440,277.625 44.580 C 282.423 47.031,287.685 49.982,290.263 51.669 C 290.752 51.988,291.235 52.250,291.336 52.250 C 291.438 52.250,291.756 52.469,292.044 52.738 C 292.332 53.006,292.921 53.393,293.352 53.598 C 293.784 53.802,294.472 54.258,294.881 54.610 C 295.290 54.962,295.717 55.250,295.829 55.250 C 296.074 55.250,297.840 56.546,297.958 56.813 C 298.004 56.916,298.155 57.000,298.292 57.000 C 298.519 57.000,300.696 58.422,301.000 58.767 C 301.069 58.846,301.800 59.401,302.625 60.002 C 303.450 60.602,304.163 61.185,304.208 61.297 C 304.254 61.409,304.409 61.500,304.553 61.500 C 304.697 61.500,305.278 61.899,305.845 62.388 C 306.411 62.876,306.988 63.357,307.125 63.457 C 308.745 64.639,311.996 67.378,312.100 67.649 C 312.174 67.842,312.389 68.000,312.578 68.000 C 312.767 68.000,313.614 68.675,314.459 69.500 C 315.305 70.325,316.056 71.000,316.128 71.000 C 316.427 71.000,326.954 81.457,328.750 83.538 C 329.231 84.096,329.915 84.850,330.269 85.213 C 331.018 85.982,334.475 90.056,336.633 92.711 C 338.233 94.679,338.624 95.195,340.750 98.147 C 341.506 99.197,342.434 100.424,342.813 100.873 C 343.191 101.323,343.500 101.767,343.500 101.861 C 343.500 101.954,343.866 102.519,344.313 103.116 C 344.759 103.713,345.350 104.574,345.625 105.029 C 345.900 105.485,346.294 106.101,346.500 106.398 C 346.706 106.695,347.096 107.290,347.366 107.719 C 347.637 108.149,347.946 108.500,348.054 108.500 C 348.162 108.500,348.250 108.626,348.250 108.780 C 348.250 109.054,348.808 110.013,350.438 112.540 C 350.884 113.233,351.250 113.909,351.250 114.042 C 351.250 114.175,351.520 114.641,351.850 115.079 C 352.181 115.517,352.634 116.269,352.857 116.750 C 353.080 117.231,353.703 118.412,354.242 119.375 C 355.292 121.252,359.250 129.143,359.250 129.361 C 359.250 129.433,359.587 130.189,360.000 131.040 C 360.413 131.892,360.750 132.709,360.750 132.857 C 360.750 133.004,361.075 133.800,361.472 134.625 C 362.101 135.932,362.749 137.570,363.992 141.000 C 365.438 144.989,368.505 154.661,368.502 155.221 C 368.501 155.412,368.881 156.987,369.346 158.721 C 369.811 160.456,370.301 162.550,370.433 163.375 C 370.566 164.200,370.909 166.056,371.195 167.500 C 373.444 178.851,374.636 199.107,373.762 211.125 C 373.602 213.325,373.375 216.506,373.258 218.195 C 372.758 225.379,370.183 238.776,367.717 247.023 C 367.323 248.342,367.000 249.602,367.000 249.822 C 367.000 250.043,366.679 251.158,366.286 252.299 C 365.893 253.441,365.430 254.825,365.257 255.375 C 365.084 255.925,364.790 256.712,364.604 257.125 C 364.419 257.538,363.933 258.831,363.525 260.000 C 363.118 261.169,362.606 262.631,362.389 263.250 C 362.172 263.869,361.701 265.050,361.343 265.875 C 360.985 266.700,360.357 268.163,359.947 269.125 C 359.537 270.087,358.943 271.438,358.628 272.125 C 357.104 275.450,356.286 277.221,355.800 278.250 C 355.022 279.894,352.160 285.196,349.611 289.714 C 349.328 290.215,348.783 291.188,348.399 291.875 C 348.015 292.563,347.556 293.294,347.379 293.500 C 347.202 293.706,346.735 294.476,346.341 295.210 C 345.385 296.993,344.989 297.686,344.250 298.875 C 343.617 299.894,343.496 300.103,342.052 302.665 C 341.600 303.468,340.783 304.856,340.237 305.750 C 339.691 306.644,339.110 307.656,338.946 308.000 C 338.781 308.344,338.356 309.075,338.000 309.625 C 337.644 310.175,337.213 310.906,337.041 311.250 C 336.869 311.594,336.286 312.606,335.747 313.500 C 335.207 314.394,334.559 315.519,334.307 316.000 C 334.055 316.481,333.574 317.325,333.237 317.875 C 332.499 319.083,332.097 319.791,331.159 321.540 C 330.765 322.274,330.297 323.044,330.119 323.250 C 329.941 323.456,329.525 324.131,329.195 324.750 C 328.404 326.232,328.035 326.880,327.143 328.350 C 326.240 329.838,325.872 330.491,324.780 332.540 C 324.316 333.412,323.859 334.181,323.765 334.250 C 323.672 334.319,323.277 334.938,322.887 335.625 C 321.403 338.246,321.026 338.919,320.230 340.375 C 319.779 341.200,319.332 341.931,319.237 342.000 C 319.142 342.069,318.715 342.820,318.288 343.669 C 317.861 344.519,317.396 345.285,317.256 345.372 C 317.115 345.458,317.000 345.686,317.000 345.877 C 317.000 346.068,316.638 346.762,316.195 347.418 C 315.752 348.075,315.205 348.952,314.981 349.368 C 313.841 351.481,313.129 352.709,311.281 355.750 C 311.072 356.094,310.571 356.994,310.169 357.750 C 309.766 358.506,309.338 359.163,309.218 359.208 C 309.098 359.254,309.000 359.452,309.000 359.648 C 309.000 359.845,308.606 360.565,308.125 361.250 C 307.644 361.935,307.250 362.658,307.250 362.858 C 307.250 363.057,307.135 363.291,306.995 363.378 C 306.855 363.465,306.449 364.118,306.092 364.830 C 305.736 365.542,305.175 366.483,304.847 366.921 C 304.519 367.359,304.250 367.831,304.250 367.971 C 304.250 368.111,303.912 368.725,303.500 369.336 C 303.087 369.947,302.750 370.547,302.750 370.668 C 302.750 370.789,302.553 371.158,302.313 371.488 C 301.846 372.128,300.700 374.100,299.640 376.090 C 299.284 376.758,298.770 377.589,298.496 377.936 C 298.223 378.283,298.000 378.649,298.000 378.748 C 298.000 378.847,297.418 379.929,296.706 381.152 C 293.330 386.953,292.287 388.780,291.939 389.500 C 291.772 389.844,291.268 390.658,290.818 391.310 C 290.368 391.962,290.000 392.658,290.000 392.858 C 290.000 393.057,289.885 393.292,289.744 393.378 C 289.604 393.465,289.126 394.210,288.682 395.034 C 287.365 397.479,286.887 398.317,286.175 399.433 C 285.804 400.014,285.500 400.567,285.500 400.661 C 285.500 400.754,285.140 401.392,284.700 402.078 C 283.884 403.350,283.282 404.387,282.715 405.500 C 282.540 405.844,282.026 406.718,281.573 407.442 C 281.120 408.167,280.750 408.823,280.750 408.900 C 280.750 408.977,280.376 409.622,279.919 410.333 C 279.462 411.043,278.815 412.159,278.482 412.813 C 278.149 413.466,277.791 414.000,277.688 414.000 C 277.585 414.000,277.500 414.180,277.500 414.399 C 277.500 414.618,277.285 415.100,277.022 415.469 C 276.576 416.095,276.274 416.622,274.602 419.688 C 274.246 420.341,273.684 421.233,273.352 421.671 C 273.021 422.109,272.750 422.593,272.750 422.747 C 272.750 422.901,272.469 423.440,272.125 423.946 C 271.781 424.452,271.500 424.970,271.500 425.097 C 271.500 425.224,271.235 425.676,270.911 426.101 C 270.587 426.527,270.065 427.381,269.752 428.000 C 269.438 428.619,268.972 429.393,268.716 429.721 C 268.460 430.049,268.250 430.527,268.250 430.784 C 268.250 431.040,268.158 431.250,268.046 431.250 C 267.934 431.250,267.652 431.616,267.419 432.063 C 267.186 432.509,266.756 433.269,266.464 433.750 C 266.172 434.231,265.598 435.244,265.187 436.000 C 264.777 436.756,264.230 437.674,263.971 438.039 C 263.712 438.404,263.500 438.809,263.500 438.939 C 263.500 439.069,263.184 439.614,262.797 440.150 C 262.410 440.686,261.922 441.462,261.711 441.875 C 260.512 444.227,260.137 444.912,259.862 445.250 C 259.694 445.456,259.223 446.244,258.815 447.000 C 258.407 447.756,257.667 449.050,257.171 449.875 C 256.675 450.700,255.999 451.881,255.668 452.500 C 254.199 455.248,252.797 457.655,251.581 459.513 C 251.262 460.002,251.000 460.520,251.000 460.663 C 251.000 460.807,250.663 461.391,250.250 461.960 C 249.838 462.530,249.500 463.110,249.500 463.250 C 249.500 463.390,249.106 464.065,248.625 464.750 C 248.144 465.435,247.750 466.101,247.750 466.230 C 247.750 466.359,247.516 466.839,247.230 467.295 C 246.261 468.840,244.187 472.407,243.403 473.875 C 243.256 474.150,242.802 474.926,242.393 475.600 C 241.490 477.088,241.122 477.741,240.030 479.790 C 239.566 480.662,239.102 481.431,239.001 481.500 C 238.899 481.569,238.491 482.228,238.095 482.966 C 236.259 486.384,235.996 486.840,235.635 487.239 C 235.423 487.473,235.250 487.814,235.250 487.996 C 235.250 488.179,234.986 488.676,234.664 489.101 C 234.342 489.527,233.628 490.734,233.076 491.784 C 232.525 492.833,231.720 494.217,231.287 494.859 C 230.854 495.500,230.500 496.126,230.500 496.250 C 230.500 496.374,230.163 496.975,229.750 497.586 C 229.338 498.197,229.000 498.782,229.000 498.885 C 229.000 498.989,228.606 499.666,228.125 500.391 C 227.644 501.117,227.250 501.805,227.250 501.922 C 227.250 502.038,226.969 502.548,226.625 503.054 C 226.281 503.560,226.000 504.148,226.000 504.362 C 226.000 504.575,225.908 504.750,225.796 504.750 C 225.684 504.750,225.401 505.116,225.168 505.563 C 224.934 506.009,224.481 506.825,224.160 507.375 C 223.839 507.925,223.149 509.106,222.627 510.000 C 222.104 510.894,221.509 511.962,221.303 512.375 C 221.097 512.788,220.674 513.470,220.362 513.891 C 220.051 514.312,219.617 515.043,219.398 515.516 C 218.926 516.535,217.873 518.443,217.435 519.071 C 217.062 519.607,215.790 521.879,214.851 523.688 C 214.476 524.409,214.088 525.000,213.990 525.000 C 213.891 525.000,213.664 525.366,213.485 525.813 C 213.306 526.259,212.843 527.095,212.455 527.670 C 212.067 528.245,211.750 528.836,211.750 528.985 C 211.750 529.133,211.412 529.720,211.000 530.290 C 210.588 530.859,210.250 531.428,210.250 531.555 C 210.250 531.681,209.913 532.275,209.500 532.875 C 209.088 533.475,208.750 534.059,208.750 534.173 C 208.750 534.288,208.356 534.966,207.875 535.681 C 207.394 536.396,207.000 537.144,207.000 537.344 C 207.000 537.545,206.903 537.746,206.785 537.792 C 206.579 537.871,205.523 539.676,204.101 542.375 C 203.739 543.063,203.299 543.794,203.122 544.000 C 202.946 544.206,202.535 544.825,202.210 545.375 C 200.861 547.658,200.608 547.997,200.250 547.997 C 199.920 547.997,197.750 545.104,197.750 544.664 C 197.750 544.571,197.382 543.962,196.932 543.310 C 196.482 542.658,195.978 541.844,195.811 541.500 C 195.645 541.156,195.118 540.200,194.640 539.375 C 194.162 538.550,193.570 537.481,193.324 537.000 C 193.078 536.519,192.567 535.686,192.188 535.150 C 191.810 534.614,191.500 534.063,191.500 533.926 C 191.500 533.789,191.106 533.084,190.625 532.359 C 190.144 531.633,189.750 530.956,189.750 530.852 C 189.750 530.749,189.592 530.487,189.399 530.270 C 189.206 530.053,188.690 529.200,188.254 528.375 C 187.079 526.156,185.933 524.167,185.438 523.488 C 185.197 523.158,185.000 522.789,185.000 522.668 C 185.000 522.547,184.663 521.947,184.250 521.336 C 183.838 520.725,183.500 520.099,183.500 519.945 C 183.500 519.790,183.346 519.487,183.157 519.270 C 182.968 519.053,182.473 518.256,182.057 517.500 C 180.333 514.371,179.440 512.853,179.105 512.480 C 178.910 512.263,178.750 511.935,178.750 511.750 C 178.750 511.565,178.590 511.237,178.395 511.020 C 178.199 510.803,177.743 510.063,177.380 509.375 C 177.017 508.688,176.277 507.394,175.736 506.500 C 175.195 505.606,174.403 504.209,173.976 503.394 C 173.548 502.580,173.042 501.756,172.850 501.564 C 172.657 501.372,172.500 501.080,172.500 500.915 C 172.500 500.751,172.219 500.202,171.875 499.696 C 171.267 498.802,170.326 497.149,169.557 495.625 C 169.349 495.212,168.933 494.538,168.632 494.125 C 168.332 493.712,167.916 493.038,167.709 492.625 C 167.151 491.516,165.927 489.327,164.914 487.625 C 164.423 486.800,163.618 485.394,163.125 484.500 C 162.632 483.606,161.823 482.200,161.327 481.375 C 160.832 480.550,160.156 479.380,159.825 478.775 C 158.493 476.336,157.938 475.363,157.745 475.125 C 157.520 474.847,156.092 472.362,154.943 470.250 C 154.532 469.494,154.095 468.838,153.973 468.792 C 153.850 468.746,153.750 468.499,153.750 468.244 C 153.750 467.988,153.635 467.708,153.494 467.622 C 153.354 467.535,152.889 466.769,152.462 465.919 C 152.035 465.070,151.608 464.319,151.513 464.250 C 151.352 464.134,150.807 463.181,148.939 459.750 C 148.528 458.994,148.082 458.240,147.949 458.074 C 147.816 457.908,147.512 457.402,147.273 456.949 C 147.034 456.496,146.256 455.124,145.545 453.902 C 144.833 452.679,144.250 451.636,144.250 451.584 C 144.250 451.532,143.947 451.014,143.577 450.433 C 142.879 449.336,141.945 447.672,141.300 446.375 C 141.095 445.962,140.783 445.456,140.608 445.250 C 140.433 445.044,139.991 444.313,139.625 443.625 C 139.260 442.938,138.528 441.644,138.000 440.750 C 137.472 439.856,136.740 438.563,136.375 437.875 C 136.009 437.188,135.551 436.447,135.355 436.230 C 135.160 436.013,135.000 435.696,135.000 435.525 C 135.000 435.355,134.637 434.689,134.194 434.045 C 133.392 432.881,133.109 432.394,131.568 429.534 C 131.124 428.710,130.646 427.965,130.506 427.878 C 130.365 427.792,130.250 427.557,130.250 427.358 C 130.250 427.158,129.856 426.435,129.375 425.750 C 128.894 425.065,128.500 424.358,128.500 424.178 C 128.500 423.997,128.359 423.710,128.188 423.540 C 127.897 423.251,127.583 422.719,125.512 419.000 C 124.642 417.438,124.189 416.653,123.132 414.875 C 121.919 412.833,121.551 412.178,121.026 411.125 C 120.751 410.575,120.240 409.738,119.888 409.264 C 119.537 408.790,119.250 408.310,119.250 408.196 C 119.250 408.083,118.947 407.514,118.577 406.933 C 118.208 406.351,117.574 405.256,117.171 404.500 C 116.767 403.744,116.338 403.087,116.218 403.042 C 116.098 402.996,116.000 402.780,116.000 402.561 C 116.000 402.343,115.844 401.987,115.653 401.770 C 115.463 401.553,114.941 400.700,114.495 399.875 C 112.667 396.499,112.430 396.092,111.852 395.329 C 111.521 394.891,111.250 394.411,111.250 394.261 C 111.250 394.112,110.957 393.546,110.598 393.004 C 109.922 391.982,109.619 391.458,108.404 389.210 C 108.007 388.476,107.473 387.607,107.216 387.279 C 106.960 386.951,106.750 386.482,106.750 386.237 C 106.750 385.992,106.666 385.754,106.563 385.708 C 106.379 385.627,105.000 383.603,105.000 383.416 C 105.000 383.364,104.422 382.321,103.715 381.098 C 103.009 379.876,102.150 378.369,101.808 377.750 C 101.465 377.131,101.042 376.456,100.867 376.250 C 100.693 376.044,100.370 375.481,100.150 375.000 C 99.760 374.146,99.205 373.155,97.979 371.125 C 97.253 369.921,96.853 369.216,95.902 367.460 C 95.504 366.726,94.914 365.777,94.590 365.351 C 94.265 364.926,94.000 364.429,94.000 364.246 C 94.000 364.064,93.844 363.737,93.653 363.520 C 93.463 363.303,92.973 362.506,92.565 361.750 C 92.157 360.994,91.418 359.700,90.922 358.875 C 90.128 357.552,89.349 356.195,87.978 353.745 C 87.759 353.354,87.398 352.757,87.175 352.416 C 86.952 352.076,86.443 351.196,86.043 350.461 C 84.530 347.677,83.919 346.621,83.751 346.500 C 83.656 346.431,83.271 345.756,82.894 345.000 C 82.518 344.244,82.051 343.447,81.855 343.230 C 81.660 343.013,81.500 342.692,81.500 342.516 C 81.500 342.341,81.163 341.771,80.750 341.250 C 80.338 340.729,80.000 340.192,80.000 340.057 C 80.000 339.802,79.510 338.939,76.556 334.000 C 76.104 333.244,75.617 332.344,75.475 332.000 C 75.332 331.657,75.063 331.207,74.877 331.000 C 74.692 330.794,74.240 330.063,73.873 329.375 C 73.506 328.688,72.718 327.281,72.120 326.250 C 71.523 325.219,70.744 323.869,70.390 323.250 C 70.035 322.631,69.415 321.563,69.012 320.875 C 68.608 320.188,67.976 319.063,67.606 318.375 C 67.237 317.688,66.851 317.069,66.749 317.000 C 66.648 316.931,66.184 316.162,65.720 315.290 C 64.657 313.295,64.277 312.625,63.500 311.375 C 63.158 310.825,62.709 310.076,62.502 309.710 C 62.295 309.345,61.753 308.388,61.298 307.585 C 60.843 306.782,60.032 305.394,59.496 304.500 C 58.960 303.606,58.380 302.594,58.207 302.250 C 58.034 301.906,57.613 301.175,57.271 300.625 C 56.929 300.075,56.419 299.204,56.137 298.689 C 55.856 298.174,54.974 296.599,54.179 295.189 C 51.561 290.548,51.200 289.896,50.551 288.629 C 50.197 287.939,49.591 286.905,49.204 286.330 C 48.817 285.755,48.500 285.131,48.500 284.942 C 48.500 284.754,48.394 284.493,48.264 284.362 C 48.134 284.232,47.361 282.831,46.545 281.250 C 45.730 279.669,44.826 277.925,44.536 277.375 C 43.860 276.091,40.750 269.526,40.750 269.382 C 40.750 269.322,40.403 268.508,39.978 267.574 C 38.300 263.880,37.740 262.584,37.407 261.625 C 37.216 261.075,36.694 259.669,36.246 258.500 C 35.799 257.331,35.204 255.700,34.924 254.875 C 34.645 254.050,34.167 252.700,33.863 251.875 C 33.559 251.050,33.234 249.981,33.140 249.500 C 33.047 249.019,32.633 247.639,32.220 246.433 C 31.806 245.227,31.370 243.708,31.249 243.058 C 31.129 242.407,30.800 240.919,30.519 239.750 C 28.583 231.690,26.809 221.033,26.462 215.375 C 25.581 200.978,26.025 186.540,27.650 176.768 C 27.980 174.784,28.250 172.879,28.250 172.535 C 28.250 172.191,28.632 170.214,29.098 168.142 C 29.565 166.070,30.056 163.756,30.191 163.000 C 30.530 161.094,31.144 158.648,32.167 155.125 C 33.903 149.144,34.551 147.084,35.393 144.870 C 35.864 143.630,36.250 142.480,36.250 142.315 C 36.250 142.149,36.531 141.378,36.875 140.601 C 37.219 139.824,37.500 139.036,37.500 138.849 C 37.500 138.663,37.894 137.670,38.375 136.642 C 38.856 135.614,39.250 134.675,39.250 134.556 C 39.250 134.436,39.588 133.642,40.000 132.790 C 40.413 131.939,40.750 131.118,40.750 130.967 C 40.750 130.816,41.017 130.171,41.343 129.534 C 41.670 128.896,42.914 126.406,44.109 124.000 C 47.174 117.824,48.507 115.305,49.439 113.925 C 49.885 113.265,50.250 112.628,50.250 112.509 C 50.250 112.391,50.616 111.729,51.063 111.039 C 51.509 110.349,52.069 109.468,52.305 109.080 C 53.756 106.704,55.120 104.624,55.709 103.889 C 56.034 103.484,56.399 102.922,56.521 102.639 C 56.644 102.356,57.249 101.450,57.867 100.625 C 58.484 99.800,59.178 98.787,59.408 98.375 C 59.638 97.963,59.961 97.513,60.126 97.375 C 60.290 97.237,61.085 96.225,61.893 95.125 C 62.700 94.025,63.457 93.057,63.575 92.973 C 63.692 92.890,63.977 92.535,64.207 92.185 C 64.773 91.324,68.645 86.601,69.742 85.435 C 70.227 84.918,71.019 84.042,71.500 83.487 C 71.981 82.932,73.359 81.475,74.563 80.249 C 75.766 79.024,76.750 77.916,76.750 77.789 C 76.750 77.662,77.003 77.390,77.313 77.185 C 77.622 76.981,78.899 75.815,80.150 74.594 C 81.402 73.374,83.191 71.700,84.127 70.875 C 85.062 70.050,86.142 69.094,86.525 68.750 C 87.440 67.930,87.778 67.645,89.867 65.937 C 90.834 65.146,91.927 64.217,92.297 63.874 C 92.666 63.531,93.046 63.250,93.141 63.250 C 93.236 63.250,93.735 62.884,94.248 62.438 C 94.761 61.991,95.860 61.143,96.688 60.554 C 97.517 59.965,98.494 59.206,98.860 58.867 C 99.226 58.528,99.669 58.250,99.844 58.250 C 100.019 58.250,100.427 57.969,100.750 57.625 C 101.073 57.281,101.447 57.000,101.580 57.000 C 101.714 57.000,102.304 56.606,102.891 56.125 C 103.479 55.644,104.073 55.250,104.212 55.250 C 104.351 55.250,104.630 55.084,104.833 54.881 C 105.192 54.522,107.640 52.977,108.964 52.274 C 109.328 52.081,109.681 51.843,109.750 51.745 C 109.819 51.647,110.381 51.314,111.000 51.005 C 111.619 50.696,112.463 50.194,112.875 49.890 C 113.287 49.585,113.963 49.166,114.375 48.959 C 114.787 48.751,115.800 48.214,116.625 47.766 C 117.450 47.317,118.547 46.736,119.063 46.475 C 119.578 46.214,120.478 45.749,121.063 45.443 C 123.584 44.121,129.459 41.365,130.250 41.132 C 130.594 41.031,131.100 40.808,131.375 40.637 C 131.650 40.467,132.462 40.133,133.179 39.896 C 133.895 39.660,135.163 39.136,135.995 38.733 C 136.827 38.330,137.637 38.000,137.795 38.000 C 137.953 38.000,138.936 37.677,139.979 37.281 C 141.022 36.886,142.438 36.392,143.125 36.184 C 143.813 35.975,144.881 35.630,145.500 35.417 C 148.099 34.520,151.457 33.500,151.808 33.500 C 152.016 33.500,153.353 33.156,154.780 32.736 C 156.207 32.316,157.938 31.878,158.625 31.762 C 159.313 31.646,161.225 31.265,162.875 30.915 C 164.525 30.565,168.294 29.932,171.250 29.509 C 179.115 28.383,188.050 26.953,188.625 26.728 C 189.388 26.429,210.774 26.460,213.237 26.763 M154.750 132.652 C 148.799 133.327,139.563 137.297,138.253 139.744 C 138.104 140.022,137.835 140.250,137.655 140.250 C 137.307 140.250,134.714 143.253,133.168 145.448 C 131.864 147.299,130.884 149.391,129.688 152.875 L 128.659 155.875 128.659 161.125 L 128.659 166.375 129.688 169.375 C 130.882 172.854,131.862 174.947,133.166 176.802 C 134.563 178.791,136.735 181.321,137.451 181.796 C 137.801 182.027,138.189 182.399,138.313 182.622 C 138.687 183.289,143.213 186.120,145.625 187.196 C 152.727 190.363,162.407 190.428,168.198 187.349 C 168.818 187.019,169.442 186.750,169.586 186.750 C 169.888 186.750,171.834 185.468,171.958 185.188 C 172.004 185.084,172.183 185.000,172.356 185.000 C 173.101 185.000,179.750 178.873,179.750 178.187 C 179.750 178.033,179.965 177.675,180.227 177.391 C 180.795 176.778,182.076 174.574,182.779 173.000 C 183.056 172.381,183.385 171.650,183.511 171.375 C 185.164 167.760,185.833 160.519,184.907 156.250 C 184.683 155.219,184.500 154.176,184.500 153.932 C 184.500 152.787,181.752 146.768,180.391 144.928 C 179.407 143.598,176.637 140.374,176.297 140.162 C 176.108 140.045,175.655 139.681,175.290 139.353 C 174.016 138.210,172.679 137.250,172.361 137.250 C 172.186 137.250,172.004 137.166,171.958 137.063 C 171.836 136.787,169.890 135.500,169.596 135.500 C 169.457 135.500,168.856 135.264,168.260 134.976 C 165.141 133.470,158.148 132.266,154.750 132.652 M248.161 135.267 C 245.076 135.853,239.529 138.258,238.006 139.670 C 237.662 139.989,237.248 140.250,237.086 140.250 C 236.924 140.250,236.754 140.337,236.708 140.442 C 236.662 140.548,236.021 141.139,235.283 141.755 C 233.920 142.893,230.750 146.510,230.750 146.927 C 230.750 147.053,230.542 147.379,230.288 147.651 C 227.425 150.725,225.374 159.523,225.987 166.104 C 226.344 169.933,228.043 175.533,229.033 176.145 C 229.152 176.219,229.250 176.447,229.250 176.651 C 229.250 178.715,238.718 188.250,240.768 188.250 C 240.883 188.250,241.550 188.588,242.250 189.000 C 242.950 189.412,243.623 189.750,243.747 189.750 C 243.870 189.750,245.019 190.116,246.298 190.563 L 248.625 191.375 254.000 191.375 C 259.453 191.375,261.253 191.107,263.309 189.986 C 263.548 189.856,263.933 189.750,264.164 189.750 C 264.395 189.750,265.183 189.412,265.913 189.000 C 266.644 188.587,267.389 188.250,267.568 188.250 C 267.747 188.250,268.283 187.917,268.759 187.510 C 269.235 187.103,269.755 186.766,269.914 186.760 C 270.286 186.747,273.858 183.734,275.000 182.471 C 276.606 180.693,277.000 180.209,277.000 180.013 C 277.000 179.906,277.262 179.550,277.583 179.222 C 278.072 178.721,278.738 177.541,280.291 174.431 C 283.335 168.331,283.433 158.854,280.518 152.321 C 279.035 148.998,277.761 146.781,277.197 146.542 C 277.088 146.496,277.000 146.303,277.000 146.113 C 277.000 145.608,272.198 140.902,270.543 139.785 C 268.722 138.556,267.651 137.981,264.875 136.745 C 260.482 134.789,253.794 134.198,248.161 135.267 M155.049 200.247 C 153.557 200.600,152.047 201.268,151.905 201.637 C 151.828 201.837,151.622 202.000,151.445 202.000 C 151.147 202.000,149.000 204.293,149.000 204.611 C 149.000 204.690,148.606 205.315,148.125 206.000 C 147.644 206.685,147.250 207.390,147.250 207.567 C 147.250 207.744,147.096 208.111,146.908 208.382 C 146.721 208.653,145.748 210.450,144.746 212.375 C 143.745 214.300,142.341 217.000,141.626 218.375 C 140.911 219.750,139.859 221.762,139.288 222.847 C 138.717 223.932,138.250 224.928,138.250 225.061 C 138.250 225.194,137.938 225.769,137.556 226.339 C 137.175 226.909,136.217 228.669,135.429 230.250 C 134.641 231.831,133.902 233.294,133.787 233.500 C 133.524 233.972,133.165 234.647,131.929 237.000 C 131.387 238.031,130.844 238.982,130.722 239.113 C 130.600 239.243,130.500 239.527,130.500 239.743 C 130.500 239.959,130.106 240.734,129.625 241.465 C 129.144 242.196,128.750 242.912,128.750 243.057 C 128.750 243.201,128.412 243.868,128.000 244.539 C 127.588 245.209,127.250 245.879,127.250 246.028 C 127.250 246.176,127.042 246.596,126.788 246.961 C 126.534 247.326,125.732 248.806,125.007 250.250 C 124.281 251.694,123.269 253.662,122.758 254.625 C 121.133 257.687,118.544 262.648,113.951 271.500 C 113.060 273.219,111.979 275.267,111.549 276.051 C 111.120 276.836,110.671 277.680,110.551 277.926 C 110.005 279.057,108.651 281.652,107.316 284.125 C 102.608 292.847,105.444 299.484,114.317 300.514 C 119.317 301.095,200.613 300.689,202.434 300.074 C 207.665 298.309,210.315 292.679,208.162 287.906 C 207.798 287.099,207.500 286.341,207.500 286.223 C 207.500 286.104,207.162 285.459,206.750 284.789 C 206.338 284.118,206.000 283.430,206.000 283.259 C 206.000 283.088,205.662 282.447,205.250 281.836 C 204.838 281.225,204.500 280.587,204.500 280.418 C 204.500 280.249,204.329 279.867,204.119 279.568 C 203.910 279.269,202.995 277.585,202.085 275.825 C 201.175 274.065,199.780 271.387,198.984 269.875 C 198.189 268.363,196.910 265.887,196.142 264.375 C 195.375 262.863,194.523 261.288,194.250 260.875 C 193.977 260.462,193.753 259.973,193.752 259.786 C 193.751 259.600,193.439 258.981,193.058 258.411 C 192.678 257.841,191.995 256.587,191.540 255.625 C 190.358 253.124,189.725 251.932,189.338 251.480 C 189.152 251.263,189.000 250.959,189.000 250.804 C 189.000 250.649,188.662 249.950,188.250 249.250 C 187.838 248.550,187.500 247.859,187.500 247.713 C 187.500 247.567,187.162 246.947,186.750 246.336 C 186.338 245.725,186.000 245.087,186.000 244.918 C 186.000 244.749,185.835 244.376,185.634 244.089 C 185.433 243.801,184.572 242.229,183.722 240.595 C 182.872 238.962,181.704 236.725,181.127 235.625 C 180.550 234.525,179.233 231.994,178.199 230.000 C 177.166 228.006,175.742 225.317,175.035 224.025 C 174.328 222.732,173.750 221.594,173.750 221.494 C 173.750 221.394,173.464 220.821,173.115 220.219 C 172.330 218.866,172.480 219.146,170.450 215.270 C 169.904 214.228,169.355 213.268,169.229 213.137 C 169.103 213.007,169.000 212.737,169.000 212.538 C 169.000 212.339,168.606 211.584,168.125 210.859 C 167.644 210.133,167.250 209.443,167.250 209.324 C 167.250 208.505,165.009 204.963,163.407 203.250 C 161.210 200.901,157.665 199.627,155.049 200.247 M209.353 202.376 C 202.908 204.114,200.239 211.240,203.876 217.002 C 204.219 217.545,204.500 218.100,204.500 218.234 C 204.500 218.368,204.838 219.050,205.250 219.750 C 205.662 220.450,206.000 221.179,206.000 221.371 C 206.000 221.563,206.118 221.793,206.262 221.882 C 206.406 221.971,206.944 222.906,207.458 223.960 C 207.971 225.013,209.106 227.225,209.978 228.875 C 211.914 232.536,214.055 236.637,216.113 240.625 C 218.040 244.358,220.799 249.668,221.244 250.500 C 221.427 250.844,221.668 251.294,221.778 251.500 C 221.889 251.706,222.282 252.494,222.651 253.250 C 223.021 254.006,223.588 255.045,223.912 255.558 C 224.235 256.070,224.500 256.621,224.500 256.782 C 224.500 256.942,224.894 257.666,225.375 258.391 C 225.856 259.117,226.250 259.814,226.250 259.942 C 226.250 260.070,226.695 261.007,227.240 262.025 C 227.784 263.042,228.657 264.719,229.181 265.750 C 230.859 269.057,233.304 273.618,233.530 273.862 C 233.651 273.993,233.750 274.248,233.750 274.430 C 233.750 274.611,234.013 275.180,234.333 275.692 C 234.654 276.205,235.340 277.469,235.857 278.500 C 236.373 279.531,236.881 280.544,236.985 280.750 C 237.089 280.956,237.660 282.025,238.254 283.125 C 238.848 284.225,239.710 285.856,240.169 286.750 C 240.628 287.644,241.097 288.544,241.210 288.750 C 241.323 288.956,241.618 289.519,241.866 290.000 C 246.990 299.959,247.142 300.175,250.059 301.617 C 252.895 303.019,256.533 302.966,258.552 301.494 C 258.925 301.222,259.298 301.000,259.382 301.000 C 259.672 301.000,261.491 299.373,261.495 299.110 C 261.498 298.964,261.703 298.626,261.950 298.360 C 262.198 298.093,262.607 297.481,262.861 297.000 C 263.114 296.519,263.441 295.900,263.587 295.625 C 263.733 295.350,264.490 293.887,265.269 292.375 C 266.048 290.863,267.453 288.163,268.391 286.375 C 269.329 284.587,270.470 282.394,270.926 281.500 C 271.382 280.606,271.848 279.706,271.960 279.500 C 272.073 279.294,272.394 278.675,272.673 278.125 C 272.953 277.575,273.609 276.337,274.130 275.375 C 274.652 274.413,275.768 272.275,276.612 270.625 C 277.455 268.975,278.282 267.372,278.448 267.063 C 278.614 266.753,278.845 266.303,278.962 266.063 C 279.079 265.822,279.772 264.500,280.504 263.125 C 281.826 260.638,282.832 258.712,285.922 252.750 C 288.005 248.730,290.471 243.981,290.724 243.500 C 291.009 242.961,291.424 242.169,292.550 240.020 C 293.096 238.978,293.645 238.018,293.771 237.888 C 293.897 237.757,294.000 237.473,294.000 237.257 C 294.000 237.041,294.394 236.266,294.875 235.535 C 295.356 234.804,295.750 234.119,295.750 234.013 C 295.750 233.906,296.214 232.932,296.780 231.847 C 297.347 230.762,298.567 228.412,299.491 226.625 C 300.415 224.838,301.709 222.363,302.366 221.125 C 304.501 217.104,304.722 216.648,305.413 214.875 C 307.631 209.179,304.794 203.992,298.577 202.373 C 296.517 201.836,211.343 201.839,209.353 202.376 " stroke="none" fill="#040404" fill-rule="evenodd"></path><path id="path1" d="M188.625 26.728 C 188.050 26.953,179.115 28.383,171.250 29.509 C 168.294 29.932,164.525 30.565,162.875 30.915 C 161.225 31.265,159.313 31.646,158.625 31.762 C 157.938 31.878,156.207 32.316,154.780 32.736 C 153.353 33.156,152.016 33.500,151.808 33.500 C 151.457 33.500,148.099 34.520,145.500 35.417 C 144.881 35.630,143.813 35.975,143.125 36.184 C 142.438 36.392,141.022 36.886,139.979 37.281 C 138.936 37.677,137.953 38.000,137.795 38.000 C 137.637 38.000,136.827 38.330,135.995 38.733 C 135.163 39.136,133.895 39.660,133.179 39.896 C 132.462 40.133,131.650 40.467,131.375 40.637 C 131.100 40.808,130.594 41.031,130.250 41.132 C 129.459 41.365,123.584 44.121,121.063 45.443 C 120.478 45.749,119.578 46.214,119.063 46.475 C 118.547 46.736,117.450 47.317,116.625 47.766 C 115.800 48.214,114.787 48.751,114.375 48.959 C 113.963 49.166,113.287 49.585,112.875 49.890 C 112.463 50.194,111.619 50.696,111.000 51.005 C 110.381 51.314,109.819 51.647,109.750 51.745 C 109.681 51.843,109.328 52.081,108.964 52.274 C 107.640 52.977,105.192 54.522,104.833 54.881 C 104.630 55.084,104.351 55.250,104.212 55.250 C 104.073 55.250,103.479 55.644,102.891 56.125 C 102.304 56.606,101.714 57.000,101.580 57.000 C 101.447 57.000,101.073 57.281,100.750 57.625 C 100.427 57.969,100.019 58.250,99.844 58.250 C 99.669 58.250,99.226 58.528,98.860 58.867 C 98.494 59.206,97.517 59.965,96.688 60.554 C 95.860 61.143,94.761 61.991,94.248 62.438 C 93.735 62.884,93.236 63.250,93.141 63.250 C 93.046 63.250,92.666 63.531,92.297 63.874 C 91.927 64.217,90.834 65.146,89.867 65.937 C 87.778 67.645,87.440 67.930,86.525 68.750 C 86.142 69.094,85.062 70.050,84.127 70.875 C 83.191 71.700,81.402 73.374,80.150 74.594 C 78.899 75.815,77.622 76.981,77.313 77.185 C 77.003 77.390,76.750 77.662,76.750 77.789 C 76.750 77.916,75.766 79.024,74.563 80.249 C 73.359 81.475,71.981 82.932,71.500 83.487 C 71.019 84.042,70.227 84.918,69.742 85.435 C 68.645 86.601,64.773 91.324,64.207 92.185 C 63.977 92.535,63.692 92.890,63.575 92.973 C 63.457 93.057,62.700 94.025,61.893 95.125 C 61.085 96.225,60.290 97.237,60.126 97.375 C 59.961 97.513,59.638 97.963,59.408 98.375 C 59.178 98.787,58.484 99.800,57.867 100.625 C 57.249 101.450,56.644 102.356,56.521 102.639 C 56.399 102.922,56.034 103.484,55.709 103.889 C 55.120 104.624,53.756 106.704,52.305 109.080 C 52.069 109.468,51.509 110.349,51.063 111.039 C 50.616 111.729,50.250 112.391,50.250 112.509 C 50.250 112.628,49.885 113.265,49.439 113.925 C 48.507 115.305,47.174 117.824,44.109 124.000 C 42.914 126.406,41.670 128.896,41.343 129.534 C 41.017 130.171,40.750 130.816,40.750 130.967 C 40.750 131.118,40.413 131.939,40.000 132.790 C 39.588 133.642,39.250 134.436,39.250 134.556 C 39.250 134.675,38.856 135.614,38.375 136.642 C 37.894 137.670,37.500 138.663,37.500 138.849 C 37.500 139.036,37.219 139.824,36.875 140.601 C 36.531 141.378,36.250 142.149,36.250 142.315 C 36.250 142.480,35.864 143.630,35.393 144.870 C 33.783 149.102,30.837 159.372,30.191 163.000 C 30.056 163.756,29.565 166.070,29.098 168.142 C 28.632 170.214,28.250 172.191,28.250 172.535 C 28.250 172.879,27.980 174.784,27.650 176.768 C 26.025 186.540,25.581 200.978,26.462 215.375 C 26.809 221.033,28.583 231.690,30.519 239.750 C 30.800 240.919,31.129 242.407,31.249 243.058 C 31.370 243.708,31.806 245.227,32.220 246.433 C 32.633 247.639,33.047 249.019,33.140 249.500 C 33.234 249.981,33.559 251.050,33.863 251.875 C 34.167 252.700,34.645 254.050,34.924 254.875 C 35.204 255.700,35.799 257.331,36.246 258.500 C 36.694 259.669,37.216 261.075,37.407 261.625 C 37.740 262.584,38.300 263.880,39.978 267.574 C 40.403 268.508,40.750 269.322,40.750 269.382 C 40.750 269.526,43.860 276.091,44.536 277.375 C 44.826 277.925,45.730 279.669,46.545 281.250 C 47.361 282.831,48.134 284.232,48.264 284.362 C 48.394 284.493,48.500 284.754,48.500 284.942 C 48.500 285.131,48.817 285.755,49.204 286.330 C 49.591 286.905,50.197 287.939,50.551 288.629 C 51.200 289.896,51.561 290.548,54.179 295.189 C 54.974 296.599,55.856 298.174,56.137 298.689 C 56.419 299.204,56.929 300.075,57.271 300.625 C 57.613 301.175,58.034 301.906,58.207 302.250 C 58.380 302.594,58.960 303.606,59.496 304.500 C 60.032 305.394,60.843 306.782,61.298 307.585 C 61.753 308.388,62.295 309.345,62.502 309.710 C 62.709 310.076,63.158 310.825,63.500 311.375 C 64.277 312.625,64.657 313.295,65.720 315.290 C 66.184 316.162,66.648 316.931,66.749 317.000 C 66.851 317.069,67.237 317.688,67.606 318.375 C 67.976 319.063,68.608 320.188,69.012 320.875 C 69.415 321.563,70.035 322.631,70.390 323.250 C 70.744 323.869,71.523 325.219,72.120 326.250 C 72.718 327.281,73.506 328.688,73.873 329.375 C 74.240 330.063,74.692 330.794,74.877 331.000 C 75.063 331.207,75.332 331.657,75.475 332.000 C 75.617 332.344,76.104 333.244,76.556 334.000 C 79.510 338.939,80.000 339.802,80.000 340.057 C 80.000 340.192,80.338 340.729,80.750 341.250 C 81.163 341.771,81.500 342.341,81.500 342.516 C 81.500 342.692,81.660 343.013,81.855 343.230 C 82.051 343.447,82.518 344.244,82.894 345.000 C 83.271 345.756,83.656 346.431,83.751 346.500 C 83.919 346.621,84.530 347.677,86.043 350.461 C 86.443 351.196,86.952 352.076,87.175 352.416 C 87.398 352.757,87.759 353.354,87.978 353.745 C 89.349 356.195,90.128 357.552,90.922 358.875 C 91.418 359.700,92.157 360.994,92.565 361.750 C 92.973 362.506,93.463 363.303,93.653 363.520 C 93.844 363.737,94.000 364.064,94.000 364.246 C 94.000 364.429,94.265 364.926,94.590 365.351 C 94.914 365.777,95.504 366.726,95.902 367.460 C 96.853 369.216,97.253 369.921,97.979 371.125 C 99.205 373.155,99.760 374.146,100.150 375.000 C 100.370 375.481,100.693 376.044,100.867 376.250 C 101.042 376.456,101.465 377.131,101.808 377.750 C 102.150 378.369,103.009 379.876,103.715 381.098 C 104.422 382.321,105.000 383.364,105.000 383.416 C 105.000 383.603,106.379 385.627,106.563 385.708 C 106.666 385.754,106.750 385.992,106.750 386.237 C 106.750 386.482,106.960 386.951,107.216 387.279 C 107.473 387.607,108.007 388.476,108.404 389.210 C 109.619 391.458,109.922 391.982,110.598 393.004 C 110.957 393.546,111.250 394.112,111.250 394.261 C 111.250 394.411,111.521 394.891,111.852 395.329 C 112.430 396.092,112.667 396.499,114.495 399.875 C 114.941 400.700,115.463 401.553,115.653 401.770 C 115.844 401.987,116.000 402.343,116.000 402.561 C 116.000 402.780,116.098 402.996,116.218 403.042 C 116.338 403.087,116.767 403.744,117.171 404.500 C 117.574 405.256,118.208 406.351,118.577 406.933 C 118.947 407.514,119.250 408.083,119.250 408.196 C 119.250 408.310,119.537 408.790,119.888 409.264 C 120.240 409.738,120.751 410.575,121.026 411.125 C 121.551 412.178,121.919 412.833,123.132 414.875 C 124.189 416.653,124.642 417.438,125.512 419.000 C 127.583 422.719,127.897 423.251,128.188 423.540 C 128.359 423.710,128.500 423.997,128.500 424.178 C 128.500 424.358,128.894 425.065,129.375 425.750 C 129.856 426.435,130.250 427.158,130.250 427.358 C 130.250 427.557,130.365 427.792,130.506 427.878 C 130.646 427.965,131.124 428.710,131.568 429.534 C 133.109 432.394,133.392 432.881,134.194 434.045 C 134.637 434.689,135.000 435.355,135.000 435.525 C 135.000 435.696,135.160 436.013,135.355 436.230 C 135.551 436.447,136.009 437.188,136.375 437.875 C 136.740 438.563,137.472 439.856,138.000 440.750 C 138.528 441.644,139.260 442.938,139.625 443.625 C 139.991 444.313,140.433 445.044,140.608 445.250 C 140.783 445.456,141.095 445.962,141.300 446.375 C 141.945 447.672,142.879 449.336,143.577 450.433 C 143.947 451.014,144.250 451.532,144.250 451.584 C 144.250 451.636,144.833 452.679,145.545 453.902 C 146.256 455.124,147.034 456.496,147.273 456.949 C 147.512 457.402,147.816 457.908,147.949 458.074 C 148.082 458.240,148.528 458.994,148.939 459.750 C 150.807 463.181,151.352 464.134,151.513 464.250 C 151.608 464.319,152.035 465.070,152.462 465.919 C 152.889 466.769,153.354 467.535,153.494 467.622 C 153.635 467.708,153.750 467.988,153.750 468.244 C 153.750 468.499,153.850 468.746,153.973 468.792 C 154.095 468.838,154.532 469.494,154.943 470.250 C 156.092 472.362,157.520 474.847,157.745 475.125 C 157.938 475.363,158.493 476.336,159.825 478.775 C 160.156 479.380,160.832 480.550,161.327 481.375 C 161.823 482.200,162.632 483.606,163.125 484.500 C 163.618 485.394,164.423 486.800,164.914 487.625 C 165.927 489.327,167.151 491.516,167.709 492.625 C 167.916 493.038,168.332 493.712,168.632 494.125 C 168.933 494.538,169.349 495.212,169.557 495.625 C 170.326 497.149,171.267 498.802,171.875 499.696 C 172.219 500.202,172.500 500.751,172.500 500.915 C 172.500 501.080,172.657 501.372,172.850 501.564 C 173.042 501.756,173.548 502.580,173.976 503.394 C 174.403 504.209,175.195 505.606,175.736 506.500 C 176.277 507.394,177.017 508.688,177.380 509.375 C 177.743 510.063,178.199 510.803,178.395 511.020 C 178.590 511.237,178.750 511.565,178.750 511.750 C 178.750 511.935,178.910 512.263,179.105 512.480 C 179.440 512.853,180.333 514.371,182.057 517.500 C 182.473 518.256,182.968 519.053,183.157 519.270 C 183.346 519.487,183.500 519.790,183.500 519.945 C 183.500 520.099,183.838 520.725,184.250 521.336 C 184.663 521.947,185.000 522.547,185.000 522.668 C 185.000 522.789,185.197 523.158,185.438 523.488 C 185.933 524.167,187.079 526.156,188.254 528.375 C 188.690 529.200,189.206 530.053,189.399 530.270 C 189.592 530.487,189.750 530.749,189.750 530.852 C 189.750 530.956,190.144 531.633,190.625 532.359 C 191.106 533.084,191.500 533.789,191.500 533.926 C 191.500 534.063,191.810 534.614,192.188 535.150 C 192.567 535.686,193.078 536.519,193.324 537.000 C 193.570 537.481,194.162 538.550,194.640 539.375 C 195.118 540.200,195.645 541.156,195.811 541.500 C 195.978 541.844,196.482 542.658,196.932 543.310 C 197.382 543.962,197.750 544.571,197.750 544.664 C 197.750 545.104,199.920 547.997,200.250 547.997 C 200.608 547.997,200.861 547.658,202.210 545.375 C 202.535 544.825,202.946 544.206,203.122 544.000 C 203.299 543.794,203.739 543.063,204.101 542.375 C 205.523 539.676,206.579 537.871,206.785 537.792 C 206.903 537.746,207.000 537.545,207.000 537.344 C 207.000 537.144,207.394 536.396,207.875 535.681 C 208.356 534.966,208.750 534.288,208.750 534.173 C 208.750 534.059,209.088 533.475,209.500 532.875 C 209.913 532.275,210.250 531.681,210.250 531.555 C 210.250 531.428,210.588 530.859,211.000 530.290 C 211.412 529.720,211.750 529.133,211.750 528.985 C 211.750 528.836,212.067 528.245,212.455 527.670 C 212.843 527.095,213.306 526.259,213.485 525.813 C 213.664 525.366,213.891 525.000,213.990 525.000 C 214.088 525.000,214.476 524.409,214.851 523.688 C 215.790 521.879,217.062 519.607,217.435 519.071 C 217.873 518.443,218.926 516.535,219.398 515.516 C 219.617 515.043,220.051 514.312,220.362 513.891 C 220.674 513.470,221.097 512.788,221.303 512.375 C 221.509 511.962,222.104 510.894,222.627 510.000 C 223.149 509.106,223.839 507.925,224.160 507.375 C 224.481 506.825,224.934 506.009,225.168 505.563 C 225.401 505.116,225.684 504.750,225.796 504.750 C 225.908 504.750,226.000 504.575,226.000 504.362 C 226.000 504.148,226.281 503.560,226.625 503.054 C 226.969 502.548,227.250 502.038,227.250 501.922 C 227.250 501.805,227.644 501.117,228.125 500.391 C 228.606 499.666,229.000 498.989,229.000 498.885 C 229.000 498.782,229.338 498.197,229.750 497.586 C 230.163 496.975,230.500 496.374,230.500 496.250 C 230.500 496.126,230.854 495.500,231.287 494.859 C 231.720 494.217,232.525 492.833,233.076 491.784 C 233.628 490.734,234.342 489.527,234.664 489.101 C 234.986 488.676,235.250 488.179,235.250 487.996 C 235.250 487.814,235.423 487.473,235.635 487.239 C 235.996 486.840,236.259 486.384,238.095 482.966 C 238.491 482.228,238.899 481.569,239.001 481.500 C 239.102 481.431,239.566 480.662,240.030 479.790 C 241.122 477.741,241.490 477.088,242.393 475.600 C 242.802 474.926,243.256 474.150,243.403 473.875 C 244.187 472.407,246.261 468.840,247.230 467.295 C 247.516 466.839,247.750 466.359,247.750 466.230 C 247.750 466.101,248.144 465.435,248.625 464.750 C 249.106 464.065,249.500 463.390,249.500 463.250 C 249.500 463.110,249.838 462.530,250.250 461.960 C 250.663 461.391,251.000 460.807,251.000 460.663 C 251.000 460.520,251.262 460.002,251.581 459.513 C 252.797 457.655,254.199 455.248,255.668 452.500 C 255.999 451.881,256.675 450.700,257.171 449.875 C 257.667 449.050,258.407 447.756,258.815 447.000 C 259.223 446.244,259.694 445.456,259.862 445.250 C 260.137 444.912,260.512 444.227,261.711 441.875 C 261.922 441.462,262.410 440.686,262.797 440.150 C 263.184 439.614,263.500 439.069,263.500 438.939 C 263.500 438.809,263.712 438.404,263.971 438.039 C 264.230 437.674,264.777 436.756,265.187 436.000 C 265.598 435.244,266.172 434.231,266.464 433.750 C 266.756 433.269,267.186 432.509,267.419 432.063 C 267.652 431.616,267.934 431.250,268.046 431.250 C 268.158 431.250,268.250 431.040,268.250 430.784 C 268.250 430.527,268.460 430.049,268.716 429.721 C 268.972 429.393,269.438 428.619,269.752 428.000 C 270.065 427.381,270.587 426.527,270.911 426.101 C 271.235 425.676,271.500 425.224,271.500 425.097 C 271.500 424.970,271.781 424.452,272.125 423.946 C 272.469 423.440,272.750 422.901,272.750 422.747 C 272.750 422.593,273.021 422.109,273.352 421.671 C 273.684 421.233,274.246 420.341,274.602 419.688 C 276.274 416.622,276.576 416.095,277.022 415.469 C 277.285 415.100,277.500 414.618,277.500 414.399 C 277.500 414.180,277.585 414.000,277.688 414.000 C 277.791 414.000,278.149 413.466,278.482 412.813 C 278.815 412.159,279.462 411.043,279.919 410.333 C 280.376 409.622,280.750 408.977,280.750 408.900 C 280.750 408.823,281.120 408.167,281.573 407.442 C 282.026 406.718,282.540 405.844,282.715 405.500 C 283.282 404.387,283.884 403.350,284.700 402.078 C 285.140 401.392,285.500 400.754,285.500 400.661 C 285.500 400.567,285.804 400.014,286.175 399.433 C 286.887 398.317,287.365 397.479,288.682 395.034 C 289.126 394.210,289.604 393.465,289.744 393.378 C 289.885 393.292,290.000 393.057,290.000 392.858 C 290.000 392.658,290.368 391.962,290.818 391.310 C 291.268 390.658,291.772 389.844,291.939 389.500 C 292.287 388.780,293.330 386.953,296.706 381.152 C 297.418 379.929,298.000 378.847,298.000 378.748 C 298.000 378.649,298.223 378.283,298.496 377.936 C 298.770 377.589,299.284 376.758,299.640 376.090 C 300.700 374.100,301.846 372.128,302.313 371.488 C 302.553 371.158,302.750 370.789,302.750 370.668 C 302.750 370.547,303.087 369.947,303.500 369.336 C 303.912 368.725,304.250 368.111,304.250 367.971 C 304.250 367.831,304.519 367.359,304.847 366.921 C 305.175 366.483,305.736 365.542,306.092 364.830 C 306.449 364.118,306.855 363.465,306.995 363.378 C 307.135 363.291,307.250 363.057,307.250 362.858 C 307.250 362.658,307.644 361.935,308.125 361.250 C 308.606 360.565,309.000 359.845,309.000 359.648 C 309.000 359.452,309.098 359.254,309.218 359.208 C 309.338 359.163,309.766 358.506,310.169 357.750 C 310.571 356.994,311.072 356.094,311.281 355.750 C 313.129 352.709,313.841 351.481,314.981 349.368 C 315.205 348.952,315.752 348.075,316.195 347.418 C 316.638 346.762,317.000 346.068,317.000 345.877 C 317.000 345.686,317.115 345.458,317.256 345.372 C 317.396 345.285,317.861 344.519,318.288 343.669 C 318.715 342.820,319.142 342.069,319.237 342.000 C 319.332 341.931,319.779 341.200,320.230 340.375 C 321.026 338.919,321.403 338.246,322.887 335.625 C 323.277 334.938,323.672 334.319,323.765 334.250 C 323.859 334.181,324.316 333.412,324.780 332.540 C 325.872 330.491,326.240 329.838,327.143 328.350 C 328.035 326.880,328.404 326.232,329.195 324.750 C 329.525 324.131,329.941 323.456,330.119 323.250 C 330.297 323.044,330.765 322.274,331.159 321.540 C 332.097 319.791,332.499 319.083,333.237 317.875 C 333.574 317.325,334.055 316.481,334.307 316.000 C 334.559 315.519,335.207 314.394,335.747 313.500 C 336.286 312.606,336.869 311.594,337.041 311.250 C 337.213 310.906,337.644 310.175,338.000 309.625 C 338.356 309.075,338.781 308.344,338.946 308.000 C 339.110 307.656,339.691 306.644,340.237 305.750 C 340.783 304.856,341.600 303.468,342.052 302.665 C 343.496 300.103,343.617 299.894,344.250 298.875 C 344.989 297.686,345.385 296.993,346.341 295.210 C 346.735 294.476,347.202 293.706,347.379 293.500 C 347.556 293.294,348.015 292.563,348.399 291.875 C 348.783 291.188,349.328 290.215,349.611 289.714 C 352.160 285.196,355.022 279.894,355.800 278.250 C 356.286 277.221,357.104 275.450,358.628 272.125 C 358.943 271.438,359.537 270.087,359.947 269.125 C 360.357 268.163,360.985 266.700,361.343 265.875 C 361.701 265.050,362.172 263.869,362.389 263.250 C 362.606 262.631,363.118 261.169,363.525 260.000 C 363.933 258.831,364.419 257.538,364.604 257.125 C 364.790 256.712,365.084 255.925,365.257 255.375 C 365.430 254.825,365.893 253.441,366.286 252.299 C 366.679 251.158,367.000 250.043,367.000 249.822 C 367.000 249.602,367.323 248.342,367.717 247.023 C 370.183 238.776,372.758 225.379,373.258 218.195 C 373.375 216.506,373.602 213.325,373.762 211.125 C 374.636 199.107,373.444 178.851,371.195 167.500 C 370.909 166.056,370.566 164.200,370.433 163.375 C 370.301 162.550,369.811 160.456,369.346 158.721 C 368.881 156.987,368.501 155.412,368.502 155.221 C 368.505 154.661,365.438 144.989,363.992 141.000 C 362.749 137.570,362.101 135.932,361.472 134.625 C 361.075 133.800,360.750 133.004,360.750 132.857 C 360.750 132.709,360.413 131.892,360.000 131.040 C 359.587 130.189,359.250 129.433,359.250 129.361 C 359.250 129.143,355.292 121.252,354.242 119.375 C 353.703 118.412,353.080 117.231,352.857 116.750 C 352.634 116.269,352.181 115.517,351.850 115.079 C 351.520 114.641,351.250 114.175,351.250 114.042 C 351.250 113.909,350.884 113.233,350.438 112.540 C 348.808 110.013,348.250 109.054,348.250 108.780 C 348.250 108.626,348.162 108.500,348.054 108.500 C 347.946 108.500,347.637 108.149,347.366 107.719 C 347.096 107.290,346.706 106.695,346.500 106.398 C 346.294 106.101,345.900 105.485,345.625 105.029 C 345.350 104.574,344.759 103.713,344.313 103.116 C 343.866 102.519,343.500 101.954,343.500 101.861 C 343.500 101.767,343.191 101.323,342.813 100.873 C 342.434 100.424,341.506 99.197,340.750 98.147 C 338.624 95.195,338.233 94.679,336.633 92.711 C 334.475 90.056,331.018 85.982,330.269 85.213 C 329.915 84.850,329.231 84.096,328.750 83.538 C 326.954 81.457,316.427 71.000,316.128 71.000 C 316.056 71.000,315.305 70.325,314.459 69.500 C 313.614 68.675,312.767 68.000,312.578 68.000 C 312.389 68.000,312.174 67.842,312.100 67.649 C 311.996 67.378,308.745 64.639,307.125 63.457 C 306.988 63.357,306.411 62.876,305.845 62.388 C 305.278 61.899,304.697 61.500,304.553 61.500 C 304.409 61.500,304.254 61.409,304.208 61.297 C 304.163 61.185,303.450 60.602,302.625 60.002 C 301.800 59.401,301.069 58.846,301.000 58.767 C 300.696 58.422,298.519 57.000,298.292 57.000 C 298.155 57.000,298.004 56.916,297.958 56.813 C 297.840 56.546,296.074 55.250,295.829 55.250 C 295.717 55.250,295.290 54.962,294.881 54.610 C 294.472 54.258,293.784 53.802,293.352 53.598 C 292.921 53.393,292.332 53.006,292.044 52.738 C 291.756 52.469,291.438 52.250,291.336 52.250 C 291.235 52.250,290.752 51.988,290.263 51.669 C 287.685 49.982,282.423 47.031,277.625 44.580 C 277.350 44.440,276.436 43.970,275.593 43.537 C 274.751 43.104,273.920 42.750,273.746 42.750 C 273.572 42.750,272.882 42.413,272.211 42.000 C 271.541 41.587,270.864 41.250,270.708 41.250 C 270.551 41.250,269.709 40.913,268.836 40.500 C 267.963 40.087,267.142 39.750,267.013 39.750 C 266.883 39.750,265.955 39.374,264.951 38.914 C 263.123 38.077,262.673 37.902,259.875 36.945 C 259.050 36.663,257.531 36.125,256.500 35.751 C 254.129 34.889,250.689 33.825,248.399 33.244 C 247.423 32.996,245.781 32.567,244.750 32.290 C 241.387 31.388,237.199 30.440,235.772 30.257 C 235.004 30.158,232.519 29.774,230.250 29.403 C 222.339 28.108,215.360 27.025,213.237 26.763 C 210.774 26.460,189.388 26.429,188.625 26.728 M162.625 133.266 C 165.960 134.074,167.126 134.429,168.260 134.976 C 168.856 135.264,169.457 135.500,169.596 135.500 C 169.890 135.500,171.836 136.787,171.958 137.063 C 172.004 137.166,172.186 137.250,172.361 137.250 C 172.679 137.250,174.016 138.210,175.290 139.353 C 175.655 139.681,176.108 140.045,176.297 140.162 C 176.637 140.374,179.407 143.598,180.391 144.928 C 181.752 146.768,184.500 152.787,184.500 153.932 C 184.500 154.176,184.683 155.219,184.907 156.250 C 185.833 160.519,185.164 167.760,183.511 171.375 C 183.385 171.650,183.056 172.381,182.779 173.000 C 182.076 174.574,180.795 176.778,180.227 177.391 C 179.965 177.675,179.750 178.033,179.750 178.187 C 179.750 178.873,173.101 185.000,172.356 185.000 C 172.183 185.000,172.004 185.084,171.958 185.188 C 171.834 185.468,169.888 186.750,169.586 186.750 C 169.442 186.750,168.818 187.019,168.198 187.349 C 162.407 190.428,152.727 190.363,145.625 187.196 C 143.213 186.120,138.687 183.289,138.313 182.622 C 138.189 182.399,137.801 182.027,137.451 181.796 C 136.735 181.321,134.563 178.791,133.166 176.802 C 131.862 174.947,130.882 172.854,129.688 169.375 L 128.659 166.375 128.659 161.125 L 128.659 155.875 129.688 152.875 C 130.884 149.391,131.864 147.299,133.168 145.448 C 134.714 143.253,137.307 140.250,137.655 140.250 C 137.835 140.250,138.104 140.022,138.253 139.744 C 138.403 139.465,139.560 138.550,140.825 137.709 C 147.574 133.226,155.663 131.577,162.625 133.266 M259.875 135.237 C 262.578 135.762,263.356 136.027,266.500 137.492 C 268.172 138.271,268.974 138.726,270.543 139.785 C 272.198 140.902,277.000 145.608,277.000 146.113 C 277.000 146.303,277.088 146.496,277.197 146.542 C 277.761 146.781,279.035 148.998,280.518 152.321 C 283.433 158.854,283.335 168.331,280.291 174.431 C 278.738 177.541,278.072 178.721,277.583 179.222 C 277.262 179.550,277.000 179.906,277.000 180.013 C 277.000 180.209,276.606 180.693,275.000 182.471 C 273.858 183.734,270.286 186.747,269.914 186.760 C 269.755 186.766,269.235 187.103,268.759 187.510 C 268.283 187.917,267.747 188.250,267.568 188.250 C 267.389 188.250,266.644 188.587,265.913 189.000 C 265.183 189.412,264.395 189.750,264.164 189.750 C 263.933 189.750,263.548 189.856,263.309 189.986 C 261.253 191.107,259.453 191.375,254.000 191.375 L 248.625 191.375 246.298 190.563 C 245.019 190.116,243.870 189.750,243.747 189.750 C 243.623 189.750,242.950 189.412,242.250 189.000 C 241.550 188.588,240.883 188.250,240.768 188.250 C 238.718 188.250,229.250 178.715,229.250 176.651 C 229.250 176.447,229.152 176.219,229.033 176.145 C 228.043 175.533,226.344 169.933,225.987 166.104 C 225.374 159.523,227.425 150.725,230.288 147.651 C 230.542 147.379,230.750 147.053,230.750 146.927 C 230.750 146.510,233.920 142.893,235.283 141.755 C 236.021 141.139,236.662 140.548,236.708 140.442 C 236.754 140.337,236.924 140.250,237.086 140.250 C 237.248 140.250,237.662 139.989,238.006 139.670 C 238.669 139.055,240.958 137.837,243.911 136.527 C 247.764 134.818,254.795 134.250,259.875 135.237 M158.717 200.475 C 161.167 201.118,162.735 202.248,164.821 204.875 C 165.455 205.672,167.250 208.962,167.250 209.324 C 167.250 209.443,167.644 210.133,168.125 210.859 C 168.606 211.584,169.000 212.339,169.000 212.538 C 169.000 212.737,169.103 213.007,169.229 213.137 C 169.355 213.268,169.904 214.228,170.450 215.270 C 172.480 219.146,172.330 218.866,173.115 220.219 C 173.464 220.821,173.750 221.394,173.750 221.494 C 173.750 221.594,174.328 222.732,175.035 224.025 C 175.742 225.317,177.166 228.006,178.199 230.000 C 179.233 231.994,180.550 234.525,181.127 235.625 C 181.704 236.725,182.872 238.962,183.722 240.595 C 184.572 242.229,185.433 243.801,185.634 244.089 C 185.835 244.376,186.000 244.749,186.000 244.918 C 186.000 245.087,186.338 245.725,186.750 246.336 C 187.162 246.947,187.500 247.567,187.500 247.713 C 187.500 247.859,187.838 248.550,188.250 249.250 C 188.662 249.950,189.000 250.649,189.000 250.804 C 189.000 250.959,189.152 251.263,189.338 251.480 C 189.725 251.932,190.358 253.124,191.540 255.625 C 191.995 256.587,192.678 257.841,193.058 258.411 C 193.439 258.981,193.751 259.600,193.752 259.786 C 193.753 259.973,193.977 260.462,194.250 260.875 C 194.523 261.288,195.375 262.863,196.142 264.375 C 196.910 265.887,198.189 268.363,198.984 269.875 C 199.780 271.387,201.175 274.065,202.085 275.825 C 202.995 277.585,203.910 279.269,204.119 279.568 C 204.329 279.867,204.500 280.249,204.500 280.418 C 204.500 280.587,204.838 281.225,205.250 281.836 C 205.662 282.447,206.000 283.088,206.000 283.259 C 206.000 283.430,206.338 284.118,206.750 284.789 C 207.162 285.459,207.500 286.104,207.500 286.223 C 207.500 286.341,207.798 287.099,208.162 287.906 C 210.315 292.679,207.665 298.309,202.434 300.074 C 200.613 300.689,119.317 301.095,114.317 300.514 C 105.444 299.484,102.608 292.847,107.316 284.125 C 108.651 281.652,110.005 279.057,110.551 277.926 C 110.671 277.680,111.120 276.836,111.549 276.051 C 111.979 275.267,113.060 273.219,113.951 271.500 C 118.544 262.648,121.133 257.687,122.758 254.625 C 123.269 253.662,124.281 251.694,125.007 250.250 C 125.732 248.806,126.534 247.326,126.788 246.961 C 127.042 246.596,127.250 246.176,127.250 246.028 C 127.250 245.879,127.588 245.209,128.000 244.539 C 128.412 243.868,128.750 243.201,128.750 243.057 C 128.750 242.912,129.144 242.196,129.625 241.465 C 130.106 240.734,130.500 239.959,130.500 239.743 C 130.500 239.527,130.600 239.243,130.722 239.113 C 130.844 238.982,131.387 238.031,131.929 237.000 C 133.165 234.647,133.524 233.972,133.787 233.500 C 133.902 233.294,134.641 231.831,135.429 230.250 C 136.217 228.669,137.175 226.909,137.556 226.339 C 137.938 225.769,138.250 225.194,138.250 225.061 C 138.250 224.928,138.717 223.932,139.288 222.847 C 139.859 221.762,140.911 219.750,141.626 218.375 C 142.341 217.000,143.745 214.300,144.746 212.375 C 145.748 210.450,146.721 208.653,146.908 208.382 C 147.096 208.111,147.250 207.744,147.250 207.567 C 147.250 207.390,147.644 206.685,148.125 206.000 C 148.606 205.315,149.000 204.690,149.000 204.611 C 149.000 204.293,151.147 202.000,151.445 202.000 C 151.622 202.000,151.828 201.837,151.905 201.637 C 152.108 201.109,154.921 200.098,156.392 200.026 C 156.676 200.012,157.722 200.214,158.717 200.475 M298.577 202.373 C 304.794 203.992,307.631 209.179,305.413 214.875 C 304.722 216.648,304.501 217.104,302.366 221.125 C 301.709 222.363,300.415 224.838,299.491 226.625 C 298.567 228.412,297.347 230.762,296.780 231.847 C 296.214 232.932,295.750 233.906,295.750 234.013 C 295.750 234.119,295.356 234.804,294.875 235.535 C 294.394 236.266,294.000 237.041,294.000 237.257 C 294.000 237.473,293.897 237.757,293.771 237.888 C 293.645 238.018,293.096 238.978,292.550 240.020 C 291.424 242.169,291.009 242.961,290.724 243.500 C 290.471 243.981,288.005 248.730,285.922 252.750 C 282.832 258.712,281.826 260.638,280.504 263.125 C 279.772 264.500,279.079 265.822,278.962 266.063 C 278.845 266.303,278.614 266.753,278.448 267.063 C 278.282 267.372,277.455 268.975,276.612 270.625 C 275.768 272.275,274.652 274.413,274.130 275.375 C 273.609 276.337,272.953 277.575,272.673 278.125 C 272.394 278.675,272.073 279.294,271.960 279.500 C 271.848 279.706,271.382 280.606,270.926 281.500 C 270.470 282.394,269.329 284.587,268.391 286.375 C 267.453 288.163,266.048 290.863,265.269 292.375 C 264.490 293.887,263.733 295.350,263.587 295.625 C 263.441 295.900,263.114 296.519,262.861 297.000 C 262.607 297.481,262.198 298.093,261.950 298.360 C 261.703 298.626,261.498 298.964,261.495 299.110 C 261.491 299.373,259.672 301.000,259.382 301.000 C 259.298 301.000,258.925 301.222,258.552 301.494 C 256.533 302.966,252.895 303.019,250.059 301.617 C 247.142 300.175,246.990 299.959,241.866 290.000 C 241.618 289.519,241.323 288.956,241.210 288.750 C 241.097 288.544,240.628 287.644,240.169 286.750 C 239.710 285.856,238.848 284.225,238.254 283.125 C 237.660 282.025,237.089 280.956,236.985 280.750 C 236.881 280.544,236.373 279.531,235.857 278.500 C 235.340 277.469,234.654 276.205,234.333 275.692 C 234.013 275.180,233.750 274.611,233.750 274.430 C 233.750 274.248,233.651 273.993,233.530 273.862 C 233.304 273.618,230.859 269.057,229.181 265.750 C 228.657 264.719,227.784 263.042,227.240 262.025 C 226.695 261.007,226.250 260.070,226.250 259.942 C 226.250 259.814,225.856 259.117,225.375 258.391 C 224.894 257.666,224.500 256.942,224.500 256.782 C 224.500 256.621,224.235 256.070,223.912 255.558 C 223.588 255.045,223.021 254.006,222.651 253.250 C 222.282 252.494,221.889 251.706,221.778 251.500 C 221.668 251.294,221.427 250.844,221.244 250.500 C 220.799 249.668,218.040 244.358,216.113 240.625 C 214.055 236.637,211.914 232.536,209.978 228.875 C 209.106 227.225,207.971 225.013,207.458 223.960 C 206.944 222.906,206.406 221.971,206.262 221.882 C 206.118 221.793,206.000 221.563,206.000 221.371 C 206.000 221.179,205.662 220.450,205.250 219.750 C 204.838 219.050,204.500 218.368,204.500 218.234 C 204.500 218.100,204.219 217.545,203.876 217.002 C 200.239 211.240,202.908 204.114,209.353 202.376 C 211.343 201.839,296.517 201.836,298.577 202.373 " stroke="none" fill="#fbdb3b" fill-rule="evenodd"></path></g></svg>