<svg id="svg" version="1.1" width="400" height="400" viewBox="0 0 400 400" xmlns="http://www.w3.org/2000/svg" xmlns:xlink="http://www.w3.org/1999/xlink" ><g id="svgg"><path id="path0" d="M190.250 0.156 C 189.545 0.208,187.235 0.372,185.119 0.521 C 183.002 0.669,179.769 0.960,177.935 1.167 C 176.100 1.375,174.080 1.602,173.445 1.672 C 161.426 3.002,145.286 6.915,132.008 11.718 C 123.699 14.723,119.597 16.503,110.969 20.846 C 105.829 23.433,103.957 24.414,101.347 25.892 C 100.853 26.172,100.160 26.548,99.808 26.729 C 99.455 26.910,99.108 27.125,99.038 27.207 C 98.967 27.289,98.159 27.803,97.242 28.349 C 96.325 28.896,94.510 30.014,93.210 30.835 C 91.910 31.657,90.779 32.328,90.698 32.328 C 90.616 32.328,90.321 32.541,90.043 32.801 C 89.764 33.060,89.220 33.435,88.835 33.634 C 88.449 33.833,88.076 34.058,88.005 34.135 C 87.935 34.212,86.434 35.301,84.670 36.556 C 65.679 50.057,47.752 68.116,35.724 85.861 C 35.136 86.728,34.507 87.594,34.326 87.785 C 34.145 87.977,33.833 88.449,33.634 88.835 C 33.435 89.220,33.060 89.764,32.801 90.043 C 32.541 90.321,32.328 90.616,32.328 90.698 C 32.328 90.779,31.657 91.910,30.835 93.210 C 30.014 94.510,28.896 96.325,28.349 97.242 C 27.803 98.159,27.289 98.967,27.207 99.038 C 27.125 99.108,26.910 99.455,26.729 99.808 C 26.548 100.160,26.172 100.853,25.892 101.347 C 24.443 103.906,23.441 105.827,20.802 111.097 C 19.212 114.272,17.760 117.158,17.577 117.511 C 12.472 127.306,4.697 152.675,2.832 165.619 C 2.690 166.607,2.516 167.704,2.446 168.056 C 2.134 169.620,2.063 170.063,1.908 171.392 C 1.818 172.168,1.699 173.149,1.645 173.573 C -0.504 190.349,-0.504 209.723,1.645 226.427 C 1.699 226.851,1.818 227.832,1.908 228.608 C 2.063 229.937,2.134 230.380,2.446 231.944 C 2.516 232.296,2.691 233.393,2.834 234.381 C 4.725 247.446,12.450 272.652,17.577 282.489 C 17.760 282.842,19.212 285.728,20.802 288.903 C 23.441 294.173,24.443 296.094,25.892 298.653 C 26.172 299.147,26.548 299.840,26.729 300.192 C 26.910 300.545,27.125 300.892,27.207 300.962 C 27.289 301.033,27.803 301.841,28.349 302.758 C 28.896 303.675,30.014 305.490,30.835 306.790 C 31.657 308.090,32.328 309.221,32.328 309.302 C 32.328 309.384,32.541 309.679,32.801 309.957 C 33.060 310.236,33.435 310.780,33.634 311.165 C 33.833 311.551,34.060 311.924,34.140 311.995 C 34.219 312.065,34.852 312.931,35.546 313.919 C 49.218 333.376,65.472 349.801,84.285 363.168 C 86.260 364.572,87.935 365.784,88.005 365.862 C 88.076 365.941,88.449 366.167,88.835 366.366 C 89.220 366.565,89.764 366.940,90.043 367.199 C 90.321 367.459,90.616 367.672,90.698 367.672 C 90.779 367.672,91.910 368.343,93.210 369.165 C 94.510 369.986,96.325 371.104,97.242 371.651 C 98.159 372.197,98.967 372.711,99.038 372.793 C 99.108 372.875,99.455 373.090,99.808 373.271 C 100.160 373.452,100.853 373.828,101.347 374.108 C 107.697 377.703,117.562 382.549,123.669 385.074 C 136.858 390.526,151.489 394.747,165.563 397.160 C 169.781 397.883,170.827 398.038,173.445 398.328 C 174.080 398.398,176.100 398.624,177.935 398.830 C 185.919 399.727,188.925 399.868,200.000 399.868 C 211.075 399.868,214.081 399.727,222.065 398.830 C 223.900 398.624,225.920 398.398,226.555 398.328 C 236.521 397.225,250.297 394.139,261.706 390.453 C 267.810 388.482,279.678 383.895,282.489 382.421 C 282.842 382.236,285.728 380.785,288.903 379.195 C 294.180 376.554,296.119 375.542,298.653 374.108 C 299.147 373.828,299.840 373.452,300.192 373.271 C 300.545 373.090,300.892 372.875,300.962 372.793 C 301.033 372.711,301.841 372.197,302.758 371.651 C 303.675 371.104,305.490 369.986,306.790 369.165 C 308.090 368.343,309.221 367.672,309.302 367.672 C 309.384 367.672,309.679 367.459,309.957 367.199 C 310.236 366.940,310.780 366.565,311.165 366.366 C 311.551 366.167,311.924 365.941,311.995 365.862 C 312.065 365.784,313.740 364.572,315.715 363.168 C 333.706 350.385,350.225 333.901,362.912 316.072 C 364.458 313.900,365.786 312.065,365.863 311.995 C 365.941 311.924,366.167 311.551,366.366 311.165 C 366.565 310.780,366.940 310.236,367.199 309.957 C 367.459 309.679,367.672 309.384,367.672 309.302 C 367.672 309.221,368.343 308.090,369.165 306.790 C 369.986 305.490,371.104 303.675,371.651 302.758 C 372.197 301.841,372.711 301.033,372.793 300.962 C 372.875 300.892,373.090 300.545,373.271 300.192 C 373.452 299.840,373.828 299.147,374.108 298.653 C 375.610 295.999,376.576 294.151,379.201 288.903 C 380.790 285.728,382.240 282.842,382.423 282.489 C 387.559 272.631,395.272 247.464,397.166 234.381 C 397.309 233.393,397.487 232.296,397.560 231.944 C 397.787 230.855,398.167 228.293,398.321 226.812 C 398.401 226.036,398.583 224.419,398.724 223.220 C 400.308 209.733,400.399 193.085,398.964 179.217 C 398.240 172.215,397.949 169.901,397.561 168.056 C 397.487 167.704,397.310 166.607,397.168 165.619 C 395.298 152.640,387.542 127.332,382.423 117.511 C 382.240 117.158,380.788 114.272,379.198 111.097 C 376.559 105.827,375.557 103.906,374.108 101.347 C 373.828 100.853,373.452 100.160,373.271 99.808 C 373.090 99.455,372.875 99.108,372.793 99.038 C 372.711 98.967,372.197 98.159,371.651 97.242 C 371.104 96.325,369.986 94.510,369.165 93.210 C 368.343 91.910,367.672 90.779,367.672 90.698 C 367.672 90.616,367.459 90.321,367.199 90.043 C 366.940 89.764,366.565 89.220,366.366 88.835 C 366.167 88.449,365.855 87.977,365.674 87.785 C 365.493 87.594,364.865 86.728,364.279 85.861 C 352.356 68.228,334.308 50.048,315.330 36.556 C 313.566 35.301,312.065 34.212,311.995 34.135 C 311.924 34.058,311.551 33.833,311.165 33.634 C 310.780 33.435,310.236 33.060,309.957 32.801 C 309.679 32.541,309.384 32.328,309.302 32.328 C 309.221 32.328,308.090 31.657,306.790 30.835 C 305.490 30.014,303.675 28.896,302.758 28.349 C 301.841 27.803,301.033 27.289,300.962 27.207 C 300.892 27.125,300.545 26.910,300.192 26.729 C 299.840 26.548,299.147 26.172,298.653 25.892 C 292.195 22.236,282.541 17.494,276.331 14.926 C 261.693 8.875,242.284 3.566,228.865 1.943 C 224.456 1.410,218.590 0.785,215.266 0.495 C 212.165 0.224,192.857 -0.038,190.250 0.156 M213.470 26.672 C 321.710 35.736,395.005 138.340,368.303 243.420 C 347.025 327.158,265.859 382.781,179.731 372.649 C 84.505 361.446,16.242 275.024,27.348 179.731 C 36.357 102.432,96.235 40.236,173.188 28.244 C 179.102 27.322,182.399 26.989,192.174 26.325 C 194.772 26.148,210.224 26.400,213.470 26.672 " stroke="none" fill="#040404" fill-rule="evenodd"></path><path id="path1" d="M190.061 0.181 C 190.380 0.243,190.842 0.241,191.087 0.176 C 191.332 0.112,191.071 0.062,190.507 0.065 C 189.942 0.068,189.742 0.120,190.061 0.181 M209.047 0.181 C 209.366 0.243,209.828 0.241,210.074 0.176 C 210.319 0.112,210.058 0.062,209.493 0.065 C 208.929 0.068,208.728 0.120,209.047 0.181 M192.174 26.325 C 185.127 26.803,182.610 27.011,179.731 27.350 C 81.262 38.962,12.507 130.352,28.512 228.352 C 43.419 319.629,128.261 383.473,220.269 372.649 C 315.480 361.448,383.844 274.895,372.649 179.731 C 362.944 97.239,296.813 33.651,213.470 26.672 C 210.224 26.400,194.772 26.148,192.174 26.325 M69.131 48.557 L 68.377 49.391 69.211 48.637 C 69.988 47.935,70.163 47.723,69.965 47.723 C 69.920 47.723,69.545 48.098,69.131 48.557 M329.955 47.803 C 329.955 47.847,330.330 48.223,330.789 48.637 L 331.623 49.391 330.869 48.557 C 330.167 47.779,329.955 47.605,329.955 47.803 M66.952 50.481 L 66.068 51.443 67.030 50.559 C 67.926 49.736,68.110 49.519,67.914 49.519 C 67.871 49.519,67.439 49.952,66.952 50.481 M332.777 50.417 C 333.256 50.911,333.706 51.315,333.776 51.315 C 333.847 51.315,333.513 50.911,333.034 50.417 C 332.555 49.923,332.106 49.519,332.035 49.519 C 331.965 49.519,332.299 49.923,332.777 50.417 M64.007 53.175 L 62.476 54.779 64.080 53.247 C 64.962 52.405,65.683 51.683,65.683 51.644 C 65.683 51.454,65.430 51.686,64.007 53.175 M335.728 53.111 C 336.566 53.958,337.309 54.650,337.380 54.650 C 337.450 54.650,336.822 53.958,335.985 53.111 C 335.147 52.264,334.403 51.572,334.333 51.572 C 334.262 51.572,334.890 52.264,335.728 53.111 M58.371 58.499 C 56.258 60.616,54.586 62.348,54.657 62.348 C 54.727 62.348,56.514 60.616,58.627 58.499 C 60.741 56.382,62.412 54.650,62.341 54.650 C 62.271 54.650,60.484 56.382,58.371 58.499 M341.373 58.499 C 343.486 60.616,345.273 62.348,345.343 62.348 C 345.414 62.348,343.742 60.616,341.629 58.499 C 339.516 56.382,337.729 54.650,337.659 54.650 C 337.588 54.650,339.259 56.382,341.373 58.499 M52.846 64.336 L 51.443 65.811 52.919 64.409 C 54.289 63.106,54.511 62.861,54.321 62.861 C 54.281 62.861,53.617 63.525,52.846 64.336 M346.889 64.272 C 347.656 65.048,348.340 65.683,348.411 65.683 C 348.482 65.683,347.912 65.048,347.146 64.272 C 346.379 63.496,345.694 62.861,345.624 62.861 C 345.553 62.861,346.123 63.496,346.889 64.272 M50.275 67.158 L 49.391 68.121 50.353 67.236 C 51.248 66.413,51.433 66.196,51.237 66.196 C 51.194 66.196,50.761 66.629,50.275 67.158 M349.455 67.094 C 349.933 67.588,350.383 67.992,350.453 67.992 C 350.524 67.992,350.190 67.588,349.711 67.094 C 349.233 66.600,348.783 66.196,348.713 66.196 C 348.642 66.196,348.976 66.600,349.455 67.094 M48.348 69.339 L 47.595 70.173 48.428 69.420 C 48.887 69.005,49.262 68.630,49.262 68.586 C 49.262 68.388,49.051 68.562,48.348 69.339 M350.738 68.586 C 350.738 68.630,351.113 69.005,351.572 69.420 L 352.405 70.173 351.652 69.339 C 350.949 68.562,350.738 68.388,350.738 68.586 M0.321 186.402 C 0.324 186.966,0.377 187.167,0.438 186.848 C 0.499 186.528,0.497 186.067,0.433 185.821 C 0.369 185.576,0.318 185.837,0.321 186.402 M0.070 190.635 C 0.070 191.270,0.120 191.530,0.181 191.212 C 0.242 190.895,0.242 190.375,0.181 190.058 C 0.120 189.740,0.070 190.000,0.070 190.635 M399.808 190.507 C 399.811 191.071,399.864 191.272,399.925 190.953 C 399.986 190.634,399.984 190.172,399.920 189.926 C 399.855 189.681,399.805 189.942,399.808 190.507 M0.070 209.365 C 0.070 210.000,0.120 210.260,0.181 209.942 C 0.242 209.625,0.242 209.105,0.181 208.788 C 0.120 208.470,0.070 208.730,0.070 209.365 M399.808 209.493 C 399.811 210.058,399.864 210.258,399.925 209.939 C 399.986 209.620,399.984 209.158,399.920 208.913 C 399.855 208.668,399.805 208.929,399.808 209.493 M0.321 213.598 C 0.324 214.163,0.377 214.364,0.438 214.044 C 0.499 213.725,0.497 213.263,0.433 213.018 C 0.369 212.773,0.318 213.034,0.321 213.598 M47.723 330.035 C 47.723 330.080,48.098 330.455,48.557 330.869 L 49.391 331.623 48.637 330.789 C 47.935 330.012,47.723 329.837,47.723 330.035 M351.363 330.789 L 350.609 331.623 351.443 330.869 C 352.221 330.167,352.395 329.955,352.197 329.955 C 352.153 329.955,351.777 330.330,351.363 330.789 M50.289 332.906 C 50.767 333.400,51.217 333.804,51.287 333.804 C 51.358 333.804,51.024 333.400,50.545 332.906 C 50.067 332.412,49.617 332.008,49.547 332.008 C 49.476 332.008,49.810 332.412,50.289 332.906 M349.441 332.970 L 348.557 333.932 349.519 333.048 C 350.048 332.561,350.481 332.129,350.481 332.086 C 350.481 331.890,350.264 332.074,349.441 332.970 M52.854 335.728 C 53.621 336.504,54.306 337.139,54.376 337.139 C 54.447 337.139,53.877 336.504,53.111 335.728 C 52.344 334.952,51.660 334.317,51.589 334.317 C 51.518 334.317,52.088 334.952,52.854 335.728 M346.880 335.792 L 345.478 337.267 346.953 335.865 C 348.324 334.562,348.546 334.317,348.356 334.317 C 348.315 334.317,347.652 334.981,346.880 335.792 M58.371 341.501 C 60.484 343.618,62.271 345.350,62.341 345.350 C 62.412 345.350,60.741 343.618,58.627 341.501 C 56.514 339.384,54.727 337.652,54.657 337.652 C 54.586 337.652,56.258 339.384,58.371 341.501 M341.373 341.501 C 339.259 343.618,337.588 345.350,337.659 345.350 C 337.729 345.350,339.516 343.618,341.629 341.501 C 343.742 339.384,345.414 337.652,345.343 337.652 C 345.273 337.652,343.486 339.384,341.373 341.501 M64.015 346.889 C 64.853 347.736,65.597 348.428,65.667 348.428 C 65.738 348.428,65.110 347.736,64.272 346.889 C 63.434 346.042,62.691 345.350,62.620 345.350 C 62.550 345.350,63.178 346.042,64.015 346.889 M335.720 346.953 L 334.189 348.557 335.792 347.025 C 337.282 345.603,337.513 345.350,337.324 345.350 C 337.284 345.350,336.562 346.071,335.720 346.953 M66.966 349.583 C 67.445 350.077,67.894 350.481,67.965 350.481 C 68.035 350.481,67.701 350.077,67.223 349.583 C 66.744 349.089,66.294 348.685,66.224 348.685 C 66.153 348.685,66.487 349.089,66.966 349.583 M332.764 349.647 L 331.879 350.609 332.842 349.725 C 333.737 348.902,333.922 348.685,333.726 348.685 C 333.683 348.685,333.250 349.118,332.764 349.647 M68.505 350.818 C 68.505 350.862,68.881 351.237,69.339 351.652 L 70.173 352.405 69.420 351.572 C 68.717 350.794,68.505 350.620,68.505 350.818 M330.580 351.572 L 329.827 352.405 330.661 351.652 C 331.438 350.949,331.612 350.738,331.414 350.738 C 331.370 350.738,330.995 351.113,330.580 351.572 M190.061 399.925 C 190.380 399.986,190.842 399.984,191.087 399.920 C 191.332 399.855,191.071 399.805,190.507 399.808 C 189.942 399.811,189.742 399.864,190.061 399.925 M209.047 399.925 C 209.366 399.986,209.828 399.984,210.074 399.920 C 210.319 399.855,210.058 399.805,209.493 399.808 C 208.929 399.811,208.728 399.864,209.047 399.925 " stroke="none" fill="#04b343" fill-rule="evenodd"></path></g></svg>