<svg id="svg" xmlns="http://www.w3.org/2000/svg" xmlns:xlink="http://www.w3.org/1999/xlink" width="400" height="600" viewBox="0, 0, 400,600"><g id="svgg"><path id="path0" d="M185.875 0.399 C 183.938 0.849,165.227 3.750,164.265 3.750 C 162.475 3.750,151.347 6.119,144.750 7.904 C 142.603 8.485,138.932 9.622,133.375 11.427 C 131.661 11.984,128.310 13.258,126.625 13.993 C 126.350 14.113,125.803 14.281,125.410 14.367 C 124.672 14.528,124.029 14.803,120.029 16.660 C 118.739 17.260,117.576 17.750,117.444 17.750 C 117.313 17.750,114.566 19.072,111.341 20.688 C 103.908 24.411,103.067 24.853,100.539 26.375 C 99.397 27.063,97.929 27.906,97.277 28.250 C 96.624 28.594,95.142 29.499,93.983 30.262 C 92.824 31.024,91.217 32.037,90.412 32.512 C 89.607 32.986,88.655 33.646,88.295 33.976 C 87.935 34.307,87.126 34.881,86.497 35.252 C 85.868 35.623,84.514 36.555,83.489 37.324 C 82.464 38.093,80.454 39.600,79.023 40.673 C 77.592 41.747,75.756 43.188,74.944 43.875 C 74.131 44.563,73.085 45.406,72.620 45.750 C 69.595 47.982,57.056 59.966,53.459 64.062 C 52.725 64.897,51.664 66.054,51.101 66.632 C 50.538 67.210,49.754 68.120,49.358 68.654 C 48.963 69.188,48.098 70.180,47.436 70.858 C 46.773 71.535,45.990 72.520,45.695 73.045 C 45.399 73.570,45.075 74.000,44.975 74.000 C 44.759 74.000,39.753 80.486,38.535 82.344 C 38.073 83.049,37.435 83.906,37.116 84.250 C 36.798 84.594,36.107 85.557,35.581 86.392 C 35.055 87.226,33.928 88.969,33.077 90.267 C 29.881 95.133,28.750 96.936,28.369 97.768 C 28.153 98.239,27.477 99.412,26.867 100.375 C 26.257 101.338,25.328 102.969,24.801 104.000 C 24.275 105.031,23.260 106.908,22.547 108.171 C 21.834 109.434,21.250 110.573,21.250 110.701 C 21.250 110.830,20.462 112.452,19.500 114.305 C 18.537 116.159,17.750 117.809,17.750 117.973 C 17.750 118.137,17.424 118.969,17.025 119.823 C 15.142 123.854,14.649 125.008,14.063 126.750 C 13.716 127.781,13.181 129.188,12.873 129.875 C 11.786 132.305,7.250 145.831,7.250 146.642 C 7.250 146.859,6.695 149.081,6.017 151.580 C 4.696 156.446,4.188 158.759,3.012 165.250 C 0.560 178.776,0.016 185.185,0.016 200.500 C 0.016 215.818,0.629 223.008,2.989 235.375 C 3.383 237.438,3.776 239.631,3.863 240.250 C 4.059 241.641,5.484 247.353,6.390 250.375 C 6.760 251.613,7.114 252.963,7.176 253.375 C 7.314 254.290,9.623 261.411,10.277 262.939 C 10.537 263.545,10.753 264.229,10.756 264.458 C 10.759 264.687,11.247 266.056,11.840 267.500 C 12.818 269.879,13.378 271.268,14.780 274.788 C 15.035 275.428,15.795 277.116,16.470 278.538 C 17.145 279.961,17.780 281.406,17.880 281.750 C 17.981 282.094,18.781 283.716,19.657 285.356 C 20.533 286.995,21.250 288.438,21.250 288.562 C 21.250 288.896,24.250 294.470,24.519 294.637 C 24.646 294.715,24.750 294.976,24.750 295.217 C 24.750 295.458,25.154 296.323,25.647 297.140 C 26.140 297.957,27.276 300.031,28.170 301.750 C 29.064 303.469,29.940 305.044,30.117 305.250 C 30.294 305.456,30.916 306.525,31.499 307.625 C 32.780 310.043,33.320 310.977,34.414 312.667 C 34.874 313.378,35.250 314.045,35.250 314.150 C 35.250 314.427,38.266 319.481,38.528 319.643 C 38.650 319.718,38.750 319.959,38.750 320.177 C 38.750 320.396,39.295 321.430,39.961 322.475 C 40.628 323.520,41.657 325.275,42.249 326.375 C 42.840 327.475,43.689 328.938,44.133 329.625 C 44.578 330.313,45.334 331.606,45.813 332.500 C 47.043 334.794,47.771 336.028,48.322 336.750 C 48.584 337.094,49.124 338.050,49.522 338.875 C 49.919 339.700,50.745 341.163,51.356 342.125 C 51.968 343.087,52.703 344.374,52.991 344.984 C 53.278 345.594,53.891 346.663,54.353 347.359 C 54.816 348.056,55.674 349.525,56.260 350.625 C 56.847 351.725,57.805 353.361,58.389 354.261 C 58.973 355.161,59.621 356.286,59.830 356.761 C 60.039 357.236,60.781 358.525,61.478 359.625 C 62.175 360.725,63.082 362.300,63.493 363.125 C 63.904 363.950,64.856 365.618,65.609 366.832 C 66.362 368.046,67.044 369.244,67.123 369.494 C 67.203 369.745,67.731 370.664,68.296 371.538 C 68.862 372.411,69.970 374.306,70.760 375.750 C 71.549 377.194,72.601 378.991,73.097 379.744 C 73.594 380.497,74.006 381.229,74.013 381.369 C 74.020 381.510,74.694 382.694,75.512 384.000 C 76.329 385.306,77.212 386.825,77.473 387.375 C 77.734 387.925,78.575 389.387,79.342 390.625 C 80.109 391.863,80.961 393.360,81.236 393.953 C 81.511 394.546,82.083 395.546,82.508 396.175 C 82.932 396.805,83.797 398.288,84.428 399.472 C 85.060 400.656,86.055 402.361,86.639 403.261 C 87.223 404.161,87.865 405.286,88.067 405.761 C 88.268 406.236,89.029 407.581,89.757 408.750 C 90.485 409.919,91.402 411.494,91.795 412.250 C 92.188 413.006,92.825 414.131,93.211 414.750 C 93.596 415.369,94.454 416.887,95.117 418.125 C 95.780 419.363,96.573 420.712,96.879 421.125 C 97.185 421.538,97.971 422.887,98.625 424.125 C 99.280 425.363,100.182 426.938,100.631 427.625 C 101.079 428.313,101.663 429.325,101.930 429.875 C 102.196 430.425,103.108 432.023,103.957 433.426 C 104.806 434.829,105.500 436.077,105.500 436.200 C 105.500 436.322,105.934 437.094,106.465 437.916 C 106.996 438.737,108.128 440.672,108.981 442.215 C 109.833 443.758,110.849 445.494,111.238 446.073 C 111.626 446.652,112.185 447.631,112.478 448.250 C 112.772 448.869,113.512 450.163,114.124 451.125 C 114.736 452.087,115.579 453.550,115.997 454.375 C 116.415 455.200,117.310 456.775,117.985 457.875 C 118.660 458.975,119.496 460.464,119.841 461.184 C 120.186 461.904,120.744 462.860,121.081 463.309 C 121.418 463.758,122.228 465.137,122.883 466.375 C 123.538 467.613,124.438 469.188,124.883 469.875 C 125.328 470.563,126.171 472.025,126.755 473.125 C 127.340 474.225,128.309 475.888,128.909 476.820 C 129.509 477.753,130.000 478.615,130.000 478.736 C 130.000 478.857,130.763 480.231,131.695 481.790 C 132.627 483.349,133.528 484.942,133.697 485.329 C 133.866 485.717,134.490 486.786,135.082 487.704 C 135.675 488.623,136.678 490.342,137.310 491.523 C 137.942 492.704,138.919 494.381,139.480 495.249 C 140.041 496.117,140.504 496.951,140.509 497.101 C 140.515 497.252,141.133 498.331,141.883 499.500 C 142.633 500.669,143.518 502.188,143.850 502.875 C 144.181 503.563,145.078 505.137,145.841 506.375 C 146.605 507.613,147.508 509.212,147.847 509.930 C 148.187 510.647,148.802 511.724,149.215 512.324 C 149.627 512.923,150.439 514.305,151.019 515.394 C 151.599 516.484,152.438 517.938,152.883 518.625 C 153.329 519.313,154.140 520.719,154.685 521.750 C 155.230 522.781,156.027 524.188,156.457 524.875 C 156.886 525.563,157.499 526.631,157.818 527.250 C 158.137 527.869,158.911 529.219,159.538 530.250 C 160.164 531.281,161.152 533.025,161.734 534.125 C 162.315 535.225,162.935 536.294,163.112 536.500 C 163.289 536.706,164.141 538.169,165.005 539.750 C 165.869 541.331,166.904 543.107,167.306 543.696 C 167.707 544.285,168.253 545.241,168.519 545.821 C 168.785 546.401,169.563 547.775,170.247 548.875 C 170.932 549.975,171.828 551.550,172.238 552.375 C 172.649 553.200,173.552 554.775,174.245 555.875 C 174.939 556.975,175.723 558.352,175.987 558.934 C 176.252 559.517,176.859 560.586,177.335 561.309 C 177.812 562.033,178.561 563.300,179.000 564.125 C 179.988 565.978,180.595 567.016,181.635 568.625 C 182.079 569.313,182.609 570.269,182.813 570.750 C 183.016 571.231,183.779 572.581,184.507 573.750 C 185.235 574.919,186.152 576.494,186.545 577.250 C 186.938 578.006,187.575 579.131,187.961 579.750 C 188.346 580.369,189.181 581.844,189.816 583.028 C 190.451 584.212,191.300 585.674,191.703 586.278 C 192.106 586.881,192.915 588.275,193.502 589.375 C 194.088 590.475,194.937 591.938,195.389 592.625 C 195.840 593.313,196.357 594.212,196.537 594.625 C 197.062 595.827,200.010 600.000,200.332 599.996 C 200.617 599.993,203.265 596.069,203.580 595.184 C 203.666 594.942,204.229 593.986,204.830 593.059 C 205.431 592.133,206.462 590.362,207.121 589.125 C 207.780 587.888,208.646 586.396,209.047 585.812 C 209.447 585.227,209.970 584.327,210.208 583.812 C 210.446 583.296,211.200 581.951,211.883 580.822 C 212.566 579.693,213.519 578.039,214.000 577.147 C 215.289 574.758,217.838 570.325,218.830 568.750 C 219.306 567.994,220.371 566.138,221.195 564.625 C 222.020 563.112,223.101 561.259,223.597 560.506 C 224.094 559.753,224.500 558.944,224.500 558.708 C 224.500 558.472,224.606 558.214,224.736 558.134 C 225.014 557.962,227.640 553.600,227.901 552.875 C 228.000 552.600,228.442 551.813,228.882 551.125 C 229.951 549.456,231.500 546.761,231.500 546.569 C 231.500 546.485,232.129 545.394,232.898 544.145 C 234.397 541.710,236.829 537.494,238.250 534.869 C 238.731 533.979,239.772 532.184,240.563 530.878 C 241.353 529.573,242.000 528.408,242.000 528.291 C 242.000 528.174,242.434 527.406,242.965 526.584 C 243.496 525.763,244.636 523.805,245.498 522.233 C 246.361 520.661,247.211 519.206,247.388 519.000 C 247.565 518.794,248.125 517.837,248.633 516.875 C 249.955 514.373,250.765 512.986,251.415 512.112 C 251.728 511.693,252.270 510.736,252.620 509.987 C 252.970 509.238,253.780 507.781,254.420 506.750 C 255.061 505.719,255.931 504.233,256.355 503.449 C 257.412 501.491,259.790 497.356,261.502 494.500 C 262.285 493.194,263.380 491.281,263.936 490.250 C 264.491 489.219,265.351 487.759,265.848 487.006 C 266.344 486.253,266.750 485.545,266.750 485.434 C 266.750 485.323,267.478 484.017,268.367 482.531 C 269.257 481.046,270.064 479.615,270.160 479.353 C 270.256 479.090,270.806 478.144,271.383 477.250 C 271.959 476.356,272.969 474.613,273.628 473.375 C 274.287 472.137,275.138 470.666,275.520 470.106 C 275.902 469.545,276.692 468.195,277.276 467.106 C 277.860 466.016,278.657 464.619,279.046 464.000 C 279.435 463.381,280.094 462.200,280.509 461.375 C 280.924 460.550,281.933 458.806,282.749 457.500 C 283.566 456.194,284.238 455.010,284.242 454.869 C 284.246 454.729,284.656 453.997,285.153 453.244 C 285.649 452.491,286.727 450.644,287.549 449.139 C 288.371 447.634,289.357 445.946,289.741 445.388 C 290.125 444.829,290.713 443.811,291.047 443.124 C 291.381 442.437,292.326 440.750,293.146 439.375 C 293.967 438.000,294.836 436.481,295.076 436.000 C 295.317 435.519,296.073 434.225,296.755 433.125 C 297.438 432.025,298.215 430.651,298.481 430.071 C 298.747 429.491,299.293 428.535,299.694 427.946 C 300.096 427.357,301.110 425.629,301.947 424.106 C 302.785 422.584,303.871 420.730,304.360 419.987 C 304.850 419.244,305.250 418.499,305.250 418.331 C 305.250 418.163,305.568 417.541,305.957 416.950 C 307.117 415.188,307.683 414.219,308.633 412.376 C 309.128 411.414,309.674 410.458,309.847 410.251 C 310.308 409.697,312.250 406.323,312.250 406.076 C 312.250 405.959,312.659 405.247,313.158 404.494 C 313.658 403.741,314.743 401.887,315.569 400.375 C 316.395 398.863,317.401 397.144,317.803 396.555 C 318.205 395.967,318.811 394.898,319.150 394.180 C 319.489 393.462,320.266 392.087,320.877 391.125 C 321.488 390.163,322.308 388.756,322.698 388.000 C 323.089 387.244,323.862 385.894,324.417 385.000 C 324.971 384.106,325.848 382.587,326.365 381.625 C 326.882 380.663,327.693 379.256,328.167 378.500 C 329.150 376.929,331.951 372.070,333.101 369.940 C 333.527 369.151,334.522 367.436,335.313 366.130 C 336.103 364.823,336.750 363.667,336.750 363.559 C 336.750 363.452,337.118 362.804,337.567 362.119 C 338.542 360.634,339.408 359.157,340.496 357.125 C 340.937 356.300,341.663 355.063,342.109 354.375 C 342.933 353.104,343.592 351.927,343.858 351.250 C 343.939 351.044,344.509 350.087,345.126 349.125 C 345.742 348.163,346.546 346.756,346.912 346.000 C 347.278 345.244,347.889 344.175,348.270 343.625 C 348.650 343.075,349.524 341.613,350.212 340.375 C 350.899 339.137,351.869 337.473,352.367 336.676 C 352.865 335.879,353.870 334.135,354.600 332.801 C 355.330 331.467,356.283 329.849,356.718 329.207 C 357.153 328.564,357.675 327.664,357.877 327.207 C 358.080 326.749,358.808 325.475,359.495 324.375 C 360.183 323.275,360.983 321.882,361.274 321.280 C 361.564 320.678,362.279 319.440,362.863 318.530 C 363.446 317.620,364.347 316.087,364.865 315.125 C 365.383 314.163,366.175 312.813,366.624 312.125 C 367.073 311.438,367.805 310.200,368.249 309.375 C 369.396 307.245,370.246 305.808,371.185 304.412 C 371.633 303.745,372.000 303.093,372.000 302.963 C 372.000 302.832,372.572 301.775,373.272 300.613 C 374.739 298.175,376.999 293.924,378.648 290.500 C 379.277 289.194,380.401 286.925,381.146 285.458 C 381.891 283.991,382.500 282.636,382.500 282.448 C 382.500 282.260,382.728 281.660,383.007 281.115 C 383.793 279.581,386.000 274.560,386.000 274.306 C 386.000 274.181,386.661 272.402,387.468 270.352 C 388.863 266.813,389.133 266.049,389.713 264.000 C 389.849 263.519,390.582 261.304,391.341 259.077 C 392.100 256.851,392.797 254.601,392.890 254.077 C 392.982 253.554,393.597 251.100,394.257 248.625 C 395.596 243.600,396.251 240.628,396.874 236.750 C 397.105 235.306,397.558 232.606,397.879 230.750 C 401.213 211.469,400.921 185.880,397.113 163.500 C 396.774 161.506,396.378 159.144,396.234 158.250 C 396.090 157.356,395.470 154.656,394.857 152.250 C 394.244 149.844,393.565 147.144,393.348 146.250 C 392.726 143.687,389.560 133.938,388.233 130.500 C 385.991 124.693,384.072 120.046,383.742 119.625 C 383.635 119.487,383.145 118.403,382.654 117.216 C 381.654 114.795,377.784 107.166,376.402 104.890 C 375.906 104.073,375.500 103.301,375.500 103.174 C 375.500 102.922,373.365 99.368,372.829 98.729 C 372.646 98.511,372.161 97.667,371.751 96.854 C 371.340 96.040,370.787 95.094,370.522 94.750 C 370.256 94.406,369.158 92.788,368.082 91.154 C 363.676 84.463,363.357 84.013,359.875 79.581 C 359.050 78.531,358.014 77.155,357.574 76.523 C 357.133 75.892,356.345 74.925,355.823 74.375 C 355.301 73.825,354.568 72.925,354.195 72.375 C 353.823 71.825,353.115 70.996,352.624 70.533 C 352.132 70.070,351.432 69.282,351.068 68.783 C 350.703 68.284,350.005 67.476,349.515 66.988 C 349.026 66.500,347.669 65.048,346.500 63.762 C 342.658 59.533,335.016 52.127,331.375 49.105 C 330.688 48.534,329.565 47.546,328.880 46.909 C 328.196 46.271,327.536 45.750,327.414 45.750 C 327.292 45.750,326.515 45.123,325.687 44.357 C 324.859 43.590,323.775 42.691,323.278 42.358 C 322.782 42.026,321.419 41.017,320.250 40.118 C 319.081 39.219,317.360 37.896,316.426 37.179 C 315.491 36.462,314.250 35.594,313.667 35.250 C 313.084 34.906,311.937 34.141,311.116 33.549 C 308.922 31.967,304.301 28.968,302.948 28.250 C 302.301 27.906,300.705 26.978,299.400 26.188 C 298.095 25.397,296.931 24.750,296.813 24.750 C 296.695 24.750,296.041 24.396,295.361 23.963 C 293.584 22.832,286.288 19.129,283.500 17.944 C 282.194 17.389,281.012 16.851,280.875 16.749 C 280.460 16.441,275.300 14.250,274.989 14.250 C 274.831 14.250,274.346 14.086,273.913 13.886 C 272.387 13.180,266.864 11.038,266.124 10.865 C 265.712 10.769,263.406 10.044,261.000 9.255 C 258.594 8.465,256.006 7.679,255.250 7.509 C 254.494 7.338,252.412 6.824,250.625 6.368 C 246.265 5.254,242.006 4.322,239.875 4.014 C 237.487 3.669,231.365 2.704,223.875 1.490 C 220.438 0.933,216.556 0.373,215.250 0.245 C 211.307 -0.141,187.667 -0.017,185.875 0.399 M213.625 25.121 C 215.000 25.327,217.306 25.682,218.750 25.910 C 220.194 26.137,222.162 26.415,223.125 26.527 C 224.088 26.639,225.719 26.832,226.750 26.955 C 229.020 27.225,235.915 28.519,240.416 29.519 C 242.225 29.921,243.912 30.250,244.163 30.250 C 244.622 30.250,248.448 31.387,252.625 32.765 C 253.863 33.173,255.156 33.506,255.500 33.505 C 255.844 33.504,256.406 33.648,256.750 33.826 C 257.684 34.308,260.023 35.186,260.872 35.374 C 261.284 35.465,261.677 35.621,261.747 35.720 C 261.943 35.997,264.411 37.000,264.897 37.000 C 265.133 37.000,265.956 37.290,266.726 37.644 C 267.495 37.999,269.137 38.739,270.375 39.289 C 273.455 40.659,275.685 41.700,276.875 42.324 C 278.218 43.028,278.957 43.393,280.000 43.867 C 280.481 44.085,281.438 44.592,282.125 44.994 C 282.813 45.396,283.881 45.993,284.500 46.321 C 287.898 48.120,289.177 48.856,289.641 49.280 C 289.925 49.538,290.273 49.750,290.415 49.750 C 290.556 49.750,290.999 50.031,291.399 50.375 C 291.798 50.718,292.254 51.000,292.412 51.000 C 292.570 51.000,293.299 51.450,294.031 52.000 C 294.763 52.550,295.477 53.005,295.618 53.010 C 295.759 53.016,296.265 53.353,296.741 53.760 C 297.217 54.167,297.725 54.500,297.870 54.500 C 298.015 54.500,298.695 54.950,299.380 55.500 C 300.065 56.050,300.738 56.590,300.875 56.699 C 301.012 56.808,301.519 57.171,302.000 57.505 C 303.502 58.547,305.619 60.116,305.750 60.284 C 305.819 60.371,306.775 61.114,307.875 61.935 C 308.975 62.755,310.186 63.696,310.566 64.026 C 310.946 64.355,311.607 64.906,312.035 65.250 C 313.414 66.358,316.330 68.981,318.024 70.637 C 318.931 71.524,319.732 72.250,319.805 72.250 C 319.968 72.250,327.750 79.994,327.750 80.157 C 327.750 80.221,328.277 80.803,328.921 81.449 C 329.565 82.096,330.877 83.525,331.837 84.625 C 332.796 85.725,333.745 86.759,333.944 86.923 C 334.143 87.087,334.547 87.555,334.841 87.962 C 335.135 88.370,336.078 89.556,336.938 90.599 C 337.797 91.642,338.500 92.581,338.500 92.686 C 338.500 92.791,338.837 93.195,339.250 93.585 C 339.663 93.974,340.000 94.452,340.000 94.646 C 340.000 94.841,340.096 95.000,340.214 95.000 C 340.331 95.000,340.916 95.703,341.513 96.563 C 342.110 97.422,342.673 98.181,342.764 98.250 C 342.856 98.319,343.114 98.734,343.339 99.172 C 343.563 99.611,343.953 100.117,344.206 100.297 C 344.616 100.590,345.051 101.235,346.574 103.802 C 346.820 104.218,347.177 104.713,347.367 104.903 C 347.557 105.093,348.065 105.865,348.496 106.619 C 348.928 107.373,349.386 108.055,349.515 108.134 C 349.644 108.214,349.750 108.454,349.750 108.666 C 349.750 108.879,350.064 109.463,350.447 109.964 C 351.170 110.909,352.464 113.055,353.484 115.000 C 353.809 115.619,354.226 116.303,354.412 116.520 C 354.598 116.737,354.750 117.040,354.750 117.195 C 354.750 117.349,355.087 117.975,355.500 118.586 C 355.912 119.197,356.250 119.816,356.250 119.960 C 356.250 120.105,356.644 120.895,357.125 121.716 C 357.606 122.537,358.000 123.325,358.000 123.467 C 358.000 123.609,358.393 124.377,358.874 125.175 C 359.355 125.972,359.749 126.775,359.749 126.959 C 359.750 127.273,360.103 128.069,362.158 132.398 C 362.621 133.373,363.000 134.300,363.000 134.458 C 363.000 134.764,363.839 137.018,365.017 139.875 C 365.823 141.829,367.152 145.844,367.500 147.375 C 367.625 147.925,368.064 149.387,368.475 150.625 C 369.427 153.494,370.129 156.156,370.518 158.375 C 370.686 159.338,371.144 161.425,371.535 163.013 C 371.926 164.602,372.311 166.458,372.390 167.138 C 372.469 167.818,372.803 169.950,373.132 171.875 C 373.461 173.800,373.842 177.006,373.979 179.000 C 374.116 180.994,374.411 184.762,374.635 187.375 C 375.138 193.250,375.010 209.408,374.418 214.625 C 374.215 216.412,373.972 219.113,373.877 220.625 C 373.782 222.137,373.434 224.775,373.102 226.486 C 372.771 228.197,372.500 229.876,372.500 230.218 C 372.500 230.559,372.116 232.478,371.646 234.482 C 371.177 236.486,370.659 238.800,370.494 239.625 C 370.330 240.450,369.990 241.912,369.739 242.875 C 369.488 243.838,369.145 245.188,368.977 245.875 C 368.810 246.563,368.598 247.238,368.507 247.375 C 368.416 247.512,368.144 248.300,367.902 249.125 C 367.661 249.950,367.144 251.637,366.755 252.875 C 366.365 254.113,365.973 255.454,365.882 255.857 C 365.792 256.260,365.388 257.296,364.984 258.159 C 364.580 259.023,364.250 259.908,364.250 260.127 C 364.250 260.345,364.025 260.990,363.750 261.559 C 363.475 262.128,363.250 262.776,363.250 262.998 C 363.250 263.220,362.800 264.332,362.250 265.469 C 361.700 266.607,361.250 267.696,361.250 267.890 C 361.250 268.084,360.912 268.791,360.500 269.461 C 360.087 270.132,359.750 270.867,359.750 271.095 C 359.750 271.551,358.048 275.180,356.947 277.074 C 356.564 277.733,356.250 278.438,356.250 278.641 C 356.250 278.844,355.969 279.456,355.625 280.000 C 355.281 280.545,354.819 281.443,354.598 281.995 C 354.377 282.548,354.115 283.000,354.017 283.000 C 353.919 283.000,353.587 283.534,353.279 284.188 C 352.971 284.841,352.614 285.544,352.486 285.750 C 352.359 285.956,351.920 286.759,351.513 287.534 C 351.105 288.309,350.443 289.434,350.041 290.034 C 349.639 290.634,348.997 291.744,348.613 292.500 C 348.230 293.256,347.781 294.044,347.615 294.250 C 347.289 294.657,346.241 296.480,345.332 298.220 C 345.018 298.822,344.496 299.665,344.173 300.095 C 343.604 300.851,343.395 301.218,342.016 303.875 C 341.377 305.107,340.622 306.340,339.216 308.450 C 338.822 309.041,338.500 309.641,338.500 309.783 C 338.500 309.924,338.106 310.633,337.625 311.359 C 337.144 312.084,336.750 312.766,336.750 312.875 C 336.750 312.984,336.371 313.647,335.908 314.349 C 335.445 315.051,334.986 315.882,334.889 316.196 C 334.791 316.509,334.439 317.060,334.106 317.420 C 333.773 317.779,333.500 318.197,333.499 318.349 C 333.498 318.501,333.156 319.131,332.739 319.750 C 332.322 320.369,331.746 321.409,331.459 322.063 C 331.173 322.716,330.847 323.250,330.736 323.250 C 330.625 323.250,330.454 323.503,330.356 323.812 C 330.258 324.122,329.925 324.712,329.615 325.125 C 329.305 325.538,328.522 326.887,327.875 328.125 C 326.774 330.232,326.069 331.423,324.961 333.052 C 324.707 333.425,324.500 333.833,324.500 333.959 C 324.500 334.085,324.331 334.329,324.125 334.500 C 323.919 334.671,323.750 335.014,323.750 335.263 C 323.750 335.511,323.588 335.877,323.389 336.075 C 323.046 336.418,322.079 338.079,320.832 340.470 C 320.518 341.072,319.977 341.936,319.631 342.390 C 319.284 342.844,318.887 343.477,318.749 343.795 C 318.212 345.034,315.014 350.552,314.714 350.759 C 314.607 350.832,314.334 351.336,314.108 351.878 C 313.881 352.420,313.370 353.337,312.973 353.914 C 312.575 354.492,312.250 355.087,312.250 355.235 C 312.250 355.384,311.884 356.043,311.438 356.701 C 310.545 358.015,310.341 358.358,309.221 360.429 C 308.802 361.203,308.187 362.237,307.855 362.726 C 307.522 363.216,307.250 363.736,307.250 363.883 C 307.250 364.030,306.807 364.832,306.267 365.664 C 305.726 366.497,304.953 367.785,304.550 368.526 C 302.374 372.529,301.888 373.386,301.731 373.500 C 301.541 373.637,300.784 374.934,299.760 376.875 C 299.397 377.563,298.825 378.575,298.488 379.125 C 297.692 380.426,297.116 381.446,296.653 382.375 C 296.448 382.788,295.879 383.740,295.390 384.492 C 294.900 385.243,294.500 385.941,294.500 386.042 C 294.500 386.142,294.178 386.709,293.785 387.300 C 293.392 387.891,292.996 388.684,292.905 389.062 C 292.815 389.441,292.644 389.750,292.526 389.750 C 292.407 389.750,292.171 390.087,292.000 390.500 C 291.829 390.912,291.590 391.250,291.470 391.250 C 291.349 391.250,291.250 391.379,291.250 391.537 C 291.250 391.694,290.856 392.416,290.375 393.141 C 289.894 393.867,289.500 394.599,289.500 394.769 C 289.500 394.939,289.236 395.426,288.914 395.851 C 288.591 396.277,288.141 397.019,287.914 397.500 C 287.687 397.981,287.219 398.702,286.875 399.101 C 286.531 399.501,286.250 399.991,286.250 400.190 C 286.250 400.389,285.913 401.053,285.500 401.664 C 285.087 402.275,284.750 402.885,284.750 403.019 C 284.750 403.152,284.377 403.804,283.922 404.466 C 283.467 405.128,282.936 406.053,282.744 406.522 C 282.551 406.991,282.192 407.593,281.947 407.860 C 281.701 408.126,281.500 408.438,281.500 408.552 C 281.500 408.666,281.194 409.236,280.819 409.817 C 279.962 411.149,278.637 413.587,278.104 414.813 C 277.879 415.328,277.604 415.750,277.492 415.750 C 277.380 415.750,276.645 416.950,275.859 418.416 C 275.072 419.882,273.826 422.042,273.090 423.215 C 272.353 424.388,271.750 425.480,271.750 425.641 C 271.750 425.801,271.540 426.201,271.284 426.529 C 270.834 427.103,269.975 428.615,268.464 431.485 C 268.071 432.232,267.524 433.083,267.249 433.376 C 266.975 433.668,266.750 434.042,266.750 434.206 C 266.750 434.371,266.356 435.065,265.875 435.750 C 265.394 436.435,264.996 437.137,264.991 437.310 C 264.986 437.483,264.367 438.581,263.616 439.750 C 262.865 440.919,261.963 442.438,261.612 443.125 C 260.836 444.647,260.514 445.217,258.716 448.250 C 257.942 449.556,257.113 451.019,256.874 451.500 C 256.635 451.981,256.299 452.544,256.128 452.750 C 255.956 452.956,255.311 454.099,254.694 455.290 C 253.698 457.212,253.098 458.167,252.253 459.177 C 252.114 459.343,252.000 459.637,252.000 459.831 C 252.000 460.024,251.796 460.451,251.546 460.779 C 251.297 461.107,250.890 461.814,250.642 462.350 C 250.217 463.269,248.052 466.770,247.503 467.427 C 247.364 467.593,247.250 467.897,247.250 468.102 C 247.250 468.307,246.912 468.975,246.500 469.586 C 246.088 470.197,245.750 470.780,245.750 470.880 C 245.750 470.980,245.328 471.717,244.813 472.517 C 243.021 475.299,242.500 476.192,242.500 476.480 C 242.500 476.640,242.386 476.907,242.246 477.073 C 241.716 477.705,240.750 479.283,240.750 479.517 C 240.750 479.756,238.957 482.755,238.368 483.500 C 238.205 483.706,237.425 485.113,236.635 486.625 C 235.845 488.137,235.031 489.564,234.826 489.795 C 234.412 490.263,233.883 491.205,232.892 493.242 C 232.527 493.994,232.140 494.669,232.034 494.742 C 231.858 494.863,231.455 495.560,229.571 499.000 C 229.232 499.619,228.684 500.483,228.352 500.921 C 228.021 501.359,227.750 501.885,227.750 502.090 C 227.750 502.296,227.576 502.638,227.364 502.850 C 227.152 503.063,226.742 503.774,226.454 504.431 C 226.166 505.088,225.609 506.035,225.215 506.536 C 224.822 507.037,224.500 507.545,224.500 507.664 C 224.500 507.784,224.106 508.466,223.625 509.181 C 223.144 509.896,222.750 510.609,222.750 510.766 C 222.750 510.924,222.412 511.553,222.000 512.164 C 221.588 512.775,221.250 513.403,221.250 513.559 C 221.250 513.715,221.025 514.082,220.751 514.374 C 220.476 514.667,219.929 515.518,219.536 516.265 C 218.025 519.135,217.166 520.647,216.716 521.221 C 216.460 521.549,216.250 521.927,216.250 522.060 C 216.250 522.193,215.912 522.803,215.500 523.414 C 215.087 524.025,214.750 524.594,214.750 524.678 C 214.750 524.762,214.420 525.347,214.018 525.978 C 213.615 526.609,212.797 528.052,212.200 529.186 C 211.602 530.319,210.924 531.468,210.692 531.739 C 210.460 532.010,210.052 532.658,209.785 533.178 C 208.141 536.382,206.084 539.938,205.575 540.455 C 205.396 540.637,205.250 540.929,205.250 541.104 C 205.250 541.279,204.800 542.119,204.250 542.970 C 203.700 543.821,203.250 544.609,203.250 544.721 C 203.250 544.833,202.912 545.391,202.500 545.960 C 202.088 546.530,201.746 547.137,201.742 547.310 C 201.733 547.675,200.620 549.000,200.324 549.000 C 200.215 548.999,199.741 548.409,199.271 547.687 C 198.801 546.965,198.042 545.804,197.583 545.107 C 197.125 544.409,196.750 543.753,196.750 543.649 C 196.750 543.545,196.356 542.867,195.875 542.141 C 195.394 541.416,195.000 540.748,195.000 540.657 C 195.000 540.565,194.696 540.014,194.324 539.433 C 193.608 538.313,193.309 537.794,191.965 535.342 C 191.503 534.499,190.701 533.092,190.182 532.217 C 189.664 531.341,189.129 530.428,188.995 530.188 C 188.860 529.947,188.638 529.553,188.502 529.313 C 188.366 529.072,187.920 528.241,187.513 527.466 C 187.105 526.691,186.444 525.566,186.043 524.966 C 185.642 524.366,184.836 522.975,184.251 521.875 C 183.666 520.775,183.061 519.719,182.906 519.529 C 182.751 519.339,182.400 518.757,182.125 518.236 C 181.419 516.900,180.137 514.652,178.995 512.750 C 178.458 511.856,177.782 510.619,177.492 510.000 C 177.202 509.382,176.691 508.517,176.357 508.079 C 176.023 507.642,175.750 507.171,175.750 507.035 C 175.750 506.898,175.606 506.637,175.430 506.455 C 174.974 505.985,174.000 504.274,174.000 503.943 C 174.000 503.790,173.840 503.487,173.645 503.270 C 173.449 503.053,173.006 502.310,172.660 501.619 C 172.314 500.929,171.743 500.029,171.391 499.619 C 171.039 499.210,170.750 498.723,170.750 498.536 C 170.750 498.350,170.413 497.697,170.000 497.086 C 169.588 496.475,169.250 495.867,169.250 495.735 C 169.250 495.603,168.856 494.935,168.375 494.250 C 167.894 493.565,167.500 492.900,167.500 492.772 C 167.500 492.643,166.909 491.571,166.188 490.389 C 164.396 487.455,163.309 485.542,162.843 484.500 C 162.628 484.019,162.246 483.400,161.995 483.125 C 161.499 482.584,160.456 480.722,159.367 478.438 C 158.990 477.647,158.598 477.000,158.496 477.000 C 158.394 477.000,158.163 476.634,157.982 476.188 C 157.801 475.741,157.591 475.319,157.514 475.250 C 157.121 474.897,156.250 473.478,156.250 473.191 C 156.250 473.010,156.053 472.592,155.813 472.262 C 155.211 471.438,153.912 469.177,153.004 467.375 C 152.588 466.550,152.038 465.594,151.780 465.250 C 151.523 464.906,151.016 464.119,150.652 463.500 C 150.289 462.881,149.893 462.206,149.771 462.000 C 149.649 461.794,149.286 461.091,148.963 460.438 C 148.640 459.784,148.291 459.250,148.188 459.250 C 148.085 459.250,148.000 459.060,148.000 458.829 C 148.000 458.597,147.786 458.175,147.525 457.891 C 147.264 457.607,146.666 456.644,146.196 455.750 C 144.607 452.730,143.693 451.126,143.487 450.995 C 143.374 450.923,143.157 450.586,143.005 450.245 C 142.608 449.356,142.102 448.502,141.779 448.179 C 141.626 448.026,141.500 447.746,141.500 447.558 C 141.500 447.369,141.181 446.745,140.791 446.170 C 140.401 445.595,139.906 444.788,139.690 444.375 C 138.325 441.763,137.949 441.104,137.423 440.405 C 137.100 439.976,136.665 439.288,136.455 438.875 C 135.359 436.719,134.228 434.705,133.296 433.250 C 132.724 432.356,131.980 431.063,131.643 430.375 C 130.951 428.965,130.499 428.175,129.354 426.375 C 128.917 425.688,128.405 424.831,128.217 424.472 C 127.840 423.753,126.093 420.586,125.496 419.539 C 125.287 419.174,124.736 418.200,124.270 417.375 C 123.804 416.550,123.285 415.706,123.116 415.500 C 122.948 415.294,122.223 414.000,121.505 412.625 C 120.787 411.250,119.873 409.710,119.475 409.202 C 119.076 408.695,118.750 408.166,118.750 408.027 C 118.750 407.889,118.413 407.275,118.000 406.664 C 117.588 406.053,117.250 405.380,117.250 405.169 C 117.250 404.958,117.086 404.622,116.886 404.421 C 116.685 404.221,116.172 403.369,115.745 402.529 C 115.317 401.688,114.876 401.000,114.764 401.000 C 114.652 401.000,114.415 400.634,114.237 400.188 C 114.059 399.741,113.539 398.801,113.081 398.099 C 112.624 397.397,112.250 396.647,112.250 396.432 C 112.250 396.218,112.166 396.004,112.063 395.958 C 111.707 395.800,110.750 394.269,110.750 393.859 C 110.750 393.632,110.397 393.001,109.965 392.456 C 109.135 391.408,108.444 390.225,107.382 388.036 C 107.025 387.300,106.575 386.540,106.383 386.347 C 106.190 386.155,105.956 385.745,105.863 385.436 C 105.769 385.127,105.486 384.649,105.234 384.372 C 104.811 383.909,103.637 381.817,102.429 379.375 C 102.157 378.825,101.853 378.319,101.755 378.250 C 101.656 378.181,101.264 377.563,100.884 376.875 C 100.504 376.188,99.980 375.326,99.721 374.961 C 99.462 374.596,99.250 374.173,99.250 374.021 C 99.250 373.869,98.856 373.185,98.375 372.500 C 97.894 371.815,97.500 371.099,97.500 370.908 C 97.500 370.717,97.331 370.421,97.125 370.250 C 96.919 370.079,96.750 369.798,96.750 369.625 C 96.750 369.452,96.581 369.171,96.375 369.000 C 96.169 368.829,96.000 368.499,96.000 368.267 C 96.000 368.034,95.760 367.587,95.467 367.272 C 95.174 366.957,94.683 366.233,94.377 365.662 C 92.303 361.796,91.907 361.085,91.644 360.750 C 91.092 360.047,89.562 357.377,89.389 356.814 C 89.295 356.505,89.067 356.103,88.884 355.920 C 88.701 355.737,88.195 354.920,87.760 354.106 C 86.349 351.463,85.720 350.390,85.104 349.579 C 84.772 349.141,84.500 348.615,84.500 348.410 C 84.500 348.204,84.347 347.883,84.161 347.697 C 83.865 347.400,83.228 346.296,81.485 343.052 C 81.242 342.599,80.769 341.868,80.434 341.427 C 80.099 340.986,79.580 340.119,79.282 339.500 C 78.494 337.869,77.184 335.561,76.750 335.041 C 76.544 334.793,75.877 333.642,75.269 332.483 C 74.660 331.323,73.901 330.027,73.581 329.601 C 73.262 329.176,73.000 328.648,73.000 328.429 C 73.000 328.209,72.891 327.962,72.757 327.879 C 72.623 327.796,72.322 327.312,72.088 326.802 C 71.855 326.292,71.289 325.354,70.832 324.717 C 70.374 324.079,70.000 323.461,69.999 323.342 C 69.998 323.222,69.661 322.619,69.250 322.000 C 68.839 321.381,68.502 320.730,68.501 320.552 C 68.500 320.240,67.702 318.991,67.063 318.301 C 66.891 318.116,66.750 317.841,66.750 317.689 C 66.750 317.538,66.589 317.237,66.393 317.020 C 66.197 316.803,65.681 315.950,65.248 315.125 C 64.079 312.902,62.913 310.864,62.587 310.471 C 62.289 310.114,61.306 308.375,60.413 306.625 C 60.133 306.075,59.832 305.569,59.745 305.500 C 59.659 305.431,59.320 304.869,58.992 304.250 C 58.170 302.698,56.247 299.501,55.701 298.779 C 55.453 298.451,55.250 297.973,55.250 297.716 C 55.250 297.460,55.140 297.250,55.005 297.250 C 54.870 297.250,54.690 296.973,54.605 296.635 C 54.520 296.297,54.293 295.890,54.100 295.730 C 53.908 295.570,53.750 295.294,53.750 295.117 C 53.750 294.703,52.476 292.750,52.206 292.750 C 52.093 292.750,52.000 292.540,52.000 292.284 C 52.000 292.027,51.796 291.549,51.547 291.221 C 51.298 290.893,50.782 290.006,50.401 289.250 C 49.354 287.172,48.648 285.911,48.079 285.104 C 47.797 284.703,47.481 284.094,47.379 283.750 C 47.276 283.406,46.811 282.492,46.346 281.717 C 45.881 280.943,45.500 280.172,45.500 280.004 C 45.500 279.835,45.163 279.197,44.750 278.586 C 44.338 277.975,44.000 277.318,44.000 277.126 C 44.000 276.934,43.606 276.105,43.125 275.284 C 42.644 274.463,42.250 273.675,42.250 273.534 C 42.250 273.392,41.856 272.605,41.375 271.784 C 40.894 270.963,40.500 270.171,40.500 270.025 C 40.500 269.879,40.148 268.998,39.719 268.067 C 39.289 267.137,38.574 265.587,38.131 264.625 C 37.687 263.663,37.150 262.369,36.938 261.750 C 36.726 261.131,36.189 259.725,35.746 258.625 C 35.019 256.822,33.835 253.327,31.764 246.875 C 31.031 244.591,30.423 242.236,29.636 238.625 C 29.396 237.525,28.882 235.275,28.494 233.625 C 28.106 231.975,27.715 230.063,27.625 229.375 C 27.536 228.688,27.256 226.887,27.005 225.375 C 25.390 215.652,24.751 196.112,25.725 186.250 C 25.881 184.669,26.133 181.912,26.285 180.125 C 26.437 178.338,26.772 175.750,27.030 174.375 C 27.288 173.000,27.499 171.557,27.499 171.168 C 27.500 170.780,27.883 168.811,28.350 166.793 C 28.818 164.776,29.393 162.169,29.628 161.000 C 29.862 159.831,30.211 158.377,30.402 157.768 C 30.594 157.159,30.750 156.439,30.750 156.167 C 30.750 155.895,31.138 154.481,31.613 153.024 C 32.997 148.773,34.008 145.401,34.004 145.046 C 34.002 144.866,34.294 144.078,34.653 143.296 C 35.261 141.974,35.829 140.440,36.990 136.982 C 37.248 136.217,37.805 134.856,38.229 133.958 C 38.653 133.061,39.000 132.186,39.000 132.014 C 39.000 131.843,39.210 131.404,39.466 131.039 C 39.722 130.674,40.076 129.925,40.252 129.375 C 40.428 128.825,41.163 127.194,41.885 125.750 C 42.607 124.306,43.361 122.787,43.562 122.375 C 43.763 121.963,44.284 120.894,44.720 120.000 C 45.157 119.106,45.511 118.286,45.507 118.177 C 45.503 118.068,45.729 117.733,46.008 117.433 C 46.288 117.133,46.852 116.210,47.261 115.381 C 48.519 112.834,51.126 108.353,51.675 107.795 C 51.854 107.613,52.000 107.360,52.000 107.233 C 52.000 107.105,52.394 106.453,52.875 105.783 C 53.356 105.113,53.753 104.466,53.757 104.345 C 53.761 104.224,54.098 103.683,54.507 103.143 C 54.916 102.603,55.250 102.064,55.250 101.945 C 55.250 101.826,55.484 101.481,55.770 101.177 C 56.055 100.873,56.855 99.781,57.546 98.750 C 58.238 97.719,58.884 96.819,58.982 96.750 C 59.080 96.681,59.651 95.950,60.252 95.125 C 60.852 94.300,61.435 93.588,61.547 93.542 C 61.659 93.496,61.750 93.322,61.750 93.156 C 61.750 92.990,62.116 92.444,62.563 91.942 C 63.009 91.441,63.825 90.448,64.375 89.737 C 66.828 86.565,70.033 82.920,74.375 78.363 C 76.432 76.204,76.250 76.388,78.017 74.703 C 78.783 73.972,79.483 73.176,79.573 72.934 C 79.663 72.691,80.014 72.387,80.353 72.258 C 80.692 72.129,81.080 71.817,81.215 71.565 C 81.351 71.312,81.749 70.951,82.102 70.763 C 82.454 70.574,82.808 70.212,82.889 69.957 C 82.969 69.703,83.337 69.337,83.705 69.145 C 84.074 68.953,85.007 68.167,85.780 67.398 C 86.552 66.629,87.312 66.000,87.467 66.000 C 87.623 66.000,87.750 65.912,87.750 65.804 C 87.750 65.596,90.300 63.478,92.328 62.000 C 92.989 61.519,93.932 60.759,94.424 60.313 C 94.917 59.866,95.473 59.500,95.660 59.500 C 95.847 59.500,96.000 59.397,96.000 59.270 C 96.000 59.144,96.422 58.788,96.938 58.478 C 97.453 58.169,98.606 57.335,99.500 56.627 C 100.902 55.515,103.501 53.694,104.355 53.227 C 105.004 52.871,105.487 52.576,106.643 51.829 C 107.321 51.392,108.759 50.492,109.839 49.829 C 110.918 49.167,111.951 48.484,112.133 48.313 C 112.315 48.141,112.593 48.000,112.750 48.000 C 112.907 48.000,113.545 47.701,114.168 47.336 C 115.778 46.393,116.928 45.779,119.430 44.527 C 120.637 43.923,121.850 43.312,122.125 43.170 C 125.662 41.344,127.934 40.250,128.194 40.250 C 128.369 40.250,129.294 39.856,130.250 39.375 C 131.206 38.894,132.101 38.500,132.240 38.500 C 132.379 38.500,133.189 38.163,134.040 37.750 C 134.892 37.337,135.791 37.000,136.038 37.000 C 136.285 37.000,137.250 36.646,138.181 36.214 C 139.113 35.781,140.269 35.342,140.750 35.237 C 141.231 35.132,142.412 34.716,143.375 34.312 C 144.338 33.909,145.631 33.508,146.250 33.420 C 146.869 33.333,148.050 32.981,148.875 32.637 C 149.700 32.293,150.615 32.009,150.909 32.006 C 151.203 32.003,152.609 31.622,154.034 31.161 C 155.459 30.699,157.300 30.242,158.125 30.145 C 158.950 30.048,160.469 29.748,161.500 29.478 C 162.531 29.208,164.106 28.895,165.000 28.782 C 165.894 28.668,168.650 28.226,171.125 27.798 C 173.600 27.371,176.806 26.895,178.250 26.742 C 181.680 26.377,186.861 25.532,188.125 25.131 C 189.696 24.632,210.309 24.624,213.625 25.121 M181.500 90.832 C 179.277 91.755,178.039 92.678,177.156 94.071 C 175.740 96.306,175.750 96.208,175.750 107.882 C 175.750 119.815,175.872 119.001,174.015 119.498 C 173.404 119.661,172.342 120.066,171.655 120.398 C 170.968 120.729,170.264 121.000,170.089 121.000 C 169.915 121.000,169.200 121.338,168.500 121.750 C 167.800 122.162,167.071 122.500,166.879 122.500 C 166.687 122.500,166.462 122.610,166.379 122.744 C 166.296 122.878,165.530 123.392,164.677 123.887 C 163.270 124.702,161.780 125.668,161.125 126.191 C 160.988 126.300,160.088 127.017,159.125 127.784 C 156.653 129.752,153.641 132.810,151.477 135.545 C 149.640 137.868,149.386 138.219,148.555 139.580 C 148.319 139.968,147.772 140.831,147.340 141.498 C 145.724 143.994,143.298 149.865,142.276 153.750 C 140.477 160.595,139.791 180.036,141.195 184.396 C 142.178 187.448,145.016 190.908,147.643 192.259 C 149.667 193.300,149.500 190.608,149.500 222.160 L 149.500 250.458 148.527 251.229 C 147.991 251.653,147.434 252.000,147.289 252.000 C 147.144 252.000,146.711 252.289,146.325 252.642 C 143.875 254.886,143.000 255.734,143.000 255.864 C 143.000 255.945,142.723 256.430,142.384 256.943 C 142.045 257.456,141.511 258.606,141.196 259.500 L 140.625 261.125 140.625 278.125 C 140.625 296.872,140.712 298.038,142.388 301.718 C 142.725 302.456,143.000 303.160,143.000 303.283 C 143.000 303.405,143.373 304.038,143.828 304.690 C 144.283 305.342,144.734 306.083,144.830 306.338 C 145.213 307.358,151.052 313.750,151.601 313.750 C 151.726 313.750,152.176 314.012,152.601 314.332 C 153.976 315.367,157.560 316.960,160.125 317.677 L 162.625 318.375 202.000 318.375 L 241.375 318.375 243.875 317.680 C 252.833 315.190,259.487 308.668,262.551 299.375 L 263.375 296.875 263.375 278.622 L 263.375 260.368 262.196 257.930 C 261.548 256.588,260.845 255.425,260.634 255.344 C 260.423 255.263,260.250 255.065,260.250 254.903 C 260.250 254.742,260.004 254.445,259.703 254.243 C 259.403 254.040,258.925 253.639,258.641 253.351 C 258.357 253.062,257.619 252.514,257.000 252.132 C 256.381 251.750,255.622 251.208,255.313 250.926 L 254.750 250.413 254.750 221.945 L 254.750 193.477 255.364 192.864 C 255.701 192.526,256.103 192.250,256.258 192.250 C 257.462 192.250,261.111 188.429,262.418 185.799 L 263.375 183.875 263.452 173.250 C 263.533 162.231,263.434 160.555,262.462 156.500 C 262.182 155.331,261.807 153.756,261.629 153.000 C 260.913 149.967,257.592 142.464,255.874 140.000 C 255.539 139.519,254.896 138.581,254.445 137.916 C 253.147 136.002,250.363 132.796,248.155 130.672 C 247.039 129.598,245.843 128.445,245.497 128.110 C 245.152 127.774,244.748 127.500,244.599 127.500 C 244.449 127.500,244.113 127.263,243.851 126.973 C 243.431 126.507,241.457 125.068,240.292 124.378 C 240.063 124.242,239.313 123.790,238.625 123.373 C 236.373 122.006,230.859 119.500,230.104 119.500 C 229.922 119.500,229.493 119.372,229.151 119.216 L 228.528 118.933 228.443 108.029 C 228.362 97.821,228.325 97.036,227.850 95.726 C 227.293 94.191,225.910 92.348,225.125 92.094 C 224.850 92.005,224.557 91.827,224.474 91.699 C 224.391 91.570,223.571 91.191,222.650 90.857 L 220.977 90.250 201.926 90.256 L 182.875 90.262 181.500 90.832 M217.250 134.501 C 220.785 134.945,223.723 135.696,226.250 136.801 C 227.277 137.251,227.949 137.580,230.125 138.701 C 233.440 140.409,238.871 145.706,241.198 149.500 C 242.192 151.122,243.766 154.336,244.007 155.234 C 244.138 155.724,244.578 157.363,244.985 158.875 L 245.726 161.625 245.738 169.813 L 245.750 178.000 215.125 178.000 L 184.500 178.000 184.500 186.750 L 184.500 195.500 210.750 195.500 L 237.000 195.500 237.000 221.875 L 237.000 248.250 210.750 248.250 L 184.500 248.250 184.500 257.000 L 184.500 265.750 215.125 265.750 L 245.750 265.750 245.750 280.189 L 245.750 294.629 245.088 295.877 C 244.036 297.857,243.331 298.641,241.674 299.666 L 240.125 300.625 202.125 300.625 L 164.125 300.625 162.875 299.894 C 161.234 298.935,159.910 297.474,159.003 295.624 L 158.268 294.123 158.240 279.694 C 158.211 265.162,158.229 264.750,158.896 264.750 C 161.978 264.750,165.351 261.621,166.408 257.782 L 167.000 255.629 166.997 222.002 C 166.994 192.194,166.949 188.219,166.601 187.000 C 166.385 186.244,166.147 185.344,166.071 185.000 C 165.568 182.720,162.456 180.029,159.639 179.438 L 158.250 179.147 158.215 175.636 C 158.149 168.929,158.306 163.614,158.625 161.750 C 159.191 158.451,159.759 156.198,160.353 154.895 C 160.671 154.196,161.016 153.344,161.120 153.000 C 161.310 152.375,161.911 151.327,163.438 148.960 C 163.884 148.267,164.250 147.613,164.250 147.506 C 164.250 146.658,171.891 139.754,174.125 138.585 C 174.675 138.297,175.463 137.886,175.875 137.671 C 178.654 136.226,181.287 135.383,185.375 134.627 C 187.499 134.235,214.288 134.129,217.250 134.501 " stroke="none" fill="#040404" fill-rule="evenodd"></path><path id="path1" d="M188.125 25.131 C 186.861 25.532,181.680 26.377,178.250 26.742 C 176.806 26.895,173.600 27.371,171.125 27.798 C 168.650 28.226,165.894 28.668,165.000 28.782 C 164.106 28.895,162.531 29.208,161.500 29.478 C 160.469 29.748,158.950 30.048,158.125 30.145 C 157.300 30.242,155.459 30.699,154.034 31.161 C 152.609 31.622,151.203 32.003,150.909 32.006 C 150.615 32.009,149.700 32.293,148.875 32.637 C 148.050 32.981,146.869 33.333,146.250 33.420 C 145.631 33.508,144.338 33.909,143.375 34.312 C 142.412 34.716,141.231 35.132,140.750 35.237 C 140.269 35.342,139.113 35.781,138.181 36.214 C 137.250 36.646,136.285 37.000,136.038 37.000 C 135.791 37.000,134.892 37.337,134.040 37.750 C 133.189 38.163,132.379 38.500,132.240 38.500 C 132.101 38.500,131.206 38.894,130.250 39.375 C 129.294 39.856,128.369 40.250,128.194 40.250 C 127.934 40.250,125.662 41.344,122.125 43.170 C 121.850 43.312,120.637 43.923,119.430 44.527 C 116.928 45.779,115.778 46.393,114.168 47.336 C 113.545 47.701,112.907 48.000,112.750 48.000 C 112.593 48.000,112.315 48.141,112.133 48.313 C 111.951 48.484,110.918 49.167,109.839 49.829 C 108.759 50.492,107.321 51.392,106.643 51.829 C 105.487 52.576,105.004 52.871,104.355 53.227 C 103.501 53.694,100.902 55.515,99.500 56.627 C 98.606 57.335,97.453 58.169,96.938 58.478 C 96.422 58.788,96.000 59.144,96.000 59.270 C 96.000 59.397,95.847 59.500,95.660 59.500 C 95.473 59.500,94.917 59.866,94.424 60.313 C 93.932 60.759,92.989 61.519,92.328 62.000 C 90.300 63.478,87.750 65.596,87.750 65.804 C 87.750 65.912,87.623 66.000,87.467 66.000 C 87.312 66.000,86.552 66.629,85.780 67.398 C 85.007 68.167,84.074 68.953,83.705 69.145 C 83.337 69.337,82.969 69.703,82.889 69.957 C 82.808 70.212,82.454 70.574,82.102 70.763 C 81.749 70.951,81.351 71.312,81.215 71.565 C 81.080 71.817,80.692 72.129,80.353 72.258 C 80.014 72.387,79.663 72.691,79.573 72.934 C 79.483 73.176,78.783 73.972,78.017 74.703 C 73.756 78.766,67.684 85.458,64.375 89.737 C 63.825 90.448,63.009 91.441,62.563 91.942 C 62.116 92.444,61.750 92.990,61.750 93.156 C 61.750 93.322,61.659 93.496,61.547 93.542 C 61.435 93.588,60.852 94.300,60.252 95.125 C 59.651 95.950,59.080 96.681,58.982 96.750 C 58.884 96.819,58.238 97.719,57.546 98.750 C 56.855 99.781,56.055 100.873,55.770 101.177 C 55.484 101.481,55.250 101.826,55.250 101.945 C 55.250 102.064,54.916 102.603,54.507 103.143 C 54.098 103.683,53.761 104.224,53.757 104.345 C 53.753 104.466,53.356 105.113,52.875 105.783 C 52.394 106.453,52.000 107.105,52.000 107.233 C 52.000 107.360,51.854 107.613,51.675 107.795 C 51.126 108.353,48.519 112.834,47.261 115.381 C 46.852 116.210,46.288 117.133,46.008 117.433 C 45.729 117.733,45.503 118.068,45.507 118.177 C 45.511 118.286,45.157 119.106,44.720 120.000 C 44.284 120.894,43.763 121.963,43.562 122.375 C 43.361 122.787,42.607 124.306,41.885 125.750 C 41.163 127.194,40.428 128.825,40.252 129.375 C 40.076 129.925,39.722 130.674,39.466 131.039 C 39.210 131.404,39.000 131.843,39.000 132.014 C 39.000 132.186,38.653 133.061,38.229 133.958 C 37.805 134.856,37.248 136.217,36.990 136.982 C 35.829 140.440,35.261 141.974,34.653 143.296 C 34.294 144.078,34.002 144.866,34.004 145.046 C 34.008 145.401,32.997 148.773,31.613 153.024 C 31.138 154.481,30.750 155.895,30.750 156.167 C 30.750 156.439,30.594 157.159,30.402 157.768 C 30.211 158.377,29.862 159.831,29.628 161.000 C 29.393 162.169,28.818 164.776,28.350 166.793 C 27.883 168.811,27.500 170.780,27.499 171.168 C 27.499 171.557,27.288 173.000,27.030 174.375 C 26.772 175.750,26.437 178.338,26.285 180.125 C 26.133 181.912,25.881 184.669,25.725 186.250 C 24.751 196.112,25.390 215.652,27.005 225.375 C 27.256 226.887,27.536 228.688,27.625 229.375 C 27.715 230.063,28.106 231.975,28.494 233.625 C 28.882 235.275,29.396 237.525,29.636 238.625 C 30.423 242.236,31.031 244.591,31.764 246.875 C 33.835 253.327,35.019 256.822,35.746 258.625 C 36.189 259.725,36.726 261.131,36.938 261.750 C 37.150 262.369,37.687 263.663,38.131 264.625 C 38.574 265.587,39.289 267.137,39.719 268.067 C 40.148 268.998,40.500 269.879,40.500 270.025 C 40.500 270.171,40.894 270.963,41.375 271.784 C 41.856 272.605,42.250 273.392,42.250 273.534 C 42.250 273.675,42.644 274.463,43.125 275.284 C 43.606 276.105,44.000 276.934,44.000 277.126 C 44.000 277.318,44.338 277.975,44.750 278.586 C 45.163 279.197,45.500 279.835,45.500 280.004 C 45.500 280.172,45.881 280.943,46.346 281.717 C 46.811 282.492,47.276 283.406,47.379 283.750 C 47.481 284.094,47.797 284.703,48.079 285.104 C 48.648 285.911,49.354 287.172,50.401 289.250 C 50.782 290.006,51.298 290.893,51.547 291.221 C 51.796 291.549,52.000 292.027,52.000 292.284 C 52.000 292.540,52.093 292.750,52.206 292.750 C 52.476 292.750,53.750 294.703,53.750 295.117 C 53.750 295.294,53.908 295.570,54.100 295.730 C 54.293 295.890,54.520 296.297,54.605 296.635 C 54.690 296.973,54.870 297.250,55.005 297.250 C 55.140 297.250,55.250 297.460,55.250 297.716 C 55.250 297.973,55.453 298.451,55.701 298.779 C 56.247 299.501,58.170 302.698,58.992 304.250 C 59.320 304.869,59.659 305.431,59.745 305.500 C 59.832 305.569,60.133 306.075,60.413 306.625 C 61.306 308.375,62.289 310.114,62.587 310.471 C 62.913 310.864,64.079 312.902,65.248 315.125 C 65.681 315.950,66.197 316.803,66.393 317.020 C 66.589 317.237,66.750 317.538,66.750 317.689 C 66.750 317.841,66.891 318.116,67.063 318.301 C 67.702 318.991,68.500 320.240,68.501 320.552 C 68.502 320.730,68.839 321.381,69.250 322.000 C 69.661 322.619,69.998 323.222,69.999 323.342 C 70.000 323.461,70.374 324.079,70.832 324.717 C 71.289 325.354,71.855 326.292,72.088 326.802 C 72.322 327.312,72.623 327.796,72.757 327.879 C 72.891 327.962,73.000 328.209,73.000 328.429 C 73.000 328.648,73.262 329.176,73.581 329.601 C 73.901 330.027,74.660 331.323,75.269 332.483 C 75.877 333.642,76.544 334.793,76.750 335.041 C 77.184 335.561,78.494 337.869,79.282 339.500 C 79.580 340.119,80.099 340.986,80.434 341.427 C 80.769 341.868,81.242 342.599,81.485 343.052 C 83.228 346.296,83.865 347.400,84.161 347.697 C 84.347 347.883,84.500 348.204,84.500 348.410 C 84.500 348.615,84.772 349.141,85.104 349.579 C 85.720 350.390,86.349 351.463,87.760 354.106 C 88.195 354.920,88.701 355.737,88.884 355.920 C 89.067 356.103,89.295 356.505,89.389 356.814 C 89.562 357.377,91.092 360.047,91.644 360.750 C 91.907 361.085,92.303 361.796,94.377 365.662 C 94.683 366.233,95.174 366.957,95.467 367.272 C 95.760 367.587,96.000 368.034,96.000 368.267 C 96.000 368.499,96.169 368.829,96.375 369.000 C 96.581 369.171,96.750 369.452,96.750 369.625 C 96.750 369.798,96.919 370.079,97.125 370.250 C 97.331 370.421,97.500 370.717,97.500 370.908 C 97.500 371.099,97.894 371.815,98.375 372.500 C 98.856 373.185,99.250 373.869,99.250 374.021 C 99.250 374.173,99.462 374.596,99.721 374.961 C 99.980 375.326,100.504 376.188,100.884 376.875 C 101.264 377.563,101.656 378.181,101.755 378.250 C 101.853 378.319,102.157 378.825,102.429 379.375 C 103.637 381.817,104.811 383.909,105.234 384.372 C 105.486 384.649,105.769 385.127,105.863 385.436 C 105.956 385.745,106.190 386.155,106.383 386.347 C 106.575 386.540,107.025 387.300,107.382 388.036 C 108.444 390.225,109.135 391.408,109.965 392.456 C 110.397 393.001,110.750 393.632,110.750 393.859 C 110.750 394.269,111.707 395.800,112.063 395.958 C 112.166 396.004,112.250 396.218,112.250 396.432 C 112.250 396.647,112.624 397.397,113.081 398.099 C 113.539 398.801,114.059 399.741,114.237 400.188 C 114.415 400.634,114.652 401.000,114.764 401.000 C 114.876 401.000,115.317 401.688,115.745 402.529 C 116.172 403.369,116.685 404.221,116.886 404.421 C 117.086 404.622,117.250 404.958,117.250 405.169 C 117.250 405.380,117.588 406.053,118.000 406.664 C 118.413 407.275,118.750 407.889,118.750 408.027 C 118.750 408.166,119.076 408.695,119.475 409.202 C 119.873 409.710,120.787 411.250,121.505 412.625 C 122.223 414.000,122.948 415.294,123.116 415.500 C 123.285 415.706,123.804 416.550,124.270 417.375 C 124.736 418.200,125.287 419.174,125.496 419.539 C 126.093 420.586,127.840 423.753,128.217 424.472 C 128.405 424.831,128.917 425.688,129.354 426.375 C 130.499 428.175,130.951 428.965,131.643 430.375 C 131.980 431.063,132.724 432.356,133.296 433.250 C 134.228 434.705,135.359 436.719,136.455 438.875 C 136.665 439.288,137.100 439.976,137.423 440.405 C 137.949 441.104,138.325 441.763,139.690 444.375 C 139.906 444.788,140.401 445.595,140.791 446.170 C 141.181 446.745,141.500 447.369,141.500 447.558 C 141.500 447.746,141.626 448.026,141.779 448.179 C 142.102 448.502,142.608 449.356,143.005 450.245 C 143.157 450.586,143.374 450.923,143.487 450.995 C 143.693 451.126,144.607 452.730,146.196 455.750 C 146.666 456.644,147.264 457.607,147.525 457.891 C 147.786 458.175,148.000 458.597,148.000 458.829 C 148.000 459.060,148.085 459.250,148.188 459.250 C 148.291 459.250,148.640 459.784,148.963 460.438 C 149.286 461.091,149.649 461.794,149.771 462.000 C 149.893 462.206,150.289 462.881,150.652 463.500 C 151.016 464.119,151.523 464.906,151.780 465.250 C 152.038 465.594,152.588 466.550,153.004 467.375 C 153.912 469.177,155.211 471.438,155.813 472.262 C 156.053 472.592,156.250 473.010,156.250 473.191 C 156.250 473.478,157.121 474.897,157.514 475.250 C 157.591 475.319,157.801 475.741,157.982 476.188 C 158.163 476.634,158.394 477.000,158.496 477.000 C 158.598 477.000,158.990 477.647,159.367 478.438 C 160.456 480.722,161.499 482.584,161.995 483.125 C 162.246 483.400,162.628 484.019,162.843 484.500 C 163.309 485.542,164.396 487.455,166.188 490.389 C 166.909 491.571,167.500 492.643,167.500 492.772 C 167.500 492.900,167.894 493.565,168.375 494.250 C 168.856 494.935,169.250 495.603,169.250 495.735 C 169.250 495.867,169.588 496.475,170.000 497.086 C 170.413 497.697,170.750 498.350,170.750 498.536 C 170.750 498.723,171.039 499.210,171.391 499.619 C 171.743 500.029,172.314 500.929,172.660 501.619 C 173.006 502.310,173.449 503.053,173.645 503.270 C 173.840 503.487,174.000 503.790,174.000 503.943 C 174.000 504.274,174.974 505.985,175.430 506.455 C 175.606 506.637,175.750 506.898,175.750 507.035 C 175.750 507.171,176.023 507.642,176.357 508.079 C 176.691 508.517,177.202 509.382,177.492 510.000 C 177.782 510.619,178.458 511.856,178.995 512.750 C 180.137 514.652,181.419 516.900,182.125 518.236 C 182.400 518.757,182.751 519.339,182.906 519.529 C 183.061 519.719,183.666 520.775,184.251 521.875 C 184.836 522.975,185.642 524.366,186.043 524.966 C 186.444 525.566,187.105 526.691,187.513 527.466 C 187.920 528.241,188.366 529.072,188.502 529.313 C 188.638 529.553,188.860 529.947,188.995 530.188 C 189.129 530.428,189.664 531.341,190.182 532.217 C 190.701 533.092,191.503 534.499,191.965 535.342 C 193.309 537.794,193.608 538.313,194.324 539.433 C 194.696 540.014,195.000 540.565,195.000 540.657 C 195.000 540.748,195.394 541.416,195.875 542.141 C 196.356 542.867,196.750 543.545,196.750 543.649 C 196.750 543.753,197.125 544.409,197.583 545.107 C 198.042 545.804,198.801 546.965,199.271 547.687 C 199.741 548.409,200.215 548.999,200.324 549.000 C 200.620 549.000,201.733 547.675,201.742 547.310 C 201.746 547.137,202.088 546.530,202.500 545.960 C 202.912 545.391,203.250 544.833,203.250 544.721 C 203.250 544.609,203.700 543.821,204.250 542.970 C 204.800 542.119,205.250 541.279,205.250 541.104 C 205.250 540.929,205.396 540.637,205.575 540.455 C 206.084 539.938,208.141 536.382,209.785 533.178 C 210.052 532.658,210.460 532.010,210.692 531.739 C 210.924 531.468,211.602 530.319,212.200 529.186 C 212.797 528.052,213.615 526.609,214.018 525.978 C 214.420 525.347,214.750 524.762,214.750 524.678 C 214.750 524.594,215.087 524.025,215.500 523.414 C 215.912 522.803,216.250 522.193,216.250 522.060 C 216.250 521.927,216.460 521.549,216.716 521.221 C 217.166 520.647,218.025 519.135,219.536 516.265 C 219.929 515.518,220.476 514.667,220.751 514.374 C 221.025 514.082,221.250 513.715,221.250 513.559 C 221.250 513.403,221.588 512.775,222.000 512.164 C 222.412 511.553,222.750 510.924,222.750 510.766 C 222.750 510.609,223.144 509.896,223.625 509.181 C 224.106 508.466,224.500 507.784,224.500 507.664 C 224.500 507.545,224.822 507.037,225.215 506.536 C 225.609 506.035,226.166 505.088,226.454 504.431 C 226.742 503.774,227.152 503.063,227.364 502.850 C 227.576 502.638,227.750 502.296,227.750 502.090 C 227.750 501.885,228.021 501.359,228.352 500.921 C 228.684 500.483,229.232 499.619,229.571 499.000 C 231.455 495.560,231.858 494.863,232.034 494.742 C 232.140 494.669,232.527 493.994,232.892 493.242 C 233.883 491.205,234.412 490.263,234.826 489.795 C 235.031 489.564,235.845 488.137,236.635 486.625 C 237.425 485.113,238.205 483.706,238.368 483.500 C 238.957 482.755,240.750 479.756,240.750 479.517 C 240.750 479.283,241.716 477.705,242.246 477.073 C 242.386 476.907,242.500 476.640,242.500 476.480 C 242.500 476.192,243.021 475.299,244.813 472.517 C 245.328 471.717,245.750 470.980,245.750 470.880 C 245.750 470.780,246.088 470.197,246.500 469.586 C 246.912 468.975,247.250 468.307,247.250 468.102 C 247.250 467.897,247.364 467.593,247.503 467.427 C 248.052 466.770,250.217 463.269,250.642 462.350 C 250.890 461.814,251.297 461.107,251.546 460.779 C 251.796 460.451,252.000 460.024,252.000 459.831 C 252.000 459.637,252.114 459.343,252.253 459.177 C 253.098 458.167,253.698 457.212,254.694 455.290 C 255.311 454.099,255.956 452.956,256.128 452.750 C 256.299 452.544,256.635 451.981,256.874 451.500 C 257.113 451.019,257.942 449.556,258.716 448.250 C 260.514 445.217,260.836 444.647,261.612 443.125 C 261.963 442.438,262.865 440.919,263.616 439.750 C 264.367 438.581,264.986 437.483,264.991 437.310 C 264.996 437.137,265.394 436.435,265.875 435.750 C 266.356 435.065,266.750 434.371,266.750 434.206 C 266.750 434.042,266.975 433.668,267.249 433.376 C 267.524 433.083,268.071 432.232,268.464 431.485 C 269.975 428.615,270.834 427.103,271.284 426.529 C 271.540 426.201,271.750 425.801,271.750 425.641 C 271.750 425.480,272.353 424.388,273.090 423.215 C 273.826 422.042,275.072 419.882,275.859 418.416 C 276.645 416.950,277.380 415.750,277.492 415.750 C 277.604 415.750,277.879 415.328,278.104 414.813 C 278.637 413.587,279.962 411.149,280.819 409.817 C 281.194 409.236,281.500 408.666,281.500 408.552 C 281.500 408.438,281.701 408.126,281.947 407.860 C 282.192 407.593,282.551 406.991,282.744 406.522 C 282.936 406.053,283.467 405.128,283.922 404.466 C 284.377 403.804,284.750 403.152,284.750 403.019 C 284.750 402.885,285.087 402.275,285.500 401.664 C 285.913 401.053,286.250 400.389,286.250 400.190 C 286.250 399.991,286.531 399.501,286.875 399.101 C 287.219 398.702,287.687 397.981,287.914 397.500 C 288.141 397.019,288.591 396.277,288.914 395.851 C 289.236 395.426,289.500 394.939,289.500 394.769 C 289.500 394.599,289.894 393.867,290.375 393.141 C 290.856 392.416,291.250 391.694,291.250 391.537 C 291.250 391.379,291.349 391.250,291.470 391.250 C 291.590 391.250,291.829 390.912,292.000 390.500 C 292.171 390.087,292.407 389.750,292.526 389.750 C 292.644 389.750,292.815 389.441,292.905 389.062 C 292.996 388.684,293.392 387.891,293.785 387.300 C 294.178 386.709,294.500 386.142,294.500 386.042 C 294.500 385.941,294.900 385.243,295.390 384.492 C 295.879 383.740,296.448 382.788,296.653 382.375 C 297.116 381.446,297.692 380.426,298.488 379.125 C 298.825 378.575,299.397 377.563,299.760 376.875 C 300.784 374.934,301.541 373.637,301.731 373.500 C 301.888 373.386,302.374 372.529,304.550 368.526 C 304.953 367.785,305.726 366.497,306.267 365.664 C 306.807 364.832,307.250 364.030,307.250 363.883 C 307.250 363.736,307.522 363.216,307.855 362.726 C 308.187 362.237,308.802 361.203,309.221 360.429 C 310.341 358.358,310.545 358.015,311.438 356.701 C 311.884 356.043,312.250 355.384,312.250 355.235 C 312.250 355.087,312.575 354.492,312.973 353.914 C 313.370 353.337,313.881 352.420,314.108 351.878 C 314.334 351.336,314.607 350.832,314.714 350.759 C 315.014 350.552,318.212 345.034,318.749 343.795 C 318.887 343.477,319.284 342.844,319.631 342.390 C 319.977 341.936,320.518 341.072,320.832 340.470 C 322.079 338.079,323.046 336.418,323.389 336.075 C 323.588 335.877,323.750 335.511,323.750 335.263 C 323.750 335.014,323.919 334.671,324.125 334.500 C 324.331 334.329,324.500 334.085,324.500 333.959 C 324.500 333.833,324.707 333.425,324.961 333.052 C 326.069 331.423,326.774 330.232,327.875 328.125 C 328.522 326.887,329.305 325.538,329.615 325.125 C 329.925 324.712,330.258 324.122,330.356 323.812 C 330.454 323.503,330.625 323.250,330.736 323.250 C 330.847 323.250,331.173 322.716,331.459 322.063 C 331.746 321.409,332.322 320.369,332.739 319.750 C 333.156 319.131,333.498 318.501,333.499 318.349 C 333.500 318.197,333.773 317.779,334.106 317.420 C 334.439 317.060,334.791 316.509,334.889 316.196 C 334.986 315.882,335.445 315.051,335.908 314.349 C 336.371 313.647,336.750 312.984,336.750 312.875 C 336.750 312.766,337.144 312.084,337.625 311.359 C 338.106 310.633,338.500 309.924,338.500 309.783 C 338.500 309.641,338.822 309.041,339.216 308.450 C 340.622 306.340,341.377 305.107,342.016 303.875 C 343.395 301.218,343.604 300.851,344.173 300.095 C 344.496 299.665,345.018 298.822,345.332 298.220 C 346.241 296.480,347.289 294.657,347.615 294.250 C 347.781 294.044,348.230 293.256,348.613 292.500 C 348.997 291.744,349.639 290.634,350.041 290.034 C 350.443 289.434,351.105 288.309,351.513 287.534 C 351.920 286.759,352.359 285.956,352.486 285.750 C 352.614 285.544,352.971 284.841,353.279 284.188 C 353.587 283.534,353.919 283.000,354.017 283.000 C 354.115 283.000,354.377 282.548,354.598 281.995 C 354.819 281.443,355.281 280.545,355.625 280.000 C 355.969 279.456,356.250 278.844,356.250 278.641 C 356.250 278.438,356.564 277.733,356.947 277.074 C 358.048 275.180,359.750 271.551,359.750 271.095 C 359.750 270.867,360.087 270.132,360.500 269.461 C 360.912 268.791,361.250 268.084,361.250 267.890 C 361.250 267.696,361.700 266.607,362.250 265.469 C 362.800 264.332,363.250 263.220,363.250 262.998 C 363.250 262.776,363.475 262.128,363.750 261.559 C 364.025 260.990,364.250 260.345,364.250 260.127 C 364.250 259.908,364.580 259.023,364.984 258.159 C 365.388 257.296,365.792 256.260,365.882 255.857 C 365.973 255.454,366.365 254.113,366.755 252.875 C 367.144 251.637,367.661 249.950,367.902 249.125 C 368.144 248.300,368.416 247.512,368.507 247.375 C 368.598 247.238,368.810 246.563,368.977 245.875 C 369.145 245.188,369.488 243.838,369.739 242.875 C 369.990 241.912,370.330 240.450,370.494 239.625 C 370.659 238.800,371.177 236.486,371.646 234.482 C 372.116 232.478,372.500 230.559,372.500 230.218 C 372.500 229.876,372.771 228.197,373.102 226.486 C 373.434 224.775,373.782 222.137,373.877 220.625 C 373.972 219.113,374.215 216.412,374.418 214.625 C 375.010 209.408,375.138 193.250,374.635 187.375 C 374.411 184.762,374.116 180.994,373.979 179.000 C 373.842 177.006,373.461 173.800,373.132 171.875 C 372.803 169.950,372.469 167.818,372.390 167.138 C 372.311 166.458,371.926 164.602,371.535 163.013 C 371.144 161.425,370.686 159.338,370.518 158.375 C 370.129 156.156,369.427 153.494,368.475 150.625 C 368.064 149.387,367.625 147.925,367.500 147.375 C 367.152 145.844,365.823 141.829,365.017 139.875 C 363.839 137.018,363.000 134.764,363.000 134.458 C 363.000 134.300,362.621 133.373,362.158 132.398 C 360.103 128.069,359.750 127.273,359.749 126.959 C 359.749 126.775,359.355 125.972,358.874 125.175 C 358.393 124.377,358.000 123.609,358.000 123.467 C 358.000 123.325,357.606 122.537,357.125 121.716 C 356.644 120.895,356.250 120.105,356.250 119.960 C 356.250 119.816,355.912 119.197,355.500 118.586 C 355.087 117.975,354.750 117.349,354.750 117.195 C 354.750 117.040,354.598 116.737,354.412 116.520 C 354.226 116.303,353.809 115.619,353.484 115.000 C 352.464 113.055,351.170 110.909,350.447 109.964 C 350.064 109.463,349.750 108.879,349.750 108.666 C 349.750 108.454,349.644 108.214,349.515 108.134 C 349.386 108.055,348.928 107.373,348.496 106.619 C 348.065 105.865,347.557 105.093,347.367 104.903 C 347.177 104.713,346.820 104.218,346.574 103.802 C 345.051 101.235,344.616 100.590,344.206 100.297 C 343.953 100.117,343.563 99.611,343.339 99.172 C 343.114 98.734,342.856 98.319,342.764 98.250 C 342.673 98.181,342.110 97.422,341.513 96.563 C 340.916 95.703,340.331 95.000,340.214 95.000 C 340.096 95.000,340.000 94.841,340.000 94.646 C 340.000 94.452,339.663 93.974,339.250 93.585 C 338.837 93.195,338.500 92.791,338.500 92.686 C 338.500 92.581,337.797 91.642,336.938 90.599 C 336.078 89.556,335.135 88.370,334.841 87.962 C 334.547 87.555,334.143 87.087,333.944 86.923 C 333.745 86.759,332.796 85.725,331.837 84.625 C 330.877 83.525,329.565 82.096,328.921 81.449 C 328.277 80.803,327.750 80.221,327.750 80.157 C 327.750 79.994,319.968 72.250,319.805 72.250 C 319.732 72.250,318.931 71.524,318.024 70.637 C 316.330 68.981,313.414 66.358,312.035 65.250 C 311.607 64.906,310.946 64.355,310.566 64.026 C 310.186 63.696,308.975 62.755,307.875 61.935 C 306.775 61.114,305.819 60.371,305.750 60.284 C 305.619 60.116,303.502 58.547,302.000 57.505 C 301.519 57.171,301.012 56.808,300.875 56.699 C 300.738 56.590,300.065 56.050,299.380 55.500 C 298.695 54.950,298.015 54.500,297.870 54.500 C 297.725 54.500,297.217 54.167,296.741 53.760 C 296.265 53.353,295.759 53.016,295.618 53.010 C 295.477 53.005,294.763 52.550,294.031 52.000 C 293.299 51.450,292.570 51.000,292.412 51.000 C 292.254 51.000,291.798 50.718,291.399 50.375 C 290.999 50.031,290.556 49.750,290.415 49.750 C 290.273 49.750,289.925 49.538,289.641 49.280 C 289.177 48.856,287.898 48.120,284.500 46.321 C 283.881 45.993,282.813 45.396,282.125 44.994 C 281.438 44.592,280.481 44.085,280.000 43.867 C 278.957 43.393,278.218 43.028,276.875 42.324 C 275.685 41.700,273.455 40.659,270.375 39.289 C 269.137 38.739,267.495 37.999,266.726 37.644 C 265.956 37.290,265.133 37.000,264.897 37.000 C 264.411 37.000,261.943 35.997,261.747 35.720 C 261.677 35.621,261.284 35.465,260.872 35.374 C 260.023 35.186,257.684 34.308,256.750 33.826 C 256.406 33.648,255.844 33.504,255.500 33.505 C 255.156 33.506,253.863 33.173,252.625 32.765 C 248.448 31.387,244.622 30.250,244.163 30.250 C 243.912 30.250,242.225 29.921,240.416 29.519 C 235.915 28.519,229.020 27.225,226.750 26.955 C 225.719 26.832,224.088 26.639,223.125 26.527 C 222.162 26.415,220.194 26.137,218.750 25.910 C 211.275 24.731,211.514 24.745,200.125 24.780 C 192.004 24.804,188.863 24.896,188.125 25.131 M222.650 90.857 C 223.571 91.191,224.391 91.570,224.474 91.699 C 224.557 91.827,224.850 92.005,225.125 92.094 C 225.910 92.348,227.293 94.191,227.850 95.726 C 228.325 97.036,228.362 97.821,228.443 108.029 L 228.528 118.933 229.151 119.216 C 229.493 119.372,229.922 119.500,230.104 119.500 C 230.859 119.500,236.373 122.006,238.625 123.373 C 239.313 123.790,240.063 124.242,240.292 124.378 C 241.457 125.068,243.431 126.507,243.851 126.973 C 244.113 127.263,244.449 127.500,244.599 127.500 C 244.748 127.500,245.152 127.774,245.497 128.110 C 245.843 128.445,247.039 129.598,248.155 130.672 C 250.363 132.796,253.147 136.002,254.445 137.916 C 254.896 138.581,255.539 139.519,255.874 140.000 C 257.592 142.464,260.913 149.967,261.629 153.000 C 261.807 153.756,262.182 155.331,262.462 156.500 C 263.434 160.555,263.533 162.231,263.452 173.250 L 263.375 183.875 262.418 185.799 C 261.111 188.429,257.462 192.250,256.258 192.250 C 256.103 192.250,255.701 192.526,255.364 192.864 L 254.750 193.477 254.750 221.945 L 254.750 250.413 255.313 250.926 C 255.622 251.208,256.381 251.750,257.000 252.132 C 257.619 252.514,258.357 253.062,258.641 253.351 C 258.925 253.639,259.403 254.040,259.703 254.243 C 260.004 254.445,260.250 254.742,260.250 254.903 C 260.250 255.065,260.423 255.263,260.634 255.344 C 260.845 255.425,261.548 256.588,262.196 257.930 L 263.375 260.368 263.375 278.622 L 263.375 296.875 262.551 299.375 C 259.487 308.668,252.833 315.190,243.875 317.680 L 241.375 318.375 202.000 318.375 L 162.625 318.375 160.125 317.677 C 157.560 316.960,153.976 315.367,152.601 314.332 C 152.176 314.012,151.726 313.750,151.601 313.750 C 151.052 313.750,145.213 307.358,144.830 306.338 C 144.734 306.083,144.283 305.342,143.828 304.690 C 143.373 304.038,143.000 303.405,143.000 303.283 C 143.000 303.160,142.725 302.456,142.388 301.718 C 140.712 298.038,140.625 296.872,140.625 278.125 L 140.625 261.125 141.196 259.500 C 141.511 258.606,142.045 257.456,142.384 256.943 C 142.723 256.430,143.000 255.945,143.000 255.864 C 143.000 255.734,143.875 254.886,146.325 252.642 C 146.711 252.289,147.144 252.000,147.289 252.000 C 147.434 252.000,147.991 251.653,148.527 251.229 L 149.500 250.458 149.500 222.160 C 149.500 190.608,149.667 193.300,147.643 192.259 C 145.016 190.908,142.178 187.448,141.195 184.396 C 139.791 180.036,140.477 160.595,142.276 153.750 C 143.298 149.865,145.724 143.994,147.340 141.498 C 147.772 140.831,148.319 139.968,148.555 139.580 C 149.386 138.219,149.640 137.868,151.477 135.545 C 153.641 132.810,156.653 129.752,159.125 127.784 C 160.088 127.017,160.988 126.300,161.125 126.191 C 161.780 125.668,163.270 124.702,164.677 123.887 C 165.530 123.392,166.296 122.878,166.379 122.744 C 166.462 122.610,166.687 122.500,166.879 122.500 C 167.071 122.500,167.800 122.162,168.500 121.750 C 169.200 121.338,169.915 121.000,170.089 121.000 C 170.264 121.000,170.968 120.729,171.655 120.398 C 172.342 120.066,173.404 119.661,174.015 119.498 C 175.872 119.001,175.750 119.815,175.750 107.882 C 175.750 96.208,175.740 96.306,177.156 94.071 C 178.039 92.678,179.277 91.755,181.500 90.832 L 182.875 90.262 201.926 90.256 L 220.977 90.250 222.650 90.857 M185.375 134.627 C 181.287 135.383,178.654 136.226,175.875 137.671 C 175.463 137.886,174.675 138.297,174.125 138.585 C 171.891 139.754,164.250 146.658,164.250 147.506 C 164.250 147.613,163.884 148.267,163.438 148.960 C 161.911 151.327,161.310 152.375,161.120 153.000 C 161.016 153.344,160.671 154.196,160.353 154.895 C 159.759 156.198,159.191 158.451,158.625 161.750 C 158.306 163.614,158.149 168.929,158.215 175.636 L 158.250 179.147 159.639 179.438 C 162.456 180.029,165.568 182.720,166.071 185.000 C 166.147 185.344,166.385 186.244,166.601 187.000 C 166.949 188.219,166.994 192.194,166.997 222.002 L 167.000 255.629 166.408 257.782 C 165.351 261.621,161.978 264.750,158.896 264.750 C 158.229 264.750,158.211 265.162,158.240 279.694 L 158.268 294.123 159.003 295.624 C 159.910 297.474,161.234 298.935,162.875 299.894 L 164.125 300.625 202.125 300.625 L 240.125 300.625 241.674 299.666 C 243.331 298.641,244.036 297.857,245.088 295.877 L 245.750 294.629 245.750 280.189 L 245.750 265.750 215.125 265.750 L 184.500 265.750 184.500 257.000 L 184.500 248.250 210.750 248.250 L 237.000 248.250 237.000 221.875 L 237.000 195.500 210.750 195.500 L 184.500 195.500 184.500 186.750 L 184.500 178.000 215.125 178.000 L 245.750 178.000 245.738 169.813 L 245.726 161.625 244.985 158.875 C 244.578 157.363,244.138 155.724,244.007 155.234 C 243.766 154.336,242.192 151.122,241.198 149.500 C 238.871 145.706,233.440 140.409,230.125 138.701 C 227.949 137.580,227.277 137.251,226.250 136.801 C 223.723 135.696,220.785 134.945,217.250 134.501 C 214.288 134.129,187.499 134.235,185.375 134.627 " stroke="none" fill="#fcdc3c" fill-rule="evenodd"></path></g></svg>