<svg id="svg" version="1.1" width="400" height="600" viewBox="0 0 400 600" xmlns="http://www.w3.org/2000/svg" xmlns:xlink="http://www.w3.org/1999/xlink" ><g id="svgg"><path id="path0" d="M185.875 0.399 C 183.938 0.849,165.227 3.750,164.265 3.750 C 162.475 3.750,151.347 6.119,144.750 7.904 C 142.603 8.485,138.932 9.622,133.375 11.427 C 131.661 11.984,128.310 13.258,126.625 13.993 C 126.350 14.113,125.803 14.281,125.410 14.367 C 124.672 14.528,124.029 14.803,120.029 16.660 C 118.739 17.260,117.576 17.750,117.444 17.750 C 117.313 17.750,114.566 19.072,111.341 20.688 C 103.908 24.411,103.067 24.853,100.539 26.375 C 99.397 27.063,97.929 27.906,97.277 28.250 C 96.624 28.594,95.142 29.499,93.983 30.262 C 92.824 31.024,91.217 32.037,90.412 32.512 C 89.607 32.986,88.655 33.646,88.295 33.976 C 87.935 34.307,87.126 34.881,86.497 35.252 C 85.868 35.623,84.514 36.555,83.489 37.324 C 82.464 38.093,80.454 39.600,79.023 40.673 C 77.592 41.747,75.756 43.188,74.944 43.875 C 74.131 44.563,73.085 45.406,72.620 45.750 C 69.595 47.982,57.056 59.966,53.459 64.062 C 52.725 64.897,51.664 66.054,51.101 66.632 C 50.538 67.210,49.754 68.120,49.358 68.654 C 48.963 69.188,48.098 70.180,47.436 70.858 C 46.773 71.535,45.990 72.520,45.695 73.045 C 45.399 73.570,45.075 74.000,44.975 74.000 C 44.759 74.000,39.753 80.486,38.535 82.344 C 38.073 83.049,37.435 83.906,37.116 84.250 C 36.798 84.594,36.107 85.557,35.581 86.392 C 35.055 87.226,33.928 88.969,33.077 90.267 C 29.881 95.133,28.750 96.936,28.369 97.768 C 28.153 98.239,27.477 99.412,26.867 100.375 C 26.257 101.338,25.328 102.969,24.801 104.000 C 24.275 105.031,23.260 106.908,22.547 108.171 C 21.834 109.434,21.250 110.573,21.250 110.701 C 21.250 110.830,20.462 112.452,19.500 114.305 C 18.537 116.159,17.750 117.809,17.750 117.973 C 17.750 118.137,17.424 118.969,17.025 119.823 C 15.142 123.854,14.649 125.008,14.063 126.750 C 13.716 127.781,13.181 129.188,12.873 129.875 C 11.786 132.305,7.250 145.831,7.250 146.642 C 7.250 146.859,6.695 149.081,6.017 151.580 C 4.696 156.446,4.188 158.759,3.012 165.250 C 0.560 178.776,0.016 185.185,0.016 200.500 C 0.016 215.818,0.629 223.008,2.989 235.375 C 3.383 237.438,3.776 239.631,3.863 240.250 C 4.059 241.641,5.484 247.353,6.390 250.375 C 6.760 251.613,7.114 252.963,7.176 253.375 C 7.314 254.290,9.623 261.411,10.277 262.939 C 10.537 263.545,10.753 264.229,10.756 264.458 C 10.759 264.687,11.247 266.056,11.840 267.500 C 12.818 269.879,13.378 271.268,14.780 274.788 C 15.035 275.428,15.795 277.116,16.470 278.538 C 17.145 279.961,17.780 281.406,17.880 281.750 C 17.981 282.094,18.781 283.716,19.657 285.356 C 20.533 286.995,21.250 288.438,21.250 288.562 C 21.250 288.896,24.250 294.470,24.519 294.637 C 24.646 294.715,24.750 294.976,24.750 295.217 C 24.750 295.458,25.154 296.323,25.647 297.140 C 26.140 297.957,27.276 300.031,28.170 301.750 C 29.064 303.469,29.940 305.044,30.117 305.250 C 30.294 305.456,30.916 306.525,31.499 307.625 C 32.780 310.043,33.320 310.977,34.414 312.667 C 34.874 313.378,35.250 314.045,35.250 314.150 C 35.250 314.427,38.266 319.481,38.528 319.643 C 38.650 319.718,38.750 319.959,38.750 320.177 C 38.750 320.396,39.295 321.430,39.961 322.475 C 40.628 323.520,41.657 325.275,42.249 326.375 C 42.840 327.475,43.689 328.938,44.133 329.625 C 44.578 330.313,45.334 331.606,45.813 332.500 C 47.043 334.794,47.771 336.028,48.322 336.750 C 48.584 337.094,49.124 338.050,49.522 338.875 C 49.919 339.700,50.745 341.163,51.356 342.125 C 51.968 343.087,52.703 344.374,52.991 344.984 C 53.278 345.594,53.891 346.663,54.353 347.359 C 54.816 348.056,55.674 349.525,56.260 350.625 C 56.847 351.725,57.805 353.361,58.389 354.261 C 58.973 355.161,59.621 356.286,59.830 356.761 C 60.039 357.236,60.781 358.525,61.478 359.625 C 62.175 360.725,63.082 362.300,63.493 363.125 C 63.904 363.950,64.856 365.618,65.609 366.832 C 66.362 368.046,67.044 369.244,67.123 369.494 C 67.203 369.745,67.731 370.664,68.296 371.538 C 68.862 372.411,69.970 374.306,70.760 375.750 C 71.549 377.194,72.601 378.991,73.097 379.744 C 73.594 380.497,74.006 381.229,74.013 381.369 C 74.020 381.510,74.694 382.694,75.512 384.000 C 76.329 385.306,77.212 386.825,77.473 387.375 C 77.734 387.925,78.575 389.387,79.342 390.625 C 80.109 391.863,80.961 393.360,81.236 393.953 C 81.511 394.546,82.083 395.546,82.508 396.175 C 82.932 396.805,83.797 398.288,84.428 399.472 C 85.060 400.656,86.055 402.361,86.639 403.261 C 87.223 404.161,87.865 405.286,88.067 405.761 C 88.268 406.236,89.029 407.581,89.757 408.750 C 90.485 409.919,91.402 411.494,91.795 412.250 C 92.188 413.006,92.825 414.131,93.211 414.750 C 93.596 415.369,94.454 416.887,95.117 418.125 C 95.780 419.363,96.573 420.712,96.879 421.125 C 97.185 421.538,97.971 422.887,98.625 424.125 C 99.280 425.363,100.182 426.938,100.631 427.625 C 101.079 428.313,101.663 429.325,101.930 429.875 C 102.196 430.425,103.108 432.023,103.957 433.426 C 104.806 434.829,105.500 436.077,105.500 436.200 C 105.500 436.322,105.934 437.094,106.465 437.916 C 106.996 438.737,108.128 440.672,108.981 442.215 C 109.833 443.758,110.849 445.494,111.238 446.073 C 111.626 446.652,112.185 447.631,112.478 448.250 C 112.772 448.869,113.512 450.163,114.124 451.125 C 114.736 452.087,115.579 453.550,115.997 454.375 C 116.415 455.200,117.310 456.775,117.985 457.875 C 118.660 458.975,119.496 460.464,119.841 461.184 C 120.186 461.904,120.744 462.860,121.081 463.309 C 121.418 463.758,122.228 465.137,122.883 466.375 C 123.538 467.613,124.438 469.188,124.883 469.875 C 125.328 470.563,126.171 472.025,126.755 473.125 C 127.340 474.225,128.309 475.888,128.909 476.820 C 129.509 477.753,130.000 478.615,130.000 478.736 C 130.000 478.857,130.763 480.231,131.695 481.790 C 132.627 483.349,133.528 484.942,133.697 485.329 C 133.866 485.717,134.490 486.786,135.082 487.704 C 135.675 488.623,136.678 490.342,137.310 491.523 C 137.942 492.704,138.919 494.381,139.480 495.249 C 140.041 496.117,140.504 496.951,140.509 497.101 C 140.515 497.252,141.133 498.331,141.883 499.500 C 142.633 500.669,143.518 502.188,143.850 502.875 C 144.181 503.563,145.078 505.137,145.841 506.375 C 146.605 507.613,147.508 509.212,147.847 509.930 C 148.187 510.647,148.802 511.724,149.215 512.324 C 149.627 512.923,150.439 514.305,151.019 515.394 C 151.599 516.484,152.438 517.938,152.883 518.625 C 153.329 519.313,154.140 520.719,154.685 521.750 C 155.230 522.781,156.027 524.188,156.457 524.875 C 156.886 525.563,157.499 526.631,157.818 527.250 C 158.137 527.869,158.911 529.219,159.538 530.250 C 160.164 531.281,161.152 533.025,161.734 534.125 C 162.315 535.225,162.935 536.294,163.112 536.500 C 163.289 536.706,164.141 538.169,165.005 539.750 C 165.869 541.331,166.904 543.107,167.306 543.696 C 167.707 544.285,168.253 545.241,168.519 545.821 C 168.785 546.401,169.563 547.775,170.247 548.875 C 170.932 549.975,171.828 551.550,172.238 552.375 C 172.649 553.200,173.552 554.775,174.245 555.875 C 174.939 556.975,175.723 558.352,175.987 558.934 C 176.252 559.517,176.859 560.586,177.335 561.309 C 177.812 562.033,178.561 563.300,179.000 564.125 C 179.988 565.978,180.595 567.016,181.635 568.625 C 182.079 569.313,182.609 570.269,182.813 570.750 C 183.016 571.231,183.779 572.581,184.507 573.750 C 185.235 574.919,186.152 576.494,186.545 577.250 C 186.938 578.006,187.575 579.131,187.961 579.750 C 188.346 580.369,189.181 581.844,189.816 583.028 C 190.451 584.212,191.300 585.674,191.703 586.278 C 192.106 586.881,192.915 588.275,193.502 589.375 C 194.088 590.475,194.937 591.938,195.389 592.625 C 195.840 593.313,196.357 594.212,196.537 594.625 C 197.062 595.827,200.010 600.000,200.332 599.996 C 200.617 599.993,203.265 596.069,203.580 595.184 C 203.666 594.942,204.229 593.986,204.830 593.059 C 205.431 592.133,206.462 590.362,207.121 589.125 C 207.780 587.888,208.646 586.396,209.047 585.812 C 209.447 585.227,209.970 584.327,210.208 583.812 C 210.446 583.296,211.200 581.951,211.883 580.822 C 212.566 579.693,213.519 578.039,214.000 577.147 C 215.289 574.758,217.838 570.325,218.830 568.750 C 219.306 567.994,220.371 566.138,221.195 564.625 C 222.020 563.112,223.101 561.259,223.597 560.506 C 224.094 559.753,224.500 558.944,224.500 558.708 C 224.500 558.472,224.606 558.214,224.736 558.134 C 225.014 557.962,227.640 553.600,227.901 552.875 C 228.000 552.600,228.442 551.813,228.882 551.125 C 229.951 549.456,231.500 546.761,231.500 546.569 C 231.500 546.485,232.129 545.394,232.898 544.145 C 234.397 541.710,236.829 537.494,238.250 534.869 C 238.731 533.979,239.772 532.184,240.563 530.878 C 241.353 529.573,242.000 528.408,242.000 528.291 C 242.000 528.174,242.434 527.406,242.965 526.584 C 243.496 525.763,244.636 523.805,245.498 522.233 C 246.361 520.661,247.209 519.206,247.384 519.000 C 247.558 518.794,248.404 517.331,249.263 515.750 C 250.123 514.169,251.086 512.532,251.405 512.112 C 251.723 511.693,252.270 510.736,252.620 509.987 C 252.970 509.238,253.780 507.781,254.420 506.750 C 255.061 505.719,255.931 504.233,256.355 503.449 C 257.412 501.491,259.790 497.356,261.502 494.500 C 262.285 493.194,263.380 491.281,263.936 490.250 C 264.491 489.219,265.351 487.759,265.848 487.006 C 266.344 486.253,266.750 485.545,266.750 485.434 C 266.750 485.323,267.478 484.017,268.367 482.531 C 269.257 481.046,270.064 479.615,270.160 479.353 C 270.256 479.090,270.806 478.144,271.383 477.250 C 271.959 476.356,272.969 474.613,273.628 473.375 C 274.287 472.137,275.138 470.666,275.520 470.106 C 275.902 469.545,276.692 468.195,277.276 467.106 C 277.860 466.016,278.657 464.619,279.046 464.000 C 279.435 463.381,280.094 462.200,280.509 461.375 C 280.924 460.550,281.933 458.806,282.749 457.500 C 283.566 456.194,284.238 455.010,284.242 454.869 C 284.246 454.729,284.656 453.997,285.153 453.244 C 285.649 452.491,286.727 450.644,287.549 449.139 C 288.371 447.634,289.357 445.946,289.741 445.388 C 290.125 444.829,290.713 443.811,291.047 443.124 C 291.381 442.437,292.326 440.750,293.146 439.375 C 293.967 438.000,294.836 436.481,295.076 436.000 C 295.317 435.519,296.073 434.225,296.755 433.125 C 297.438 432.025,298.215 430.651,298.481 430.071 C 298.747 429.491,299.293 428.535,299.694 427.946 C 300.096 427.357,301.110 425.629,301.947 424.106 C 302.785 422.584,303.871 420.730,304.360 419.987 C 304.850 419.244,305.250 418.499,305.250 418.331 C 305.250 418.163,305.568 417.541,305.957 416.950 C 307.117 415.188,307.683 414.219,308.633 412.376 C 309.128 411.414,309.674 410.458,309.847 410.251 C 310.308 409.697,312.250 406.323,312.250 406.076 C 312.250 405.959,312.659 405.247,313.158 404.494 C 313.658 403.741,314.743 401.887,315.569 400.375 C 316.395 398.863,317.401 397.144,317.803 396.555 C 318.205 395.967,318.811 394.898,319.150 394.180 C 319.489 393.462,320.266 392.087,320.877 391.125 C 321.488 390.163,322.308 388.756,322.698 388.000 C 323.089 387.244,323.862 385.894,324.417 385.000 C 324.971 384.106,325.848 382.587,326.365 381.625 C 326.882 380.663,327.693 379.256,328.167 378.500 C 329.150 376.929,331.951 372.070,333.101 369.940 C 333.527 369.151,334.522 367.436,335.313 366.130 C 336.103 364.823,336.750 363.667,336.750 363.559 C 336.750 363.452,337.118 362.804,337.567 362.119 C 338.542 360.634,339.408 359.157,340.496 357.125 C 340.937 356.300,341.663 355.063,342.109 354.375 C 342.933 353.104,343.592 351.927,343.858 351.250 C 343.939 351.044,344.509 350.087,345.126 349.125 C 345.742 348.163,346.546 346.756,346.912 346.000 C 347.278 345.244,347.889 344.175,348.270 343.625 C 348.650 343.075,349.524 341.613,350.212 340.375 C 350.899 339.137,351.869 337.473,352.367 336.676 C 352.865 335.879,353.870 334.135,354.600 332.801 C 355.330 331.467,356.283 329.849,356.718 329.207 C 357.153 328.564,357.675 327.664,357.877 327.207 C 358.080 326.749,358.808 325.475,359.495 324.375 C 360.183 323.275,360.983 321.882,361.274 321.280 C 361.564 320.678,362.279 319.440,362.863 318.530 C 363.446 317.620,364.347 316.087,364.865 315.125 C 365.383 314.163,366.175 312.813,366.624 312.125 C 367.073 311.438,367.805 310.200,368.249 309.375 C 369.396 307.245,370.246 305.808,371.185 304.412 C 371.633 303.745,372.000 303.093,372.000 302.963 C 372.000 302.832,372.572 301.775,373.272 300.613 C 374.739 298.175,376.999 293.924,378.648 290.500 C 379.277 289.194,380.401 286.925,381.146 285.458 C 381.891 283.991,382.500 282.636,382.500 282.448 C 382.500 282.260,382.728 281.660,383.007 281.115 C 383.793 279.581,386.000 274.560,386.000 274.306 C 386.000 274.181,386.661 272.402,387.468 270.352 C 388.863 266.813,389.133 266.049,389.713 264.000 C 389.849 263.519,390.582 261.304,391.341 259.077 C 392.100 256.851,392.797 254.601,392.890 254.077 C 392.982 253.554,393.597 251.100,394.257 248.625 C 395.596 243.600,396.251 240.628,396.874 236.750 C 397.105 235.306,397.558 232.606,397.879 230.750 C 401.213 211.469,400.921 185.880,397.113 163.500 C 396.774 161.506,396.378 159.144,396.234 158.250 C 396.090 157.356,395.470 154.656,394.857 152.250 C 394.244 149.844,393.565 147.144,393.348 146.250 C 392.726 143.687,389.560 133.938,388.233 130.500 C 385.991 124.693,384.072 120.046,383.742 119.625 C 383.635 119.487,383.145 118.403,382.654 117.216 C 381.654 114.795,377.784 107.166,376.402 104.890 C 375.906 104.073,375.500 103.301,375.500 103.174 C 375.500 102.922,373.365 99.368,372.829 98.729 C 372.646 98.511,372.161 97.667,371.751 96.854 C 371.340 96.040,370.787 95.094,370.522 94.750 C 370.256 94.406,369.158 92.788,368.082 91.154 C 363.676 84.463,363.357 84.013,359.875 79.581 C 359.050 78.531,358.014 77.155,357.574 76.523 C 357.133 75.892,356.345 74.925,355.823 74.375 C 355.301 73.825,354.568 72.925,354.195 72.375 C 353.823 71.825,353.115 70.996,352.624 70.533 C 352.132 70.070,351.432 69.282,351.068 68.783 C 350.703 68.284,350.005 67.476,349.515 66.988 C 349.026 66.500,347.669 65.048,346.500 63.762 C 342.658 59.533,335.016 52.127,331.375 49.105 C 330.688 48.534,329.565 47.546,328.880 46.909 C 328.196 46.271,327.536 45.750,327.414 45.750 C 327.292 45.750,326.515 45.123,325.687 44.357 C 324.859 43.590,323.775 42.691,323.278 42.358 C 322.782 42.026,321.419 41.017,320.250 40.118 C 319.081 39.219,317.360 37.896,316.426 37.179 C 315.491 36.462,314.250 35.594,313.667 35.250 C 313.084 34.906,311.937 34.141,311.116 33.549 C 308.922 31.967,304.301 28.968,302.948 28.250 C 302.301 27.906,300.705 26.978,299.400 26.188 C 298.095 25.397,296.931 24.750,296.813 24.750 C 296.695 24.750,296.041 24.396,295.361 23.963 C 293.584 22.832,286.288 19.129,283.500 17.944 C 282.194 17.389,281.012 16.851,280.875 16.749 C 280.460 16.441,275.300 14.250,274.989 14.250 C 274.831 14.250,274.346 14.086,273.913 13.886 C 272.387 13.180,266.864 11.038,266.124 10.865 C 265.712 10.769,263.406 10.044,261.000 9.255 C 258.594 8.465,256.006 7.679,255.250 7.509 C 254.494 7.338,252.412 6.824,250.625 6.368 C 246.265 5.254,242.006 4.322,239.875 4.014 C 237.487 3.669,231.365 2.704,223.875 1.490 C 220.438 0.933,216.556 0.373,215.250 0.245 C 211.307 -0.141,187.667 -0.017,185.875 0.399 M213.237 26.761 C 215.152 26.995,219.385 27.644,229.375 29.237 C 231.162 29.523,233.412 29.875,234.375 30.020 C 239.581 30.806,251.080 33.785,256.500 35.752 C 257.531 36.126,259.050 36.663,259.875 36.945 C 262.673 37.902,263.123 38.077,264.951 38.914 C 265.955 39.374,266.883 39.750,267.013 39.750 C 267.142 39.750,267.963 40.087,268.836 40.500 C 269.709 40.913,270.555 41.250,270.717 41.250 C 270.878 41.250,271.448 41.527,271.984 41.865 C 272.520 42.203,273.277 42.560,273.667 42.657 C 274.056 42.754,274.894 43.152,275.528 43.542 C 276.162 43.931,276.811 44.250,276.970 44.250 C 277.130 44.250,277.680 44.513,278.192 44.834 C 278.705 45.156,279.692 45.702,280.386 46.048 C 281.533 46.621,282.807 47.308,285.625 48.875 C 286.905 49.587,289.123 50.923,290.263 51.669 C 290.752 51.988,291.235 52.250,291.336 52.250 C 291.438 52.250,291.756 52.469,292.044 52.738 C 292.332 53.006,292.921 53.393,293.352 53.598 C 293.784 53.802,294.472 54.258,294.881 54.610 C 295.290 54.962,295.717 55.250,295.829 55.250 C 296.074 55.250,297.840 56.546,297.958 56.813 C 298.004 56.916,298.155 57.000,298.292 57.000 C 298.506 57.000,300.622 58.369,301.000 58.751 C 301.069 58.821,301.800 59.377,302.625 59.987 C 303.450 60.597,304.163 61.187,304.208 61.298 C 304.254 61.409,304.409 61.500,304.553 61.500 C 304.697 61.500,305.278 61.899,305.845 62.388 C 306.411 62.876,306.988 63.359,307.125 63.461 C 309.185 64.989,311.977 67.330,312.089 67.622 C 312.169 67.830,312.389 68.000,312.578 68.000 C 312.767 68.000,313.614 68.675,314.459 69.500 C 315.305 70.325,316.056 71.000,316.128 71.000 C 316.418 71.000,326.836 81.337,328.750 83.524 C 329.231 84.074,329.917 84.828,330.275 85.199 C 331.531 86.505,337.599 93.797,338.625 95.233 C 339.236 96.088,342.049 99.901,342.673 100.718 C 342.921 101.045,343.294 101.569,343.500 101.883 C 343.706 102.197,344.438 103.280,345.125 104.290 C 345.813 105.299,346.421 106.237,346.476 106.375 C 346.634 106.764,347.853 108.365,348.063 108.458 C 348.166 108.504,348.250 108.658,348.250 108.801 C 348.250 109.056,348.832 110.050,350.438 112.540 C 350.884 113.233,351.250 113.921,351.250 114.068 C 351.250 114.215,351.420 114.524,351.628 114.754 C 351.837 114.984,352.329 115.780,352.723 116.524 C 353.117 117.267,353.845 118.606,354.341 119.500 C 355.340 121.299,359.250 129.154,359.250 129.361 C 359.250 129.433,359.587 130.189,360.000 131.040 C 360.413 131.892,360.750 132.705,360.750 132.847 C 360.750 132.989,361.078 133.785,361.479 134.615 C 362.114 135.932,362.632 137.247,363.992 141.000 C 365.628 145.512,367.924 152.906,369.000 157.125 C 370.010 161.084,370.184 161.845,370.432 163.375 C 370.565 164.200,370.909 166.056,371.195 167.500 C 375.130 187.356,374.864 217.878,370.570 239.375 C 370.213 241.162,369.831 243.188,369.722 243.875 C 369.612 244.563,369.283 245.969,368.991 247.000 C 368.699 248.031,368.363 249.381,368.244 250.000 C 368.124 250.619,367.739 252.013,367.388 253.097 C 367.037 254.182,366.750 255.283,366.750 255.544 C 366.750 255.805,366.356 257.038,365.875 258.285 C 365.394 259.531,365.000 260.710,365.000 260.906 C 365.000 261.101,364.680 262.074,364.289 263.068 C 363.898 264.062,363.349 265.550,363.070 266.375 C 362.338 268.535,361.982 269.478,361.421 270.750 C 361.148 271.369,360.726 272.381,360.483 273.000 C 358.977 276.842,358.398 278.172,357.857 279.028 C 357.523 279.557,357.250 280.109,357.250 280.253 C 357.250 280.398,356.969 281.072,356.625 281.750 C 356.281 282.428,356.000 283.129,356.000 283.308 C 356.000 283.486,355.606 284.216,355.125 284.931 C 354.644 285.646,354.250 286.342,354.250 286.479 C 354.250 286.616,353.913 287.300,353.500 288.000 C 353.087 288.700,352.750 289.421,352.750 289.602 C 352.750 289.784,352.540 290.201,352.284 290.529 C 352.028 290.857,351.565 291.631,351.255 292.250 C 350.945 292.869,350.551 293.544,350.378 293.750 C 350.206 293.956,349.622 294.969,349.081 296.000 C 348.541 297.031,347.773 298.381,347.376 299.000 C 346.979 299.619,346.410 300.575,346.113 301.125 C 345.082 303.029,344.439 304.128,343.971 304.789 C 343.712 305.154,343.500 305.531,343.500 305.627 C 343.500 305.724,343.163 306.303,342.750 306.914 C 342.337 307.525,342.000 308.126,342.000 308.250 C 342.000 308.374,341.662 308.975,341.250 309.586 C 340.837 310.197,340.500 310.783,340.500 310.888 C 340.500 310.992,340.239 311.426,339.920 311.851 C 339.600 312.277,339.002 313.244,338.589 314.000 C 337.286 316.387,336.440 317.866,336.216 318.151 C 336.097 318.303,335.734 318.922,335.410 319.526 C 334.427 321.360,333.714 322.593,333.255 323.250 C 333.015 323.594,332.423 324.627,331.938 325.547 C 331.453 326.466,330.707 327.737,330.278 328.372 C 329.850 329.006,329.500 329.682,329.500 329.873 C 329.500 330.064,329.385 330.292,329.244 330.378 C 329.104 330.465,328.651 331.175,328.238 331.956 C 327.825 332.736,326.992 334.163,326.386 335.125 C 325.780 336.087,324.815 337.775,324.240 338.875 C 323.666 339.975,323.054 341.044,322.880 341.250 C 322.707 341.456,322.287 342.131,321.948 342.750 C 320.211 345.921,319.644 346.930,319.277 347.501 C 318.476 348.748,318.239 349.152,317.367 350.750 C 316.879 351.644,316.033 353.106,315.487 354.000 C 314.941 354.894,314.359 355.906,314.194 356.250 C 314.028 356.594,313.612 357.325,313.268 357.875 C 312.378 359.300,312.233 359.555,309.488 364.492 C 309.071 365.244,308.565 366.040,308.364 366.262 C 308.164 366.483,308.000 366.790,308.000 366.945 C 308.000 367.099,307.662 367.725,307.250 368.336 C 306.837 368.947,306.500 369.557,306.500 369.690 C 306.500 369.823,306.292 370.201,306.038 370.529 C 305.573 371.128,304.799 372.453,303.427 375.000 C 303.019 375.756,302.475 376.674,302.218 377.039 C 301.961 377.404,301.750 377.764,301.750 377.839 C 301.750 377.914,301.425 378.459,301.027 379.050 C 300.630 379.641,300.120 380.519,299.895 381.000 C 299.310 382.252,297.971 384.603,297.758 384.750 C 297.659 384.819,297.263 385.494,296.879 386.250 C 296.494 387.006,296.006 387.962,295.796 388.375 C 295.586 388.788,295.168 389.462,294.868 389.875 C 294.567 390.288,294.153 390.962,293.947 391.375 C 293.741 391.788,293.144 392.856,292.621 393.750 C 292.097 394.644,291.485 395.712,291.260 396.125 C 291.036 396.538,290.572 397.325,290.230 397.875 C 289.887 398.425,289.472 399.156,289.306 399.500 C 289.141 399.844,288.559 400.856,288.013 401.750 C 287.467 402.644,286.624 404.126,286.141 405.044 C 285.658 405.962,285.147 406.784,285.006 406.871 C 284.865 406.958,284.750 407.248,284.750 407.515 C 284.750 407.782,284.666 408.001,284.563 408.002 C 284.352 408.003,283.891 408.761,282.432 411.500 C 281.883 412.531,281.237 413.656,280.996 414.000 C 280.612 414.548,279.736 416.064,278.903 417.625 C 278.756 417.900,278.302 418.676,277.893 419.350 C 277.020 420.789,276.453 421.796,275.837 423.000 C 275.590 423.481,275.076 424.345,274.694 424.920 C 274.312 425.495,274.000 426.038,274.000 426.128 C 274.000 426.217,273.625 426.872,273.167 427.583 C 272.709 428.293,271.903 429.719,271.376 430.750 C 270.850 431.781,270.341 432.681,270.247 432.750 C 270.152 432.819,269.702 433.550,269.247 434.375 C 268.791 435.200,268.201 436.269,267.934 436.750 C 267.668 437.231,267.209 438.019,266.915 438.500 C 266.127 439.785,265.587 440.750,265.026 441.875 C 264.751 442.425,264.240 443.262,263.888 443.736 C 263.537 444.210,263.250 444.697,263.250 444.819 C 263.250 444.941,262.856 445.633,262.375 446.359 C 261.894 447.084,261.500 447.789,261.500 447.926 C 261.500 448.063,261.163 448.641,260.750 449.210 C 260.338 449.780,260.000 450.367,260.000 450.515 C 260.000 450.662,259.735 451.141,259.411 451.579 C 259.086 452.017,258.651 452.712,258.444 453.125 C 257.971 454.065,256.260 457.089,255.544 458.250 C 255.247 458.731,254.694 459.697,254.315 460.397 C 253.234 462.389,252.176 464.221,251.563 465.161 C 251.253 465.635,251.000 466.131,251.000 466.264 C 251.000 466.396,250.606 467.065,250.125 467.750 C 249.644 468.435,249.250 469.116,249.250 469.264 C 249.250 469.412,248.979 469.891,248.649 470.329 C 248.318 470.767,247.570 472.025,246.987 473.125 C 246.404 474.225,245.729 475.409,245.486 475.757 C 245.243 476.105,244.771 476.892,244.437 477.507 C 243.288 479.621,242.572 480.878,241.665 482.375 C 241.165 483.200,240.535 484.325,240.266 484.875 C 239.997 485.425,239.490 486.262,239.138 486.736 C 238.787 487.210,238.500 487.800,238.500 488.049 C 238.500 488.297,238.412 488.500,238.304 488.500 C 238.196 488.500,237.774 489.147,237.366 489.937 C 236.959 490.728,236.556 491.431,236.471 491.500 C 236.386 491.569,236.062 492.131,235.751 492.750 C 235.440 493.369,234.984 494.159,234.740 494.507 C 234.495 494.855,234.003 495.670,233.647 496.320 C 233.291 496.969,232.724 498.002,232.388 498.615 C 232.051 499.228,231.583 500.023,231.347 500.382 C 230.901 501.063,230.449 501.859,229.436 503.750 C 228.747 505.035,227.389 507.304,226.710 508.302 C 226.457 508.675,226.250 509.092,226.250 509.229 C 226.250 509.467,225.288 511.040,224.754 511.677 C 224.614 511.843,224.500 512.146,224.500 512.350 C 224.500 512.554,224.385 512.792,224.244 512.879 C 224.103 512.966,223.592 513.788,223.108 514.706 C 221.920 516.960,220.540 519.289,220.106 519.770 C 219.910 519.987,219.750 520.302,219.750 520.470 C 219.750 520.639,219.469 521.190,219.125 521.696 C 218.781 522.202,218.500 522.720,218.500 522.847 C 218.500 522.974,218.235 523.426,217.910 523.851 C 217.586 524.277,216.996 525.228,216.598 525.966 C 216.200 526.703,215.570 527.870,215.198 528.560 C 214.825 529.249,214.347 530.005,214.135 530.239 C 213.923 530.473,213.750 530.815,213.750 531.000 C 213.750 531.185,213.590 531.513,213.395 531.730 C 213.199 531.947,212.741 532.688,212.375 533.375 C 212.010 534.063,211.272 535.356,210.737 536.250 C 210.201 537.144,209.538 538.334,209.264 538.894 C 208.989 539.455,208.555 540.186,208.299 540.519 C 208.043 540.853,207.660 541.462,207.450 541.875 C 207.239 542.288,206.587 543.469,206.000 544.500 C 205.413 545.531,204.764 546.712,204.556 547.125 C 204.349 547.538,203.914 548.233,203.589 548.671 C 203.265 549.109,203.000 549.643,203.000 549.858 C 203.000 550.074,202.913 550.250,202.808 550.250 C 202.702 550.250,202.253 550.897,201.811 551.688 C 201.368 552.478,200.797 553.392,200.541 553.719 L 200.075 554.313 198.859 552.344 C 198.190 551.261,197.576 550.319,197.494 550.250 C 197.412 550.181,197.059 549.619,196.710 549.000 C 196.360 548.381,195.647 547.144,195.124 546.250 C 194.602 545.356,193.952 544.180,193.681 543.636 C 193.410 543.091,192.995 542.360,192.759 542.011 C 191.908 540.751,190.750 538.712,190.750 538.473 C 190.750 538.252,189.821 536.801,189.486 536.500 C 189.410 536.431,189.121 535.925,188.844 535.375 C 187.734 533.167,187.152 532.107,186.856 531.750 C 186.557 531.389,186.285 530.912,184.505 527.625 C 184.059 526.800,183.537 525.947,183.347 525.730 C 183.156 525.513,183.000 525.219,183.000 525.077 C 183.000 524.934,182.790 524.549,182.534 524.221 C 182.277 523.893,181.730 523.006,181.317 522.250 C 180.904 521.494,180.206 520.214,179.764 519.407 C 179.323 518.599,178.853 517.811,178.719 517.657 C 178.369 517.250,177.293 515.280,176.826 514.188 C 176.605 513.672,176.342 513.250,176.242 513.250 C 176.142 513.250,175.921 512.913,175.750 512.500 C 175.579 512.087,175.340 511.750,175.220 511.750 C 175.099 511.750,175.000 511.575,175.000 511.362 C 175.000 511.148,174.719 510.560,174.375 510.054 C 174.031 509.548,173.750 509.038,173.750 508.922 C 173.750 508.805,173.356 508.117,172.875 507.391 C 172.394 506.666,172.000 505.993,172.000 505.894 C 172.000 505.796,171.662 505.225,171.250 504.625 C 170.837 504.025,170.500 503.420,170.500 503.280 C 170.500 503.140,170.162 502.525,169.750 501.914 C 169.338 501.303,169.000 500.717,169.000 500.612 C 169.000 500.508,168.737 500.074,168.416 499.649 C 168.095 499.223,167.323 497.919,166.699 496.750 C 165.086 493.725,164.650 493.003,164.438 493.002 C 164.334 493.001,164.250 492.837,164.250 492.638 C 164.250 492.438,163.931 491.791,163.542 491.200 C 163.153 490.609,162.689 489.759,162.512 489.313 C 162.334 488.866,162.104 488.500,162.000 488.500 C 161.896 488.500,161.664 488.134,161.485 487.688 C 161.306 487.241,160.843 486.405,160.455 485.830 C 160.067 485.255,159.750 484.660,159.750 484.507 C 159.750 484.198,158.731 482.672,158.438 482.542 C 158.334 482.496,158.250 482.291,158.250 482.087 C 158.250 481.882,157.931 481.245,157.542 480.670 C 157.153 480.095,156.349 478.725,155.756 477.625 C 155.162 476.525,154.412 475.267,154.088 474.829 C 153.765 474.391,153.500 473.894,153.500 473.724 C 153.500 473.554,153.344 473.237,153.153 473.020 C 152.963 472.803,152.473 472.006,152.065 471.250 C 151.657 470.494,150.920 469.200,150.429 468.375 C 149.937 467.550,149.177 466.200,148.740 465.375 C 148.304 464.550,147.868 463.819,147.772 463.750 C 147.676 463.681,147.336 463.119,147.016 462.500 C 145.932 460.402,145.376 459.377,144.982 458.750 C 143.878 456.994,142.857 455.258,142.333 454.250 C 142.011 453.631,141.609 452.900,141.440 452.625 C 139.848 450.047,139.091 448.720,137.984 446.563 C 137.542 445.703,137.092 445.000,136.983 445.000 C 136.873 445.000,136.706 444.747,136.610 444.438 C 136.515 444.128,136.114 443.391,135.719 442.800 C 135.323 442.209,135.000 441.568,135.000 441.377 C 135.000 441.186,134.885 440.958,134.744 440.872 C 134.604 440.785,134.152 440.075,133.740 439.294 C 133.328 438.514,132.491 437.031,131.880 436.000 C 131.269 434.969,130.644 433.844,130.492 433.500 C 130.340 433.157,130.068 432.707,129.888 432.500 C 129.708 432.294,129.169 431.394,128.690 430.500 C 127.287 427.885,126.719 426.915,126.220 426.280 C 125.961 425.951,125.750 425.573,125.750 425.440 C 125.750 425.307,125.412 424.697,125.000 424.086 C 124.587 423.475,124.250 422.866,124.250 422.732 C 124.250 422.438,122.951 420.409,122.688 420.292 C 122.584 420.246,122.500 419.999,122.500 419.744 C 122.500 419.488,122.385 419.208,122.244 419.122 C 122.104 419.035,121.649 418.325,121.233 417.544 C 120.818 416.764,120.079 415.450,119.590 414.625 C 118.752 413.209,117.988 411.850,116.566 409.250 C 116.227 408.631,115.808 407.956,115.635 407.750 C 115.461 407.544,114.788 406.363,114.138 405.125 C 113.488 403.887,112.685 402.517,112.353 402.079 C 112.021 401.641,111.750 401.144,111.750 400.974 C 111.750 400.804,111.590 400.487,111.395 400.270 C 111.199 400.053,110.743 399.313,110.380 398.625 C 110.017 397.938,109.275 396.644,108.732 395.750 C 108.189 394.856,107.609 393.844,107.444 393.500 C 107.278 393.156,106.863 392.425,106.520 391.875 C 106.178 391.325,105.714 390.538,105.490 390.125 C 105.265 389.712,104.658 388.644,104.141 387.750 C 103.624 386.856,102.858 385.506,102.438 384.750 C 102.019 383.994,101.599 383.319,101.506 383.250 C 101.412 383.181,101.165 382.788,100.957 382.375 C 100.122 380.720,98.916 378.540,97.985 377.000 C 97.444 376.106,96.636 374.718,96.189 373.915 C 95.023 371.822,94.690 371.256,93.928 370.067 C 93.555 369.486,93.250 368.940,93.250 368.855 C 93.250 368.694,91.730 366.085,91.004 365.000 C 90.774 364.656,90.147 363.531,89.610 362.500 C 89.074 361.469,88.310 360.140,87.914 359.547 C 87.518 358.954,86.799 357.716,86.317 356.797 C 85.836 355.877,85.003 354.422,84.467 353.563 C 83.931 352.704,83.148 351.354,82.725 350.563 C 82.303 349.772,81.524 348.394,80.994 347.500 C 80.463 346.606,79.685 345.256,79.263 344.500 C 78.493 343.119,78.371 342.911,77.319 341.192 C 77.005 340.678,76.426 339.666,76.033 338.942 C 74.709 336.505,74.192 335.630,73.720 335.030 C 73.461 334.701,73.250 334.323,73.250 334.190 C 73.250 334.057,72.913 333.447,72.500 332.836 C 72.088 332.225,71.750 331.624,71.750 331.500 C 71.750 331.376,71.388 330.738,70.945 330.082 C 70.191 328.966,69.763 328.223,68.806 326.375 C 68.593 325.962,68.099 325.155,67.709 324.580 C 67.319 324.005,67.000 323.431,67.000 323.305 C 67.000 323.178,66.662 322.609,66.250 322.040 C 65.837 321.470,65.500 320.898,65.500 320.769 C 65.500 320.518,64.354 318.531,63.254 316.875 C 62.889 316.325,62.351 315.405,62.058 314.831 C 61.267 313.276,60.360 311.698,59.064 309.623 C 58.893 309.349,58.331 308.355,57.814 307.414 C 56.243 304.553,56.078 304.267,55.392 303.231 C 55.028 302.681,54.624 301.982,54.494 301.678 C 54.363 301.374,53.890 300.485,53.441 299.703 C 51.244 295.874,46.260 286.700,45.725 285.500 C 45.252 284.440,45.004 283.941,43.451 280.938 C 43.149 280.353,42.767 279.594,42.603 279.250 C 42.439 278.906,41.955 277.914,41.528 277.045 C 41.100 276.177,40.750 275.351,40.750 275.212 C 40.750 275.072,40.427 274.264,40.032 273.416 C 38.605 270.354,37.535 267.839,36.876 266.000 C 36.507 264.969,35.882 263.281,35.488 262.250 C 34.510 259.688,33.249 255.851,33.254 255.452 C 33.257 255.272,32.869 253.887,32.394 252.375 C 31.307 248.921,30.311 245.137,30.114 243.716 C 30.031 243.116,29.645 241.106,29.256 239.250 C 28.866 237.394,28.416 235.031,28.256 234.000 C 28.095 232.969,27.745 230.775,27.477 229.125 C 25.484 216.834,25.575 189.244,27.650 176.768 C 27.980 174.784,28.250 172.879,28.250 172.535 C 28.250 172.191,28.632 170.214,29.098 168.142 C 29.565 166.070,30.056 163.756,30.191 163.000 C 30.641 160.470,31.188 158.427,33.767 149.625 C 34.210 148.113,34.950 145.936,35.411 144.788 C 35.873 143.639,36.250 142.546,36.250 142.357 C 36.250 142.169,36.531 141.378,36.875 140.601 C 37.219 139.824,37.500 139.034,37.500 138.845 C 37.500 138.656,37.894 137.650,38.375 136.608 C 38.856 135.566,39.250 134.629,39.250 134.526 C 39.250 134.423,39.588 133.642,40.000 132.790 C 40.413 131.939,40.750 131.128,40.750 130.988 C 40.750 130.711,40.973 130.246,44.227 123.750 C 47.582 117.053,48.938 114.504,49.623 113.605 C 49.968 113.153,50.250 112.673,50.250 112.539 C 50.250 112.404,50.616 111.729,51.063 111.039 C 51.509 110.349,52.069 109.468,52.305 109.080 C 53.756 106.704,55.120 104.624,55.709 103.889 C 56.034 103.484,56.399 102.922,56.521 102.639 C 56.644 102.356,57.251 101.450,57.872 100.625 C 58.492 99.800,59.189 98.759,59.421 98.313 C 59.653 97.866,59.912 97.500,59.996 97.500 C 60.080 97.500,60.762 96.641,61.512 95.591 C 62.262 94.541,63.100 93.448,63.375 93.163 C 63.650 92.877,64.044 92.397,64.250 92.095 C 65.186 90.725,69.795 85.286,70.128 85.158 C 70.333 85.080,70.500 84.878,70.500 84.711 C 70.500 84.543,70.894 84.005,71.375 83.515 C 75.513 79.307,76.750 77.989,76.750 77.789 C 76.750 77.662,77.003 77.390,77.313 77.185 C 77.622 76.981,78.899 75.815,80.150 74.594 C 81.402 73.374,83.191 71.700,84.127 70.875 C 85.664 69.520,86.676 68.618,87.750 67.647 C 87.956 67.460,88.912 66.678,89.875 65.907 C 90.838 65.137,91.927 64.224,92.297 63.878 C 92.666 63.533,93.081 63.250,93.220 63.250 C 93.358 63.250,93.619 63.044,93.798 62.793 C 93.978 62.541,94.463 62.120,94.875 61.857 C 95.923 61.190,98.533 59.213,99.061 58.688 C 99.302 58.447,99.649 58.250,99.831 58.250 C 100.014 58.250,100.427 57.969,100.750 57.625 C 101.073 57.281,101.447 57.000,101.580 57.000 C 101.714 57.000,102.304 56.606,102.891 56.125 C 103.479 55.644,104.073 55.250,104.212 55.250 C 104.351 55.250,104.630 55.084,104.833 54.881 C 105.192 54.522,107.640 52.977,108.964 52.274 C 109.328 52.081,109.681 51.843,109.750 51.745 C 109.819 51.647,110.381 51.314,111.000 51.005 C 111.619 50.696,112.463 50.194,112.875 49.890 C 113.287 49.585,113.963 49.166,114.375 48.959 C 114.787 48.751,115.800 48.214,116.625 47.766 C 117.450 47.317,118.575 46.722,119.125 46.444 C 119.675 46.165,120.350 45.820,120.625 45.677 C 123.456 44.206,129.648 41.250,129.898 41.250 C 129.996 41.250,130.791 40.912,131.664 40.500 C 132.537 40.087,133.377 39.750,133.530 39.750 C 133.682 39.750,134.648 39.356,135.676 38.875 C 136.704 38.394,137.666 38.000,137.814 38.000 C 137.961 38.000,138.936 37.677,139.979 37.281 C 141.022 36.886,142.438 36.392,143.125 36.184 C 143.813 35.975,144.881 35.629,145.500 35.415 C 148.561 34.353,156.932 32.030,158.750 31.736 C 159.369 31.636,161.225 31.267,162.875 30.916 C 164.525 30.565,168.294 29.932,171.250 29.509 C 179.115 28.383,188.050 26.953,188.625 26.728 C 189.382 26.431,210.770 26.460,213.237 26.761 M190.250 125.616 C 190.044 125.664,188.075 125.895,185.875 126.129 C 183.675 126.363,180.637 126.773,179.125 127.040 C 177.613 127.306,175.644 127.637,174.750 127.774 C 172.462 128.126,166.876 129.387,163.625 130.286 C 162.113 130.704,160.425 131.129,159.875 131.231 C 158.561 131.474,155.698 132.347,152.750 133.404 C 151.444 133.872,150.248 134.254,150.093 134.253 C 149.938 134.251,148.926 134.593,147.843 135.013 C 146.761 135.432,144.975 136.120,143.875 136.541 C 142.775 136.963,141.256 137.589,140.500 137.934 C 139.744 138.278,138.710 138.708,138.204 138.888 C 137.697 139.069,136.853 139.443,136.329 139.721 C 135.804 139.999,133.688 141.041,131.625 142.037 C 129.563 143.033,127.706 143.980,127.500 144.141 C 127.294 144.302,126.160 144.934,124.980 145.545 C 123.800 146.157,122.304 147.016,121.655 147.454 C 121.006 147.892,120.402 148.250,120.313 148.250 C 120.225 148.250,119.752 148.512,119.263 148.832 C 118.775 149.153,117.644 149.882,116.750 150.454 C 115.856 151.025,114.353 152.029,113.409 152.684 C 112.465 153.339,111.514 153.988,111.296 154.125 C 111.077 154.262,110.367 154.769,109.716 155.250 C 109.065 155.731,108.120 156.406,107.616 156.750 C 107.111 157.094,106.293 157.741,105.797 158.188 C 105.301 158.634,104.756 159.000,104.585 159.000 C 104.415 159.000,104.185 159.141,104.075 159.313 C 103.965 159.484,102.975 160.350,101.875 161.236 C 99.264 163.339,99.099 163.480,98.147 164.438 C 97.703 164.884,97.252 165.250,97.145 165.250 C 97.038 165.250,96.641 165.559,96.262 165.938 C 95.884 166.316,94.833 167.300,93.926 168.125 C 92.617 169.317,84.969 176.917,81.746 180.229 C 80.573 181.435,78.000 184.417,78.000 184.572 C 78.000 184.656,77.661 185.227,77.246 185.841 C 74.966 189.221,75.087 195.748,77.523 200.679 C 78.560 202.779,82.203 207.000,82.978 207.000 C 83.115 207.000,83.628 207.272,84.118 207.604 C 86.282 209.073,91.336 210.120,94.284 209.712 C 96.794 209.364,101.000 207.786,101.000 207.193 C 101.000 207.087,101.162 207.000,101.360 207.000 C 101.557 207.000,102.089 206.662,102.540 206.250 C 102.992 205.838,103.427 205.500,103.508 205.500 C 103.589 205.500,104.604 204.526,105.765 203.335 C 109.220 199.790,114.053 194.971,115.641 193.490 C 118.767 190.571,123.197 186.750,123.453 186.750 C 123.601 186.750,123.889 186.511,124.093 186.220 C 124.297 185.928,124.741 185.506,125.078 185.282 C 126.260 184.499,128.626 182.655,128.708 182.453 C 128.754 182.341,128.912 182.250,129.059 182.250 C 129.206 182.250,129.787 181.909,130.351 181.492 C 130.914 181.075,131.903 180.344,132.548 179.867 C 133.192 179.390,133.793 179.000,133.882 179.000 C 133.971 179.000,134.512 178.684,135.084 178.298 C 137.927 176.379,138.534 176.000,138.760 176.000 C 138.895 176.000,139.565 175.606,140.250 175.125 C 140.935 174.644,141.658 174.250,141.858 174.250 C 142.057 174.250,142.286 174.144,142.365 174.015 C 142.580 173.668,153.714 168.250,154.213 168.250 C 154.319 168.250,154.874 168.024,155.446 167.748 C 156.018 167.471,157.529 166.898,158.805 166.474 C 160.081 166.050,161.232 165.601,161.363 165.477 C 161.493 165.352,161.774 165.252,161.988 165.254 C 162.201 165.257,163.613 164.868,165.125 164.391 C 172.109 162.187,180.496 160.486,189.875 159.372 C 194.662 158.803,211.087 158.872,215.625 159.479 C 217.550 159.737,220.137 160.081,221.375 160.244 C 224.188 160.614,229.787 161.798,233.293 162.764 C 234.761 163.169,236.139 163.500,236.356 163.500 C 236.573 163.500,237.735 163.846,238.938 164.269 C 240.141 164.692,241.631 165.189,242.250 165.373 C 244.221 165.958,247.739 167.233,248.809 167.750 C 249.378 168.025,249.976 168.250,250.137 168.250 C 250.298 168.250,251.092 168.586,251.902 168.997 C 252.712 169.408,253.459 169.745,253.561 169.747 C 253.877 169.752,261.484 173.521,261.618 173.739 C 261.688 173.852,262.040 174.019,262.400 174.109 C 262.760 174.199,263.631 174.662,264.336 175.137 C 265.041 175.611,265.709 176.000,265.819 176.000 C 265.930 176.000,266.325 176.210,266.698 176.467 C 268.179 177.489,270.396 178.917,270.750 179.077 C 271.103 179.237,273.305 180.737,273.895 181.219 C 274.043 181.340,274.605 181.722,275.145 182.068 C 275.684 182.413,276.373 182.933,276.677 183.223 C 276.981 183.513,277.303 183.750,277.393 183.750 C 277.562 183.750,278.562 184.533,280.186 185.936 C 280.703 186.383,281.204 186.748,281.301 186.749 C 281.398 186.749,281.744 187.003,282.070 187.313 C 282.396 187.622,283.261 188.381,283.992 189.000 C 286.740 191.324,287.724 192.252,292.679 197.188 C 295.474 199.972,297.854 202.250,297.967 202.250 C 298.080 202.250,298.379 202.478,298.632 202.758 C 301.891 206.359,311.719 207.319,316.495 204.503 C 317.197 204.089,317.837 203.750,317.915 203.750 C 318.260 203.750,321.750 200.599,321.750 200.288 C 321.750 200.192,322.075 199.719,322.473 199.237 C 326.281 194.617,326.375 184.770,322.654 180.289 C 320.611 177.831,311.437 168.648,309.145 166.769 C 308.881 166.552,308.431 166.144,308.145 165.862 C 305.992 163.740,299.282 158.244,296.250 156.120 C 295.769 155.783,294.700 155.009,293.875 154.401 C 293.050 153.792,291.531 152.760,290.500 152.107 C 289.469 151.454,288.400 150.730,288.125 150.498 C 287.850 150.265,286.584 149.468,285.311 148.725 C 284.038 147.983,282.294 146.961,281.436 146.456 C 279.465 145.295,278.223 144.629,275.250 143.139 C 273.944 142.484,272.594 141.802,272.250 141.623 C 269.925 140.412,266.326 138.750,266.029 138.750 C 265.881 138.750,265.054 138.421,264.192 138.020 C 262.193 137.089,259.452 136.001,256.750 135.067 C 255.581 134.663,254.063 134.132,253.375 133.888 C 250.362 132.817,245.208 131.248,244.735 131.257 C 244.537 131.261,242.912 130.874,241.125 130.397 C 237.362 129.394,231.262 128.149,228.375 127.795 C 227.275 127.660,224.688 127.320,222.625 127.039 C 215.069 126.011,192.754 125.030,190.250 125.616 M194.625 186.528 C 193.113 186.652,190.525 186.987,188.875 187.274 C 187.225 187.561,185.144 187.911,184.250 188.053 C 182.501 188.329,177.315 189.698,174.875 190.527 C 174.050 190.807,172.782 191.196,172.058 191.391 C 171.334 191.586,170.185 192.028,169.504 192.373 C 168.823 192.718,168.096 193.000,167.887 193.000 C 167.679 193.000,166.691 193.386,165.692 193.858 C 160.256 196.427,159.404 196.846,157.125 198.066 C 156.713 198.286,155.813 198.764,155.125 199.127 C 154.438 199.490,153.643 200.004,153.359 200.269 C 153.075 200.533,152.769 200.750,152.679 200.750 C 152.401 200.750,149.108 202.944,148.764 203.358 C 148.585 203.574,148.342 203.750,148.223 203.750 C 147.946 203.750,144.402 206.476,144.292 206.774 C 144.246 206.898,144.096 207.000,143.959 207.000 C 143.749 207.000,141.423 208.951,137.814 212.155 C 135.211 214.465,124.829 225.180,124.131 226.277 C 123.990 226.498,123.589 227.116,123.240 227.652 C 120.347 232.082,119.719 239.255,121.852 243.502 C 122.209 244.211,122.500 244.886,122.500 245.001 C 122.500 245.957,127.338 251.733,128.149 251.746 C 128.299 251.748,128.612 251.960,128.844 252.216 C 130.447 253.987,135.549 255.382,139.625 255.163 C 144.602 254.896,146.901 253.899,151.500 250.009 C 153.937 247.949,154.376 247.539,156.329 245.509 C 160.732 240.934,163.745 238.086,165.923 236.442 C 166.653 235.891,167.250 235.355,167.250 235.250 C 167.250 235.146,167.576 234.925,167.975 234.760 C 168.374 234.595,168.956 234.188,169.269 233.855 C 169.581 233.522,169.942 233.250,170.070 233.250 C 170.198 233.250,170.729 232.912,171.250 232.500 C 171.771 232.088,172.267 231.750,172.352 231.750 C 172.438 231.750,173.097 231.381,173.816 230.930 C 176.010 229.555,176.405 229.347,179.875 227.752 C 187.213 224.379,196.614 222.581,205.742 222.806 C 214.136 223.013,220.761 224.660,228.875 228.558 C 230.371 229.277,232.642 230.563,233.375 231.106 C 233.787 231.412,234.333 231.739,234.588 231.833 C 234.842 231.927,235.348 232.234,235.713 232.515 C 236.077 232.796,237.108 233.555,238.005 234.201 C 238.901 234.847,239.878 235.600,240.175 235.875 C 240.472 236.150,241.075 236.656,241.514 237.000 C 242.344 237.648,244.066 239.205,247.739 242.625 C 248.920 243.725,250.615 245.276,251.506 246.073 C 252.396 246.869,253.427 247.797,253.797 248.135 C 254.166 248.473,254.570 248.750,254.695 248.750 C 254.820 248.750,255.111 248.958,255.342 249.213 C 258.002 252.152,266.732 253.050,271.623 250.886 C 272.415 250.536,273.144 250.250,273.244 250.250 C 273.581 250.250,276.855 248.000,277.066 247.623 C 277.181 247.418,277.430 247.250,277.619 247.250 C 277.809 247.250,278.194 246.941,278.476 246.563 C 278.758 246.184,279.139 245.706,279.321 245.500 C 283.970 240.256,284.502 229.596,280.381 224.265 C 279.250 222.800,268.903 212.519,265.774 209.750 C 264.764 208.856,263.305 207.536,262.532 206.816 C 261.758 206.096,261.041 205.505,260.938 205.504 C 260.834 205.502,260.552 205.303,260.311 205.063 C 259.682 204.436,256.779 202.252,256.560 202.240 C 256.458 202.234,255.985 201.897,255.509 201.490 C 255.033 201.083,254.541 200.750,254.414 200.750 C 254.288 200.750,253.637 200.356,252.967 199.875 C 252.297 199.394,251.697 199.000,251.633 199.000 C 251.570 199.000,250.417 198.400,249.071 197.666 C 247.726 196.932,245.669 195.912,244.500 195.399 C 243.331 194.886,241.674 194.136,240.818 193.733 C 239.961 193.330,239.178 193.000,239.077 193.000 C 238.976 193.000,237.933 192.623,236.759 192.162 C 224.940 187.520,208.855 185.369,194.625 186.528 M196.875 255.608 C 192.387 256.465,189.074 257.566,186.955 258.903 C 186.435 259.231,185.923 259.501,185.817 259.502 C 185.712 259.504,185.119 259.898,184.500 260.379 C 183.881 260.859,183.037 261.505,182.625 261.814 C 181.730 262.484,178.250 265.982,178.249 266.213 C 178.249 266.302,177.912 266.769,177.500 267.250 C 177.088 267.731,176.751 268.217,176.751 268.330 C 176.750 268.443,176.424 269.009,176.025 269.589 C 174.827 271.330,173.335 275.358,172.445 279.250 C 171.491 283.426,172.486 291.839,174.409 295.859 C 174.734 296.538,175.000 297.215,175.000 297.363 C 175.000 297.511,175.394 298.216,175.875 298.931 C 176.356 299.646,176.750 300.290,176.750 300.363 C 176.750 301.454,184.533 309.000,185.659 309.000 C 185.847 309.000,186.001 309.084,186.002 309.188 C 186.005 309.642,190.101 311.523,192.500 312.172 C 200.072 314.219,206.047 313.895,212.875 311.070 C 214.642 310.339,218.500 308.062,218.500 307.750 C 218.500 307.631,218.720 307.464,218.988 307.379 C 219.503 307.215,224.250 302.576,224.250 302.236 C 224.250 302.127,224.540 301.694,224.893 301.274 C 227.710 297.926,229.912 291.345,230.171 285.500 C 230.294 282.732,230.217 281.997,229.255 276.743 C 228.813 274.328,225.611 267.702,224.688 267.292 C 224.584 267.246,224.499 267.077,224.498 266.917 C 224.494 266.510,220.921 262.808,219.201 261.429 C 213.300 256.699,203.940 254.258,196.875 255.608 " stroke="none" fill="#040404" fill-rule="evenodd"></path><path id="path1" d="M188.625 26.728 C 188.050 26.953,179.115 28.383,171.250 29.509 C 168.294 29.932,164.525 30.565,162.875 30.916 C 161.225 31.267,159.369 31.636,158.750 31.736 C 156.932 32.030,148.561 34.353,145.500 35.415 C 144.881 35.629,143.813 35.975,143.125 36.184 C 142.438 36.392,141.022 36.886,139.979 37.281 C 138.936 37.677,137.961 38.000,137.814 38.000 C 137.666 38.000,136.704 38.394,135.676 38.875 C 134.648 39.356,133.682 39.750,133.530 39.750 C 133.377 39.750,132.537 40.087,131.664 40.500 C 130.791 40.912,129.996 41.250,129.898 41.250 C 129.648 41.250,123.456 44.206,120.625 45.677 C 120.350 45.820,119.675 46.165,119.125 46.444 C 118.575 46.722,117.450 47.317,116.625 47.766 C 115.800 48.214,114.787 48.751,114.375 48.959 C 113.963 49.166,113.287 49.585,112.875 49.890 C 112.463 50.194,111.619 50.696,111.000 51.005 C 110.381 51.314,109.819 51.647,109.750 51.745 C 109.681 51.843,109.328 52.081,108.964 52.274 C 107.640 52.977,105.192 54.522,104.833 54.881 C 104.630 55.084,104.351 55.250,104.212 55.250 C 104.073 55.250,103.479 55.644,102.891 56.125 C 102.304 56.606,101.714 57.000,101.580 57.000 C 101.447 57.000,101.073 57.281,100.750 57.625 C 100.427 57.969,100.014 58.250,99.831 58.250 C 99.649 58.250,99.302 58.447,99.061 58.688 C 98.533 59.213,95.923 61.190,94.875 61.857 C 94.463 62.120,93.978 62.541,93.798 62.793 C 93.619 63.044,93.358 63.250,93.220 63.250 C 93.081 63.250,92.666 63.533,92.297 63.878 C 91.927 64.224,90.838 65.137,89.875 65.907 C 88.912 66.678,87.956 67.460,87.750 67.647 C 86.676 68.618,85.664 69.520,84.127 70.875 C 83.191 71.700,81.402 73.374,80.150 74.594 C 78.899 75.815,77.622 76.981,77.313 77.185 C 77.003 77.390,76.750 77.662,76.750 77.789 C 76.750 77.989,75.513 79.307,71.375 83.515 C 70.894 84.005,70.500 84.543,70.500 84.711 C 70.500 84.878,70.333 85.080,70.128 85.158 C 69.795 85.286,65.186 90.725,64.250 92.095 C 64.044 92.397,63.650 92.877,63.375 93.163 C 63.100 93.448,62.262 94.541,61.512 95.591 C 60.762 96.641,60.080 97.500,59.996 97.500 C 59.912 97.500,59.653 97.866,59.421 98.313 C 59.189 98.759,58.492 99.800,57.872 100.625 C 57.251 101.450,56.644 102.356,56.521 102.639 C 56.399 102.922,56.034 103.484,55.709 103.889 C 55.120 104.624,53.756 106.704,52.305 109.080 C 52.069 109.468,51.509 110.349,51.063 111.039 C 50.616 111.729,50.250 112.404,50.250 112.539 C 50.250 112.673,49.968 113.153,49.623 113.605 C 48.938 114.504,47.582 117.053,44.227 123.750 C 40.973 130.246,40.750 130.711,40.750 130.988 C 40.750 131.128,40.413 131.939,40.000 132.790 C 39.588 133.642,39.250 134.423,39.250 134.526 C 39.250 134.629,38.856 135.566,38.375 136.608 C 37.894 137.650,37.500 138.656,37.500 138.845 C 37.500 139.034,37.219 139.824,36.875 140.601 C 36.531 141.378,36.250 142.169,36.250 142.357 C 36.250 142.546,35.873 143.639,35.411 144.788 C 34.950 145.936,34.210 148.113,33.767 149.625 C 31.188 158.427,30.641 160.470,30.191 163.000 C 30.056 163.756,29.565 166.070,29.098 168.142 C 28.632 170.214,28.250 172.191,28.250 172.535 C 28.250 172.879,27.980 174.784,27.650 176.768 C 25.575 189.244,25.484 216.834,27.477 229.125 C 27.745 230.775,28.095 232.969,28.256 234.000 C 28.416 235.031,28.866 237.394,29.256 239.250 C 29.645 241.106,30.031 243.116,30.114 243.716 C 30.311 245.137,31.307 248.921,32.394 252.375 C 32.869 253.887,33.257 255.272,33.254 255.452 C 33.249 255.851,34.510 259.688,35.488 262.250 C 35.882 263.281,36.507 264.969,36.876 266.000 C 37.535 267.839,38.605 270.354,40.032 273.416 C 40.427 274.264,40.750 275.072,40.750 275.212 C 40.750 275.351,41.100 276.177,41.528 277.045 C 41.955 277.914,42.439 278.906,42.603 279.250 C 42.767 279.594,43.149 280.353,43.451 280.938 C 45.004 283.941,45.252 284.440,45.725 285.500 C 46.260 286.700,51.244 295.874,53.441 299.703 C 53.890 300.485,54.363 301.374,54.494 301.678 C 54.624 301.982,55.028 302.681,55.392 303.231 C 56.078 304.267,56.243 304.553,57.814 307.414 C 58.331 308.355,58.893 309.349,59.064 309.623 C 60.360 311.698,61.267 313.276,62.058 314.831 C 62.351 315.405,62.889 316.325,63.254 316.875 C 64.354 318.531,65.500 320.518,65.500 320.769 C 65.500 320.898,65.837 321.470,66.250 322.040 C 66.662 322.609,67.000 323.178,67.000 323.305 C 67.000 323.431,67.319 324.005,67.709 324.580 C 68.099 325.155,68.593 325.962,68.806 326.375 C 69.763 328.223,70.191 328.966,70.945 330.082 C 71.388 330.738,71.750 331.376,71.750 331.500 C 71.750 331.624,72.088 332.225,72.500 332.836 C 72.913 333.447,73.250 334.057,73.250 334.190 C 73.250 334.323,73.461 334.701,73.720 335.030 C 74.192 335.630,74.709 336.505,76.033 338.942 C 76.426 339.666,77.005 340.678,77.319 341.192 C 78.371 342.911,78.493 343.119,79.263 344.500 C 79.685 345.256,80.463 346.606,80.994 347.500 C 81.524 348.394,82.303 349.772,82.725 350.563 C 83.148 351.354,83.931 352.704,84.467 353.563 C 85.003 354.422,85.836 355.877,86.317 356.797 C 86.799 357.716,87.518 358.954,87.914 359.547 C 88.310 360.140,89.074 361.469,89.610 362.500 C 90.147 363.531,90.774 364.656,91.004 365.000 C 91.730 366.085,93.250 368.694,93.250 368.855 C 93.250 368.940,93.555 369.486,93.928 370.067 C 94.690 371.256,95.023 371.822,96.189 373.915 C 96.636 374.718,97.444 376.106,97.985 377.000 C 98.916 378.540,100.122 380.720,100.957 382.375 C 101.165 382.788,101.412 383.181,101.506 383.250 C 101.599 383.319,102.019 383.994,102.438 384.750 C 102.858 385.506,103.624 386.856,104.141 387.750 C 104.658 388.644,105.265 389.712,105.490 390.125 C 105.714 390.538,106.178 391.325,106.520 391.875 C 106.863 392.425,107.278 393.156,107.444 393.500 C 107.609 393.844,108.189 394.856,108.732 395.750 C 109.275 396.644,110.017 397.938,110.380 398.625 C 110.743 399.313,111.199 400.053,111.395 400.270 C 111.590 400.487,111.750 400.804,111.750 400.974 C 111.750 401.144,112.021 401.641,112.353 402.079 C 112.685 402.517,113.488 403.887,114.138 405.125 C 114.788 406.363,115.461 407.544,115.635 407.750 C 115.808 407.956,116.227 408.631,116.566 409.250 C 117.988 411.850,118.752 413.209,119.590 414.625 C 120.079 415.450,120.818 416.764,121.233 417.544 C 121.649 418.325,122.104 419.035,122.244 419.122 C 122.385 419.208,122.500 419.488,122.500 419.744 C 122.500 419.999,122.584 420.246,122.688 420.292 C 122.951 420.409,124.250 422.438,124.250 422.732 C 124.250 422.866,124.587 423.475,125.000 424.086 C 125.412 424.697,125.750 425.307,125.750 425.440 C 125.750 425.573,125.961 425.951,126.220 426.280 C 126.719 426.915,127.287 427.885,128.690 430.500 C 129.169 431.394,129.708 432.294,129.888 432.500 C 130.068 432.707,130.340 433.157,130.492 433.500 C 130.644 433.844,131.269 434.969,131.880 436.000 C 132.491 437.031,133.328 438.514,133.740 439.294 C 134.152 440.075,134.604 440.785,134.744 440.872 C 134.885 440.958,135.000 441.186,135.000 441.377 C 135.000 441.568,135.323 442.209,135.719 442.800 C 136.114 443.391,136.515 444.128,136.610 444.438 C 136.706 444.747,136.873 445.000,136.983 445.000 C 137.092 445.000,137.542 445.703,137.984 446.563 C 139.091 448.720,139.848 450.047,141.440 452.625 C 141.609 452.900,142.011 453.631,142.333 454.250 C 142.857 455.258,143.878 456.994,144.982 458.750 C 145.376 459.377,145.932 460.402,147.016 462.500 C 147.336 463.119,147.676 463.681,147.772 463.750 C 147.868 463.819,148.304 464.550,148.740 465.375 C 149.177 466.200,149.937 467.550,150.429 468.375 C 150.920 469.200,151.657 470.494,152.065 471.250 C 152.473 472.006,152.963 472.803,153.153 473.020 C 153.344 473.237,153.500 473.554,153.500 473.724 C 153.500 473.894,153.765 474.391,154.088 474.829 C 154.412 475.267,155.162 476.525,155.756 477.625 C 156.349 478.725,157.153 480.095,157.542 480.670 C 157.931 481.245,158.250 481.882,158.250 482.087 C 158.250 482.291,158.334 482.496,158.438 482.542 C 158.731 482.672,159.750 484.198,159.750 484.507 C 159.750 484.660,160.067 485.255,160.455 485.830 C 160.843 486.405,161.306 487.241,161.485 487.688 C 161.664 488.134,161.896 488.500,162.000 488.500 C 162.104 488.500,162.334 488.866,162.512 489.313 C 162.689 489.759,163.153 490.609,163.542 491.200 C 163.931 491.791,164.250 492.438,164.250 492.638 C 164.250 492.837,164.334 493.001,164.438 493.002 C 164.650 493.003,165.086 493.725,166.699 496.750 C 167.323 497.919,168.095 499.223,168.416 499.649 C 168.737 500.074,169.000 500.508,169.000 500.612 C 169.000 500.717,169.338 501.303,169.750 501.914 C 170.162 502.525,170.500 503.140,170.500 503.280 C 170.500 503.420,170.837 504.025,171.250 504.625 C 171.662 505.225,172.000 505.796,172.000 505.894 C 172.000 505.993,172.394 506.666,172.875 507.391 C 173.356 508.117,173.750 508.805,173.750 508.922 C 173.750 509.038,174.031 509.548,174.375 510.054 C 174.719 510.560,175.000 511.148,175.000 511.362 C 175.000 511.575,175.099 511.750,175.220 511.750 C 175.340 511.750,175.579 512.087,175.750 512.500 C 175.921 512.913,176.142 513.250,176.242 513.250 C 176.342 513.250,176.605 513.672,176.826 514.188 C 177.293 515.280,178.369 517.250,178.719 517.657 C 178.853 517.811,179.323 518.599,179.764 519.407 C 180.206 520.214,180.904 521.494,181.317 522.250 C 181.730 523.006,182.277 523.893,182.534 524.221 C 182.790 524.549,183.000 524.934,183.000 525.077 C 183.000 525.219,183.156 525.513,183.347 525.730 C 183.537 525.947,184.059 526.800,184.505 527.625 C 186.285 530.912,186.557 531.389,186.856 531.750 C 187.152 532.107,187.734 533.167,188.844 535.375 C 189.121 535.925,189.410 536.431,189.486 536.500 C 189.821 536.801,190.750 538.252,190.750 538.473 C 190.750 538.712,191.908 540.751,192.759 542.011 C 192.995 542.360,193.410 543.091,193.681 543.636 C 193.952 544.180,194.602 545.356,195.124 546.250 C 195.647 547.144,196.360 548.381,196.710 549.000 C 197.059 549.619,197.412 550.181,197.494 550.250 C 197.576 550.319,198.190 551.261,198.859 552.344 L 200.075 554.313 200.541 553.719 C 200.797 553.392,201.368 552.478,201.811 551.688 C 202.253 550.897,202.702 550.250,202.808 550.250 C 202.913 550.250,203.000 550.074,203.000 549.858 C 203.000 549.643,203.265 549.109,203.589 548.671 C 203.914 548.233,204.349 547.538,204.556 547.125 C 204.764 546.712,205.413 545.531,206.000 544.500 C 206.587 543.469,207.239 542.288,207.450 541.875 C 207.660 541.462,208.043 540.853,208.299 540.519 C 208.555 540.186,208.989 539.455,209.264 538.894 C 209.538 538.334,210.201 537.144,210.737 536.250 C 211.272 535.356,212.010 534.063,212.375 533.375 C 212.741 532.688,213.199 531.947,213.395 531.730 C 213.590 531.513,213.750 531.185,213.750 531.000 C 213.750 530.815,213.923 530.473,214.135 530.239 C 214.347 530.005,214.825 529.249,215.198 528.560 C 215.570 527.870,216.200 526.703,216.598 525.966 C 216.996 525.228,217.586 524.277,217.910 523.851 C 218.235 523.426,218.500 522.974,218.500 522.847 C 218.500 522.720,218.781 522.202,219.125 521.696 C 219.469 521.190,219.750 520.639,219.750 520.470 C 219.750 520.302,219.910 519.987,220.106 519.770 C 220.540 519.289,221.920 516.960,223.108 514.706 C 223.592 513.788,224.103 512.966,224.244 512.879 C 224.385 512.792,224.500 512.554,224.500 512.350 C 224.500 512.146,224.614 511.843,224.754 511.677 C 225.288 511.040,226.250 509.467,226.250 509.229 C 226.250 509.092,226.457 508.675,226.710 508.302 C 227.389 507.304,228.747 505.035,229.436 503.750 C 230.449 501.859,230.901 501.063,231.347 500.382 C 231.583 500.023,232.051 499.228,232.388 498.615 C 232.724 498.002,233.291 496.969,233.647 496.320 C 234.003 495.670,234.495 494.855,234.740 494.507 C 234.984 494.159,235.440 493.369,235.751 492.750 C 236.062 492.131,236.386 491.569,236.471 491.500 C 236.556 491.431,236.959 490.728,237.366 489.937 C 237.774 489.147,238.196 488.500,238.304 488.500 C 238.412 488.500,238.500 488.297,238.500 488.049 C 238.500 487.800,238.787 487.210,239.138 486.736 C 239.490 486.262,239.997 485.425,240.266 484.875 C 240.535 484.325,241.165 483.200,241.665 482.375 C 242.572 480.878,243.288 479.621,244.437 477.507 C 244.771 476.892,245.243 476.105,245.486 475.757 C 245.729 475.409,246.404 474.225,246.987 473.125 C 247.570 472.025,248.318 470.767,248.649 470.329 C 248.979 469.891,249.250 469.412,249.250 469.264 C 249.250 469.116,249.644 468.435,250.125 467.750 C 250.606 467.065,251.000 466.396,251.000 466.264 C 251.000 466.131,251.253 465.635,251.563 465.161 C 252.176 464.221,253.234 462.389,254.315 460.397 C 254.694 459.697,255.247 458.731,255.544 458.250 C 256.260 457.089,257.971 454.065,258.444 453.125 C 258.651 452.712,259.086 452.017,259.411 451.579 C 259.735 451.141,260.000 450.662,260.000 450.515 C 260.000 450.367,260.338 449.780,260.750 449.210 C 261.163 448.641,261.500 448.063,261.500 447.926 C 261.500 447.789,261.894 447.084,262.375 446.359 C 262.856 445.633,263.250 444.941,263.250 444.819 C 263.250 444.697,263.537 444.210,263.888 443.736 C 264.240 443.262,264.751 442.425,265.026 441.875 C 265.587 440.750,266.127 439.785,266.915 438.500 C 267.209 438.019,267.668 437.231,267.934 436.750 C 268.201 436.269,268.791 435.200,269.247 434.375 C 269.702 433.550,270.152 432.819,270.247 432.750 C 270.341 432.681,270.850 431.781,271.376 430.750 C 271.903 429.719,272.709 428.293,273.167 427.583 C 273.625 426.872,274.000 426.217,274.000 426.128 C 274.000 426.038,274.312 425.495,274.694 424.920 C 275.076 424.345,275.590 423.481,275.837 423.000 C 276.453 421.796,277.020 420.789,277.893 419.350 C 278.302 418.676,278.756 417.900,278.903 417.625 C 279.736 416.064,280.612 414.548,280.996 414.000 C 281.237 413.656,281.883 412.531,282.432 411.500 C 283.891 408.761,284.352 408.003,284.563 408.002 C 284.666 408.001,284.750 407.782,284.750 407.515 C 284.750 407.248,284.865 406.958,285.006 406.871 C 285.147 406.784,285.658 405.962,286.141 405.044 C 286.624 404.126,287.467 402.644,288.013 401.750 C 288.559 400.856,289.141 399.844,289.306 399.500 C 289.472 399.156,289.887 398.425,290.230 397.875 C 290.572 397.325,291.036 396.538,291.260 396.125 C 291.485 395.712,292.097 394.644,292.621 393.750 C 293.144 392.856,293.741 391.788,293.947 391.375 C 294.153 390.962,294.567 390.288,294.868 389.875 C 295.168 389.462,295.586 388.788,295.796 388.375 C 296.006 387.962,296.494 387.006,296.879 386.250 C 297.263 385.494,297.659 384.819,297.758 384.750 C 297.971 384.603,299.310 382.252,299.895 381.000 C 300.120 380.519,300.630 379.641,301.027 379.050 C 301.425 378.459,301.750 377.914,301.750 377.839 C 301.750 377.764,301.961 377.404,302.218 377.039 C 302.475 376.674,303.019 375.756,303.427 375.000 C 304.799 372.453,305.573 371.128,306.038 370.529 C 306.292 370.201,306.500 369.823,306.500 369.690 C 306.500 369.557,306.837 368.947,307.250 368.336 C 307.662 367.725,308.000 367.099,308.000 366.945 C 308.000 366.790,308.164 366.483,308.364 366.262 C 308.565 366.040,309.071 365.244,309.488 364.492 C 312.233 359.555,312.378 359.300,313.268 357.875 C 313.612 357.325,314.028 356.594,314.194 356.250 C 314.359 355.906,314.941 354.894,315.487 354.000 C 316.033 353.106,316.879 351.644,317.367 350.750 C 318.239 349.152,318.476 348.748,319.277 347.501 C 319.644 346.930,320.211 345.921,321.948 342.750 C 322.287 342.131,322.707 341.456,322.880 341.250 C 323.054 341.044,323.666 339.975,324.240 338.875 C 324.815 337.775,325.780 336.087,326.386 335.125 C 326.992 334.163,327.825 332.736,328.238 331.956 C 328.651 331.175,329.104 330.465,329.244 330.378 C 329.385 330.292,329.500 330.064,329.500 329.873 C 329.500 329.682,329.850 329.006,330.278 328.372 C 330.707 327.737,331.453 326.466,331.938 325.547 C 332.423 324.627,333.015 323.594,333.255 323.250 C 333.714 322.593,334.427 321.360,335.410 319.526 C 335.734 318.922,336.097 318.303,336.216 318.151 C 336.440 317.866,337.286 316.387,338.589 314.000 C 339.002 313.244,339.600 312.277,339.920 311.851 C 340.239 311.426,340.500 310.992,340.500 310.888 C 340.500 310.783,340.837 310.197,341.250 309.586 C 341.662 308.975,342.000 308.374,342.000 308.250 C 342.000 308.126,342.337 307.525,342.750 306.914 C 343.163 306.303,343.500 305.724,343.500 305.627 C 343.500 305.531,343.712 305.154,343.971 304.789 C 344.439 304.128,345.082 303.029,346.113 301.125 C 346.410 300.575,346.979 299.619,347.376 299.000 C 347.773 298.381,348.541 297.031,349.081 296.000 C 349.622 294.969,350.206 293.956,350.378 293.750 C 350.551 293.544,350.945 292.869,351.255 292.250 C 351.565 291.631,352.028 290.857,352.284 290.529 C 352.540 290.201,352.750 289.784,352.750 289.602 C 352.750 289.421,353.087 288.700,353.500 288.000 C 353.913 287.300,354.250 286.616,354.250 286.479 C 354.250 286.342,354.644 285.646,355.125 284.931 C 355.606 284.216,356.000 283.486,356.000 283.308 C 356.000 283.129,356.281 282.428,356.625 281.750 C 356.969 281.072,357.250 280.398,357.250 280.253 C 357.250 280.109,357.523 279.557,357.857 279.028 C 358.398 278.172,358.977 276.842,360.483 273.000 C 360.726 272.381,361.148 271.369,361.421 270.750 C 361.982 269.478,362.338 268.535,363.070 266.375 C 363.349 265.550,363.898 264.062,364.289 263.068 C 364.680 262.074,365.000 261.101,365.000 260.906 C 365.000 260.710,365.394 259.531,365.875 258.285 C 366.356 257.038,366.750 255.805,366.750 255.544 C 366.750 255.283,367.037 254.182,367.388 253.097 C 367.739 252.013,368.124 250.619,368.244 250.000 C 368.363 249.381,368.699 248.031,368.991 247.000 C 369.283 245.969,369.612 244.563,369.722 243.875 C 369.831 243.188,370.213 241.162,370.570 239.375 C 374.864 217.878,375.130 187.356,371.195 167.500 C 370.909 166.056,370.565 164.200,370.432 163.375 C 370.184 161.845,370.010 161.084,369.000 157.125 C 367.924 152.906,365.628 145.512,363.992 141.000 C 362.632 137.247,362.114 135.932,361.479 134.615 C 361.078 133.785,360.750 132.989,360.750 132.847 C 360.750 132.705,360.413 131.892,360.000 131.040 C 359.587 130.189,359.250 129.433,359.250 129.361 C 359.250 129.154,355.340 121.299,354.341 119.500 C 353.845 118.606,353.117 117.267,352.723 116.524 C 352.329 115.780,351.837 114.984,351.628 114.754 C 351.420 114.524,351.250 114.215,351.250 114.068 C 351.250 113.921,350.884 113.233,350.438 112.540 C 348.832 110.050,348.250 109.056,348.250 108.801 C 348.250 108.658,348.166 108.504,348.063 108.458 C 347.853 108.365,346.634 106.764,346.476 106.375 C 346.421 106.237,345.813 105.299,345.125 104.290 C 344.438 103.280,343.706 102.197,343.500 101.883 C 343.294 101.569,342.921 101.045,342.673 100.718 C 342.049 99.901,339.236 96.088,338.625 95.233 C 337.599 93.797,331.531 86.505,330.275 85.199 C 329.917 84.828,329.231 84.074,328.750 83.524 C 326.836 81.337,316.418 71.000,316.128 71.000 C 316.056 71.000,315.305 70.325,314.459 69.500 C 313.614 68.675,312.767 68.000,312.578 68.000 C 312.389 68.000,312.169 67.830,312.089 67.622 C 311.977 67.330,309.185 64.989,307.125 63.461 C 306.988 63.359,306.411 62.876,305.845 62.388 C 305.278 61.899,304.697 61.500,304.553 61.500 C 304.409 61.500,304.254 61.409,304.208 61.298 C 304.163 61.187,303.450 60.597,302.625 59.987 C 301.800 59.377,301.069 58.821,301.000 58.751 C 300.622 58.369,298.506 57.000,298.292 57.000 C 298.155 57.000,298.004 56.916,297.958 56.813 C 297.840 56.546,296.074 55.250,295.829 55.250 C 295.717 55.250,295.290 54.962,294.881 54.610 C 294.472 54.258,293.784 53.802,293.352 53.598 C 292.921 53.393,292.332 53.006,292.044 52.738 C 291.756 52.469,291.438 52.250,291.336 52.250 C 291.235 52.250,290.752 51.988,290.263 51.669 C 289.123 50.923,286.905 49.587,285.625 48.875 C 282.807 47.308,281.533 46.621,280.386 46.048 C 279.692 45.702,278.705 45.156,278.192 44.834 C 277.680 44.513,277.130 44.250,276.970 44.250 C 276.811 44.250,276.162 43.931,275.528 43.542 C 274.894 43.152,274.056 42.754,273.667 42.657 C 273.277 42.560,272.520 42.203,271.984 41.865 C 271.448 41.527,270.878 41.250,270.717 41.250 C 270.555 41.250,269.709 40.913,268.836 40.500 C 267.963 40.087,267.142 39.750,267.013 39.750 C 266.883 39.750,265.955 39.374,264.951 38.914 C 263.123 38.077,262.673 37.902,259.875 36.945 C 259.050 36.663,257.531 36.126,256.500 35.752 C 251.080 33.785,239.581 30.806,234.375 30.020 C 233.412 29.875,231.162 29.523,229.375 29.237 C 219.385 27.644,215.152 26.995,213.237 26.761 C 210.770 26.460,189.382 26.431,188.625 26.728 M213.500 126.108 C 216.456 126.340,220.563 126.759,222.625 127.039 C 224.688 127.320,227.275 127.660,228.375 127.795 C 231.262 128.149,237.362 129.394,241.125 130.397 C 242.912 130.874,244.537 131.261,244.735 131.257 C 245.208 131.248,250.362 132.817,253.375 133.888 C 254.063 134.132,255.581 134.663,256.750 135.067 C 259.452 136.001,262.193 137.089,264.192 138.020 C 265.054 138.421,265.881 138.750,266.029 138.750 C 266.326 138.750,269.925 140.412,272.250 141.623 C 272.594 141.802,273.944 142.484,275.250 143.139 C 278.223 144.629,279.465 145.295,281.436 146.456 C 282.294 146.961,284.038 147.983,285.311 148.725 C 286.584 149.468,287.850 150.265,288.125 150.498 C 288.400 150.730,289.469 151.454,290.500 152.107 C 291.531 152.760,293.050 153.792,293.875 154.401 C 294.700 155.009,295.769 155.783,296.250 156.120 C 299.282 158.244,305.992 163.740,308.145 165.862 C 308.431 166.144,308.881 166.552,309.145 166.769 C 311.437 168.648,320.611 177.831,322.654 180.289 C 326.375 184.770,326.281 194.617,322.473 199.237 C 322.075 199.719,321.750 200.192,321.750 200.288 C 321.750 200.599,318.260 203.750,317.915 203.750 C 317.837 203.750,317.197 204.089,316.495 204.503 C 311.719 207.319,301.891 206.359,298.632 202.758 C 298.379 202.478,298.080 202.250,297.967 202.250 C 297.854 202.250,295.474 199.972,292.679 197.188 C 287.724 192.252,286.740 191.324,283.992 189.000 C 283.261 188.381,282.396 187.622,282.070 187.313 C 281.744 187.003,281.398 186.749,281.301 186.749 C 281.204 186.748,280.703 186.383,280.186 185.936 C 278.562 184.533,277.562 183.750,277.393 183.750 C 277.303 183.750,276.981 183.513,276.677 183.223 C 276.373 182.933,275.684 182.413,275.145 182.068 C 274.605 181.722,274.043 181.340,273.895 181.219 C 273.305 180.737,271.103 179.237,270.750 179.077 C 270.396 178.917,268.179 177.489,266.698 176.467 C 266.325 176.210,265.930 176.000,265.819 176.000 C 265.709 176.000,265.041 175.611,264.336 175.137 C 263.631 174.662,262.760 174.199,262.400 174.109 C 262.040 174.019,261.688 173.852,261.618 173.739 C 261.484 173.521,253.877 169.752,253.561 169.747 C 253.459 169.745,252.712 169.408,251.902 168.997 C 251.092 168.586,250.298 168.250,250.137 168.250 C 249.976 168.250,249.378 168.025,248.809 167.750 C 247.739 167.233,244.221 165.958,242.250 165.373 C 241.631 165.189,240.141 164.692,238.938 164.269 C 237.735 163.846,236.573 163.500,236.356 163.500 C 236.139 163.500,234.761 163.169,233.293 162.764 C 229.787 161.798,224.188 160.614,221.375 160.244 C 220.137 160.081,217.550 159.737,215.625 159.479 C 211.087 158.872,194.662 158.803,189.875 159.372 C 180.496 160.486,172.109 162.187,165.125 164.391 C 163.613 164.868,162.201 165.257,161.988 165.254 C 161.774 165.252,161.493 165.352,161.363 165.477 C 161.232 165.601,160.081 166.050,158.805 166.474 C 157.529 166.898,156.018 167.471,155.446 167.748 C 154.874 168.024,154.319 168.250,154.213 168.250 C 153.714 168.250,142.580 173.668,142.365 174.015 C 142.286 174.144,142.057 174.250,141.858 174.250 C 141.658 174.250,140.935 174.644,140.250 175.125 C 139.565 175.606,138.895 176.000,138.760 176.000 C 138.534 176.000,137.927 176.379,135.084 178.298 C 134.512 178.684,133.971 179.000,133.882 179.000 C 133.793 179.000,133.192 179.390,132.548 179.867 C 131.903 180.344,130.914 181.075,130.351 181.492 C 129.787 181.909,129.206 182.250,129.059 182.250 C 128.912 182.250,128.754 182.341,128.708 182.453 C 128.626 182.655,126.260 184.499,125.078 185.282 C 124.741 185.506,124.297 185.928,124.093 186.220 C 123.889 186.511,123.601 186.750,123.453 186.750 C 123.197 186.750,118.767 190.571,115.641 193.490 C 114.053 194.971,109.220 199.790,105.765 203.335 C 104.604 204.526,103.589 205.500,103.508 205.500 C 103.427 205.500,102.992 205.838,102.540 206.250 C 102.089 206.662,101.557 207.000,101.360 207.000 C 101.162 207.000,101.000 207.087,101.000 207.193 C 101.000 207.786,96.794 209.364,94.284 209.712 C 91.336 210.120,86.282 209.073,84.118 207.604 C 83.628 207.272,83.115 207.000,82.978 207.000 C 82.203 207.000,78.560 202.779,77.523 200.679 C 75.087 195.748,74.966 189.221,77.246 185.841 C 77.661 185.227,78.000 184.656,78.000 184.572 C 78.000 184.417,80.573 181.435,81.746 180.229 C 84.969 176.917,92.617 169.317,93.926 168.125 C 94.833 167.300,95.884 166.316,96.262 165.938 C 96.641 165.559,97.038 165.250,97.145 165.250 C 97.252 165.250,97.703 164.884,98.147 164.438 C 99.099 163.480,99.264 163.339,101.875 161.236 C 102.975 160.350,103.965 159.484,104.075 159.313 C 104.185 159.141,104.415 159.000,104.585 159.000 C 104.756 159.000,105.301 158.634,105.797 158.188 C 106.293 157.741,107.111 157.094,107.616 156.750 C 108.120 156.406,109.065 155.731,109.716 155.250 C 110.367 154.769,111.077 154.262,111.296 154.125 C 111.514 153.988,112.465 153.339,113.409 152.684 C 114.353 152.029,115.856 151.025,116.750 150.454 C 117.644 149.882,118.775 149.153,119.263 148.832 C 119.752 148.512,120.225 148.250,120.313 148.250 C 120.402 148.250,121.006 147.892,121.655 147.454 C 122.304 147.016,123.800 146.157,124.980 145.545 C 126.160 144.934,127.294 144.302,127.500 144.141 C 127.706 143.980,129.563 143.033,131.625 142.037 C 133.688 141.041,135.804 139.999,136.329 139.721 C 136.853 139.443,137.697 139.069,138.204 138.888 C 138.710 138.708,139.744 138.278,140.500 137.934 C 141.256 137.589,142.775 136.963,143.875 136.541 C 144.975 136.120,146.761 135.432,147.843 135.013 C 148.926 134.593,149.938 134.251,150.093 134.253 C 150.248 134.254,151.444 133.872,152.750 133.404 C 155.698 132.347,158.561 131.474,159.875 131.231 C 160.425 131.129,162.113 130.704,163.625 130.286 C 166.876 129.387,172.462 128.126,174.750 127.774 C 175.644 127.637,177.613 127.306,179.125 127.040 C 180.637 126.773,183.675 126.363,185.875 126.129 C 188.075 125.895,190.044 125.664,190.250 125.616 C 191.314 125.367,208.758 125.736,213.500 126.108 M214.125 186.706 C 220.482 187.287,230.488 189.699,236.759 192.162 C 237.933 192.623,238.976 193.000,239.077 193.000 C 239.178 193.000,239.961 193.330,240.818 193.733 C 241.674 194.136,243.331 194.886,244.500 195.399 C 245.669 195.912,247.726 196.932,249.071 197.666 C 250.417 198.400,251.570 199.000,251.633 199.000 C 251.697 199.000,252.297 199.394,252.967 199.875 C 253.637 200.356,254.288 200.750,254.414 200.750 C 254.541 200.750,255.033 201.083,255.509 201.490 C 255.985 201.897,256.458 202.234,256.560 202.240 C 256.779 202.252,259.682 204.436,260.311 205.063 C 260.552 205.303,260.834 205.502,260.938 205.504 C 261.041 205.505,261.758 206.096,262.532 206.816 C 263.305 207.536,264.764 208.856,265.774 209.750 C 268.903 212.519,279.250 222.800,280.381 224.265 C 284.502 229.596,283.970 240.256,279.321 245.500 C 279.139 245.706,278.758 246.184,278.476 246.563 C 278.194 246.941,277.809 247.250,277.619 247.250 C 277.430 247.250,277.181 247.418,277.066 247.623 C 276.855 248.000,273.581 250.250,273.244 250.250 C 273.144 250.250,272.415 250.536,271.623 250.886 C 266.732 253.050,258.002 252.152,255.342 249.213 C 255.111 248.958,254.820 248.750,254.695 248.750 C 254.570 248.750,254.166 248.473,253.797 248.135 C 253.427 247.797,252.396 246.869,251.506 246.073 C 250.615 245.276,248.920 243.725,247.739 242.625 C 244.066 239.205,242.344 237.648,241.514 237.000 C 241.075 236.656,240.472 236.150,240.175 235.875 C 239.878 235.600,238.901 234.847,238.005 234.201 C 237.108 233.555,236.077 232.796,235.713 232.515 C 235.348 232.234,234.842 231.927,234.588 231.833 C 234.333 231.739,233.787 231.412,233.375 231.106 C 232.642 230.563,230.371 229.277,228.875 228.558 C 220.761 224.660,214.136 223.013,205.742 222.806 C 196.614 222.581,187.213 224.379,179.875 227.752 C 176.405 229.347,176.010 229.555,173.816 230.930 C 173.097 231.381,172.438 231.750,172.352 231.750 C 172.267 231.750,171.771 232.088,171.250 232.500 C 170.729 232.912,170.198 233.250,170.070 233.250 C 169.942 233.250,169.581 233.522,169.269 233.855 C 168.956 234.188,168.374 234.595,167.975 234.760 C 167.576 234.925,167.250 235.146,167.250 235.250 C 167.250 235.355,166.653 235.891,165.923 236.442 C 163.745 238.086,160.732 240.934,156.329 245.509 C 154.376 247.539,153.937 247.949,151.500 250.009 C 146.901 253.899,144.602 254.896,139.625 255.163 C 135.549 255.382,130.447 253.987,128.844 252.216 C 128.612 251.960,128.299 251.748,128.149 251.746 C 127.338 251.733,122.500 245.957,122.500 245.001 C 122.500 244.886,122.209 244.211,121.852 243.502 C 119.719 239.255,120.347 232.082,123.240 227.652 C 123.589 227.116,123.990 226.498,124.131 226.277 C 124.829 225.180,135.211 214.465,137.814 212.155 C 141.423 208.951,143.749 207.000,143.959 207.000 C 144.096 207.000,144.246 206.898,144.292 206.774 C 144.402 206.476,147.946 203.750,148.223 203.750 C 148.342 203.750,148.585 203.574,148.764 203.358 C 149.108 202.944,152.401 200.750,152.679 200.750 C 152.769 200.750,153.075 200.533,153.359 200.269 C 153.643 200.004,154.438 199.490,155.125 199.127 C 155.813 198.764,156.713 198.286,157.125 198.066 C 159.404 196.846,160.256 196.427,165.692 193.858 C 166.691 193.386,167.679 193.000,167.887 193.000 C 168.096 193.000,168.823 192.718,169.504 192.373 C 170.185 192.028,171.334 191.586,172.058 191.391 C 172.782 191.196,174.050 190.807,174.875 190.527 C 177.315 189.698,182.501 188.329,184.250 188.053 C 185.144 187.911,187.225 187.561,188.875 187.274 C 194.448 186.305,206.715 186.029,214.125 186.706 M207.750 255.984 C 211.867 256.955,216.173 259.002,219.201 261.429 C 220.921 262.808,224.494 266.510,224.498 266.917 C 224.499 267.077,224.584 267.246,224.688 267.292 C 225.611 267.702,228.813 274.328,229.255 276.743 C 230.217 281.997,230.294 282.732,230.171 285.500 C 229.912 291.345,227.710 297.926,224.893 301.274 C 224.540 301.694,224.250 302.127,224.250 302.236 C 224.250 302.576,219.503 307.215,218.988 307.379 C 218.720 307.464,218.500 307.631,218.500 307.750 C 218.500 308.062,214.642 310.339,212.875 311.070 C 206.047 313.895,200.072 314.219,192.500 312.172 C 190.101 311.523,186.005 309.642,186.002 309.188 C 186.001 309.084,185.847 309.000,185.659 309.000 C 184.533 309.000,176.750 301.454,176.750 300.363 C 176.750 300.290,176.356 299.646,175.875 298.931 C 175.394 298.216,175.000 297.511,175.000 297.363 C 175.000 297.215,174.734 296.538,174.409 295.859 C 172.486 291.839,171.491 283.426,172.445 279.250 C 173.335 275.358,174.827 271.330,176.025 269.589 C 176.424 269.009,176.750 268.443,176.751 268.330 C 176.751 268.217,177.088 267.731,177.500 267.250 C 177.912 266.769,178.249 266.302,178.249 266.213 C 178.250 265.982,181.730 262.484,182.625 261.814 C 183.037 261.505,183.881 260.859,184.500 260.379 C 185.119 259.898,185.712 259.504,185.817 259.502 C 185.923 259.501,186.435 259.231,186.955 258.903 C 187.475 258.575,188.795 257.944,189.888 257.502 C 195.352 255.288,202.294 254.698,207.750 255.984 " stroke="none" fill="#fbdb3b" fill-rule="evenodd"></path></g></svg>