<svg id="svg" xmlns="http://www.w3.org/2000/svg" xmlns:xlink="http://www.w3.org/1999/xlink" width="400" height="399.22330097087377" viewBox="0, 0, 400,399.22330097087377" version="1.1"><g id="svgg"><path id="path0" d="M189.211 53.993 C 171.925 56.124,157.822 61.237,143.996 70.385 C 141.106 72.297,138.319 74.221,137.802 74.660 C 137.286 75.098,136.054 76.121,135.065 76.933 C 115.505 92.990,103.012 115.656,99.061 142.258 C 98.398 146.717,98.378 162.358,99.030 166.034 C 100.951 176.867,104.194 188.188,108.331 198.501 C 108.763 199.580,109.359 201.070,109.849 202.298 C 114.559 214.097,133.729 252.757,137.045 257.143 C 137.211 257.363,137.886 258.531,138.545 259.740 C 139.895 262.219,139.964 262.338,145.055 271.129 C 150.024 279.709,154.630 287.330,161.781 298.801 C 162.911 300.614,164.701 303.492,165.758 305.195 C 166.816 306.898,169.693 311.365,172.152 315.122 L 176.624 321.952 176.365 325.593 C 174.410 353.138,213.741 357.708,218.604 330.501 C 220.691 318.822,210.415 306.494,198.594 306.494 C 195.842 306.494,195.614 306.316,192.926 302.098 C 189.826 297.232,183.212 286.827,180.988 283.317 C 179.241 280.560,168.183 262.179,166.324 258.941 C 158.664 245.602,153.047 235.530,153.047 235.133 C 153.047 235.058,155.519 233.313,158.541 231.253 C 161.563 229.193,168.862 224.196,174.760 220.148 C 187.726 211.248,185.590 212.711,195.274 206.101 C 199.696 203.083,203.777 200.063,204.344 199.389 C 211.161 191.288,205.574 179.265,195.005 179.290 C 190.775 179.301,189.669 179.938,169.630 193.913 C 167.872 195.140,163.646 198.031,160.240 200.338 C 152.844 205.348,147.758 208.844,144.329 211.276 C 141.845 213.037,140.759 213.056,140.672 211.339 C 140.665 211.201,139.694 209.043,138.514 206.543 C 133.655 196.251,129.213 185.018,126.681 176.623 C 126.184 174.975,125.627 173.177,125.442 172.627 C 125.085 171.562,123.998 166.535,123.412 163.237 C 120.318 145.825,127.077 122.761,139.982 106.693 C 148.926 95.558,164.983 84.578,176.823 81.502 C 177.483 81.331,179.388 80.819,181.058 80.366 C 203.641 74.233,231.135 80.412,248.951 95.626 C 266.856 110.915,275.885 129.543,277.266 154.046 C 277.484 157.927,277.713 159.184,278.463 160.639 C 283.285 169.990,296.678 169.540,300.732 159.891 C 302.534 155.604,300.920 138.449,297.650 127.128 C 287.796 93.013,262.521 67.927,227.173 57.178 C 217.231 54.155,199.779 52.691,189.211 53.993 " stroke="none" fill="#fada2b" fill-rule="evenodd"></path></g></svg>