<?xml version="1.0" ?><svg viewBox="0 0 96 96" xmlns="http://www.w3.org/2000/svg"><title/><g data-name="Layer 2" id="Layer_2"><g data-name="Layer 2" id="Layer_2-2"><path d="M48,0A48,48,0,1,0,96,48,48,48,0,0,0,48,0ZM76,62.63c-.3,1.92-3.48,1.56-6.28,1.64a18.46,18.46,0,0,1-6.25-.55c-1.89-.74-6.91-7.35-8.2-7.1-2.93.6-1.87,6.69-2.71,7.1-1.29.6-5.29.44-6.86.27-8.23-1.37-13-6.85-17.44-13.93-5.51-8.61-8.77-15-7.37-15.85s5.75-.63,10.06-.55c1.32.05,5,9.4,6,11,3.89,6.22,5.1,1.62,5.18,1.07C43.29,34.5,40.54,35,38.93,34.77c1.18-3.62,9.57-3,9.57-3a16.34,16.34,0,0,1,3.81,1.4c.41.25.88,1.18.85,4.06C53,41.65,52.55,47.6,54.5,47.6c1.48.06,3.81-3.45,5.73-7.07,1.67-3.21,3-6.33,3.54-6.55a38.21,38.21,0,0,1,6-.3c2.63,0,5.29,0,6,.55,1.4,1.21-1.07,5-3.32,8.23-1.81,2.63-5.37,6.06-5.15,7.92C67.58,52.95,76.74,58.43,76,62.63Z"/></g></g></svg>